M48
; DRILL file {KiCad (5.1.9)-1} date 04/13/21 08:49:00
; FORMAT={-:-/ absolute / inch / decimal}
; #@! TF.CreationDate,2021-04-13T08:49:00-07:00
; #@! TF.GenerationSoftware,Kicad,Pcbnew,(5.1.9)-1
FMAT,2
INCH
T1C0.0157
T2C0.0276
T3C0.0315
T4C0.0394
T5C0.0433
T6C0.0984
T7C0.1260
%
G90
G05
T1
X2.85Y-5.3785
X2.925Y-5.35
X3.05Y-5.0987
X3.075Y-5.325
X3.2013Y-5.35
X3.225Y-5.9
X3.35Y-6.05
X3.425Y-5.575
X3.45Y-5.7215
X4.2Y-6.2
X4.65Y-6.075
X4.7Y-6.05
X4.725Y-5.4535
X4.75Y-5.3965
X4.875Y-5.4
T2
X2.35Y-5.025
X2.55Y-5.025
X2.65Y-5.025
X2.85Y-5.025
X2.95Y-5.025
X3.15Y-5.025
X3.475Y-5.075
X3.475Y-5.275
X4.025Y-5.075
X4.025Y-5.275
X4.15Y-5.775
X4.15Y-5.975
X4.25Y-5.775
X4.25Y-5.975
X4.35Y-5.775
X4.35Y-5.975
X4.475Y-5.775
X4.475Y-5.975
X4.575Y-5.075
X4.575Y-5.275
X4.575Y-5.775
X4.575Y-5.975
X4.675Y-5.775
X4.675Y-5.975
X4.8Y-5.775
X4.8Y-5.975
X4.9Y-5.775
X4.9Y-5.975
X5.0Y-5.775
X5.0Y-5.975
T3
X3.55Y-5.4281
X3.55Y-5.625
X3.6Y-5.025
X3.6Y-5.325
X3.65Y-4.9
X3.7Y-5.025
X3.7Y-5.325
X3.725Y-5.4281
X3.725Y-5.625
X3.8Y-5.025
X3.8Y-5.325
X3.8469Y-4.9
X3.9Y-5.025
X3.9Y-5.325
X3.9Y-5.4281
X3.9Y-5.625
X4.075Y-5.4281
X4.075Y-5.625
X4.15Y-5.025
X4.15Y-5.325
X4.2Y-4.9
X4.25Y-5.025
X4.25Y-5.325
X4.25Y-5.4281
X4.25Y-5.625
X4.35Y-5.025
X4.35Y-5.325
X4.3969Y-4.9
X4.425Y-5.4281
X4.425Y-5.625
X4.45Y-5.025
X4.45Y-5.325
X4.625Y-5.4281
X4.625Y-5.625
X4.7Y-5.025
X4.7Y-5.325
X4.75Y-4.9
X4.8Y-5.025
X4.8Y-5.325
X4.8Y-5.425
X4.8Y-5.6219
X4.9Y-5.025
X4.9Y-5.325
X4.9469Y-4.9
X4.975Y-5.425
X4.975Y-5.6219
X5.0Y-5.025
X5.0Y-5.325
T4
X2.325Y-5.225
X2.325Y-5.325
X2.325Y-5.425
X2.325Y-5.525
X2.325Y-5.625
X2.325Y-5.8
X2.325Y-5.9
X2.325Y-6.0
X2.325Y-6.1
X2.4Y-4.9
X2.5Y-4.9
X2.7Y-4.9
X2.8Y-4.9
X3.0Y-4.9
X3.1Y-4.9
X3.3Y-5.575
X3.3Y-5.675
X3.3018Y-5.29
X3.3018Y-5.39
X3.625Y-6.2
X3.6795Y-6.3118
X3.725Y-5.975
X3.7341Y-6.2
X3.7886Y-6.3118
X3.825Y-5.975
X3.8431Y-6.2
X3.8976Y-6.3118
X3.925Y-5.975
X3.9522Y-6.2
X4.0067Y-6.3118
X4.025Y-5.975
X4.0612Y-6.2
X4.55Y-6.15
X4.65Y-6.15
X4.75Y-6.15
X4.85Y-6.15
T5
X2.55Y-5.15
X2.55Y-5.25
X2.55Y-5.35
X2.55Y-5.45
X2.55Y-5.55
X2.55Y-5.65
X2.55Y-5.75
X2.55Y-5.85
X2.55Y-5.95
X2.55Y-6.05
X2.55Y-6.15
X2.55Y-6.25
X2.55Y-6.35
X2.55Y-6.45
X2.65Y-5.15
X2.75Y-5.15
X2.85Y-5.15
X2.95Y-5.15
X3.05Y-5.15
X3.15Y-5.15
X3.15Y-5.25
X3.15Y-5.35
X3.15Y-5.45
X3.15Y-5.55
X3.15Y-5.65
X3.15Y-5.75
X3.15Y-5.85
X3.15Y-5.95
X3.15Y-6.05
X3.15Y-6.15
X3.15Y-6.25
X3.15Y-6.35
X3.15Y-6.45
X3.325Y-5.9
X3.425Y-5.9
X3.525Y-5.9
T6
X2.35Y-6.325
X3.35Y-4.925
X4.975Y-6.375
T7
X3.351Y-6.2118
X4.3352Y-6.2118
T0
M30
