%TF.GenerationSoftware,KiCad,Pcbnew,(5.1.9)-1*%
%TF.CreationDate,2021-03-17T20:38:14-07:00*%
%TF.ProjectId,head,68656164-2e6b-4696-9361-645f70636258,rev?*%
%TF.SameCoordinates,Original*%
%TF.FileFunction,Legend,Top*%
%TF.FilePolarity,Positive*%
%FSLAX46Y46*%
G04 Gerber Fmt 4.6, Leading zero omitted, Abs format (unit mm)*
G04 Created by KiCad (PCBNEW (5.1.9)-1) date 2021-03-17 20:38:14*
%MOMM*%
%LPD*%
G01*
G04 APERTURE LIST*
%ADD10C,0.150000*%
%ADD11C,0.120000*%
G04 APERTURE END LIST*
D10*
X118364047Y-71826428D02*
X119125952Y-71826428D01*
X118364047Y-69286428D02*
X119125952Y-69286428D01*
X118745000Y-69667380D02*
X118745000Y-68905476D01*
X87334285Y-56760714D02*
X86584285Y-56760714D01*
X86941428Y-56760714D02*
X86941428Y-56332142D01*
X87334285Y-56332142D02*
X86584285Y-56332142D01*
X86941428Y-55975000D02*
X86941428Y-55725000D01*
X87334285Y-55617857D02*
X87334285Y-55975000D01*
X86584285Y-55975000D01*
X86584285Y-55617857D01*
X87120000Y-55332142D02*
X87120000Y-54975000D01*
X87334285Y-55403571D02*
X86584285Y-55153571D01*
X87334285Y-54903571D01*
X87334285Y-54653571D02*
X86584285Y-54653571D01*
X86584285Y-54475000D01*
X86620000Y-54367857D01*
X86691428Y-54296428D01*
X86762857Y-54260714D01*
X86905714Y-54225000D01*
X87012857Y-54225000D01*
X87155714Y-54260714D01*
X87227142Y-54296428D01*
X87298571Y-54367857D01*
X87334285Y-54475000D01*
X87334285Y-54653571D01*
X86584285Y-53332142D02*
X87191428Y-53332142D01*
X87262857Y-53296428D01*
X87298571Y-53260714D01*
X87334285Y-53189285D01*
X87334285Y-53046428D01*
X87298571Y-52975000D01*
X87262857Y-52939285D01*
X87191428Y-52903571D01*
X86584285Y-52903571D01*
X87334285Y-52546428D02*
X86584285Y-52546428D01*
X87334285Y-52117857D01*
X86584285Y-52117857D01*
X87334285Y-51760714D02*
X86584285Y-51760714D01*
X86584285Y-51510714D02*
X86584285Y-51082142D01*
X87334285Y-51296428D02*
X86584285Y-51296428D01*
X85992857Y-56903571D02*
X86028571Y-56939285D01*
X86064285Y-57046428D01*
X86064285Y-57117857D01*
X86028571Y-57225000D01*
X85957142Y-57296428D01*
X85885714Y-57332142D01*
X85742857Y-57367857D01*
X85635714Y-57367857D01*
X85492857Y-57332142D01*
X85421428Y-57296428D01*
X85350000Y-57225000D01*
X85314285Y-57117857D01*
X85314285Y-57046428D01*
X85350000Y-56939285D01*
X85385714Y-56903571D01*
X85314285Y-56439285D02*
X85314285Y-56296428D01*
X85350000Y-56225000D01*
X85421428Y-56153571D01*
X85564285Y-56117857D01*
X85814285Y-56117857D01*
X85957142Y-56153571D01*
X86028571Y-56225000D01*
X86064285Y-56296428D01*
X86064285Y-56439285D01*
X86028571Y-56510714D01*
X85957142Y-56582142D01*
X85814285Y-56617857D01*
X85564285Y-56617857D01*
X85421428Y-56582142D01*
X85350000Y-56510714D01*
X85314285Y-56439285D01*
X85671428Y-55546428D02*
X85671428Y-55796428D01*
X86064285Y-55796428D02*
X85314285Y-55796428D01*
X85314285Y-55439285D01*
X85671428Y-54903571D02*
X85671428Y-55153571D01*
X86064285Y-55153571D02*
X85314285Y-55153571D01*
X85314285Y-54796428D01*
X85671428Y-54510714D02*
X85671428Y-54260714D01*
X86064285Y-54153571D02*
X86064285Y-54510714D01*
X85314285Y-54510714D01*
X85314285Y-54153571D01*
X85671428Y-53832142D02*
X85671428Y-53582142D01*
X86064285Y-53475000D02*
X86064285Y-53832142D01*
X85314285Y-53832142D01*
X85314285Y-53475000D01*
X85314285Y-53260714D02*
X85314285Y-52832142D01*
X86064285Y-53046428D02*
X85314285Y-53046428D01*
X86064285Y-52153571D02*
X85707142Y-52403571D01*
X86064285Y-52582142D02*
X85314285Y-52582142D01*
X85314285Y-52296428D01*
X85350000Y-52225000D01*
X85385714Y-52189285D01*
X85457142Y-52153571D01*
X85564285Y-52153571D01*
X85635714Y-52189285D01*
X85671428Y-52225000D01*
X85707142Y-52296428D01*
X85707142Y-52582142D01*
X85314285Y-51689285D02*
X85314285Y-51546428D01*
X85350000Y-51475000D01*
X85421428Y-51403571D01*
X85564285Y-51367857D01*
X85814285Y-51367857D01*
X85957142Y-51403571D01*
X86028571Y-51475000D01*
X86064285Y-51546428D01*
X86064285Y-51689285D01*
X86028571Y-51760714D01*
X85957142Y-51832142D01*
X85814285Y-51867857D01*
X85564285Y-51867857D01*
X85421428Y-51832142D01*
X85350000Y-51760714D01*
X85314285Y-51689285D01*
X86064285Y-51046428D02*
X85314285Y-51046428D01*
X86064285Y-50617857D01*
X85314285Y-50617857D01*
X122642380Y-73064285D02*
X122642380Y-72492857D01*
X123642380Y-72778571D02*
X122642380Y-72778571D01*
X123118571Y-72159523D02*
X123118571Y-71826190D01*
X123642380Y-71683333D02*
X123642380Y-72159523D01*
X122642380Y-72159523D01*
X122642380Y-71683333D01*
X123642380Y-71254761D02*
X122642380Y-71254761D01*
X123356666Y-70921428D01*
X122642380Y-70588095D01*
X123642380Y-70588095D01*
X123642380Y-70111904D02*
X122642380Y-70111904D01*
X122642380Y-69730952D01*
X122690000Y-69635714D01*
X122737619Y-69588095D01*
X122832857Y-69540476D01*
X122975714Y-69540476D01*
X123070952Y-69588095D01*
X123118571Y-69635714D01*
X123166190Y-69730952D01*
X123166190Y-70111904D01*
X123737619Y-69350000D02*
X123737619Y-68588095D01*
X122642380Y-68159523D02*
X122642380Y-67969047D01*
X122690000Y-67873809D01*
X122785238Y-67778571D01*
X122975714Y-67730952D01*
X123309047Y-67730952D01*
X123499523Y-67778571D01*
X123594761Y-67873809D01*
X123642380Y-67969047D01*
X123642380Y-68159523D01*
X123594761Y-68254761D01*
X123499523Y-68350000D01*
X123309047Y-68397619D01*
X122975714Y-68397619D01*
X122785238Y-68350000D01*
X122690000Y-68254761D01*
X122642380Y-68159523D01*
X123642380Y-67302380D02*
X122642380Y-67302380D01*
X123642380Y-66730952D02*
X123070952Y-67159523D01*
X122642380Y-66730952D02*
X123213809Y-67302380D01*
X123118571Y-63047380D02*
X123166190Y-62904523D01*
X123213809Y-62856904D01*
X123309047Y-62809285D01*
X123451904Y-62809285D01*
X123547142Y-62856904D01*
X123594761Y-62904523D01*
X123642380Y-62999761D01*
X123642380Y-63380714D01*
X122642380Y-63380714D01*
X122642380Y-63047380D01*
X122690000Y-62952142D01*
X122737619Y-62904523D01*
X122832857Y-62856904D01*
X122928095Y-62856904D01*
X123023333Y-62904523D01*
X123070952Y-62952142D01*
X123118571Y-63047380D01*
X123118571Y-63380714D01*
X123642380Y-61809285D02*
X123166190Y-62142619D01*
X123642380Y-62380714D02*
X122642380Y-62380714D01*
X122642380Y-61999761D01*
X122690000Y-61904523D01*
X122737619Y-61856904D01*
X122832857Y-61809285D01*
X122975714Y-61809285D01*
X123070952Y-61856904D01*
X123118571Y-61904523D01*
X123166190Y-61999761D01*
X123166190Y-62380714D01*
X123118571Y-61380714D02*
X123118571Y-61047380D01*
X123642380Y-60904523D02*
X123642380Y-61380714D01*
X122642380Y-61380714D01*
X122642380Y-60904523D01*
X122642380Y-60571190D02*
X123642380Y-60333095D01*
X122928095Y-60142619D01*
X123642380Y-59952142D01*
X122642380Y-59714047D01*
X116609761Y-72437380D02*
X116657380Y-72294523D01*
X116657380Y-72056428D01*
X116609761Y-71961190D01*
X116562142Y-71913571D01*
X116466904Y-71865952D01*
X116371666Y-71865952D01*
X116276428Y-71913571D01*
X116228809Y-71961190D01*
X116181190Y-72056428D01*
X116133571Y-72246904D01*
X116085952Y-72342142D01*
X116038333Y-72389761D01*
X115943095Y-72437380D01*
X115847857Y-72437380D01*
X115752619Y-72389761D01*
X115705000Y-72342142D01*
X115657380Y-72246904D01*
X115657380Y-72008809D01*
X115705000Y-71865952D01*
X115657380Y-71580238D02*
X115657380Y-71008809D01*
X116657380Y-71294523D02*
X115657380Y-71294523D01*
X116371666Y-70723095D02*
X116371666Y-70246904D01*
X116657380Y-70818333D02*
X115657380Y-70485000D01*
X116657380Y-70151666D01*
X115657380Y-69961190D02*
X115657380Y-69389761D01*
X116657380Y-69675476D02*
X115657380Y-69675476D01*
X116609761Y-69104047D02*
X116657380Y-68961190D01*
X116657380Y-68723095D01*
X116609761Y-68627857D01*
X116562142Y-68580238D01*
X116466904Y-68532619D01*
X116371666Y-68532619D01*
X116276428Y-68580238D01*
X116228809Y-68627857D01*
X116181190Y-68723095D01*
X116133571Y-68913571D01*
X116085952Y-69008809D01*
X116038333Y-69056428D01*
X115943095Y-69104047D01*
X115847857Y-69104047D01*
X115752619Y-69056428D01*
X115705000Y-69008809D01*
X115657380Y-68913571D01*
X115657380Y-68675476D01*
X115705000Y-68532619D01*
X116133571Y-63380714D02*
X116133571Y-63714047D01*
X116657380Y-63714047D02*
X115657380Y-63714047D01*
X115657380Y-63237857D01*
X116657380Y-62380714D02*
X116657380Y-62856904D01*
X115657380Y-62856904D01*
X115657380Y-62047380D02*
X116466904Y-62047380D01*
X116562142Y-61999761D01*
X116609761Y-61952142D01*
X116657380Y-61856904D01*
X116657380Y-61666428D01*
X116609761Y-61571190D01*
X116562142Y-61523571D01*
X116466904Y-61475952D01*
X115657380Y-61475952D01*
X116609761Y-61047380D02*
X116657380Y-60904523D01*
X116657380Y-60666428D01*
X116609761Y-60571190D01*
X116562142Y-60523571D01*
X116466904Y-60475952D01*
X116371666Y-60475952D01*
X116276428Y-60523571D01*
X116228809Y-60571190D01*
X116181190Y-60666428D01*
X116133571Y-60856904D01*
X116085952Y-60952142D01*
X116038333Y-60999761D01*
X115943095Y-61047380D01*
X115847857Y-61047380D01*
X115752619Y-60999761D01*
X115705000Y-60952142D01*
X115657380Y-60856904D01*
X115657380Y-60618809D01*
X115705000Y-60475952D01*
X116657380Y-60047380D02*
X115657380Y-60047380D01*
X116133571Y-60047380D02*
X116133571Y-59475952D01*
X116657380Y-59475952D02*
X115657380Y-59475952D01*
X105910000Y-53848095D02*
X105957619Y-53752857D01*
X105957619Y-53610000D01*
X105910000Y-53467142D01*
X105814761Y-53371904D01*
X105719523Y-53324285D01*
X105529047Y-53276666D01*
X105386190Y-53276666D01*
X105195714Y-53324285D01*
X105100476Y-53371904D01*
X105005238Y-53467142D01*
X104957619Y-53610000D01*
X104957619Y-53705238D01*
X105005238Y-53848095D01*
X105052857Y-53895714D01*
X105386190Y-53895714D01*
X105386190Y-53705238D01*
X104957619Y-54324285D02*
X105957619Y-54324285D01*
X104957619Y-54895714D01*
X105957619Y-54895714D01*
X104957619Y-55371904D02*
X105957619Y-55371904D01*
X105957619Y-55610000D01*
X105910000Y-55752857D01*
X105814761Y-55848095D01*
X105719523Y-55895714D01*
X105529047Y-55943333D01*
X105386190Y-55943333D01*
X105195714Y-55895714D01*
X105100476Y-55848095D01*
X105005238Y-55752857D01*
X104957619Y-55610000D01*
X104957619Y-55371904D01*
X107878571Y-53245000D02*
X107878571Y-54006904D01*
X107497619Y-53625952D02*
X108259523Y-53625952D01*
X108497619Y-54387857D02*
X108497619Y-55006904D01*
X108116666Y-54673571D01*
X108116666Y-54816428D01*
X108069047Y-54911666D01*
X108021428Y-54959285D01*
X107926190Y-55006904D01*
X107688095Y-55006904D01*
X107592857Y-54959285D01*
X107545238Y-54911666D01*
X107497619Y-54816428D01*
X107497619Y-54530714D01*
X107545238Y-54435476D01*
X107592857Y-54387857D01*
X107592857Y-55435476D02*
X107545238Y-55483095D01*
X107497619Y-55435476D01*
X107545238Y-55387857D01*
X107592857Y-55435476D01*
X107497619Y-55435476D01*
X108497619Y-55816428D02*
X108497619Y-56435476D01*
X108116666Y-56102142D01*
X108116666Y-56245000D01*
X108069047Y-56340238D01*
X108021428Y-56387857D01*
X107926190Y-56435476D01*
X107688095Y-56435476D01*
X107592857Y-56387857D01*
X107545238Y-56340238D01*
X107497619Y-56245000D01*
X107497619Y-55959285D01*
X107545238Y-55864047D01*
X107592857Y-55816428D01*
X108497619Y-56721190D02*
X107497619Y-57054523D01*
X108497619Y-57387857D01*
X110085238Y-53419523D02*
X110037619Y-53562380D01*
X110037619Y-53800476D01*
X110085238Y-53895714D01*
X110132857Y-53943333D01*
X110228095Y-53990952D01*
X110323333Y-53990952D01*
X110418571Y-53943333D01*
X110466190Y-53895714D01*
X110513809Y-53800476D01*
X110561428Y-53610000D01*
X110609047Y-53514761D01*
X110656666Y-53467142D01*
X110751904Y-53419523D01*
X110847142Y-53419523D01*
X110942380Y-53467142D01*
X110990000Y-53514761D01*
X111037619Y-53610000D01*
X111037619Y-53848095D01*
X110990000Y-53990952D01*
X110132857Y-54990952D02*
X110085238Y-54943333D01*
X110037619Y-54800476D01*
X110037619Y-54705238D01*
X110085238Y-54562380D01*
X110180476Y-54467142D01*
X110275714Y-54419523D01*
X110466190Y-54371904D01*
X110609047Y-54371904D01*
X110799523Y-54419523D01*
X110894761Y-54467142D01*
X110990000Y-54562380D01*
X111037619Y-54705238D01*
X111037619Y-54800476D01*
X110990000Y-54943333D01*
X110942380Y-54990952D01*
X110037619Y-55895714D02*
X110037619Y-55419523D01*
X111037619Y-55419523D01*
X112625238Y-53395714D02*
X112577619Y-53538571D01*
X112577619Y-53776666D01*
X112625238Y-53871904D01*
X112672857Y-53919523D01*
X112768095Y-53967142D01*
X112863333Y-53967142D01*
X112958571Y-53919523D01*
X113006190Y-53871904D01*
X113053809Y-53776666D01*
X113101428Y-53586190D01*
X113149047Y-53490952D01*
X113196666Y-53443333D01*
X113291904Y-53395714D01*
X113387142Y-53395714D01*
X113482380Y-53443333D01*
X113530000Y-53490952D01*
X113577619Y-53586190D01*
X113577619Y-53824285D01*
X113530000Y-53967142D01*
X112577619Y-54395714D02*
X113577619Y-54395714D01*
X113577619Y-54633809D01*
X113530000Y-54776666D01*
X113434761Y-54871904D01*
X113339523Y-54919523D01*
X113149047Y-54967142D01*
X113006190Y-54967142D01*
X112815714Y-54919523D01*
X112720476Y-54871904D01*
X112625238Y-54776666D01*
X112577619Y-54633809D01*
X112577619Y-54395714D01*
X112863333Y-55348095D02*
X112863333Y-55824285D01*
X112577619Y-55252857D02*
X113577619Y-55586190D01*
X112577619Y-55919523D01*
X90670000Y-53848095D02*
X90717619Y-53752857D01*
X90717619Y-53610000D01*
X90670000Y-53467142D01*
X90574761Y-53371904D01*
X90479523Y-53324285D01*
X90289047Y-53276666D01*
X90146190Y-53276666D01*
X89955714Y-53324285D01*
X89860476Y-53371904D01*
X89765238Y-53467142D01*
X89717619Y-53610000D01*
X89717619Y-53705238D01*
X89765238Y-53848095D01*
X89812857Y-53895714D01*
X90146190Y-53895714D01*
X90146190Y-53705238D01*
X89717619Y-54324285D02*
X90717619Y-54324285D01*
X89717619Y-54895714D01*
X90717619Y-54895714D01*
X89717619Y-55371904D02*
X90717619Y-55371904D01*
X90717619Y-55610000D01*
X90670000Y-55752857D01*
X90574761Y-55848095D01*
X90479523Y-55895714D01*
X90289047Y-55943333D01*
X90146190Y-55943333D01*
X89955714Y-55895714D01*
X89860476Y-55848095D01*
X89765238Y-55752857D01*
X89717619Y-55610000D01*
X89717619Y-55371904D01*
X92638571Y-53245000D02*
X92638571Y-54006904D01*
X92257619Y-53625952D02*
X93019523Y-53625952D01*
X93257619Y-54387857D02*
X93257619Y-55006904D01*
X92876666Y-54673571D01*
X92876666Y-54816428D01*
X92829047Y-54911666D01*
X92781428Y-54959285D01*
X92686190Y-55006904D01*
X92448095Y-55006904D01*
X92352857Y-54959285D01*
X92305238Y-54911666D01*
X92257619Y-54816428D01*
X92257619Y-54530714D01*
X92305238Y-54435476D01*
X92352857Y-54387857D01*
X92352857Y-55435476D02*
X92305238Y-55483095D01*
X92257619Y-55435476D01*
X92305238Y-55387857D01*
X92352857Y-55435476D01*
X92257619Y-55435476D01*
X93257619Y-55816428D02*
X93257619Y-56435476D01*
X92876666Y-56102142D01*
X92876666Y-56245000D01*
X92829047Y-56340238D01*
X92781428Y-56387857D01*
X92686190Y-56435476D01*
X92448095Y-56435476D01*
X92352857Y-56387857D01*
X92305238Y-56340238D01*
X92257619Y-56245000D01*
X92257619Y-55959285D01*
X92305238Y-55864047D01*
X92352857Y-55816428D01*
X93257619Y-56721190D02*
X92257619Y-57054523D01*
X93257619Y-57387857D01*
X95321428Y-53776666D02*
X95273809Y-53919523D01*
X95226190Y-53967142D01*
X95130952Y-54014761D01*
X94988095Y-54014761D01*
X94892857Y-53967142D01*
X94845238Y-53919523D01*
X94797619Y-53824285D01*
X94797619Y-53443333D01*
X95797619Y-53443333D01*
X95797619Y-53776666D01*
X95750000Y-53871904D01*
X95702380Y-53919523D01*
X95607142Y-53967142D01*
X95511904Y-53967142D01*
X95416666Y-53919523D01*
X95369047Y-53871904D01*
X95321428Y-53776666D01*
X95321428Y-53443333D01*
X95797619Y-54300476D02*
X95797619Y-54871904D01*
X94797619Y-54586190D02*
X95797619Y-54586190D01*
X94797619Y-55205238D02*
X95797619Y-55205238D01*
X94797619Y-55776666D01*
X95797619Y-55776666D01*
X97337619Y-53110000D02*
X98337619Y-53110000D01*
X98337619Y-53348095D01*
X98290000Y-53490952D01*
X98194761Y-53586190D01*
X98099523Y-53633809D01*
X97909047Y-53681428D01*
X97766190Y-53681428D01*
X97575714Y-53633809D01*
X97480476Y-53586190D01*
X97385238Y-53490952D01*
X97337619Y-53348095D01*
X97337619Y-53110000D01*
X97623333Y-54062380D02*
X97623333Y-54538571D01*
X97337619Y-53967142D02*
X98337619Y-54300476D01*
X97337619Y-54633809D01*
X98337619Y-54824285D02*
X98337619Y-55395714D01*
X97337619Y-55110000D02*
X98337619Y-55110000D01*
X97623333Y-55681428D02*
X97623333Y-56157619D01*
X97337619Y-55586190D02*
X98337619Y-55919523D01*
X97337619Y-56252857D01*
X99972857Y-54014761D02*
X99925238Y-53967142D01*
X99877619Y-53824285D01*
X99877619Y-53729047D01*
X99925238Y-53586190D01*
X100020476Y-53490952D01*
X100115714Y-53443333D01*
X100306190Y-53395714D01*
X100449047Y-53395714D01*
X100639523Y-53443333D01*
X100734761Y-53490952D01*
X100830000Y-53586190D01*
X100877619Y-53729047D01*
X100877619Y-53824285D01*
X100830000Y-53967142D01*
X100782380Y-54014761D01*
X99877619Y-54919523D02*
X99877619Y-54443333D01*
X100877619Y-54443333D01*
X99877619Y-55252857D02*
X100877619Y-55252857D01*
X99877619Y-55824285D02*
X100449047Y-55395714D01*
X100877619Y-55824285D02*
X100306190Y-55252857D01*
%TO.C,U1*%
X75565000Y-58420000D02*
X75565000Y-76200000D01*
X75565000Y-76200000D02*
X111125000Y-76200000D01*
X111125000Y-76200000D02*
X111125000Y-58420000D01*
X111125000Y-58420000D02*
X75565000Y-58420000D01*
X75565000Y-63500000D02*
X74295000Y-63500000D01*
X74295000Y-63500000D02*
X74295000Y-71120000D01*
X74295000Y-71120000D02*
X75565000Y-71120000D01*
D11*
%TO.C,J7*%
X112285000Y-74475000D02*
X124685000Y-74475000D01*
X124685000Y-74475000D02*
X124685000Y-79945000D01*
X124685000Y-87875000D02*
X124685000Y-83405000D01*
X124685000Y-87875000D02*
X112285000Y-87875000D01*
X112285000Y-87875000D02*
X112285000Y-83405000D01*
X112285000Y-79945000D02*
X112285000Y-74475000D01*
X125295000Y-79875000D02*
X124795000Y-79375000D01*
X124795000Y-79375000D02*
X125295000Y-78875000D01*
X125295000Y-78875000D02*
X125295000Y-79875000D01*
%TO.C,R1*%
X104790000Y-56230000D02*
X100950000Y-56230000D01*
X104790000Y-58070000D02*
X100950000Y-58070000D01*
%TO.C,J6*%
X114360000Y-50105000D02*
X114360000Y-51435000D01*
X113030000Y-50105000D02*
X114360000Y-50105000D01*
X111760000Y-50105000D02*
X111760000Y-52765000D01*
X111760000Y-52765000D02*
X104080000Y-52765000D01*
X111760000Y-50105000D02*
X104080000Y-50105000D01*
X104080000Y-50105000D02*
X104080000Y-52765000D01*
%TO.C,J8*%
X101660000Y-50105000D02*
X101660000Y-51435000D01*
X100330000Y-50105000D02*
X101660000Y-50105000D01*
X99060000Y-50105000D02*
X99060000Y-52765000D01*
X99060000Y-52765000D02*
X88840000Y-52765000D01*
X99060000Y-50105000D02*
X88840000Y-50105000D01*
X88840000Y-50105000D02*
X88840000Y-52765000D01*
%TO.C,J5*%
X119320000Y-67885000D02*
X120650000Y-67885000D01*
X119320000Y-69215000D02*
X119320000Y-67885000D01*
X119320000Y-70485000D02*
X121980000Y-70485000D01*
X121980000Y-70485000D02*
X121980000Y-73085000D01*
X119320000Y-70485000D02*
X119320000Y-73085000D01*
X119320000Y-73085000D02*
X121980000Y-73085000D01*
%TO.C,J4*%
X119320000Y-58995000D02*
X120650000Y-58995000D01*
X119320000Y-60325000D02*
X119320000Y-58995000D01*
X119320000Y-61595000D02*
X121980000Y-61595000D01*
X121980000Y-61595000D02*
X121980000Y-64195000D01*
X119320000Y-61595000D02*
X119320000Y-64195000D01*
X119320000Y-64195000D02*
X121980000Y-64195000D01*
%TO.C,J3*%
X112335000Y-58995000D02*
X113665000Y-58995000D01*
X112335000Y-60325000D02*
X112335000Y-58995000D01*
X112335000Y-61595000D02*
X114995000Y-61595000D01*
X114995000Y-61595000D02*
X114995000Y-64195000D01*
X112335000Y-61595000D02*
X112335000Y-64195000D01*
X112335000Y-64195000D02*
X114995000Y-64195000D01*
%TO.C,J2*%
X112335000Y-67885000D02*
X113665000Y-67885000D01*
X112335000Y-69215000D02*
X112335000Y-67885000D01*
X112335000Y-70485000D02*
X114995000Y-70485000D01*
X114995000Y-70485000D02*
X114995000Y-73085000D01*
X112335000Y-70485000D02*
X112335000Y-73085000D01*
X112335000Y-73085000D02*
X114995000Y-73085000D01*
%TO.C,J1*%
X88265000Y-76788675D02*
X88015000Y-76355662D01*
X88515000Y-76355662D02*
X88265000Y-76788675D01*
X88015000Y-76355662D02*
X88515000Y-76355662D01*
X109290000Y-77250000D02*
X109290000Y-87730000D01*
X78320000Y-77250000D02*
X109290000Y-77250000D01*
X78320000Y-87730000D02*
X78320000Y-77250000D01*
%TO.C,U1*%
D10*
X90043095Y-56602380D02*
X90043095Y-57411904D01*
X90090714Y-57507142D01*
X90138333Y-57554761D01*
X90233571Y-57602380D01*
X90424047Y-57602380D01*
X90519285Y-57554761D01*
X90566904Y-57507142D01*
X90614523Y-57411904D01*
X90614523Y-56602380D01*
X91614523Y-57602380D02*
X91043095Y-57602380D01*
X91328809Y-57602380D02*
X91328809Y-56602380D01*
X91233571Y-56745238D01*
X91138333Y-56840476D01*
X91043095Y-56888095D01*
%TO.C,J7*%
X117141666Y-73112380D02*
X117141666Y-73826666D01*
X117094047Y-73969523D01*
X116998809Y-74064761D01*
X116855952Y-74112380D01*
X116760714Y-74112380D01*
X117522619Y-73112380D02*
X118189285Y-73112380D01*
X117760714Y-74112380D01*
%TO.C,R1*%
X102703333Y-55697380D02*
X102370000Y-55221190D01*
X102131904Y-55697380D02*
X102131904Y-54697380D01*
X102512857Y-54697380D01*
X102608095Y-54745000D01*
X102655714Y-54792619D01*
X102703333Y-54887857D01*
X102703333Y-55030714D01*
X102655714Y-55125952D01*
X102608095Y-55173571D01*
X102512857Y-55221190D01*
X102131904Y-55221190D01*
X103655714Y-55697380D02*
X103084285Y-55697380D01*
X103370000Y-55697380D02*
X103370000Y-54697380D01*
X103274761Y-54840238D01*
X103179523Y-54935476D01*
X103084285Y-54983095D01*
%TO.C,J6*%
X114812380Y-51768333D02*
X115526666Y-51768333D01*
X115669523Y-51815952D01*
X115764761Y-51911190D01*
X115812380Y-52054047D01*
X115812380Y-52149285D01*
X114812380Y-50863571D02*
X114812380Y-51054047D01*
X114860000Y-51149285D01*
X114907619Y-51196904D01*
X115050476Y-51292142D01*
X115240952Y-51339761D01*
X115621904Y-51339761D01*
X115717142Y-51292142D01*
X115764761Y-51244523D01*
X115812380Y-51149285D01*
X115812380Y-50958809D01*
X115764761Y-50863571D01*
X115717142Y-50815952D01*
X115621904Y-50768333D01*
X115383809Y-50768333D01*
X115288571Y-50815952D01*
X115240952Y-50863571D01*
X115193333Y-50958809D01*
X115193333Y-51149285D01*
X115240952Y-51244523D01*
X115288571Y-51292142D01*
X115383809Y-51339761D01*
%TO.C,J8*%
X102112380Y-51768333D02*
X102826666Y-51768333D01*
X102969523Y-51815952D01*
X103064761Y-51911190D01*
X103112380Y-52054047D01*
X103112380Y-52149285D01*
X102540952Y-51149285D02*
X102493333Y-51244523D01*
X102445714Y-51292142D01*
X102350476Y-51339761D01*
X102302857Y-51339761D01*
X102207619Y-51292142D01*
X102160000Y-51244523D01*
X102112380Y-51149285D01*
X102112380Y-50958809D01*
X102160000Y-50863571D01*
X102207619Y-50815952D01*
X102302857Y-50768333D01*
X102350476Y-50768333D01*
X102445714Y-50815952D01*
X102493333Y-50863571D01*
X102540952Y-50958809D01*
X102540952Y-51149285D01*
X102588571Y-51244523D01*
X102636190Y-51292142D01*
X102731428Y-51339761D01*
X102921904Y-51339761D01*
X103017142Y-51292142D01*
X103064761Y-51244523D01*
X103112380Y-51149285D01*
X103112380Y-50958809D01*
X103064761Y-50863571D01*
X103017142Y-50815952D01*
X102921904Y-50768333D01*
X102731428Y-50768333D01*
X102636190Y-50815952D01*
X102588571Y-50863571D01*
X102540952Y-50958809D01*
%TO.C,J5*%
X120316666Y-66337380D02*
X120316666Y-67051666D01*
X120269047Y-67194523D01*
X120173809Y-67289761D01*
X120030952Y-67337380D01*
X119935714Y-67337380D01*
X121269047Y-66337380D02*
X120792857Y-66337380D01*
X120745238Y-66813571D01*
X120792857Y-66765952D01*
X120888095Y-66718333D01*
X121126190Y-66718333D01*
X121221428Y-66765952D01*
X121269047Y-66813571D01*
X121316666Y-66908809D01*
X121316666Y-67146904D01*
X121269047Y-67242142D01*
X121221428Y-67289761D01*
X121126190Y-67337380D01*
X120888095Y-67337380D01*
X120792857Y-67289761D01*
X120745238Y-67242142D01*
%TO.C,J4*%
X120316666Y-57447380D02*
X120316666Y-58161666D01*
X120269047Y-58304523D01*
X120173809Y-58399761D01*
X120030952Y-58447380D01*
X119935714Y-58447380D01*
X121221428Y-57780714D02*
X121221428Y-58447380D01*
X120983333Y-57399761D02*
X120745238Y-58114047D01*
X121364285Y-58114047D01*
%TO.C,J3*%
X113331666Y-57447380D02*
X113331666Y-58161666D01*
X113284047Y-58304523D01*
X113188809Y-58399761D01*
X113045952Y-58447380D01*
X112950714Y-58447380D01*
X113712619Y-57447380D02*
X114331666Y-57447380D01*
X113998333Y-57828333D01*
X114141190Y-57828333D01*
X114236428Y-57875952D01*
X114284047Y-57923571D01*
X114331666Y-58018809D01*
X114331666Y-58256904D01*
X114284047Y-58352142D01*
X114236428Y-58399761D01*
X114141190Y-58447380D01*
X113855476Y-58447380D01*
X113760238Y-58399761D01*
X113712619Y-58352142D01*
%TO.C,J2*%
X113331666Y-66337380D02*
X113331666Y-67051666D01*
X113284047Y-67194523D01*
X113188809Y-67289761D01*
X113045952Y-67337380D01*
X112950714Y-67337380D01*
X113760238Y-66432619D02*
X113807857Y-66385000D01*
X113903095Y-66337380D01*
X114141190Y-66337380D01*
X114236428Y-66385000D01*
X114284047Y-66432619D01*
X114331666Y-66527857D01*
X114331666Y-66623095D01*
X114284047Y-66765952D01*
X113712619Y-67337380D01*
X114331666Y-67337380D01*
%TO.C,J1*%
X93471666Y-75762380D02*
X93471666Y-76476666D01*
X93424047Y-76619523D01*
X93328809Y-76714761D01*
X93185952Y-76762380D01*
X93090714Y-76762380D01*
X94471666Y-76762380D02*
X93900238Y-76762380D01*
X94185952Y-76762380D02*
X94185952Y-75762380D01*
X94090714Y-75905238D01*
X93995476Y-76000476D01*
X93900238Y-76048095D01*
%TD*%
M02*
