%TF.GenerationSoftware,KiCad,Pcbnew,(5.1.9)-1*%
%TF.CreationDate,2021-04-06T22:00:47-07:00*%
%TF.ProjectId,head,68656164-2e6b-4696-9361-645f70636258,rev?*%
%TF.SameCoordinates,Original*%
%TF.FileFunction,Soldermask,Top*%
%TF.FilePolarity,Negative*%
%FSLAX46Y46*%
G04 Gerber Fmt 4.6, Leading zero omitted, Abs format (unit mm)*
G04 Created by KiCad (PCBNEW (5.1.9)-1) date 2021-04-06 22:00:47*
%MOMM*%
%LPD*%
G01*
G04 APERTURE LIST*
%ADD10O,1.400000X1.400000*%
%ADD11C,1.400000*%
%ADD12C,1.600000*%
%ADD13R,1.600000X1.600000*%
%ADD14C,5.000000*%
%ADD15C,1.404000*%
%ADD16O,1.700000X1.700000*%
%ADD17R,1.700000X1.700000*%
%ADD18O,1.600000X1.600000*%
%ADD19O,1.905000X2.000000*%
%ADD20R,1.905000X2.000000*%
%ADD21O,2.000000X2.000000*%
%ADD22C,2.000000*%
%ADD23C,4.000000*%
%ADD24O,2.200000X2.200000*%
%ADD25R,2.200000X2.200000*%
G04 APERTURE END LIST*
D10*
%TO.C,R10*%
X116840000Y-146050000D03*
D11*
X116840000Y-151130000D03*
%TD*%
D12*
%TO.C,C3*%
X85090000Y-140240000D03*
D13*
X85090000Y-142240000D03*
%TD*%
D14*
%TO.C,H4*%
X59690000Y-160655000D03*
%TD*%
%TO.C,H3*%
X102870000Y-125730000D03*
%TD*%
D10*
%TO.C,R13*%
X107315000Y-128270000D03*
D11*
X107315000Y-133350000D03*
%TD*%
D10*
%TO.C,R12*%
X122555000Y-128270000D03*
D11*
X122555000Y-133350000D03*
%TD*%
D10*
%TO.C,R11*%
X137795000Y-128270000D03*
D11*
X137795000Y-133350000D03*
%TD*%
D10*
%TO.C,R9*%
X114300000Y-146050000D03*
D11*
X114300000Y-151130000D03*
%TD*%
D10*
%TO.C,R8*%
X125730000Y-146050000D03*
D11*
X125730000Y-151130000D03*
%TD*%
D10*
%TO.C,R7*%
X128270000Y-146050000D03*
D11*
X128270000Y-151130000D03*
%TD*%
D10*
%TO.C,R6*%
X138430000Y-146050000D03*
D11*
X138430000Y-151130000D03*
%TD*%
D10*
%TO.C,R5*%
X143510000Y-146050000D03*
D11*
X143510000Y-151130000D03*
%TD*%
D10*
%TO.C,R4*%
X119380000Y-146050000D03*
D11*
X119380000Y-151130000D03*
%TD*%
D10*
%TO.C,R3*%
X130810000Y-146050000D03*
D11*
X130810000Y-151130000D03*
%TD*%
D10*
%TO.C,R2*%
X140970000Y-146050000D03*
D11*
X140970000Y-151130000D03*
%TD*%
D15*
%TO.C,U1*%
X80010000Y-133350000D03*
X64770000Y-163830000D03*
X64770000Y-161290000D03*
X64770000Y-158750000D03*
X64770000Y-156210000D03*
X64770000Y-153670000D03*
X64770000Y-151130000D03*
X64770000Y-148590000D03*
X64770000Y-146050000D03*
X64770000Y-143510000D03*
X64770000Y-140970000D03*
X64770000Y-138430000D03*
X64770000Y-135890000D03*
X64770000Y-133350000D03*
X64770000Y-130810000D03*
X67310000Y-130810000D03*
X69850000Y-130810000D03*
X72390000Y-130810000D03*
X74930000Y-130810000D03*
X77470000Y-130810000D03*
X80010000Y-130810000D03*
X80010000Y-135890000D03*
X80010000Y-138430000D03*
X80010000Y-140970000D03*
X80010000Y-143510000D03*
X80010000Y-146050000D03*
X80010000Y-148590000D03*
X80010000Y-151130000D03*
X80010000Y-153670000D03*
X80010000Y-156210000D03*
X80010000Y-158750000D03*
X80010000Y-161290000D03*
X80010000Y-163830000D03*
%TD*%
D10*
%TO.C,R15*%
X74930000Y-127635000D03*
D11*
X80010000Y-127635000D03*
%TD*%
D10*
%TO.C,R14*%
X67310000Y-127635000D03*
D11*
X72390000Y-127635000D03*
%TD*%
D16*
%TO.C,J10*%
X78740000Y-124460000D03*
D17*
X76200000Y-124460000D03*
%TD*%
D16*
%TO.C,J9*%
X71120000Y-124460000D03*
D17*
X68580000Y-124460000D03*
%TD*%
D18*
%TO.C,U5*%
X110490000Y-127000000D03*
X118110000Y-134620000D03*
X113030000Y-127000000D03*
X115570000Y-134620000D03*
X115570000Y-127000000D03*
X113030000Y-134620000D03*
X118110000Y-127000000D03*
D13*
X110490000Y-134620000D03*
%TD*%
D18*
%TO.C,U4*%
X125730000Y-127000000D03*
X133350000Y-134620000D03*
X128270000Y-127000000D03*
X130810000Y-134620000D03*
X130810000Y-127000000D03*
X128270000Y-134620000D03*
X133350000Y-127000000D03*
D13*
X125730000Y-134620000D03*
%TD*%
D18*
%TO.C,U3*%
X140970000Y-127000000D03*
X148590000Y-134620000D03*
X143510000Y-127000000D03*
X146050000Y-134620000D03*
X146050000Y-127000000D03*
X143510000Y-134620000D03*
X148590000Y-127000000D03*
D13*
X140970000Y-134620000D03*
%TD*%
D18*
%TO.C,U2*%
X83820000Y-149225000D03*
X91440000Y-156845000D03*
X86360000Y-149225000D03*
X88900000Y-156845000D03*
X88900000Y-149225000D03*
X86360000Y-156845000D03*
X91440000Y-149225000D03*
D13*
X83820000Y-156845000D03*
%TD*%
D10*
%TO.C,R1*%
X59690000Y-127635000D03*
D11*
X64770000Y-127635000D03*
%TD*%
D19*
%TO.C,Q1*%
X92710000Y-140335000D03*
X95250000Y-140335000D03*
D20*
X97790000Y-140335000D03*
%TD*%
D21*
%TO.C,L1*%
X95885000Y-150495000D03*
D22*
X111125000Y-150495000D03*
%TD*%
D16*
%TO.C,J8*%
X59055000Y-142875000D03*
X59055000Y-140335000D03*
X59055000Y-137795000D03*
X59055000Y-135255000D03*
D17*
X59055000Y-132715000D03*
%TD*%
D16*
%TO.C,J7*%
X95250000Y-133985000D03*
X97790000Y-133985000D03*
X100330000Y-133985000D03*
D17*
X102870000Y-133985000D03*
%TD*%
D16*
%TO.C,J6*%
X59055000Y-154940000D03*
X59055000Y-152400000D03*
X59055000Y-149860000D03*
D17*
X59055000Y-147320000D03*
%TD*%
D16*
%TO.C,J5*%
X63500000Y-124460000D03*
D17*
X60960000Y-124460000D03*
%TD*%
D16*
%TO.C,J4*%
X97155000Y-130175000D03*
X94615000Y-130175000D03*
X92075000Y-130175000D03*
D17*
X89535000Y-130175000D03*
%TD*%
D16*
%TO.C,J3*%
X84500000Y-124205000D03*
D17*
X84500000Y-126745000D03*
%TD*%
D16*
%TO.C,J2*%
X84455000Y-132715000D03*
D17*
X84455000Y-135255000D03*
%TD*%
D23*
%TO.C,J1*%
X127895000Y-157780000D03*
X102895000Y-157780000D03*
D12*
X119550000Y-160320000D03*
X116780000Y-160320000D03*
X114010000Y-160320000D03*
X111240000Y-160320000D03*
X120935000Y-157480000D03*
X118165000Y-157480000D03*
X115395000Y-157480000D03*
X112625000Y-157480000D03*
D13*
X109855000Y-157480000D03*
%TD*%
D14*
%TO.C,H2*%
X135890000Y-158115000D03*
%TD*%
D24*
%TO.C,D1*%
X83820000Y-146050000D03*
D25*
X93980000Y-146050000D03*
%TD*%
D12*
%TO.C,C15*%
X116760000Y-123825000D03*
X111760000Y-123825000D03*
%TD*%
%TO.C,C14*%
X132000000Y-123825000D03*
X127000000Y-123825000D03*
%TD*%
%TO.C,C13*%
X147240000Y-123825000D03*
X142240000Y-123825000D03*
%TD*%
%TO.C,C12*%
X113030000Y-137240000D03*
X113030000Y-142240000D03*
%TD*%
%TO.C,C11*%
X108585000Y-137240000D03*
X108585000Y-142240000D03*
%TD*%
%TO.C,C10*%
X117475000Y-137240000D03*
X117475000Y-142240000D03*
%TD*%
%TO.C,C9*%
X128270000Y-142160000D03*
X128270000Y-137160000D03*
%TD*%
%TO.C,C8*%
X123825000Y-137240000D03*
X123825000Y-142240000D03*
%TD*%
%TO.C,C7*%
X132715000Y-137240000D03*
X132715000Y-142240000D03*
%TD*%
%TO.C,C6*%
X139065000Y-142160000D03*
X139065000Y-137160000D03*
%TD*%
%TO.C,C5*%
X147955000Y-142160000D03*
X147955000Y-137160000D03*
%TD*%
%TO.C,C4*%
X143510000Y-137240000D03*
X143510000Y-142240000D03*
%TD*%
%TO.C,C2*%
X84455000Y-160560000D03*
D13*
X84455000Y-162560000D03*
%TD*%
D12*
%TO.C,C1*%
X90885000Y-160655000D03*
X95885000Y-160655000D03*
%TD*%
M02*
