%TF.GenerationSoftware,KiCad,Pcbnew,(5.1.9)-1*%
%TF.CreationDate,2021-03-17T20:38:14-07:00*%
%TF.ProjectId,head,68656164-2e6b-4696-9361-645f70636258,rev?*%
%TF.SameCoordinates,Original*%
%TF.FileFunction,Copper,L1,Top*%
%TF.FilePolarity,Positive*%
%FSLAX46Y46*%
G04 Gerber Fmt 4.6, Leading zero omitted, Abs format (unit mm)*
G04 Created by KiCad (PCBNEW (5.1.9)-1) date 2021-03-17 20:38:14*
%MOMM*%
%LPD*%
G01*
G04 APERTURE LIST*
%TA.AperFunction,ComponentPad*%
%ADD10C,5.000000*%
%TD*%
%TA.AperFunction,ComponentPad*%
%ADD11C,1.404000*%
%TD*%
%TA.AperFunction,ComponentPad*%
%ADD12C,1.304000*%
%TD*%
%TA.AperFunction,ComponentPad*%
%ADD13C,0.804000*%
%TD*%
%TA.AperFunction,ComponentPad*%
%ADD14C,1.500000*%
%TD*%
%TA.AperFunction,ComponentPad*%
%ADD15R,1.500000X1.500000*%
%TD*%
%TA.AperFunction,ComponentPad*%
%ADD16O,1.400000X1.400000*%
%TD*%
%TA.AperFunction,ComponentPad*%
%ADD17C,1.400000*%
%TD*%
%TA.AperFunction,ComponentPad*%
%ADD18O,1.700000X1.700000*%
%TD*%
%TA.AperFunction,ComponentPad*%
%ADD19R,1.700000X1.700000*%
%TD*%
%TA.AperFunction,ComponentPad*%
%ADD20C,4.000000*%
%TD*%
%TA.AperFunction,ComponentPad*%
%ADD21C,1.600000*%
%TD*%
%TA.AperFunction,ComponentPad*%
%ADD22R,1.600000X1.600000*%
%TD*%
%TA.AperFunction,Conductor*%
%ADD23C,0.250000*%
%TD*%
%TA.AperFunction,Conductor*%
%ADD24C,0.254000*%
%TD*%
%TA.AperFunction,Conductor*%
%ADD25C,0.100000*%
%TD*%
G04 APERTURE END LIST*
D10*
%TO.P,H2,1*%
%TO.N,GND*%
X120650000Y-54610000D03*
%TD*%
%TO.P,H1,1*%
%TO.N,GND*%
X81280000Y-54610000D03*
%TD*%
D11*
%TO.P,U1,13*%
%TO.N,PUMP*%
X107315000Y-74930000D03*
%TO.P,U1,33*%
%TO.N,Net-(U1-Pad33)*%
X76835000Y-59690000D03*
%TO.P,U1,34*%
%TO.N,Net-(U1-Pad34)*%
X79375000Y-62230000D03*
%TO.P,U1,32*%
%TO.N,GND*%
X79375000Y-59690000D03*
%TO.P,U1,31*%
%TO.N,+3V3*%
X81915000Y-59690000D03*
%TO.P,U1,30*%
%TO.N,Net-(U1-Pad30)*%
X84455000Y-59690000D03*
%TO.P,U1,29*%
%TO.N,Net-(U1-Pad29)*%
X86995000Y-59690000D03*
%TO.P,U1,28*%
%TO.N,Net-(U1-Pad28)*%
X89535000Y-59690000D03*
%TO.P,U1,27*%
%TO.N,Net-(U1-Pad27)*%
X92075000Y-59690000D03*
%TO.P,U1,26*%
%TO.N,DISPLAY_SCL*%
X94615000Y-59690000D03*
%TO.P,U1,25*%
%TO.N,DISPLAY_SDA*%
X97155000Y-59690000D03*
%TO.P,U1,24*%
%TO.N,Net-(U1-Pad24)*%
X99695000Y-59690000D03*
%TO.P,U1,23*%
%TO.N,Net-(U1-Pad23)*%
X102235000Y-59690000D03*
%TO.P,U1,22*%
%TO.N,GROUPHEAD_TEMP*%
X104775000Y-59690000D03*
%TO.P,U1,21*%
%TO.N,PUMP_TEMP*%
X107315000Y-59690000D03*
%TO.P,U1,20*%
%TO.N,Net-(U1-Pad20)*%
X109855000Y-59690000D03*
%TO.P,U1,19*%
%TO.N,Net-(U1-Pad19)*%
X109855000Y-62230000D03*
%TO.P,U1,18*%
%TO.N,Net-(U1-Pad18)*%
X109855000Y-64770000D03*
%TO.P,U1,17*%
%TO.N,GND*%
X109855000Y-67310000D03*
%TO.P,U1,16*%
%TO.N,Net-(U1-Pad16)*%
X109855000Y-69850000D03*
%TO.P,U1,15*%
%TO.N,Net-(U1-Pad15)*%
X109855000Y-72390000D03*
%TO.P,U1,14*%
%TO.N,HEATER_RELAY*%
X109855000Y-74930000D03*
%TO.P,U1,12*%
%TO.N,TEMP_OK*%
X104775000Y-74930000D03*
%TO.P,U1,11*%
%TO.N,HX711_SCK*%
X102235000Y-74930000D03*
%TO.P,U1,10*%
%TO.N,HX711_DT*%
X99695000Y-74930000D03*
%TO.P,U1,9*%
%TO.N,STATS_BUTTON*%
X97155000Y-74930000D03*
%TO.P,U1,8*%
%TO.N,BREW_BUTTON*%
X94615000Y-74930000D03*
%TO.P,U1,7*%
%TO.N,FLUSH_BUTTON*%
X92075000Y-74930000D03*
%TO.P,U1,6*%
%TO.N,ENCODER_CLOCK*%
X89535000Y-74930000D03*
%TO.P,U1,5*%
%TO.N,ENCODER_DATA*%
X86995000Y-74930000D03*
%TO.P,U1,4*%
%TO.N,ENCODER_BUTTON*%
X84455000Y-74930000D03*
%TO.P,U1,3*%
%TO.N,Net-(U1-Pad3)*%
X81915000Y-74930000D03*
D12*
%TO.P,U1,54*%
%TO.N,Net-(U1-Pad54)*%
X78105000Y-68580000D03*
%TO.P,U1,53*%
%TO.N,Net-(U1-Pad53)*%
X78105000Y-66040000D03*
D13*
%TO.P,U1,52*%
%TO.N,Net-(U1-Pad52)*%
X83973400Y-70810000D03*
%TO.P,U1,51*%
%TO.N,Net-(U1-Pad51)*%
X83973400Y-69810000D03*
%TO.P,U1,50*%
%TO.N,Net-(U1-Pad50)*%
X83973400Y-68810000D03*
%TO.P,U1,49*%
%TO.N,Net-(U1-Pad49)*%
X83973400Y-67810000D03*
%TO.P,U1,48*%
%TO.N,Net-(U1-Pad48)*%
X83973400Y-66810000D03*
%TO.P,U1,47*%
%TO.N,GND*%
X83973400Y-65810000D03*
%TO.P,U1,46*%
%TO.N,Net-(U1-Pad46)*%
X83973400Y-64810000D03*
%TO.P,U1,45*%
%TO.N,Net-(U1-Pad45)*%
X83973400Y-63810000D03*
D12*
%TO.P,U1,44*%
%TO.N,Net-(U1-Pad44)*%
X102235000Y-72390000D03*
%TO.P,U1,43*%
%TO.N,Net-(U1-Pad43)*%
X104775000Y-72390000D03*
%TO.P,U1,42*%
%TO.N,Net-(U1-Pad42)*%
X102235000Y-69850000D03*
%TO.P,U1,41*%
%TO.N,Net-(U1-Pad41)*%
X104775000Y-69850000D03*
%TO.P,U1,40*%
%TO.N,Net-(U1-Pad40)*%
X102235000Y-67310000D03*
%TO.P,U1,39*%
%TO.N,Net-(U1-Pad39)*%
X104775000Y-67310000D03*
%TO.P,U1,38*%
%TO.N,Net-(U1-Pad38)*%
X102235000Y-64770000D03*
%TO.P,U1,37*%
%TO.N,Net-(U1-Pad37)*%
X104775000Y-64770000D03*
%TO.P,U1,36*%
%TO.N,Net-(U1-Pad36)*%
X102235000Y-62230000D03*
%TO.P,U1,35*%
%TO.N,Net-(U1-Pad35)*%
X104775000Y-62230000D03*
D11*
%TO.P,U1,2*%
%TO.N,Net-(U1-Pad2)*%
X79375000Y-74930000D03*
%TO.P,U1,1*%
%TO.N,GND*%
X76835000Y-74930000D03*
%TD*%
D14*
%TO.P,J7,4*%
%TO.N,GND*%
X116955000Y-76835000D03*
%TO.P,J7,3*%
%TO.N,HX711_DT*%
X117975000Y-79375000D03*
%TO.P,J7,2*%
%TO.N,HX711_SCK*%
X118995000Y-76835000D03*
D15*
%TO.P,J7,1*%
%TO.N,+3V3*%
X120015000Y-79375000D03*
%TD*%
D16*
%TO.P,R1,2*%
%TO.N,GND*%
X100330000Y-57150000D03*
D17*
%TO.P,R1,1*%
%TO.N,Net-(J5-Pad2)*%
X105410000Y-57150000D03*
%TD*%
D18*
%TO.P,J6,4*%
%TO.N,GND*%
X105410000Y-51435000D03*
%TO.P,J6,3*%
%TO.N,+3V3*%
X107950000Y-51435000D03*
%TO.P,J6,2*%
%TO.N,DISPLAY_SCL*%
X110490000Y-51435000D03*
D19*
%TO.P,J6,1*%
%TO.N,DISPLAY_SDA*%
X113030000Y-51435000D03*
%TD*%
D18*
%TO.P,J8,5*%
%TO.N,GND*%
X90170000Y-51435000D03*
%TO.P,J8,4*%
%TO.N,+3V3*%
X92710000Y-51435000D03*
%TO.P,J8,3*%
%TO.N,ENCODER_BUTTON*%
X95250000Y-51435000D03*
%TO.P,J8,2*%
%TO.N,ENCODER_DATA*%
X97790000Y-51435000D03*
D19*
%TO.P,J8,1*%
%TO.N,ENCODER_CLOCK*%
X100330000Y-51435000D03*
%TD*%
D18*
%TO.P,J5,2*%
%TO.N,Net-(J5-Pad2)*%
X120650000Y-71755000D03*
D19*
%TO.P,J5,1*%
%TO.N,TEMP_OK*%
X120650000Y-69215000D03*
%TD*%
D18*
%TO.P,J4,2*%
%TO.N,GND*%
X120650000Y-62865000D03*
D19*
%TO.P,J4,1*%
%TO.N,BREW_BUTTON*%
X120650000Y-60325000D03*
%TD*%
D18*
%TO.P,J3,2*%
%TO.N,GND*%
X113665000Y-62865000D03*
D19*
%TO.P,J3,1*%
%TO.N,FLUSH_BUTTON*%
X113665000Y-60325000D03*
%TD*%
D18*
%TO.P,J2,2*%
%TO.N,GND*%
X113665000Y-71755000D03*
D19*
%TO.P,J2,1*%
%TO.N,STATS_BUTTON*%
X113665000Y-69215000D03*
%TD*%
D20*
%TO.P,J1,0*%
%TO.N,N/C*%
X106305000Y-80310000D03*
X81305000Y-80310000D03*
D21*
%TO.P,J1,9*%
%TO.N,Net-(J1-Pad9)*%
X97960000Y-82850000D03*
%TO.P,J1,8*%
%TO.N,Net-(J1-Pad8)*%
X95190000Y-82850000D03*
%TO.P,J1,7*%
%TO.N,Net-(J1-Pad7)*%
X92420000Y-82850000D03*
%TO.P,J1,6*%
%TO.N,HEATER_RELAY*%
X89650000Y-82850000D03*
%TO.P,J1,5*%
%TO.N,PUMP*%
X99345000Y-80010000D03*
%TO.P,J1,4*%
%TO.N,GROUPHEAD_TEMP*%
X96575000Y-80010000D03*
%TO.P,J1,3*%
%TO.N,PUMP_TEMP*%
X93805000Y-80010000D03*
%TO.P,J1,2*%
%TO.N,+3V3*%
X91035000Y-80010000D03*
D22*
%TO.P,J1,1*%
%TO.N,GND*%
X88265000Y-80010000D03*
%TD*%
D23*
%TO.N,HEATER_RELAY*%
X90775001Y-83975001D02*
X89650000Y-82850000D01*
X107421001Y-82635001D02*
X99840001Y-82635001D01*
X98500001Y-83975001D02*
X90775001Y-83975001D01*
X109856003Y-80199999D02*
X107421001Y-82635001D01*
X113193001Y-80199999D02*
X109856003Y-80199999D01*
X99840001Y-82635001D02*
X98500001Y-83975001D01*
X113638002Y-80645000D02*
X113193001Y-80199999D01*
X109855000Y-74930000D02*
X118681002Y-74930000D01*
X120830002Y-80645000D02*
X113638002Y-80645000D01*
X118681002Y-74930000D02*
X121090001Y-77338999D01*
X121090001Y-80385001D02*
X120830002Y-80645000D01*
X121090001Y-77338999D02*
X121090001Y-80385001D01*
%TO.N,PUMP*%
X89109999Y-81724999D02*
X97630001Y-81724999D01*
X88524999Y-83390001D02*
X88524999Y-82309999D01*
X117686402Y-84425010D02*
X89560008Y-84425010D01*
X121540010Y-80571402D02*
X117686402Y-84425010D01*
X121540011Y-77152599D02*
X121540010Y-80571402D01*
X88524999Y-82309999D02*
X89109999Y-81724999D01*
X118290411Y-73902999D02*
X121540011Y-77152599D01*
X97630001Y-81724999D02*
X99345000Y-80010000D01*
X89560008Y-84425010D02*
X88524999Y-83390001D01*
X108342001Y-73902999D02*
X118290411Y-73902999D01*
X107315000Y-74930000D02*
X108342001Y-73902999D01*
%TO.N,GROUPHEAD_TEMP*%
X103797999Y-60667001D02*
X104775000Y-59690000D01*
X102703961Y-63207001D02*
X103797999Y-62112963D01*
X101641627Y-63207001D02*
X102703961Y-63207001D01*
X90597989Y-77439399D02*
X90597990Y-74250638D01*
X92679999Y-79521409D02*
X90597989Y-77439399D01*
X93264999Y-81135001D02*
X92679999Y-80550001D01*
X103797999Y-62112963D02*
X103797999Y-60667001D01*
X90597990Y-74250638D02*
X101641627Y-63207001D01*
X92679999Y-80550001D02*
X92679999Y-79521409D01*
X95449999Y-81135001D02*
X93264999Y-81135001D01*
X96575000Y-80010000D02*
X95449999Y-81135001D01*
%TO.N,PUMP_TEMP*%
X107315000Y-61135962D02*
X107315000Y-59690000D01*
X104892037Y-63207001D02*
X105243961Y-63207001D01*
X103797999Y-64301039D02*
X104892037Y-63207001D01*
X103797999Y-64652963D02*
X103797999Y-64301039D01*
X102703961Y-65747001D02*
X103797999Y-64652963D01*
X99738037Y-65747001D02*
X102703961Y-65747001D01*
X91047999Y-74437039D02*
X99738037Y-65747001D01*
X91047999Y-77252999D02*
X91047999Y-74437039D01*
X105243961Y-63207001D02*
X107315000Y-61135962D01*
X93805000Y-80010000D02*
X91047999Y-77252999D01*
%TO.N,STATS_BUTTON*%
X111602989Y-71277011D02*
X113665000Y-69215000D01*
X100807989Y-71277011D02*
X111602989Y-71277011D01*
X97155000Y-74930000D02*
X100807989Y-71277011D01*
%TO.N,FLUSH_BUTTON*%
X110490000Y-63500000D02*
X113665000Y-60325000D01*
X104892037Y-65747001D02*
X107358037Y-65747001D01*
X103797999Y-66841039D02*
X104892037Y-65747001D01*
X103797999Y-67652001D02*
X103797999Y-66841039D01*
X109605038Y-63500000D02*
X110490000Y-63500000D01*
X107358037Y-65747001D02*
X109605038Y-63500000D01*
X103162999Y-68287001D02*
X103797999Y-67652001D01*
X98717999Y-68287001D02*
X103162999Y-68287001D01*
X92075000Y-74930000D02*
X98717999Y-68287001D01*
%TO.N,BREW_BUTTON*%
X109848037Y-65797001D02*
X115177999Y-65797001D01*
X107358037Y-68287001D02*
X109848037Y-65797001D01*
X104892037Y-68287001D02*
X107358037Y-68287001D01*
X103797999Y-69381039D02*
X104892037Y-68287001D01*
X115177999Y-65797001D02*
X120650000Y-60325000D01*
X103797999Y-70192001D02*
X103797999Y-69381039D01*
X103162999Y-70827001D02*
X103797999Y-70192001D01*
X98717999Y-70827001D02*
X103162999Y-70827001D01*
X94615000Y-74930000D02*
X98717999Y-70827001D01*
%TO.N,Net-(J5-Pad2)*%
X121825001Y-70579999D02*
X120650000Y-71755000D01*
X121825001Y-59214999D02*
X121825001Y-70579999D01*
X120045003Y-57435001D02*
X121825001Y-59214999D01*
X105695001Y-57435001D02*
X120045003Y-57435001D01*
X105410000Y-57150000D02*
X105695001Y-57435001D01*
%TO.N,TEMP_OK*%
X116447999Y-73417001D02*
X120650000Y-69215000D01*
X106287999Y-73417001D02*
X116447999Y-73417001D01*
X104775000Y-74930000D02*
X106287999Y-73417001D01*
%TO.N,ENCODER_BUTTON*%
X88507999Y-58177001D02*
X95250000Y-51435000D01*
X88507999Y-70877001D02*
X88507999Y-58177001D01*
X84455000Y-74930000D02*
X88507999Y-70877001D01*
%TO.N,ENCODER_DATA*%
X91047999Y-58177001D02*
X97790000Y-51435000D01*
X91047999Y-70877001D02*
X91047999Y-58177001D01*
X86995000Y-74930000D02*
X91047999Y-70877001D01*
%TO.N,ENCODER_CLOCK*%
X96127999Y-55637001D02*
X100330000Y-51435000D01*
X89535000Y-73026410D02*
X92075000Y-70486410D01*
X96127999Y-59696963D02*
X96127999Y-55637001D01*
X92075000Y-63749962D02*
X96127999Y-59696963D01*
X92075000Y-70486410D02*
X92075000Y-63749962D01*
X89535000Y-74930000D02*
X89535000Y-73026410D01*
%TO.N,DISPLAY_SCL*%
X99219999Y-50259999D02*
X109314999Y-50259999D01*
X109314999Y-50259999D02*
X110490000Y-51435000D01*
X99154999Y-50324999D02*
X99219999Y-50259999D01*
X99154999Y-51973591D02*
X99154999Y-50324999D01*
X94615000Y-56513590D02*
X99154999Y-51973591D01*
X94615000Y-59690000D02*
X94615000Y-56513590D01*
%TO.N,DISPLAY_SDA*%
X111854999Y-52610001D02*
X113030000Y-51435000D01*
X108432997Y-52610001D02*
X111854999Y-52610001D01*
X102379999Y-58662999D02*
X108432997Y-52610001D01*
X98182001Y-58662999D02*
X102379999Y-58662999D01*
X97155000Y-59690000D02*
X98182001Y-58662999D01*
%TO.N,HX711_DT*%
X116510001Y-77910001D02*
X117975000Y-79375000D01*
X102675001Y-77910001D02*
X116510001Y-77910001D01*
X99695000Y-74930000D02*
X102675001Y-77910001D01*
%TO.N,HX711_SCK*%
X115327001Y-75957001D02*
X115524003Y-75759999D01*
X115524003Y-75759999D02*
X117919999Y-75759999D01*
X103262001Y-75957001D02*
X115327001Y-75957001D01*
X117919999Y-75759999D02*
X118995000Y-76835000D01*
X102235000Y-74930000D02*
X103262001Y-75957001D01*
%TD*%
D24*
%TO.N,GND*%
X89169731Y-50337412D02*
X88974822Y-50553645D01*
X88825843Y-50803748D01*
X88728519Y-51078109D01*
X88849186Y-51308000D01*
X90043000Y-51308000D01*
X90043000Y-51288000D01*
X90297000Y-51288000D01*
X90297000Y-51308000D01*
X90317000Y-51308000D01*
X90317000Y-51562000D01*
X90297000Y-51562000D01*
X90297000Y-52755155D01*
X90526890Y-52876476D01*
X90674099Y-52831825D01*
X90936920Y-52706641D01*
X91170269Y-52532588D01*
X91365178Y-52316355D01*
X91434805Y-52199466D01*
X91556525Y-52381632D01*
X91763368Y-52588475D01*
X92006589Y-52750990D01*
X92276842Y-52862932D01*
X92563740Y-52920000D01*
X92690198Y-52920000D01*
X87996997Y-57613202D01*
X87967999Y-57637000D01*
X87944201Y-57665998D01*
X87944200Y-57665999D01*
X87873025Y-57752725D01*
X87802453Y-57884755D01*
X87758997Y-58028016D01*
X87744323Y-58177001D01*
X87748000Y-58214333D01*
X87748000Y-58585142D01*
X87628307Y-58505166D01*
X87384988Y-58404380D01*
X87126683Y-58353000D01*
X86863317Y-58353000D01*
X86605012Y-58404380D01*
X86361693Y-58505166D01*
X86142712Y-58651484D01*
X85956484Y-58837712D01*
X85810166Y-59056693D01*
X85725000Y-59262302D01*
X85639834Y-59056693D01*
X85493516Y-58837712D01*
X85307288Y-58651484D01*
X85088307Y-58505166D01*
X84844988Y-58404380D01*
X84586683Y-58353000D01*
X84323317Y-58353000D01*
X84065012Y-58404380D01*
X83821693Y-58505166D01*
X83602712Y-58651484D01*
X83416484Y-58837712D01*
X83270166Y-59056693D01*
X83185000Y-59262302D01*
X83099834Y-59056693D01*
X82953516Y-58837712D01*
X82767288Y-58651484D01*
X82548307Y-58505166D01*
X82304988Y-58404380D01*
X82046683Y-58353000D01*
X81783317Y-58353000D01*
X81525012Y-58404380D01*
X81281693Y-58505166D01*
X81062712Y-58651484D01*
X80876484Y-58837712D01*
X80730166Y-59056693D01*
X80643494Y-59265938D01*
X80585831Y-59107933D01*
X80531671Y-59006610D01*
X80297698Y-58946907D01*
X79554605Y-59690000D01*
X80297698Y-60433093D01*
X80531671Y-60373390D01*
X80642769Y-60134603D01*
X80646190Y-60120571D01*
X80730166Y-60323307D01*
X80876484Y-60542288D01*
X81062712Y-60728516D01*
X81281693Y-60874834D01*
X81525012Y-60975620D01*
X81783317Y-61027000D01*
X82046683Y-61027000D01*
X82304988Y-60975620D01*
X82548307Y-60874834D01*
X82767288Y-60728516D01*
X82953516Y-60542288D01*
X83099834Y-60323307D01*
X83185000Y-60117698D01*
X83270166Y-60323307D01*
X83416484Y-60542288D01*
X83602712Y-60728516D01*
X83821693Y-60874834D01*
X84065012Y-60975620D01*
X84323317Y-61027000D01*
X84586683Y-61027000D01*
X84844988Y-60975620D01*
X85088307Y-60874834D01*
X85307288Y-60728516D01*
X85493516Y-60542288D01*
X85639834Y-60323307D01*
X85725000Y-60117698D01*
X85810166Y-60323307D01*
X85956484Y-60542288D01*
X86142712Y-60728516D01*
X86361693Y-60874834D01*
X86605012Y-60975620D01*
X86863317Y-61027000D01*
X87126683Y-61027000D01*
X87384988Y-60975620D01*
X87628307Y-60874834D01*
X87748000Y-60794858D01*
X87747999Y-70562199D01*
X84695545Y-73614654D01*
X84586683Y-73593000D01*
X84323317Y-73593000D01*
X84065012Y-73644380D01*
X83821693Y-73745166D01*
X83602712Y-73891484D01*
X83416484Y-74077712D01*
X83270166Y-74296693D01*
X83185000Y-74502302D01*
X83099834Y-74296693D01*
X82953516Y-74077712D01*
X82767288Y-73891484D01*
X82548307Y-73745166D01*
X82304988Y-73644380D01*
X82046683Y-73593000D01*
X81783317Y-73593000D01*
X81525012Y-73644380D01*
X81281693Y-73745166D01*
X81062712Y-73891484D01*
X80876484Y-74077712D01*
X80730166Y-74296693D01*
X80645000Y-74502302D01*
X80559834Y-74296693D01*
X80413516Y-74077712D01*
X80227288Y-73891484D01*
X80008307Y-73745166D01*
X79764988Y-73644380D01*
X79506683Y-73593000D01*
X79243317Y-73593000D01*
X78985012Y-73644380D01*
X78741693Y-73745166D01*
X78522712Y-73891484D01*
X78336484Y-74077712D01*
X78190166Y-74296693D01*
X78103494Y-74505938D01*
X78045831Y-74347933D01*
X77991671Y-74246610D01*
X77757698Y-74186907D01*
X77014605Y-74930000D01*
X77757698Y-75673093D01*
X77991671Y-75613390D01*
X78102769Y-75374603D01*
X78106190Y-75360571D01*
X78190166Y-75563307D01*
X78336484Y-75782288D01*
X78522712Y-75968516D01*
X78741693Y-76114834D01*
X78985012Y-76215620D01*
X79243317Y-76267000D01*
X79506683Y-76267000D01*
X79764988Y-76215620D01*
X80008307Y-76114834D01*
X80227288Y-75968516D01*
X80413516Y-75782288D01*
X80559834Y-75563307D01*
X80645000Y-75357698D01*
X80730166Y-75563307D01*
X80876484Y-75782288D01*
X81062712Y-75968516D01*
X81281693Y-76114834D01*
X81525012Y-76215620D01*
X81783317Y-76267000D01*
X82046683Y-76267000D01*
X82304988Y-76215620D01*
X82548307Y-76114834D01*
X82767288Y-75968516D01*
X82953516Y-75782288D01*
X83099834Y-75563307D01*
X83185000Y-75357698D01*
X83270166Y-75563307D01*
X83416484Y-75782288D01*
X83602712Y-75968516D01*
X83821693Y-76114834D01*
X84065012Y-76215620D01*
X84323317Y-76267000D01*
X84586683Y-76267000D01*
X84844988Y-76215620D01*
X85088307Y-76114834D01*
X85307288Y-75968516D01*
X85493516Y-75782288D01*
X85639834Y-75563307D01*
X85725000Y-75357698D01*
X85810166Y-75563307D01*
X85956484Y-75782288D01*
X86142712Y-75968516D01*
X86361693Y-76114834D01*
X86605012Y-76215620D01*
X86863317Y-76267000D01*
X87126683Y-76267000D01*
X87384988Y-76215620D01*
X87628307Y-76114834D01*
X87847288Y-75968516D01*
X88033516Y-75782288D01*
X88179834Y-75563307D01*
X88265000Y-75357698D01*
X88350166Y-75563307D01*
X88496484Y-75782288D01*
X88682712Y-75968516D01*
X88901693Y-76114834D01*
X89145012Y-76215620D01*
X89403317Y-76267000D01*
X89666683Y-76267000D01*
X89837990Y-76232925D01*
X89837989Y-77402076D01*
X89834313Y-77439399D01*
X89837989Y-77476721D01*
X89837989Y-77476731D01*
X89848986Y-77588384D01*
X89880599Y-77692599D01*
X89892443Y-77731645D01*
X89963015Y-77863675D01*
X90031657Y-77947315D01*
X90057988Y-77979399D01*
X90086986Y-78003197D01*
X90697758Y-78613969D01*
X90616426Y-78630147D01*
X90355273Y-78738320D01*
X90120241Y-78895363D01*
X89920363Y-79095241D01*
X89763320Y-79330273D01*
X89701461Y-79479613D01*
X89703072Y-79210000D01*
X89690812Y-79085518D01*
X89654502Y-78965820D01*
X89595537Y-78855506D01*
X89516185Y-78758815D01*
X89419494Y-78679463D01*
X89309180Y-78620498D01*
X89189482Y-78584188D01*
X89065000Y-78571928D01*
X88550750Y-78575000D01*
X88392000Y-78733750D01*
X88392000Y-79883000D01*
X88412000Y-79883000D01*
X88412000Y-80137000D01*
X88392000Y-80137000D01*
X88392000Y-81286250D01*
X88432973Y-81327223D01*
X88013997Y-81746200D01*
X87984999Y-81769998D01*
X87961201Y-81798996D01*
X87961200Y-81798997D01*
X87890025Y-81885723D01*
X87819453Y-82017753D01*
X87803240Y-82071202D01*
X87779558Y-82149276D01*
X87775997Y-82161014D01*
X87761323Y-82309999D01*
X87765000Y-82347331D01*
X87764999Y-83352678D01*
X87761323Y-83390001D01*
X87764999Y-83427323D01*
X87764999Y-83427333D01*
X87775996Y-83538986D01*
X87814224Y-83665010D01*
X87819453Y-83682247D01*
X87890025Y-83814277D01*
X87929870Y-83862827D01*
X87984998Y-83930002D01*
X88014001Y-83953805D01*
X88996209Y-84936013D01*
X89020007Y-84965011D01*
X89135732Y-85059984D01*
X89267761Y-85130556D01*
X89411022Y-85174013D01*
X89522675Y-85185010D01*
X89522683Y-85185010D01*
X89560008Y-85188686D01*
X89597333Y-85185010D01*
X117649080Y-85185010D01*
X117686402Y-85188686D01*
X117723724Y-85185010D01*
X117723735Y-85185010D01*
X117835388Y-85174013D01*
X117978649Y-85130556D01*
X118110678Y-85059984D01*
X118226403Y-84965011D01*
X118250206Y-84936007D01*
X122051017Y-81135197D01*
X122080010Y-81111403D01*
X122103804Y-81082410D01*
X122103809Y-81082405D01*
X122174984Y-80995678D01*
X122245556Y-80863649D01*
X122289013Y-80720388D01*
X122303686Y-80571402D01*
X122300009Y-80534067D01*
X122300011Y-77189921D01*
X122303687Y-77152598D01*
X122300011Y-77115275D01*
X122300011Y-77115267D01*
X122289014Y-77003614D01*
X122245557Y-76860353D01*
X122174985Y-76728324D01*
X122174984Y-76728322D01*
X122103810Y-76641595D01*
X122103801Y-76641586D01*
X122080012Y-76612599D01*
X122051025Y-76588810D01*
X118854215Y-73392002D01*
X118830412Y-73362998D01*
X118714687Y-73268025D01*
X118582658Y-73197453D01*
X118439397Y-73153996D01*
X118327744Y-73142999D01*
X118327733Y-73142999D01*
X118290411Y-73139323D01*
X118253089Y-73142999D01*
X117796802Y-73142999D01*
X119165000Y-71774802D01*
X119165000Y-71901260D01*
X119222068Y-72188158D01*
X119334010Y-72458411D01*
X119496525Y-72701632D01*
X119703368Y-72908475D01*
X119946589Y-73070990D01*
X120216842Y-73182932D01*
X120503740Y-73240000D01*
X120796260Y-73240000D01*
X121083158Y-73182932D01*
X121353411Y-73070990D01*
X121596632Y-72908475D01*
X121803475Y-72701632D01*
X121965990Y-72458411D01*
X122077932Y-72188158D01*
X122135000Y-71901260D01*
X122135000Y-71608740D01*
X122091210Y-71388592D01*
X122336004Y-71143798D01*
X122365002Y-71120000D01*
X122459975Y-71004275D01*
X122530547Y-70872246D01*
X122574004Y-70728985D01*
X122585001Y-70617332D01*
X122585001Y-70617323D01*
X122588677Y-70580000D01*
X122585001Y-70542677D01*
X122585001Y-59252321D01*
X122588677Y-59214998D01*
X122585001Y-59177675D01*
X122585001Y-59177666D01*
X122574004Y-59066013D01*
X122530547Y-58922752D01*
X122459975Y-58790723D01*
X122365002Y-58674998D01*
X122336005Y-58651201D01*
X121356725Y-57671922D01*
X121858592Y-57519103D01*
X122397373Y-57231118D01*
X122673543Y-56813148D01*
X120650000Y-54789605D01*
X120635858Y-54803748D01*
X120456253Y-54624143D01*
X120470395Y-54610000D01*
X120829605Y-54610000D01*
X122853148Y-56633543D01*
X123271118Y-56357373D01*
X123561649Y-55812443D01*
X123740287Y-55221304D01*
X123800168Y-54606672D01*
X123738990Y-53992169D01*
X123559103Y-53401408D01*
X123271118Y-52862627D01*
X122853148Y-52586457D01*
X120829605Y-54610000D01*
X120470395Y-54610000D01*
X118446852Y-52586457D01*
X118028882Y-52862627D01*
X117738351Y-53407557D01*
X117559713Y-53998696D01*
X117499832Y-54613328D01*
X117561010Y-55227831D01*
X117740897Y-55818592D01*
X118028882Y-56357373D01*
X118446850Y-56633542D01*
X118405391Y-56675001D01*
X106658242Y-56675001D01*
X106593061Y-56517641D01*
X106446962Y-56298987D01*
X106261013Y-56113038D01*
X106107401Y-56010398D01*
X108747799Y-53370001D01*
X111817677Y-53370001D01*
X111854999Y-53373677D01*
X111892321Y-53370001D01*
X111892332Y-53370001D01*
X112003985Y-53359004D01*
X112147246Y-53315547D01*
X112279275Y-53244975D01*
X112395000Y-53150002D01*
X112418803Y-53120998D01*
X112616729Y-52923072D01*
X113880000Y-52923072D01*
X114004482Y-52910812D01*
X114124180Y-52874502D01*
X114234494Y-52815537D01*
X114331185Y-52736185D01*
X114410537Y-52639494D01*
X114469502Y-52529180D01*
X114505812Y-52409482D01*
X114506071Y-52406852D01*
X118626457Y-52406852D01*
X120650000Y-54430395D01*
X122673543Y-52406852D01*
X122397373Y-51988882D01*
X121852443Y-51698351D01*
X121261304Y-51519713D01*
X120646672Y-51459832D01*
X120032169Y-51521010D01*
X119441408Y-51700897D01*
X118902627Y-51988882D01*
X118626457Y-52406852D01*
X114506071Y-52406852D01*
X114518072Y-52285000D01*
X114518072Y-50585000D01*
X114505812Y-50460518D01*
X114469502Y-50340820D01*
X114410537Y-50230506D01*
X114377295Y-50190000D01*
X121011620Y-50190000D01*
X125705000Y-54883381D01*
X125705001Y-80370630D01*
X125622871Y-80288500D01*
X125330515Y-80093153D01*
X125005665Y-79958596D01*
X124660807Y-79890000D01*
X124309193Y-79890000D01*
X123964335Y-79958596D01*
X123639485Y-80093153D01*
X123347129Y-80288500D01*
X123098500Y-80537129D01*
X122903153Y-80829485D01*
X122768596Y-81154335D01*
X122700000Y-81499193D01*
X122700000Y-81850807D01*
X122768596Y-82195665D01*
X122903153Y-82520515D01*
X123098500Y-82812871D01*
X123347129Y-83061500D01*
X123639485Y-83256847D01*
X123964335Y-83391404D01*
X124309193Y-83460000D01*
X124660807Y-83460000D01*
X125005665Y-83391404D01*
X125330515Y-83256847D01*
X125622871Y-83061500D01*
X125705001Y-82979370D01*
X125705001Y-87605000D01*
X76225000Y-87605000D01*
X76225000Y-80050475D01*
X78670000Y-80050475D01*
X78670000Y-80569525D01*
X78771261Y-81078601D01*
X78969893Y-81558141D01*
X79258262Y-81989715D01*
X79625285Y-82356738D01*
X80056859Y-82645107D01*
X80536399Y-82843739D01*
X81045475Y-82945000D01*
X81564525Y-82945000D01*
X82073601Y-82843739D01*
X82553141Y-82645107D01*
X82984715Y-82356738D01*
X83351738Y-81989715D01*
X83640107Y-81558141D01*
X83838739Y-81078601D01*
X83892166Y-80810000D01*
X86826928Y-80810000D01*
X86839188Y-80934482D01*
X86875498Y-81054180D01*
X86934463Y-81164494D01*
X87013815Y-81261185D01*
X87110506Y-81340537D01*
X87220820Y-81399502D01*
X87340518Y-81435812D01*
X87465000Y-81448072D01*
X87979250Y-81445000D01*
X88138000Y-81286250D01*
X88138000Y-80137000D01*
X86988750Y-80137000D01*
X86830000Y-80295750D01*
X86826928Y-80810000D01*
X83892166Y-80810000D01*
X83940000Y-80569525D01*
X83940000Y-80050475D01*
X83838739Y-79541399D01*
X83701470Y-79210000D01*
X86826928Y-79210000D01*
X86830000Y-79724250D01*
X86988750Y-79883000D01*
X88138000Y-79883000D01*
X88138000Y-78733750D01*
X87979250Y-78575000D01*
X87465000Y-78571928D01*
X87340518Y-78584188D01*
X87220820Y-78620498D01*
X87110506Y-78679463D01*
X87013815Y-78758815D01*
X86934463Y-78855506D01*
X86875498Y-78965820D01*
X86839188Y-79085518D01*
X86826928Y-79210000D01*
X83701470Y-79210000D01*
X83640107Y-79061859D01*
X83351738Y-78630285D01*
X82984715Y-78263262D01*
X82553141Y-77974893D01*
X82073601Y-77776261D01*
X81564525Y-77675000D01*
X81045475Y-77675000D01*
X80536399Y-77776261D01*
X80056859Y-77974893D01*
X79625285Y-78263262D01*
X79258262Y-78630285D01*
X78969893Y-79061859D01*
X78771261Y-79541399D01*
X78670000Y-80050475D01*
X76225000Y-80050475D01*
X76225000Y-76120816D01*
X76390397Y-76197769D01*
X76646269Y-76260147D01*
X76909395Y-76271408D01*
X77169661Y-76231120D01*
X77417067Y-76140831D01*
X77518390Y-76086671D01*
X77578093Y-75852698D01*
X76835000Y-75109605D01*
X76820858Y-75123748D01*
X76641253Y-74944143D01*
X76655395Y-74930000D01*
X76641253Y-74915858D01*
X76820858Y-74736253D01*
X76835000Y-74750395D01*
X77578093Y-74007302D01*
X77518390Y-73773329D01*
X77279603Y-73662231D01*
X77023731Y-73599853D01*
X76760605Y-73588592D01*
X76500339Y-73628880D01*
X76252933Y-73719169D01*
X76225000Y-73734100D01*
X76225000Y-65913242D01*
X76818000Y-65913242D01*
X76818000Y-66166758D01*
X76867459Y-66415404D01*
X76964476Y-66649623D01*
X77105322Y-66860415D01*
X77284585Y-67039678D01*
X77495377Y-67180524D01*
X77729596Y-67277541D01*
X77892778Y-67310000D01*
X77729596Y-67342459D01*
X77495377Y-67439476D01*
X77284585Y-67580322D01*
X77105322Y-67759585D01*
X76964476Y-67970377D01*
X76867459Y-68204596D01*
X76818000Y-68453242D01*
X76818000Y-68706758D01*
X76867459Y-68955404D01*
X76964476Y-69189623D01*
X77105322Y-69400415D01*
X77284585Y-69579678D01*
X77495377Y-69720524D01*
X77729596Y-69817541D01*
X77978242Y-69867000D01*
X78231758Y-69867000D01*
X78480404Y-69817541D01*
X78714623Y-69720524D01*
X78925415Y-69579678D01*
X79104678Y-69400415D01*
X79245524Y-69189623D01*
X79342541Y-68955404D01*
X79392000Y-68706758D01*
X79392000Y-68453242D01*
X79342541Y-68204596D01*
X79245524Y-67970377D01*
X79104678Y-67759585D01*
X78925415Y-67580322D01*
X78714623Y-67439476D01*
X78480404Y-67342459D01*
X78317222Y-67310000D01*
X78480404Y-67277541D01*
X78714623Y-67180524D01*
X78925415Y-67039678D01*
X79104678Y-66860415D01*
X79245524Y-66649623D01*
X79342541Y-66415404D01*
X79392000Y-66166758D01*
X79392000Y-65913242D01*
X79388630Y-65896297D01*
X82934962Y-65896297D01*
X82971751Y-66097228D01*
X83047033Y-66287121D01*
X83059723Y-66310862D01*
X83054422Y-66318796D01*
X82976251Y-66507518D01*
X82936400Y-66707864D01*
X82936400Y-66912136D01*
X82976251Y-67112482D01*
X83054422Y-67301204D01*
X83060299Y-67310000D01*
X83054422Y-67318796D01*
X82976251Y-67507518D01*
X82936400Y-67707864D01*
X82936400Y-67912136D01*
X82976251Y-68112482D01*
X83054422Y-68301204D01*
X83060299Y-68310000D01*
X83054422Y-68318796D01*
X82976251Y-68507518D01*
X82936400Y-68707864D01*
X82936400Y-68912136D01*
X82976251Y-69112482D01*
X83054422Y-69301204D01*
X83060299Y-69310000D01*
X83054422Y-69318796D01*
X82976251Y-69507518D01*
X82936400Y-69707864D01*
X82936400Y-69912136D01*
X82976251Y-70112482D01*
X83054422Y-70301204D01*
X83060299Y-70310000D01*
X83054422Y-70318796D01*
X82976251Y-70507518D01*
X82936400Y-70707864D01*
X82936400Y-70912136D01*
X82976251Y-71112482D01*
X83054422Y-71301204D01*
X83167909Y-71471049D01*
X83312351Y-71615491D01*
X83482196Y-71728978D01*
X83670918Y-71807149D01*
X83871264Y-71847000D01*
X84075536Y-71847000D01*
X84275882Y-71807149D01*
X84464604Y-71728978D01*
X84634449Y-71615491D01*
X84778891Y-71471049D01*
X84892378Y-71301204D01*
X84970549Y-71112482D01*
X85010400Y-70912136D01*
X85010400Y-70707864D01*
X84970549Y-70507518D01*
X84892378Y-70318796D01*
X84886501Y-70310000D01*
X84892378Y-70301204D01*
X84970549Y-70112482D01*
X85010400Y-69912136D01*
X85010400Y-69707864D01*
X84970549Y-69507518D01*
X84892378Y-69318796D01*
X84886501Y-69310000D01*
X84892378Y-69301204D01*
X84970549Y-69112482D01*
X85010400Y-68912136D01*
X85010400Y-68707864D01*
X84970549Y-68507518D01*
X84892378Y-68318796D01*
X84886501Y-68310000D01*
X84892378Y-68301204D01*
X84970549Y-68112482D01*
X85010400Y-67912136D01*
X85010400Y-67707864D01*
X84970549Y-67507518D01*
X84892378Y-67318796D01*
X84886501Y-67310000D01*
X84892378Y-67301204D01*
X84970549Y-67112482D01*
X85010400Y-66912136D01*
X85010400Y-66707864D01*
X84970549Y-66507518D01*
X84892378Y-66318796D01*
X84886809Y-66310462D01*
X84965817Y-66127664D01*
X85008720Y-65927950D01*
X85011838Y-65723703D01*
X84975049Y-65522772D01*
X84899767Y-65332879D01*
X84887077Y-65309138D01*
X84892378Y-65301204D01*
X84970549Y-65112482D01*
X85010400Y-64912136D01*
X85010400Y-64707864D01*
X84970549Y-64507518D01*
X84892378Y-64318796D01*
X84886501Y-64310000D01*
X84892378Y-64301204D01*
X84970549Y-64112482D01*
X85010400Y-63912136D01*
X85010400Y-63707864D01*
X84970549Y-63507518D01*
X84892378Y-63318796D01*
X84778891Y-63148951D01*
X84634449Y-63004509D01*
X84464604Y-62891022D01*
X84275882Y-62812851D01*
X84075536Y-62773000D01*
X83871264Y-62773000D01*
X83670918Y-62812851D01*
X83482196Y-62891022D01*
X83312351Y-63004509D01*
X83167909Y-63148951D01*
X83054422Y-63318796D01*
X82976251Y-63507518D01*
X82936400Y-63707864D01*
X82936400Y-63912136D01*
X82976251Y-64112482D01*
X83054422Y-64301204D01*
X83060299Y-64310000D01*
X83054422Y-64318796D01*
X82976251Y-64507518D01*
X82936400Y-64707864D01*
X82936400Y-64912136D01*
X82976251Y-65112482D01*
X83054422Y-65301204D01*
X83059991Y-65309538D01*
X82980983Y-65492336D01*
X82938080Y-65692050D01*
X82934962Y-65896297D01*
X79388630Y-65896297D01*
X79342541Y-65664596D01*
X79245524Y-65430377D01*
X79104678Y-65219585D01*
X78925415Y-65040322D01*
X78714623Y-64899476D01*
X78480404Y-64802459D01*
X78231758Y-64753000D01*
X77978242Y-64753000D01*
X77729596Y-64802459D01*
X77495377Y-64899476D01*
X77284585Y-65040322D01*
X77105322Y-65219585D01*
X76964476Y-65430377D01*
X76867459Y-65664596D01*
X76818000Y-65913242D01*
X76225000Y-65913242D01*
X76225000Y-62098317D01*
X78038000Y-62098317D01*
X78038000Y-62361683D01*
X78089380Y-62619988D01*
X78190166Y-62863307D01*
X78336484Y-63082288D01*
X78522712Y-63268516D01*
X78741693Y-63414834D01*
X78985012Y-63515620D01*
X79243317Y-63567000D01*
X79506683Y-63567000D01*
X79764988Y-63515620D01*
X80008307Y-63414834D01*
X80227288Y-63268516D01*
X80413516Y-63082288D01*
X80559834Y-62863307D01*
X80660620Y-62619988D01*
X80712000Y-62361683D01*
X80712000Y-62098317D01*
X80660620Y-61840012D01*
X80559834Y-61596693D01*
X80413516Y-61377712D01*
X80227288Y-61191484D01*
X80008307Y-61045166D01*
X79799062Y-60958494D01*
X79957067Y-60900831D01*
X80058390Y-60846671D01*
X80118093Y-60612698D01*
X79375000Y-59869605D01*
X78631907Y-60612698D01*
X78691610Y-60846671D01*
X78930397Y-60957769D01*
X78944429Y-60961190D01*
X78741693Y-61045166D01*
X78522712Y-61191484D01*
X78336484Y-61377712D01*
X78190166Y-61596693D01*
X78089380Y-61840012D01*
X78038000Y-62098317D01*
X76225000Y-62098317D01*
X76225000Y-60884488D01*
X76445012Y-60975620D01*
X76703317Y-61027000D01*
X76966683Y-61027000D01*
X77224988Y-60975620D01*
X77468307Y-60874834D01*
X77687288Y-60728516D01*
X77873516Y-60542288D01*
X78019834Y-60323307D01*
X78106506Y-60114062D01*
X78164169Y-60272067D01*
X78218329Y-60373390D01*
X78452302Y-60433093D01*
X79195395Y-59690000D01*
X78452302Y-58946907D01*
X78218329Y-59006610D01*
X78107231Y-59245397D01*
X78103810Y-59259429D01*
X78019834Y-59056693D01*
X77873516Y-58837712D01*
X77803106Y-58767302D01*
X78631907Y-58767302D01*
X79375000Y-59510395D01*
X80118093Y-58767302D01*
X80058390Y-58533329D01*
X79819603Y-58422231D01*
X79563731Y-58359853D01*
X79300605Y-58348592D01*
X79040339Y-58388880D01*
X78792933Y-58479169D01*
X78691610Y-58533329D01*
X78631907Y-58767302D01*
X77803106Y-58767302D01*
X77687288Y-58651484D01*
X77468307Y-58505166D01*
X77224988Y-58404380D01*
X76966683Y-58353000D01*
X76703317Y-58353000D01*
X76445012Y-58404380D01*
X76225000Y-58495512D01*
X76225000Y-56813148D01*
X79256457Y-56813148D01*
X79532627Y-57231118D01*
X80077557Y-57521649D01*
X80668696Y-57700287D01*
X81283328Y-57760168D01*
X81897831Y-57698990D01*
X82488592Y-57519103D01*
X83027373Y-57231118D01*
X83303543Y-56813148D01*
X81280000Y-54789605D01*
X79256457Y-56813148D01*
X76225000Y-56813148D01*
X76225000Y-54883380D01*
X76495052Y-54613328D01*
X78129832Y-54613328D01*
X78191010Y-55227831D01*
X78370897Y-55818592D01*
X78658882Y-56357373D01*
X79076852Y-56633543D01*
X81100395Y-54610000D01*
X81459605Y-54610000D01*
X83483148Y-56633543D01*
X83901118Y-56357373D01*
X84191649Y-55812443D01*
X84370287Y-55221304D01*
X84430168Y-54606672D01*
X84368990Y-53992169D01*
X84189103Y-53401408D01*
X83901118Y-52862627D01*
X83483148Y-52586457D01*
X81459605Y-54610000D01*
X81100395Y-54610000D01*
X79076852Y-52586457D01*
X78658882Y-52862627D01*
X78368351Y-53407557D01*
X78189713Y-53998696D01*
X78129832Y-54613328D01*
X76495052Y-54613328D01*
X78701528Y-52406852D01*
X79256457Y-52406852D01*
X81280000Y-54430395D01*
X83303543Y-52406852D01*
X83027373Y-51988882D01*
X82657890Y-51791891D01*
X88728519Y-51791891D01*
X88825843Y-52066252D01*
X88974822Y-52316355D01*
X89169731Y-52532588D01*
X89403080Y-52706641D01*
X89665901Y-52831825D01*
X89813110Y-52876476D01*
X90043000Y-52755155D01*
X90043000Y-51562000D01*
X88849186Y-51562000D01*
X88728519Y-51791891D01*
X82657890Y-51791891D01*
X82482443Y-51698351D01*
X81891304Y-51519713D01*
X81276672Y-51459832D01*
X80662169Y-51521010D01*
X80071408Y-51700897D01*
X79532627Y-51988882D01*
X79256457Y-52406852D01*
X78701528Y-52406852D01*
X80918381Y-50190000D01*
X89367363Y-50190000D01*
X89169731Y-50337412D01*
%TA.AperFunction,Conductor*%
D25*
G36*
X89169731Y-50337412D02*
G01*
X88974822Y-50553645D01*
X88825843Y-50803748D01*
X88728519Y-51078109D01*
X88849186Y-51308000D01*
X90043000Y-51308000D01*
X90043000Y-51288000D01*
X90297000Y-51288000D01*
X90297000Y-51308000D01*
X90317000Y-51308000D01*
X90317000Y-51562000D01*
X90297000Y-51562000D01*
X90297000Y-52755155D01*
X90526890Y-52876476D01*
X90674099Y-52831825D01*
X90936920Y-52706641D01*
X91170269Y-52532588D01*
X91365178Y-52316355D01*
X91434805Y-52199466D01*
X91556525Y-52381632D01*
X91763368Y-52588475D01*
X92006589Y-52750990D01*
X92276842Y-52862932D01*
X92563740Y-52920000D01*
X92690198Y-52920000D01*
X87996997Y-57613202D01*
X87967999Y-57637000D01*
X87944201Y-57665998D01*
X87944200Y-57665999D01*
X87873025Y-57752725D01*
X87802453Y-57884755D01*
X87758997Y-58028016D01*
X87744323Y-58177001D01*
X87748000Y-58214333D01*
X87748000Y-58585142D01*
X87628307Y-58505166D01*
X87384988Y-58404380D01*
X87126683Y-58353000D01*
X86863317Y-58353000D01*
X86605012Y-58404380D01*
X86361693Y-58505166D01*
X86142712Y-58651484D01*
X85956484Y-58837712D01*
X85810166Y-59056693D01*
X85725000Y-59262302D01*
X85639834Y-59056693D01*
X85493516Y-58837712D01*
X85307288Y-58651484D01*
X85088307Y-58505166D01*
X84844988Y-58404380D01*
X84586683Y-58353000D01*
X84323317Y-58353000D01*
X84065012Y-58404380D01*
X83821693Y-58505166D01*
X83602712Y-58651484D01*
X83416484Y-58837712D01*
X83270166Y-59056693D01*
X83185000Y-59262302D01*
X83099834Y-59056693D01*
X82953516Y-58837712D01*
X82767288Y-58651484D01*
X82548307Y-58505166D01*
X82304988Y-58404380D01*
X82046683Y-58353000D01*
X81783317Y-58353000D01*
X81525012Y-58404380D01*
X81281693Y-58505166D01*
X81062712Y-58651484D01*
X80876484Y-58837712D01*
X80730166Y-59056693D01*
X80643494Y-59265938D01*
X80585831Y-59107933D01*
X80531671Y-59006610D01*
X80297698Y-58946907D01*
X79554605Y-59690000D01*
X80297698Y-60433093D01*
X80531671Y-60373390D01*
X80642769Y-60134603D01*
X80646190Y-60120571D01*
X80730166Y-60323307D01*
X80876484Y-60542288D01*
X81062712Y-60728516D01*
X81281693Y-60874834D01*
X81525012Y-60975620D01*
X81783317Y-61027000D01*
X82046683Y-61027000D01*
X82304988Y-60975620D01*
X82548307Y-60874834D01*
X82767288Y-60728516D01*
X82953516Y-60542288D01*
X83099834Y-60323307D01*
X83185000Y-60117698D01*
X83270166Y-60323307D01*
X83416484Y-60542288D01*
X83602712Y-60728516D01*
X83821693Y-60874834D01*
X84065012Y-60975620D01*
X84323317Y-61027000D01*
X84586683Y-61027000D01*
X84844988Y-60975620D01*
X85088307Y-60874834D01*
X85307288Y-60728516D01*
X85493516Y-60542288D01*
X85639834Y-60323307D01*
X85725000Y-60117698D01*
X85810166Y-60323307D01*
X85956484Y-60542288D01*
X86142712Y-60728516D01*
X86361693Y-60874834D01*
X86605012Y-60975620D01*
X86863317Y-61027000D01*
X87126683Y-61027000D01*
X87384988Y-60975620D01*
X87628307Y-60874834D01*
X87748000Y-60794858D01*
X87747999Y-70562199D01*
X84695545Y-73614654D01*
X84586683Y-73593000D01*
X84323317Y-73593000D01*
X84065012Y-73644380D01*
X83821693Y-73745166D01*
X83602712Y-73891484D01*
X83416484Y-74077712D01*
X83270166Y-74296693D01*
X83185000Y-74502302D01*
X83099834Y-74296693D01*
X82953516Y-74077712D01*
X82767288Y-73891484D01*
X82548307Y-73745166D01*
X82304988Y-73644380D01*
X82046683Y-73593000D01*
X81783317Y-73593000D01*
X81525012Y-73644380D01*
X81281693Y-73745166D01*
X81062712Y-73891484D01*
X80876484Y-74077712D01*
X80730166Y-74296693D01*
X80645000Y-74502302D01*
X80559834Y-74296693D01*
X80413516Y-74077712D01*
X80227288Y-73891484D01*
X80008307Y-73745166D01*
X79764988Y-73644380D01*
X79506683Y-73593000D01*
X79243317Y-73593000D01*
X78985012Y-73644380D01*
X78741693Y-73745166D01*
X78522712Y-73891484D01*
X78336484Y-74077712D01*
X78190166Y-74296693D01*
X78103494Y-74505938D01*
X78045831Y-74347933D01*
X77991671Y-74246610D01*
X77757698Y-74186907D01*
X77014605Y-74930000D01*
X77757698Y-75673093D01*
X77991671Y-75613390D01*
X78102769Y-75374603D01*
X78106190Y-75360571D01*
X78190166Y-75563307D01*
X78336484Y-75782288D01*
X78522712Y-75968516D01*
X78741693Y-76114834D01*
X78985012Y-76215620D01*
X79243317Y-76267000D01*
X79506683Y-76267000D01*
X79764988Y-76215620D01*
X80008307Y-76114834D01*
X80227288Y-75968516D01*
X80413516Y-75782288D01*
X80559834Y-75563307D01*
X80645000Y-75357698D01*
X80730166Y-75563307D01*
X80876484Y-75782288D01*
X81062712Y-75968516D01*
X81281693Y-76114834D01*
X81525012Y-76215620D01*
X81783317Y-76267000D01*
X82046683Y-76267000D01*
X82304988Y-76215620D01*
X82548307Y-76114834D01*
X82767288Y-75968516D01*
X82953516Y-75782288D01*
X83099834Y-75563307D01*
X83185000Y-75357698D01*
X83270166Y-75563307D01*
X83416484Y-75782288D01*
X83602712Y-75968516D01*
X83821693Y-76114834D01*
X84065012Y-76215620D01*
X84323317Y-76267000D01*
X84586683Y-76267000D01*
X84844988Y-76215620D01*
X85088307Y-76114834D01*
X85307288Y-75968516D01*
X85493516Y-75782288D01*
X85639834Y-75563307D01*
X85725000Y-75357698D01*
X85810166Y-75563307D01*
X85956484Y-75782288D01*
X86142712Y-75968516D01*
X86361693Y-76114834D01*
X86605012Y-76215620D01*
X86863317Y-76267000D01*
X87126683Y-76267000D01*
X87384988Y-76215620D01*
X87628307Y-76114834D01*
X87847288Y-75968516D01*
X88033516Y-75782288D01*
X88179834Y-75563307D01*
X88265000Y-75357698D01*
X88350166Y-75563307D01*
X88496484Y-75782288D01*
X88682712Y-75968516D01*
X88901693Y-76114834D01*
X89145012Y-76215620D01*
X89403317Y-76267000D01*
X89666683Y-76267000D01*
X89837990Y-76232925D01*
X89837989Y-77402076D01*
X89834313Y-77439399D01*
X89837989Y-77476721D01*
X89837989Y-77476731D01*
X89848986Y-77588384D01*
X89880599Y-77692599D01*
X89892443Y-77731645D01*
X89963015Y-77863675D01*
X90031657Y-77947315D01*
X90057988Y-77979399D01*
X90086986Y-78003197D01*
X90697758Y-78613969D01*
X90616426Y-78630147D01*
X90355273Y-78738320D01*
X90120241Y-78895363D01*
X89920363Y-79095241D01*
X89763320Y-79330273D01*
X89701461Y-79479613D01*
X89703072Y-79210000D01*
X89690812Y-79085518D01*
X89654502Y-78965820D01*
X89595537Y-78855506D01*
X89516185Y-78758815D01*
X89419494Y-78679463D01*
X89309180Y-78620498D01*
X89189482Y-78584188D01*
X89065000Y-78571928D01*
X88550750Y-78575000D01*
X88392000Y-78733750D01*
X88392000Y-79883000D01*
X88412000Y-79883000D01*
X88412000Y-80137000D01*
X88392000Y-80137000D01*
X88392000Y-81286250D01*
X88432973Y-81327223D01*
X88013997Y-81746200D01*
X87984999Y-81769998D01*
X87961201Y-81798996D01*
X87961200Y-81798997D01*
X87890025Y-81885723D01*
X87819453Y-82017753D01*
X87803240Y-82071202D01*
X87779558Y-82149276D01*
X87775997Y-82161014D01*
X87761323Y-82309999D01*
X87765000Y-82347331D01*
X87764999Y-83352678D01*
X87761323Y-83390001D01*
X87764999Y-83427323D01*
X87764999Y-83427333D01*
X87775996Y-83538986D01*
X87814224Y-83665010D01*
X87819453Y-83682247D01*
X87890025Y-83814277D01*
X87929870Y-83862827D01*
X87984998Y-83930002D01*
X88014001Y-83953805D01*
X88996209Y-84936013D01*
X89020007Y-84965011D01*
X89135732Y-85059984D01*
X89267761Y-85130556D01*
X89411022Y-85174013D01*
X89522675Y-85185010D01*
X89522683Y-85185010D01*
X89560008Y-85188686D01*
X89597333Y-85185010D01*
X117649080Y-85185010D01*
X117686402Y-85188686D01*
X117723724Y-85185010D01*
X117723735Y-85185010D01*
X117835388Y-85174013D01*
X117978649Y-85130556D01*
X118110678Y-85059984D01*
X118226403Y-84965011D01*
X118250206Y-84936007D01*
X122051017Y-81135197D01*
X122080010Y-81111403D01*
X122103804Y-81082410D01*
X122103809Y-81082405D01*
X122174984Y-80995678D01*
X122245556Y-80863649D01*
X122289013Y-80720388D01*
X122303686Y-80571402D01*
X122300009Y-80534067D01*
X122300011Y-77189921D01*
X122303687Y-77152598D01*
X122300011Y-77115275D01*
X122300011Y-77115267D01*
X122289014Y-77003614D01*
X122245557Y-76860353D01*
X122174985Y-76728324D01*
X122174984Y-76728322D01*
X122103810Y-76641595D01*
X122103801Y-76641586D01*
X122080012Y-76612599D01*
X122051025Y-76588810D01*
X118854215Y-73392002D01*
X118830412Y-73362998D01*
X118714687Y-73268025D01*
X118582658Y-73197453D01*
X118439397Y-73153996D01*
X118327744Y-73142999D01*
X118327733Y-73142999D01*
X118290411Y-73139323D01*
X118253089Y-73142999D01*
X117796802Y-73142999D01*
X119165000Y-71774802D01*
X119165000Y-71901260D01*
X119222068Y-72188158D01*
X119334010Y-72458411D01*
X119496525Y-72701632D01*
X119703368Y-72908475D01*
X119946589Y-73070990D01*
X120216842Y-73182932D01*
X120503740Y-73240000D01*
X120796260Y-73240000D01*
X121083158Y-73182932D01*
X121353411Y-73070990D01*
X121596632Y-72908475D01*
X121803475Y-72701632D01*
X121965990Y-72458411D01*
X122077932Y-72188158D01*
X122135000Y-71901260D01*
X122135000Y-71608740D01*
X122091210Y-71388592D01*
X122336004Y-71143798D01*
X122365002Y-71120000D01*
X122459975Y-71004275D01*
X122530547Y-70872246D01*
X122574004Y-70728985D01*
X122585001Y-70617332D01*
X122585001Y-70617323D01*
X122588677Y-70580000D01*
X122585001Y-70542677D01*
X122585001Y-59252321D01*
X122588677Y-59214998D01*
X122585001Y-59177675D01*
X122585001Y-59177666D01*
X122574004Y-59066013D01*
X122530547Y-58922752D01*
X122459975Y-58790723D01*
X122365002Y-58674998D01*
X122336005Y-58651201D01*
X121356725Y-57671922D01*
X121858592Y-57519103D01*
X122397373Y-57231118D01*
X122673543Y-56813148D01*
X120650000Y-54789605D01*
X120635858Y-54803748D01*
X120456253Y-54624143D01*
X120470395Y-54610000D01*
X120829605Y-54610000D01*
X122853148Y-56633543D01*
X123271118Y-56357373D01*
X123561649Y-55812443D01*
X123740287Y-55221304D01*
X123800168Y-54606672D01*
X123738990Y-53992169D01*
X123559103Y-53401408D01*
X123271118Y-52862627D01*
X122853148Y-52586457D01*
X120829605Y-54610000D01*
X120470395Y-54610000D01*
X118446852Y-52586457D01*
X118028882Y-52862627D01*
X117738351Y-53407557D01*
X117559713Y-53998696D01*
X117499832Y-54613328D01*
X117561010Y-55227831D01*
X117740897Y-55818592D01*
X118028882Y-56357373D01*
X118446850Y-56633542D01*
X118405391Y-56675001D01*
X106658242Y-56675001D01*
X106593061Y-56517641D01*
X106446962Y-56298987D01*
X106261013Y-56113038D01*
X106107401Y-56010398D01*
X108747799Y-53370001D01*
X111817677Y-53370001D01*
X111854999Y-53373677D01*
X111892321Y-53370001D01*
X111892332Y-53370001D01*
X112003985Y-53359004D01*
X112147246Y-53315547D01*
X112279275Y-53244975D01*
X112395000Y-53150002D01*
X112418803Y-53120998D01*
X112616729Y-52923072D01*
X113880000Y-52923072D01*
X114004482Y-52910812D01*
X114124180Y-52874502D01*
X114234494Y-52815537D01*
X114331185Y-52736185D01*
X114410537Y-52639494D01*
X114469502Y-52529180D01*
X114505812Y-52409482D01*
X114506071Y-52406852D01*
X118626457Y-52406852D01*
X120650000Y-54430395D01*
X122673543Y-52406852D01*
X122397373Y-51988882D01*
X121852443Y-51698351D01*
X121261304Y-51519713D01*
X120646672Y-51459832D01*
X120032169Y-51521010D01*
X119441408Y-51700897D01*
X118902627Y-51988882D01*
X118626457Y-52406852D01*
X114506071Y-52406852D01*
X114518072Y-52285000D01*
X114518072Y-50585000D01*
X114505812Y-50460518D01*
X114469502Y-50340820D01*
X114410537Y-50230506D01*
X114377295Y-50190000D01*
X121011620Y-50190000D01*
X125705000Y-54883381D01*
X125705001Y-80370630D01*
X125622871Y-80288500D01*
X125330515Y-80093153D01*
X125005665Y-79958596D01*
X124660807Y-79890000D01*
X124309193Y-79890000D01*
X123964335Y-79958596D01*
X123639485Y-80093153D01*
X123347129Y-80288500D01*
X123098500Y-80537129D01*
X122903153Y-80829485D01*
X122768596Y-81154335D01*
X122700000Y-81499193D01*
X122700000Y-81850807D01*
X122768596Y-82195665D01*
X122903153Y-82520515D01*
X123098500Y-82812871D01*
X123347129Y-83061500D01*
X123639485Y-83256847D01*
X123964335Y-83391404D01*
X124309193Y-83460000D01*
X124660807Y-83460000D01*
X125005665Y-83391404D01*
X125330515Y-83256847D01*
X125622871Y-83061500D01*
X125705001Y-82979370D01*
X125705001Y-87605000D01*
X76225000Y-87605000D01*
X76225000Y-80050475D01*
X78670000Y-80050475D01*
X78670000Y-80569525D01*
X78771261Y-81078601D01*
X78969893Y-81558141D01*
X79258262Y-81989715D01*
X79625285Y-82356738D01*
X80056859Y-82645107D01*
X80536399Y-82843739D01*
X81045475Y-82945000D01*
X81564525Y-82945000D01*
X82073601Y-82843739D01*
X82553141Y-82645107D01*
X82984715Y-82356738D01*
X83351738Y-81989715D01*
X83640107Y-81558141D01*
X83838739Y-81078601D01*
X83892166Y-80810000D01*
X86826928Y-80810000D01*
X86839188Y-80934482D01*
X86875498Y-81054180D01*
X86934463Y-81164494D01*
X87013815Y-81261185D01*
X87110506Y-81340537D01*
X87220820Y-81399502D01*
X87340518Y-81435812D01*
X87465000Y-81448072D01*
X87979250Y-81445000D01*
X88138000Y-81286250D01*
X88138000Y-80137000D01*
X86988750Y-80137000D01*
X86830000Y-80295750D01*
X86826928Y-80810000D01*
X83892166Y-80810000D01*
X83940000Y-80569525D01*
X83940000Y-80050475D01*
X83838739Y-79541399D01*
X83701470Y-79210000D01*
X86826928Y-79210000D01*
X86830000Y-79724250D01*
X86988750Y-79883000D01*
X88138000Y-79883000D01*
X88138000Y-78733750D01*
X87979250Y-78575000D01*
X87465000Y-78571928D01*
X87340518Y-78584188D01*
X87220820Y-78620498D01*
X87110506Y-78679463D01*
X87013815Y-78758815D01*
X86934463Y-78855506D01*
X86875498Y-78965820D01*
X86839188Y-79085518D01*
X86826928Y-79210000D01*
X83701470Y-79210000D01*
X83640107Y-79061859D01*
X83351738Y-78630285D01*
X82984715Y-78263262D01*
X82553141Y-77974893D01*
X82073601Y-77776261D01*
X81564525Y-77675000D01*
X81045475Y-77675000D01*
X80536399Y-77776261D01*
X80056859Y-77974893D01*
X79625285Y-78263262D01*
X79258262Y-78630285D01*
X78969893Y-79061859D01*
X78771261Y-79541399D01*
X78670000Y-80050475D01*
X76225000Y-80050475D01*
X76225000Y-76120816D01*
X76390397Y-76197769D01*
X76646269Y-76260147D01*
X76909395Y-76271408D01*
X77169661Y-76231120D01*
X77417067Y-76140831D01*
X77518390Y-76086671D01*
X77578093Y-75852698D01*
X76835000Y-75109605D01*
X76820858Y-75123748D01*
X76641253Y-74944143D01*
X76655395Y-74930000D01*
X76641253Y-74915858D01*
X76820858Y-74736253D01*
X76835000Y-74750395D01*
X77578093Y-74007302D01*
X77518390Y-73773329D01*
X77279603Y-73662231D01*
X77023731Y-73599853D01*
X76760605Y-73588592D01*
X76500339Y-73628880D01*
X76252933Y-73719169D01*
X76225000Y-73734100D01*
X76225000Y-65913242D01*
X76818000Y-65913242D01*
X76818000Y-66166758D01*
X76867459Y-66415404D01*
X76964476Y-66649623D01*
X77105322Y-66860415D01*
X77284585Y-67039678D01*
X77495377Y-67180524D01*
X77729596Y-67277541D01*
X77892778Y-67310000D01*
X77729596Y-67342459D01*
X77495377Y-67439476D01*
X77284585Y-67580322D01*
X77105322Y-67759585D01*
X76964476Y-67970377D01*
X76867459Y-68204596D01*
X76818000Y-68453242D01*
X76818000Y-68706758D01*
X76867459Y-68955404D01*
X76964476Y-69189623D01*
X77105322Y-69400415D01*
X77284585Y-69579678D01*
X77495377Y-69720524D01*
X77729596Y-69817541D01*
X77978242Y-69867000D01*
X78231758Y-69867000D01*
X78480404Y-69817541D01*
X78714623Y-69720524D01*
X78925415Y-69579678D01*
X79104678Y-69400415D01*
X79245524Y-69189623D01*
X79342541Y-68955404D01*
X79392000Y-68706758D01*
X79392000Y-68453242D01*
X79342541Y-68204596D01*
X79245524Y-67970377D01*
X79104678Y-67759585D01*
X78925415Y-67580322D01*
X78714623Y-67439476D01*
X78480404Y-67342459D01*
X78317222Y-67310000D01*
X78480404Y-67277541D01*
X78714623Y-67180524D01*
X78925415Y-67039678D01*
X79104678Y-66860415D01*
X79245524Y-66649623D01*
X79342541Y-66415404D01*
X79392000Y-66166758D01*
X79392000Y-65913242D01*
X79388630Y-65896297D01*
X82934962Y-65896297D01*
X82971751Y-66097228D01*
X83047033Y-66287121D01*
X83059723Y-66310862D01*
X83054422Y-66318796D01*
X82976251Y-66507518D01*
X82936400Y-66707864D01*
X82936400Y-66912136D01*
X82976251Y-67112482D01*
X83054422Y-67301204D01*
X83060299Y-67310000D01*
X83054422Y-67318796D01*
X82976251Y-67507518D01*
X82936400Y-67707864D01*
X82936400Y-67912136D01*
X82976251Y-68112482D01*
X83054422Y-68301204D01*
X83060299Y-68310000D01*
X83054422Y-68318796D01*
X82976251Y-68507518D01*
X82936400Y-68707864D01*
X82936400Y-68912136D01*
X82976251Y-69112482D01*
X83054422Y-69301204D01*
X83060299Y-69310000D01*
X83054422Y-69318796D01*
X82976251Y-69507518D01*
X82936400Y-69707864D01*
X82936400Y-69912136D01*
X82976251Y-70112482D01*
X83054422Y-70301204D01*
X83060299Y-70310000D01*
X83054422Y-70318796D01*
X82976251Y-70507518D01*
X82936400Y-70707864D01*
X82936400Y-70912136D01*
X82976251Y-71112482D01*
X83054422Y-71301204D01*
X83167909Y-71471049D01*
X83312351Y-71615491D01*
X83482196Y-71728978D01*
X83670918Y-71807149D01*
X83871264Y-71847000D01*
X84075536Y-71847000D01*
X84275882Y-71807149D01*
X84464604Y-71728978D01*
X84634449Y-71615491D01*
X84778891Y-71471049D01*
X84892378Y-71301204D01*
X84970549Y-71112482D01*
X85010400Y-70912136D01*
X85010400Y-70707864D01*
X84970549Y-70507518D01*
X84892378Y-70318796D01*
X84886501Y-70310000D01*
X84892378Y-70301204D01*
X84970549Y-70112482D01*
X85010400Y-69912136D01*
X85010400Y-69707864D01*
X84970549Y-69507518D01*
X84892378Y-69318796D01*
X84886501Y-69310000D01*
X84892378Y-69301204D01*
X84970549Y-69112482D01*
X85010400Y-68912136D01*
X85010400Y-68707864D01*
X84970549Y-68507518D01*
X84892378Y-68318796D01*
X84886501Y-68310000D01*
X84892378Y-68301204D01*
X84970549Y-68112482D01*
X85010400Y-67912136D01*
X85010400Y-67707864D01*
X84970549Y-67507518D01*
X84892378Y-67318796D01*
X84886501Y-67310000D01*
X84892378Y-67301204D01*
X84970549Y-67112482D01*
X85010400Y-66912136D01*
X85010400Y-66707864D01*
X84970549Y-66507518D01*
X84892378Y-66318796D01*
X84886809Y-66310462D01*
X84965817Y-66127664D01*
X85008720Y-65927950D01*
X85011838Y-65723703D01*
X84975049Y-65522772D01*
X84899767Y-65332879D01*
X84887077Y-65309138D01*
X84892378Y-65301204D01*
X84970549Y-65112482D01*
X85010400Y-64912136D01*
X85010400Y-64707864D01*
X84970549Y-64507518D01*
X84892378Y-64318796D01*
X84886501Y-64310000D01*
X84892378Y-64301204D01*
X84970549Y-64112482D01*
X85010400Y-63912136D01*
X85010400Y-63707864D01*
X84970549Y-63507518D01*
X84892378Y-63318796D01*
X84778891Y-63148951D01*
X84634449Y-63004509D01*
X84464604Y-62891022D01*
X84275882Y-62812851D01*
X84075536Y-62773000D01*
X83871264Y-62773000D01*
X83670918Y-62812851D01*
X83482196Y-62891022D01*
X83312351Y-63004509D01*
X83167909Y-63148951D01*
X83054422Y-63318796D01*
X82976251Y-63507518D01*
X82936400Y-63707864D01*
X82936400Y-63912136D01*
X82976251Y-64112482D01*
X83054422Y-64301204D01*
X83060299Y-64310000D01*
X83054422Y-64318796D01*
X82976251Y-64507518D01*
X82936400Y-64707864D01*
X82936400Y-64912136D01*
X82976251Y-65112482D01*
X83054422Y-65301204D01*
X83059991Y-65309538D01*
X82980983Y-65492336D01*
X82938080Y-65692050D01*
X82934962Y-65896297D01*
X79388630Y-65896297D01*
X79342541Y-65664596D01*
X79245524Y-65430377D01*
X79104678Y-65219585D01*
X78925415Y-65040322D01*
X78714623Y-64899476D01*
X78480404Y-64802459D01*
X78231758Y-64753000D01*
X77978242Y-64753000D01*
X77729596Y-64802459D01*
X77495377Y-64899476D01*
X77284585Y-65040322D01*
X77105322Y-65219585D01*
X76964476Y-65430377D01*
X76867459Y-65664596D01*
X76818000Y-65913242D01*
X76225000Y-65913242D01*
X76225000Y-62098317D01*
X78038000Y-62098317D01*
X78038000Y-62361683D01*
X78089380Y-62619988D01*
X78190166Y-62863307D01*
X78336484Y-63082288D01*
X78522712Y-63268516D01*
X78741693Y-63414834D01*
X78985012Y-63515620D01*
X79243317Y-63567000D01*
X79506683Y-63567000D01*
X79764988Y-63515620D01*
X80008307Y-63414834D01*
X80227288Y-63268516D01*
X80413516Y-63082288D01*
X80559834Y-62863307D01*
X80660620Y-62619988D01*
X80712000Y-62361683D01*
X80712000Y-62098317D01*
X80660620Y-61840012D01*
X80559834Y-61596693D01*
X80413516Y-61377712D01*
X80227288Y-61191484D01*
X80008307Y-61045166D01*
X79799062Y-60958494D01*
X79957067Y-60900831D01*
X80058390Y-60846671D01*
X80118093Y-60612698D01*
X79375000Y-59869605D01*
X78631907Y-60612698D01*
X78691610Y-60846671D01*
X78930397Y-60957769D01*
X78944429Y-60961190D01*
X78741693Y-61045166D01*
X78522712Y-61191484D01*
X78336484Y-61377712D01*
X78190166Y-61596693D01*
X78089380Y-61840012D01*
X78038000Y-62098317D01*
X76225000Y-62098317D01*
X76225000Y-60884488D01*
X76445012Y-60975620D01*
X76703317Y-61027000D01*
X76966683Y-61027000D01*
X77224988Y-60975620D01*
X77468307Y-60874834D01*
X77687288Y-60728516D01*
X77873516Y-60542288D01*
X78019834Y-60323307D01*
X78106506Y-60114062D01*
X78164169Y-60272067D01*
X78218329Y-60373390D01*
X78452302Y-60433093D01*
X79195395Y-59690000D01*
X78452302Y-58946907D01*
X78218329Y-59006610D01*
X78107231Y-59245397D01*
X78103810Y-59259429D01*
X78019834Y-59056693D01*
X77873516Y-58837712D01*
X77803106Y-58767302D01*
X78631907Y-58767302D01*
X79375000Y-59510395D01*
X80118093Y-58767302D01*
X80058390Y-58533329D01*
X79819603Y-58422231D01*
X79563731Y-58359853D01*
X79300605Y-58348592D01*
X79040339Y-58388880D01*
X78792933Y-58479169D01*
X78691610Y-58533329D01*
X78631907Y-58767302D01*
X77803106Y-58767302D01*
X77687288Y-58651484D01*
X77468307Y-58505166D01*
X77224988Y-58404380D01*
X76966683Y-58353000D01*
X76703317Y-58353000D01*
X76445012Y-58404380D01*
X76225000Y-58495512D01*
X76225000Y-56813148D01*
X79256457Y-56813148D01*
X79532627Y-57231118D01*
X80077557Y-57521649D01*
X80668696Y-57700287D01*
X81283328Y-57760168D01*
X81897831Y-57698990D01*
X82488592Y-57519103D01*
X83027373Y-57231118D01*
X83303543Y-56813148D01*
X81280000Y-54789605D01*
X79256457Y-56813148D01*
X76225000Y-56813148D01*
X76225000Y-54883380D01*
X76495052Y-54613328D01*
X78129832Y-54613328D01*
X78191010Y-55227831D01*
X78370897Y-55818592D01*
X78658882Y-56357373D01*
X79076852Y-56633543D01*
X81100395Y-54610000D01*
X81459605Y-54610000D01*
X83483148Y-56633543D01*
X83901118Y-56357373D01*
X84191649Y-55812443D01*
X84370287Y-55221304D01*
X84430168Y-54606672D01*
X84368990Y-53992169D01*
X84189103Y-53401408D01*
X83901118Y-52862627D01*
X83483148Y-52586457D01*
X81459605Y-54610000D01*
X81100395Y-54610000D01*
X79076852Y-52586457D01*
X78658882Y-52862627D01*
X78368351Y-53407557D01*
X78189713Y-53998696D01*
X78129832Y-54613328D01*
X76495052Y-54613328D01*
X78701528Y-52406852D01*
X79256457Y-52406852D01*
X81280000Y-54430395D01*
X83303543Y-52406852D01*
X83027373Y-51988882D01*
X82657890Y-51791891D01*
X88728519Y-51791891D01*
X88825843Y-52066252D01*
X88974822Y-52316355D01*
X89169731Y-52532588D01*
X89403080Y-52706641D01*
X89665901Y-52831825D01*
X89813110Y-52876476D01*
X90043000Y-52755155D01*
X90043000Y-51562000D01*
X88849186Y-51562000D01*
X88728519Y-51791891D01*
X82657890Y-51791891D01*
X82482443Y-51698351D01*
X81891304Y-51519713D01*
X81276672Y-51459832D01*
X80662169Y-51521010D01*
X80071408Y-51700897D01*
X79532627Y-51988882D01*
X79256457Y-52406852D01*
X78701528Y-52406852D01*
X80918381Y-50190000D01*
X89367363Y-50190000D01*
X89169731Y-50337412D01*
G37*
%TD.AperFunction*%
D24*
X117148748Y-76820858D02*
X117134605Y-76835000D01*
X117751352Y-77451747D01*
X117767629Y-77491043D01*
X117919201Y-77717886D01*
X118112114Y-77910799D01*
X118281188Y-78023771D01*
X118111411Y-77990000D01*
X117838589Y-77990000D01*
X117693635Y-78018833D01*
X117675215Y-78000413D01*
X117732388Y-77791993D01*
X116955000Y-77014605D01*
X116940858Y-77028748D01*
X116761253Y-76849143D01*
X116775395Y-76835000D01*
X116761253Y-76820858D01*
X116940858Y-76641253D01*
X116955000Y-76655395D01*
X116969143Y-76641253D01*
X117148748Y-76820858D01*
%TA.AperFunction,Conductor*%
D25*
G36*
X117148748Y-76820858D02*
G01*
X117134605Y-76835000D01*
X117751352Y-77451747D01*
X117767629Y-77491043D01*
X117919201Y-77717886D01*
X118112114Y-77910799D01*
X118281188Y-78023771D01*
X118111411Y-77990000D01*
X117838589Y-77990000D01*
X117693635Y-78018833D01*
X117675215Y-78000413D01*
X117732388Y-77791993D01*
X116955000Y-77014605D01*
X116940858Y-77028748D01*
X116761253Y-76849143D01*
X116775395Y-76835000D01*
X116761253Y-76820858D01*
X116940858Y-76641253D01*
X116955000Y-76655395D01*
X116969143Y-76641253D01*
X117148748Y-76820858D01*
G37*
%TD.AperFunction*%
D24*
X120777000Y-62738000D02*
X120797000Y-62738000D01*
X120797000Y-62992000D01*
X120777000Y-62992000D01*
X120777000Y-64185814D01*
X121006891Y-64306481D01*
X121065001Y-64285867D01*
X121065002Y-67726928D01*
X119800000Y-67726928D01*
X119675518Y-67739188D01*
X119555820Y-67775498D01*
X119445506Y-67834463D01*
X119348815Y-67913815D01*
X119269463Y-68010506D01*
X119210498Y-68120820D01*
X119174188Y-68240518D01*
X119161928Y-68365000D01*
X119161928Y-69628270D01*
X116133198Y-72657001D01*
X114835885Y-72657001D01*
X114936641Y-72521920D01*
X115061825Y-72259099D01*
X115106476Y-72111890D01*
X114985155Y-71882000D01*
X113792000Y-71882000D01*
X113792000Y-71902000D01*
X113538000Y-71902000D01*
X113538000Y-71882000D01*
X113518000Y-71882000D01*
X113518000Y-71628000D01*
X113538000Y-71628000D01*
X113538000Y-71608000D01*
X113792000Y-71608000D01*
X113792000Y-71628000D01*
X114985155Y-71628000D01*
X115106476Y-71398110D01*
X115061825Y-71250901D01*
X114936641Y-70988080D01*
X114762588Y-70754731D01*
X114678534Y-70678966D01*
X114759180Y-70654502D01*
X114869494Y-70595537D01*
X114966185Y-70516185D01*
X115045537Y-70419494D01*
X115104502Y-70309180D01*
X115140812Y-70189482D01*
X115153072Y-70065000D01*
X115153072Y-68365000D01*
X115140812Y-68240518D01*
X115104502Y-68120820D01*
X115045537Y-68010506D01*
X114966185Y-67913815D01*
X114869494Y-67834463D01*
X114759180Y-67775498D01*
X114639482Y-67739188D01*
X114515000Y-67726928D01*
X112815000Y-67726928D01*
X112690518Y-67739188D01*
X112570820Y-67775498D01*
X112460506Y-67834463D01*
X112363815Y-67913815D01*
X112284463Y-68010506D01*
X112225498Y-68120820D01*
X112189188Y-68240518D01*
X112176928Y-68365000D01*
X112176928Y-69628270D01*
X111288188Y-70517011D01*
X111017314Y-70517011D01*
X111039834Y-70483307D01*
X111140620Y-70239988D01*
X111192000Y-69981683D01*
X111192000Y-69718317D01*
X111140620Y-69460012D01*
X111039834Y-69216693D01*
X110893516Y-68997712D01*
X110707288Y-68811484D01*
X110488307Y-68665166D01*
X110279062Y-68578494D01*
X110437067Y-68520831D01*
X110538390Y-68466671D01*
X110598093Y-68232698D01*
X109855000Y-67489605D01*
X109111907Y-68232698D01*
X109171610Y-68466671D01*
X109410397Y-68577769D01*
X109424429Y-68581190D01*
X109221693Y-68665166D01*
X109002712Y-68811484D01*
X108816484Y-68997712D01*
X108670166Y-69216693D01*
X108569380Y-69460012D01*
X108518000Y-69718317D01*
X108518000Y-69981683D01*
X108569380Y-70239988D01*
X108670166Y-70483307D01*
X108692686Y-70517011D01*
X105877179Y-70517011D01*
X105915524Y-70459623D01*
X106012541Y-70225404D01*
X106062000Y-69976758D01*
X106062000Y-69723242D01*
X106012541Y-69474596D01*
X105915524Y-69240377D01*
X105786315Y-69047001D01*
X107320715Y-69047001D01*
X107358037Y-69050677D01*
X107395359Y-69047001D01*
X107395370Y-69047001D01*
X107507023Y-69036004D01*
X107650284Y-68992547D01*
X107782313Y-68921975D01*
X107898038Y-68827002D01*
X107921841Y-68797998D01*
X108720733Y-67999107D01*
X108932302Y-68053093D01*
X109675395Y-67310000D01*
X109661253Y-67295858D01*
X109840858Y-67116253D01*
X109855000Y-67130395D01*
X109869143Y-67116253D01*
X110048748Y-67295858D01*
X110034605Y-67310000D01*
X110777698Y-68053093D01*
X111011671Y-67993390D01*
X111122769Y-67754603D01*
X111185147Y-67498731D01*
X111196408Y-67235605D01*
X111156120Y-66975339D01*
X111065831Y-66727933D01*
X111011671Y-66626610D01*
X110777700Y-66566908D01*
X110787607Y-66557001D01*
X115140677Y-66557001D01*
X115177999Y-66560677D01*
X115215321Y-66557001D01*
X115215332Y-66557001D01*
X115326985Y-66546004D01*
X115470246Y-66502547D01*
X115602275Y-66431975D01*
X115718000Y-66337002D01*
X115741803Y-66307998D01*
X119165000Y-62884801D01*
X119165000Y-62992002D01*
X119329844Y-62992002D01*
X119208524Y-63221890D01*
X119253175Y-63369099D01*
X119378359Y-63631920D01*
X119552412Y-63865269D01*
X119768645Y-64060178D01*
X120018748Y-64209157D01*
X120293109Y-64306481D01*
X120523000Y-64185814D01*
X120523000Y-62992000D01*
X120503000Y-62992000D01*
X120503000Y-62738000D01*
X120523000Y-62738000D01*
X120523000Y-62718000D01*
X120777000Y-62718000D01*
X120777000Y-62738000D01*
%TA.AperFunction,Conductor*%
D25*
G36*
X120777000Y-62738000D02*
G01*
X120797000Y-62738000D01*
X120797000Y-62992000D01*
X120777000Y-62992000D01*
X120777000Y-64185814D01*
X121006891Y-64306481D01*
X121065001Y-64285867D01*
X121065002Y-67726928D01*
X119800000Y-67726928D01*
X119675518Y-67739188D01*
X119555820Y-67775498D01*
X119445506Y-67834463D01*
X119348815Y-67913815D01*
X119269463Y-68010506D01*
X119210498Y-68120820D01*
X119174188Y-68240518D01*
X119161928Y-68365000D01*
X119161928Y-69628270D01*
X116133198Y-72657001D01*
X114835885Y-72657001D01*
X114936641Y-72521920D01*
X115061825Y-72259099D01*
X115106476Y-72111890D01*
X114985155Y-71882000D01*
X113792000Y-71882000D01*
X113792000Y-71902000D01*
X113538000Y-71902000D01*
X113538000Y-71882000D01*
X113518000Y-71882000D01*
X113518000Y-71628000D01*
X113538000Y-71628000D01*
X113538000Y-71608000D01*
X113792000Y-71608000D01*
X113792000Y-71628000D01*
X114985155Y-71628000D01*
X115106476Y-71398110D01*
X115061825Y-71250901D01*
X114936641Y-70988080D01*
X114762588Y-70754731D01*
X114678534Y-70678966D01*
X114759180Y-70654502D01*
X114869494Y-70595537D01*
X114966185Y-70516185D01*
X115045537Y-70419494D01*
X115104502Y-70309180D01*
X115140812Y-70189482D01*
X115153072Y-70065000D01*
X115153072Y-68365000D01*
X115140812Y-68240518D01*
X115104502Y-68120820D01*
X115045537Y-68010506D01*
X114966185Y-67913815D01*
X114869494Y-67834463D01*
X114759180Y-67775498D01*
X114639482Y-67739188D01*
X114515000Y-67726928D01*
X112815000Y-67726928D01*
X112690518Y-67739188D01*
X112570820Y-67775498D01*
X112460506Y-67834463D01*
X112363815Y-67913815D01*
X112284463Y-68010506D01*
X112225498Y-68120820D01*
X112189188Y-68240518D01*
X112176928Y-68365000D01*
X112176928Y-69628270D01*
X111288188Y-70517011D01*
X111017314Y-70517011D01*
X111039834Y-70483307D01*
X111140620Y-70239988D01*
X111192000Y-69981683D01*
X111192000Y-69718317D01*
X111140620Y-69460012D01*
X111039834Y-69216693D01*
X110893516Y-68997712D01*
X110707288Y-68811484D01*
X110488307Y-68665166D01*
X110279062Y-68578494D01*
X110437067Y-68520831D01*
X110538390Y-68466671D01*
X110598093Y-68232698D01*
X109855000Y-67489605D01*
X109111907Y-68232698D01*
X109171610Y-68466671D01*
X109410397Y-68577769D01*
X109424429Y-68581190D01*
X109221693Y-68665166D01*
X109002712Y-68811484D01*
X108816484Y-68997712D01*
X108670166Y-69216693D01*
X108569380Y-69460012D01*
X108518000Y-69718317D01*
X108518000Y-69981683D01*
X108569380Y-70239988D01*
X108670166Y-70483307D01*
X108692686Y-70517011D01*
X105877179Y-70517011D01*
X105915524Y-70459623D01*
X106012541Y-70225404D01*
X106062000Y-69976758D01*
X106062000Y-69723242D01*
X106012541Y-69474596D01*
X105915524Y-69240377D01*
X105786315Y-69047001D01*
X107320715Y-69047001D01*
X107358037Y-69050677D01*
X107395359Y-69047001D01*
X107395370Y-69047001D01*
X107507023Y-69036004D01*
X107650284Y-68992547D01*
X107782313Y-68921975D01*
X107898038Y-68827002D01*
X107921841Y-68797998D01*
X108720733Y-67999107D01*
X108932302Y-68053093D01*
X109675395Y-67310000D01*
X109661253Y-67295858D01*
X109840858Y-67116253D01*
X109855000Y-67130395D01*
X109869143Y-67116253D01*
X110048748Y-67295858D01*
X110034605Y-67310000D01*
X110777698Y-68053093D01*
X111011671Y-67993390D01*
X111122769Y-67754603D01*
X111185147Y-67498731D01*
X111196408Y-67235605D01*
X111156120Y-66975339D01*
X111065831Y-66727933D01*
X111011671Y-66626610D01*
X110777700Y-66566908D01*
X110787607Y-66557001D01*
X115140677Y-66557001D01*
X115177999Y-66560677D01*
X115215321Y-66557001D01*
X115215332Y-66557001D01*
X115326985Y-66546004D01*
X115470246Y-66502547D01*
X115602275Y-66431975D01*
X115718000Y-66337002D01*
X115741803Y-66307998D01*
X119165000Y-62884801D01*
X119165000Y-62992002D01*
X119329844Y-62992002D01*
X119208524Y-63221890D01*
X119253175Y-63369099D01*
X119378359Y-63631920D01*
X119552412Y-63865269D01*
X119768645Y-64060178D01*
X120018748Y-64209157D01*
X120293109Y-64306481D01*
X120523000Y-64185814D01*
X120523000Y-62992000D01*
X120503000Y-62992000D01*
X120503000Y-62738000D01*
X120523000Y-62738000D01*
X120523000Y-62718000D01*
X120777000Y-62718000D01*
X120777000Y-62738000D01*
G37*
%TD.AperFunction*%
D24*
X120372129Y-58836928D02*
X119800000Y-58836928D01*
X119675518Y-58849188D01*
X119555820Y-58885498D01*
X119445506Y-58944463D01*
X119348815Y-59023815D01*
X119269463Y-59120506D01*
X119210498Y-59230820D01*
X119174188Y-59350518D01*
X119161928Y-59475000D01*
X119161928Y-60738270D01*
X114863198Y-65037001D01*
X111165084Y-65037001D01*
X111192000Y-64901683D01*
X111192000Y-64638317D01*
X111140620Y-64380012D01*
X111039834Y-64136693D01*
X110994625Y-64069033D01*
X111030001Y-64040001D01*
X111053804Y-64010997D01*
X112180000Y-62884801D01*
X112180000Y-62992002D01*
X112344844Y-62992002D01*
X112223524Y-63221890D01*
X112268175Y-63369099D01*
X112393359Y-63631920D01*
X112567412Y-63865269D01*
X112783645Y-64060178D01*
X113033748Y-64209157D01*
X113308109Y-64306481D01*
X113538000Y-64185814D01*
X113538000Y-62992000D01*
X113792000Y-62992000D01*
X113792000Y-64185814D01*
X114021891Y-64306481D01*
X114296252Y-64209157D01*
X114546355Y-64060178D01*
X114762588Y-63865269D01*
X114936641Y-63631920D01*
X115061825Y-63369099D01*
X115106476Y-63221890D01*
X114985155Y-62992000D01*
X113792000Y-62992000D01*
X113538000Y-62992000D01*
X113518000Y-62992000D01*
X113518000Y-62738000D01*
X113538000Y-62738000D01*
X113538000Y-62718000D01*
X113792000Y-62718000D01*
X113792000Y-62738000D01*
X114985155Y-62738000D01*
X115106476Y-62508110D01*
X115061825Y-62360901D01*
X114936641Y-62098080D01*
X114762588Y-61864731D01*
X114678534Y-61788966D01*
X114759180Y-61764502D01*
X114869494Y-61705537D01*
X114966185Y-61626185D01*
X115045537Y-61529494D01*
X115104502Y-61419180D01*
X115140812Y-61299482D01*
X115153072Y-61175000D01*
X115153072Y-59475000D01*
X115140812Y-59350518D01*
X115104502Y-59230820D01*
X115045537Y-59120506D01*
X114966185Y-59023815D01*
X114869494Y-58944463D01*
X114759180Y-58885498D01*
X114639482Y-58849188D01*
X114515000Y-58836928D01*
X112815000Y-58836928D01*
X112690518Y-58849188D01*
X112570820Y-58885498D01*
X112460506Y-58944463D01*
X112363815Y-59023815D01*
X112284463Y-59120506D01*
X112225498Y-59230820D01*
X112189188Y-59350518D01*
X112176928Y-59475000D01*
X112176928Y-60738270D01*
X111121455Y-61793744D01*
X111039834Y-61596693D01*
X110893516Y-61377712D01*
X110707288Y-61191484D01*
X110488307Y-61045166D01*
X110282698Y-60960000D01*
X110488307Y-60874834D01*
X110707288Y-60728516D01*
X110893516Y-60542288D01*
X111039834Y-60323307D01*
X111140620Y-60079988D01*
X111192000Y-59821683D01*
X111192000Y-59558317D01*
X111140620Y-59300012D01*
X111039834Y-59056693D01*
X110893516Y-58837712D01*
X110707288Y-58651484D01*
X110488307Y-58505166D01*
X110244988Y-58404380D01*
X109986683Y-58353000D01*
X109723317Y-58353000D01*
X109465012Y-58404380D01*
X109221693Y-58505166D01*
X109002712Y-58651484D01*
X108816484Y-58837712D01*
X108670166Y-59056693D01*
X108585000Y-59262302D01*
X108499834Y-59056693D01*
X108353516Y-58837712D01*
X108167288Y-58651484D01*
X107948307Y-58505166D01*
X107704988Y-58404380D01*
X107446683Y-58353000D01*
X107183317Y-58353000D01*
X106925012Y-58404380D01*
X106681693Y-58505166D01*
X106462712Y-58651484D01*
X106276484Y-58837712D01*
X106130166Y-59056693D01*
X106045000Y-59262302D01*
X105959834Y-59056693D01*
X105813516Y-58837712D01*
X105627288Y-58651484D01*
X105408307Y-58505166D01*
X105359622Y-58485000D01*
X105541486Y-58485000D01*
X105799405Y-58433696D01*
X106042359Y-58333061D01*
X106248982Y-58195001D01*
X119730202Y-58195001D01*
X120372129Y-58836928D01*
%TA.AperFunction,Conductor*%
D25*
G36*
X120372129Y-58836928D02*
G01*
X119800000Y-58836928D01*
X119675518Y-58849188D01*
X119555820Y-58885498D01*
X119445506Y-58944463D01*
X119348815Y-59023815D01*
X119269463Y-59120506D01*
X119210498Y-59230820D01*
X119174188Y-59350518D01*
X119161928Y-59475000D01*
X119161928Y-60738270D01*
X114863198Y-65037001D01*
X111165084Y-65037001D01*
X111192000Y-64901683D01*
X111192000Y-64638317D01*
X111140620Y-64380012D01*
X111039834Y-64136693D01*
X110994625Y-64069033D01*
X111030001Y-64040001D01*
X111053804Y-64010997D01*
X112180000Y-62884801D01*
X112180000Y-62992002D01*
X112344844Y-62992002D01*
X112223524Y-63221890D01*
X112268175Y-63369099D01*
X112393359Y-63631920D01*
X112567412Y-63865269D01*
X112783645Y-64060178D01*
X113033748Y-64209157D01*
X113308109Y-64306481D01*
X113538000Y-64185814D01*
X113538000Y-62992000D01*
X113792000Y-62992000D01*
X113792000Y-64185814D01*
X114021891Y-64306481D01*
X114296252Y-64209157D01*
X114546355Y-64060178D01*
X114762588Y-63865269D01*
X114936641Y-63631920D01*
X115061825Y-63369099D01*
X115106476Y-63221890D01*
X114985155Y-62992000D01*
X113792000Y-62992000D01*
X113538000Y-62992000D01*
X113518000Y-62992000D01*
X113518000Y-62738000D01*
X113538000Y-62738000D01*
X113538000Y-62718000D01*
X113792000Y-62718000D01*
X113792000Y-62738000D01*
X114985155Y-62738000D01*
X115106476Y-62508110D01*
X115061825Y-62360901D01*
X114936641Y-62098080D01*
X114762588Y-61864731D01*
X114678534Y-61788966D01*
X114759180Y-61764502D01*
X114869494Y-61705537D01*
X114966185Y-61626185D01*
X115045537Y-61529494D01*
X115104502Y-61419180D01*
X115140812Y-61299482D01*
X115153072Y-61175000D01*
X115153072Y-59475000D01*
X115140812Y-59350518D01*
X115104502Y-59230820D01*
X115045537Y-59120506D01*
X114966185Y-59023815D01*
X114869494Y-58944463D01*
X114759180Y-58885498D01*
X114639482Y-58849188D01*
X114515000Y-58836928D01*
X112815000Y-58836928D01*
X112690518Y-58849188D01*
X112570820Y-58885498D01*
X112460506Y-58944463D01*
X112363815Y-59023815D01*
X112284463Y-59120506D01*
X112225498Y-59230820D01*
X112189188Y-59350518D01*
X112176928Y-59475000D01*
X112176928Y-60738270D01*
X111121455Y-61793744D01*
X111039834Y-61596693D01*
X110893516Y-61377712D01*
X110707288Y-61191484D01*
X110488307Y-61045166D01*
X110282698Y-60960000D01*
X110488307Y-60874834D01*
X110707288Y-60728516D01*
X110893516Y-60542288D01*
X111039834Y-60323307D01*
X111140620Y-60079988D01*
X111192000Y-59821683D01*
X111192000Y-59558317D01*
X111140620Y-59300012D01*
X111039834Y-59056693D01*
X110893516Y-58837712D01*
X110707288Y-58651484D01*
X110488307Y-58505166D01*
X110244988Y-58404380D01*
X109986683Y-58353000D01*
X109723317Y-58353000D01*
X109465012Y-58404380D01*
X109221693Y-58505166D01*
X109002712Y-58651484D01*
X108816484Y-58837712D01*
X108670166Y-59056693D01*
X108585000Y-59262302D01*
X108499834Y-59056693D01*
X108353516Y-58837712D01*
X108167288Y-58651484D01*
X107948307Y-58505166D01*
X107704988Y-58404380D01*
X107446683Y-58353000D01*
X107183317Y-58353000D01*
X106925012Y-58404380D01*
X106681693Y-58505166D01*
X106462712Y-58651484D01*
X106276484Y-58837712D01*
X106130166Y-59056693D01*
X106045000Y-59262302D01*
X105959834Y-59056693D01*
X105813516Y-58837712D01*
X105627288Y-58651484D01*
X105408307Y-58505166D01*
X105359622Y-58485000D01*
X105541486Y-58485000D01*
X105799405Y-58433696D01*
X106042359Y-58333061D01*
X106248982Y-58195001D01*
X119730202Y-58195001D01*
X120372129Y-58836928D01*
G37*
%TD.AperFunction*%
D24*
X103968519Y-51078109D02*
X104089186Y-51308000D01*
X105283000Y-51308000D01*
X105283000Y-51288000D01*
X105537000Y-51288000D01*
X105537000Y-51308000D01*
X105557000Y-51308000D01*
X105557000Y-51562000D01*
X105537000Y-51562000D01*
X105537000Y-52755155D01*
X105766890Y-52876476D01*
X105914099Y-52831825D01*
X106176920Y-52706641D01*
X106410269Y-52532588D01*
X106605178Y-52316355D01*
X106674805Y-52199466D01*
X106796525Y-52381632D01*
X107003368Y-52588475D01*
X107228975Y-52739221D01*
X102065198Y-57902999D01*
X101425255Y-57902999D01*
X101479792Y-57828392D01*
X101590047Y-57591044D01*
X101622716Y-57483329D01*
X101499374Y-57277000D01*
X100457000Y-57277000D01*
X100457000Y-57297000D01*
X100203000Y-57297000D01*
X100203000Y-57277000D01*
X99160626Y-57277000D01*
X99037284Y-57483329D01*
X99069953Y-57591044D01*
X99180208Y-57828392D01*
X99234745Y-57902999D01*
X98219326Y-57902999D01*
X98182001Y-57899323D01*
X98144676Y-57902999D01*
X98144668Y-57902999D01*
X98033015Y-57913996D01*
X97889754Y-57957453D01*
X97757725Y-58028025D01*
X97642000Y-58122998D01*
X97618202Y-58151996D01*
X97395544Y-58374654D01*
X97286683Y-58353000D01*
X97023317Y-58353000D01*
X96887999Y-58379916D01*
X96887999Y-56816671D01*
X99037284Y-56816671D01*
X99160626Y-57023000D01*
X100203000Y-57023000D01*
X100203000Y-55979799D01*
X100457000Y-55979799D01*
X100457000Y-57023000D01*
X101499374Y-57023000D01*
X101622716Y-56816671D01*
X101590047Y-56708956D01*
X101479792Y-56471608D01*
X101325351Y-56260330D01*
X101132660Y-56083241D01*
X100909123Y-55947147D01*
X100663330Y-55857278D01*
X100457000Y-55979799D01*
X100203000Y-55979799D01*
X99996670Y-55857278D01*
X99750877Y-55947147D01*
X99527340Y-56083241D01*
X99334649Y-56260330D01*
X99180208Y-56471608D01*
X99069953Y-56708956D01*
X99037284Y-56816671D01*
X96887999Y-56816671D01*
X96887999Y-55951802D01*
X99916730Y-52923072D01*
X101180000Y-52923072D01*
X101304482Y-52910812D01*
X101424180Y-52874502D01*
X101534494Y-52815537D01*
X101631185Y-52736185D01*
X101710537Y-52639494D01*
X101769502Y-52529180D01*
X101805812Y-52409482D01*
X101818072Y-52285000D01*
X101818072Y-51791891D01*
X103968519Y-51791891D01*
X104065843Y-52066252D01*
X104214822Y-52316355D01*
X104409731Y-52532588D01*
X104643080Y-52706641D01*
X104905901Y-52831825D01*
X105053110Y-52876476D01*
X105283000Y-52755155D01*
X105283000Y-51562000D01*
X104089186Y-51562000D01*
X103968519Y-51791891D01*
X101818072Y-51791891D01*
X101818072Y-51019999D01*
X103989132Y-51019999D01*
X103968519Y-51078109D01*
%TA.AperFunction,Conductor*%
D25*
G36*
X103968519Y-51078109D02*
G01*
X104089186Y-51308000D01*
X105283000Y-51308000D01*
X105283000Y-51288000D01*
X105537000Y-51288000D01*
X105537000Y-51308000D01*
X105557000Y-51308000D01*
X105557000Y-51562000D01*
X105537000Y-51562000D01*
X105537000Y-52755155D01*
X105766890Y-52876476D01*
X105914099Y-52831825D01*
X106176920Y-52706641D01*
X106410269Y-52532588D01*
X106605178Y-52316355D01*
X106674805Y-52199466D01*
X106796525Y-52381632D01*
X107003368Y-52588475D01*
X107228975Y-52739221D01*
X102065198Y-57902999D01*
X101425255Y-57902999D01*
X101479792Y-57828392D01*
X101590047Y-57591044D01*
X101622716Y-57483329D01*
X101499374Y-57277000D01*
X100457000Y-57277000D01*
X100457000Y-57297000D01*
X100203000Y-57297000D01*
X100203000Y-57277000D01*
X99160626Y-57277000D01*
X99037284Y-57483329D01*
X99069953Y-57591044D01*
X99180208Y-57828392D01*
X99234745Y-57902999D01*
X98219326Y-57902999D01*
X98182001Y-57899323D01*
X98144676Y-57902999D01*
X98144668Y-57902999D01*
X98033015Y-57913996D01*
X97889754Y-57957453D01*
X97757725Y-58028025D01*
X97642000Y-58122998D01*
X97618202Y-58151996D01*
X97395544Y-58374654D01*
X97286683Y-58353000D01*
X97023317Y-58353000D01*
X96887999Y-58379916D01*
X96887999Y-56816671D01*
X99037284Y-56816671D01*
X99160626Y-57023000D01*
X100203000Y-57023000D01*
X100203000Y-55979799D01*
X100457000Y-55979799D01*
X100457000Y-57023000D01*
X101499374Y-57023000D01*
X101622716Y-56816671D01*
X101590047Y-56708956D01*
X101479792Y-56471608D01*
X101325351Y-56260330D01*
X101132660Y-56083241D01*
X100909123Y-55947147D01*
X100663330Y-55857278D01*
X100457000Y-55979799D01*
X100203000Y-55979799D01*
X99996670Y-55857278D01*
X99750877Y-55947147D01*
X99527340Y-56083241D01*
X99334649Y-56260330D01*
X99180208Y-56471608D01*
X99069953Y-56708956D01*
X99037284Y-56816671D01*
X96887999Y-56816671D01*
X96887999Y-55951802D01*
X99916730Y-52923072D01*
X101180000Y-52923072D01*
X101304482Y-52910812D01*
X101424180Y-52874502D01*
X101534494Y-52815537D01*
X101631185Y-52736185D01*
X101710537Y-52639494D01*
X101769502Y-52529180D01*
X101805812Y-52409482D01*
X101818072Y-52285000D01*
X101818072Y-51791891D01*
X103968519Y-51791891D01*
X104065843Y-52066252D01*
X104214822Y-52316355D01*
X104409731Y-52532588D01*
X104643080Y-52706641D01*
X104905901Y-52831825D01*
X105053110Y-52876476D01*
X105283000Y-52755155D01*
X105283000Y-51562000D01*
X104089186Y-51562000D01*
X103968519Y-51791891D01*
X101818072Y-51791891D01*
X101818072Y-51019999D01*
X103989132Y-51019999D01*
X103968519Y-51078109D01*
G37*
%TD.AperFunction*%
%TD*%
M02*
