%TF.GenerationSoftware,KiCad,Pcbnew,(5.1.9)-1*%
%TF.CreationDate,2021-03-17T20:38:14-07:00*%
%TF.ProjectId,head,68656164-2e6b-4696-9361-645f70636258,rev?*%
%TF.SameCoordinates,Original*%
%TF.FileFunction,Copper,L2,Bot*%
%TF.FilePolarity,Positive*%
%FSLAX46Y46*%
G04 Gerber Fmt 4.6, Leading zero omitted, Abs format (unit mm)*
G04 Created by KiCad (PCBNEW (5.1.9)-1) date 2021-03-17 20:38:14*
%MOMM*%
%LPD*%
G01*
G04 APERTURE LIST*
%TA.AperFunction,ComponentPad*%
%ADD10C,5.000000*%
%TD*%
%TA.AperFunction,ComponentPad*%
%ADD11C,1.404000*%
%TD*%
%TA.AperFunction,ComponentPad*%
%ADD12C,1.304000*%
%TD*%
%TA.AperFunction,ComponentPad*%
%ADD13C,0.804000*%
%TD*%
%TA.AperFunction,ComponentPad*%
%ADD14C,1.500000*%
%TD*%
%TA.AperFunction,ComponentPad*%
%ADD15R,1.500000X1.500000*%
%TD*%
%TA.AperFunction,ComponentPad*%
%ADD16O,1.400000X1.400000*%
%TD*%
%TA.AperFunction,ComponentPad*%
%ADD17C,1.400000*%
%TD*%
%TA.AperFunction,ComponentPad*%
%ADD18O,1.700000X1.700000*%
%TD*%
%TA.AperFunction,ComponentPad*%
%ADD19R,1.700000X1.700000*%
%TD*%
%TA.AperFunction,ComponentPad*%
%ADD20C,4.000000*%
%TD*%
%TA.AperFunction,ComponentPad*%
%ADD21C,1.600000*%
%TD*%
%TA.AperFunction,ComponentPad*%
%ADD22R,1.600000X1.600000*%
%TD*%
%TA.AperFunction,Conductor*%
%ADD23C,0.250000*%
%TD*%
%TA.AperFunction,Conductor*%
%ADD24C,0.254000*%
%TD*%
%TA.AperFunction,Conductor*%
%ADD25C,0.100000*%
%TD*%
G04 APERTURE END LIST*
D10*
%TO.P,H2,1*%
%TO.N,GND*%
X120650000Y-54610000D03*
%TD*%
%TO.P,H1,1*%
%TO.N,GND*%
X81280000Y-54610000D03*
%TD*%
D11*
%TO.P,U1,13*%
%TO.N,PUMP*%
X107315000Y-74930000D03*
%TO.P,U1,33*%
%TO.N,Net-(U1-Pad33)*%
X76835000Y-59690000D03*
%TO.P,U1,34*%
%TO.N,Net-(U1-Pad34)*%
X79375000Y-62230000D03*
%TO.P,U1,32*%
%TO.N,GND*%
X79375000Y-59690000D03*
%TO.P,U1,31*%
%TO.N,+3V3*%
X81915000Y-59690000D03*
%TO.P,U1,30*%
%TO.N,Net-(U1-Pad30)*%
X84455000Y-59690000D03*
%TO.P,U1,29*%
%TO.N,Net-(U1-Pad29)*%
X86995000Y-59690000D03*
%TO.P,U1,28*%
%TO.N,Net-(U1-Pad28)*%
X89535000Y-59690000D03*
%TO.P,U1,27*%
%TO.N,Net-(U1-Pad27)*%
X92075000Y-59690000D03*
%TO.P,U1,26*%
%TO.N,DISPLAY_SCL*%
X94615000Y-59690000D03*
%TO.P,U1,25*%
%TO.N,DISPLAY_SDA*%
X97155000Y-59690000D03*
%TO.P,U1,24*%
%TO.N,Net-(U1-Pad24)*%
X99695000Y-59690000D03*
%TO.P,U1,23*%
%TO.N,Net-(U1-Pad23)*%
X102235000Y-59690000D03*
%TO.P,U1,22*%
%TO.N,GROUPHEAD_TEMP*%
X104775000Y-59690000D03*
%TO.P,U1,21*%
%TO.N,PUMP_TEMP*%
X107315000Y-59690000D03*
%TO.P,U1,20*%
%TO.N,Net-(U1-Pad20)*%
X109855000Y-59690000D03*
%TO.P,U1,19*%
%TO.N,Net-(U1-Pad19)*%
X109855000Y-62230000D03*
%TO.P,U1,18*%
%TO.N,Net-(U1-Pad18)*%
X109855000Y-64770000D03*
%TO.P,U1,17*%
%TO.N,GND*%
X109855000Y-67310000D03*
%TO.P,U1,16*%
%TO.N,Net-(U1-Pad16)*%
X109855000Y-69850000D03*
%TO.P,U1,15*%
%TO.N,Net-(U1-Pad15)*%
X109855000Y-72390000D03*
%TO.P,U1,14*%
%TO.N,HEATER_RELAY*%
X109855000Y-74930000D03*
%TO.P,U1,12*%
%TO.N,TEMP_OK*%
X104775000Y-74930000D03*
%TO.P,U1,11*%
%TO.N,HX711_SCK*%
X102235000Y-74930000D03*
%TO.P,U1,10*%
%TO.N,HX711_DT*%
X99695000Y-74930000D03*
%TO.P,U1,9*%
%TO.N,STATS_BUTTON*%
X97155000Y-74930000D03*
%TO.P,U1,8*%
%TO.N,BREW_BUTTON*%
X94615000Y-74930000D03*
%TO.P,U1,7*%
%TO.N,FLUSH_BUTTON*%
X92075000Y-74930000D03*
%TO.P,U1,6*%
%TO.N,ENCODER_CLOCK*%
X89535000Y-74930000D03*
%TO.P,U1,5*%
%TO.N,ENCODER_DATA*%
X86995000Y-74930000D03*
%TO.P,U1,4*%
%TO.N,ENCODER_BUTTON*%
X84455000Y-74930000D03*
%TO.P,U1,3*%
%TO.N,Net-(U1-Pad3)*%
X81915000Y-74930000D03*
D12*
%TO.P,U1,54*%
%TO.N,Net-(U1-Pad54)*%
X78105000Y-68580000D03*
%TO.P,U1,53*%
%TO.N,Net-(U1-Pad53)*%
X78105000Y-66040000D03*
D13*
%TO.P,U1,52*%
%TO.N,Net-(U1-Pad52)*%
X83973400Y-70810000D03*
%TO.P,U1,51*%
%TO.N,Net-(U1-Pad51)*%
X83973400Y-69810000D03*
%TO.P,U1,50*%
%TO.N,Net-(U1-Pad50)*%
X83973400Y-68810000D03*
%TO.P,U1,49*%
%TO.N,Net-(U1-Pad49)*%
X83973400Y-67810000D03*
%TO.P,U1,48*%
%TO.N,Net-(U1-Pad48)*%
X83973400Y-66810000D03*
%TO.P,U1,47*%
%TO.N,GND*%
X83973400Y-65810000D03*
%TO.P,U1,46*%
%TO.N,Net-(U1-Pad46)*%
X83973400Y-64810000D03*
%TO.P,U1,45*%
%TO.N,Net-(U1-Pad45)*%
X83973400Y-63810000D03*
D12*
%TO.P,U1,44*%
%TO.N,Net-(U1-Pad44)*%
X102235000Y-72390000D03*
%TO.P,U1,43*%
%TO.N,Net-(U1-Pad43)*%
X104775000Y-72390000D03*
%TO.P,U1,42*%
%TO.N,Net-(U1-Pad42)*%
X102235000Y-69850000D03*
%TO.P,U1,41*%
%TO.N,Net-(U1-Pad41)*%
X104775000Y-69850000D03*
%TO.P,U1,40*%
%TO.N,Net-(U1-Pad40)*%
X102235000Y-67310000D03*
%TO.P,U1,39*%
%TO.N,Net-(U1-Pad39)*%
X104775000Y-67310000D03*
%TO.P,U1,38*%
%TO.N,Net-(U1-Pad38)*%
X102235000Y-64770000D03*
%TO.P,U1,37*%
%TO.N,Net-(U1-Pad37)*%
X104775000Y-64770000D03*
%TO.P,U1,36*%
%TO.N,Net-(U1-Pad36)*%
X102235000Y-62230000D03*
%TO.P,U1,35*%
%TO.N,Net-(U1-Pad35)*%
X104775000Y-62230000D03*
D11*
%TO.P,U1,2*%
%TO.N,Net-(U1-Pad2)*%
X79375000Y-74930000D03*
%TO.P,U1,1*%
%TO.N,GND*%
X76835000Y-74930000D03*
%TD*%
D14*
%TO.P,J7,4*%
%TO.N,GND*%
X116955000Y-76835000D03*
%TO.P,J7,3*%
%TO.N,HX711_DT*%
X117975000Y-79375000D03*
%TO.P,J7,2*%
%TO.N,HX711_SCK*%
X118995000Y-76835000D03*
D15*
%TO.P,J7,1*%
%TO.N,+3V3*%
X120015000Y-79375000D03*
%TD*%
D16*
%TO.P,R1,2*%
%TO.N,GND*%
X100330000Y-57150000D03*
D17*
%TO.P,R1,1*%
%TO.N,Net-(J5-Pad2)*%
X105410000Y-57150000D03*
%TD*%
D18*
%TO.P,J6,4*%
%TO.N,GND*%
X105410000Y-51435000D03*
%TO.P,J6,3*%
%TO.N,+3V3*%
X107950000Y-51435000D03*
%TO.P,J6,2*%
%TO.N,DISPLAY_SCL*%
X110490000Y-51435000D03*
D19*
%TO.P,J6,1*%
%TO.N,DISPLAY_SDA*%
X113030000Y-51435000D03*
%TD*%
D18*
%TO.P,J8,5*%
%TO.N,GND*%
X90170000Y-51435000D03*
%TO.P,J8,4*%
%TO.N,+3V3*%
X92710000Y-51435000D03*
%TO.P,J8,3*%
%TO.N,ENCODER_BUTTON*%
X95250000Y-51435000D03*
%TO.P,J8,2*%
%TO.N,ENCODER_DATA*%
X97790000Y-51435000D03*
D19*
%TO.P,J8,1*%
%TO.N,ENCODER_CLOCK*%
X100330000Y-51435000D03*
%TD*%
D18*
%TO.P,J5,2*%
%TO.N,Net-(J5-Pad2)*%
X120650000Y-71755000D03*
D19*
%TO.P,J5,1*%
%TO.N,TEMP_OK*%
X120650000Y-69215000D03*
%TD*%
D18*
%TO.P,J4,2*%
%TO.N,GND*%
X120650000Y-62865000D03*
D19*
%TO.P,J4,1*%
%TO.N,BREW_BUTTON*%
X120650000Y-60325000D03*
%TD*%
D18*
%TO.P,J3,2*%
%TO.N,GND*%
X113665000Y-62865000D03*
D19*
%TO.P,J3,1*%
%TO.N,FLUSH_BUTTON*%
X113665000Y-60325000D03*
%TD*%
D18*
%TO.P,J2,2*%
%TO.N,GND*%
X113665000Y-71755000D03*
D19*
%TO.P,J2,1*%
%TO.N,STATS_BUTTON*%
X113665000Y-69215000D03*
%TD*%
D20*
%TO.P,J1,0*%
%TO.N,N/C*%
X106305000Y-80310000D03*
X81305000Y-80310000D03*
D21*
%TO.P,J1,9*%
%TO.N,Net-(J1-Pad9)*%
X97960000Y-82850000D03*
%TO.P,J1,8*%
%TO.N,Net-(J1-Pad8)*%
X95190000Y-82850000D03*
%TO.P,J1,7*%
%TO.N,Net-(J1-Pad7)*%
X92420000Y-82850000D03*
%TO.P,J1,6*%
%TO.N,HEATER_RELAY*%
X89650000Y-82850000D03*
%TO.P,J1,5*%
%TO.N,PUMP*%
X99345000Y-80010000D03*
%TO.P,J1,4*%
%TO.N,GROUPHEAD_TEMP*%
X96575000Y-80010000D03*
%TO.P,J1,3*%
%TO.N,PUMP_TEMP*%
X93805000Y-80010000D03*
%TO.P,J1,2*%
%TO.N,+3V3*%
X91035000Y-80010000D03*
D22*
%TO.P,J1,1*%
%TO.N,GND*%
X88265000Y-80010000D03*
%TD*%
D23*
%TO.N,GND*%
X85440010Y-77185010D02*
X79090010Y-77185010D01*
X79090010Y-77185010D02*
X76835000Y-74930000D01*
X88265000Y-80010000D02*
X85440010Y-77185010D01*
X84225000Y-65810000D02*
X83973400Y-65810000D01*
X85482001Y-67067001D02*
X84225000Y-65810000D01*
X85482001Y-75422961D02*
X85482001Y-67067001D01*
X85440010Y-75464952D02*
X85482001Y-75422961D01*
X85440010Y-77185010D02*
X85440010Y-75464952D01*
X80402001Y-60717001D02*
X79375000Y-59690000D01*
X80402001Y-62622001D02*
X80402001Y-60717001D01*
X83590000Y-65810000D02*
X80402001Y-62622001D01*
X83973400Y-65810000D02*
X83590000Y-65810000D01*
X79375000Y-56515000D02*
X81280000Y-54610000D01*
X79375000Y-59690000D02*
X79375000Y-56515000D01*
X86995000Y-54610000D02*
X90170000Y-51435000D01*
X81280000Y-54610000D02*
X86995000Y-54610000D01*
X95885000Y-57150000D02*
X100330000Y-57150000D01*
X90170000Y-51435000D02*
X95885000Y-57150000D01*
X105410000Y-52070000D02*
X105410000Y-51435000D01*
X100330000Y-57150000D02*
X105410000Y-52070000D01*
X110882001Y-60082001D02*
X113665000Y-62865000D01*
X110882001Y-56907001D02*
X110882001Y-60082001D01*
X105410000Y-51435000D02*
X110882001Y-56907001D01*
X113665000Y-62865000D02*
X120650000Y-62865000D01*
X121825001Y-55785001D02*
X120650000Y-54610000D01*
X121825001Y-61689999D02*
X121825001Y-55785001D01*
X120650000Y-62865000D02*
X121825001Y-61689999D01*
X109855000Y-66675000D02*
X109855000Y-67310000D01*
X113665000Y-62865000D02*
X109855000Y-66675000D01*
X113307223Y-71755000D02*
X113665000Y-71755000D01*
X109855000Y-68302777D02*
X113307223Y-71755000D01*
X109855000Y-67310000D02*
X109855000Y-68302777D01*
X113665000Y-73545000D02*
X116955000Y-76835000D01*
X113665000Y-71755000D02*
X113665000Y-73545000D01*
%TO.N,+3V3*%
X92160001Y-81135001D02*
X91035000Y-80010000D01*
X97910003Y-81135001D02*
X92160001Y-81135001D01*
X99410003Y-82635001D02*
X97910003Y-81135001D01*
X111756003Y-78299999D02*
X107421001Y-82635001D01*
X118939999Y-78299999D02*
X111756003Y-78299999D01*
X107421001Y-82635001D02*
X99410003Y-82635001D01*
X120015000Y-79375000D02*
X118939999Y-78299999D01*
X82935038Y-59690000D02*
X81915000Y-59690000D01*
X91035000Y-67789962D02*
X82935038Y-59690000D01*
X91035000Y-80010000D02*
X91035000Y-67789962D01*
X114140001Y-52610001D02*
X109125001Y-52610001D01*
X122006001Y-51784999D02*
X114965003Y-51784999D01*
X123475001Y-53253999D02*
X122006001Y-51784999D01*
X114965003Y-51784999D02*
X114140001Y-52610001D01*
X123475001Y-75914999D02*
X123475001Y-53253999D01*
X109125001Y-52610001D02*
X107950000Y-51435000D01*
X120015000Y-79375000D02*
X123475001Y-75914999D01*
X93885001Y-50259999D02*
X92710000Y-51435000D01*
X106774999Y-50259999D02*
X93885001Y-50259999D01*
X107950000Y-51435000D02*
X106774999Y-50259999D01*
%TD*%
D24*
%TO.N,GND*%
X89169731Y-50337412D02*
X88974822Y-50553645D01*
X88825843Y-50803748D01*
X88728519Y-51078109D01*
X88849186Y-51308000D01*
X90043000Y-51308000D01*
X90043000Y-51288000D01*
X90297000Y-51288000D01*
X90297000Y-51308000D01*
X90317000Y-51308000D01*
X90317000Y-51562000D01*
X90297000Y-51562000D01*
X90297000Y-52755155D01*
X90526890Y-52876476D01*
X90674099Y-52831825D01*
X90936920Y-52706641D01*
X91170269Y-52532588D01*
X91365178Y-52316355D01*
X91434805Y-52199466D01*
X91556525Y-52381632D01*
X91763368Y-52588475D01*
X92006589Y-52750990D01*
X92276842Y-52862932D01*
X92563740Y-52920000D01*
X92856260Y-52920000D01*
X93143158Y-52862932D01*
X93413411Y-52750990D01*
X93656632Y-52588475D01*
X93863475Y-52381632D01*
X93980000Y-52207240D01*
X94096525Y-52381632D01*
X94303368Y-52588475D01*
X94546589Y-52750990D01*
X94816842Y-52862932D01*
X95103740Y-52920000D01*
X95396260Y-52920000D01*
X95683158Y-52862932D01*
X95953411Y-52750990D01*
X96196632Y-52588475D01*
X96403475Y-52381632D01*
X96520000Y-52207240D01*
X96636525Y-52381632D01*
X96843368Y-52588475D01*
X97086589Y-52750990D01*
X97356842Y-52862932D01*
X97643740Y-52920000D01*
X97936260Y-52920000D01*
X98223158Y-52862932D01*
X98493411Y-52750990D01*
X98736632Y-52588475D01*
X98868487Y-52456620D01*
X98890498Y-52529180D01*
X98949463Y-52639494D01*
X99028815Y-52736185D01*
X99125506Y-52815537D01*
X99235820Y-52874502D01*
X99355518Y-52910812D01*
X99480000Y-52923072D01*
X101180000Y-52923072D01*
X101304482Y-52910812D01*
X101424180Y-52874502D01*
X101534494Y-52815537D01*
X101631185Y-52736185D01*
X101710537Y-52639494D01*
X101769502Y-52529180D01*
X101805812Y-52409482D01*
X101818072Y-52285000D01*
X101818072Y-51791891D01*
X103968519Y-51791891D01*
X104065843Y-52066252D01*
X104214822Y-52316355D01*
X104409731Y-52532588D01*
X104643080Y-52706641D01*
X104905901Y-52831825D01*
X105053110Y-52876476D01*
X105283000Y-52755155D01*
X105283000Y-51562000D01*
X104089186Y-51562000D01*
X103968519Y-51791891D01*
X101818072Y-51791891D01*
X101818072Y-51019999D01*
X103989132Y-51019999D01*
X103968519Y-51078109D01*
X104089186Y-51308000D01*
X105283000Y-51308000D01*
X105283000Y-51288000D01*
X105537000Y-51288000D01*
X105537000Y-51308000D01*
X105557000Y-51308000D01*
X105557000Y-51562000D01*
X105537000Y-51562000D01*
X105537000Y-52755155D01*
X105766890Y-52876476D01*
X105914099Y-52831825D01*
X106176920Y-52706641D01*
X106410269Y-52532588D01*
X106605178Y-52316355D01*
X106674805Y-52199466D01*
X106796525Y-52381632D01*
X107003368Y-52588475D01*
X107246589Y-52750990D01*
X107516842Y-52862932D01*
X107803740Y-52920000D01*
X108096260Y-52920000D01*
X108316408Y-52876210D01*
X108561202Y-53121004D01*
X108585000Y-53150002D01*
X108700725Y-53244975D01*
X108832754Y-53315547D01*
X108976015Y-53359004D01*
X109087668Y-53370001D01*
X109087677Y-53370001D01*
X109125000Y-53373677D01*
X109162323Y-53370001D01*
X114102679Y-53370001D01*
X114140001Y-53373677D01*
X114177323Y-53370001D01*
X114177334Y-53370001D01*
X114288987Y-53359004D01*
X114432248Y-53315547D01*
X114564277Y-53244975D01*
X114680002Y-53150002D01*
X114703804Y-53120999D01*
X115279805Y-52544999D01*
X118405391Y-52544999D01*
X118446850Y-52586458D01*
X118028882Y-52862627D01*
X117738351Y-53407557D01*
X117559713Y-53998696D01*
X117499832Y-54613328D01*
X117561010Y-55227831D01*
X117740897Y-55818592D01*
X118028882Y-56357373D01*
X118446852Y-56633543D01*
X120470395Y-54610000D01*
X120456253Y-54595858D01*
X120635858Y-54416253D01*
X120650000Y-54430395D01*
X120664143Y-54416253D01*
X120843748Y-54595858D01*
X120829605Y-54610000D01*
X120843748Y-54624143D01*
X120664143Y-54803748D01*
X120650000Y-54789605D01*
X118626457Y-56813148D01*
X118902627Y-57231118D01*
X119447557Y-57521649D01*
X120038696Y-57700287D01*
X120653328Y-57760168D01*
X121267831Y-57698990D01*
X121858592Y-57519103D01*
X122397373Y-57231118D01*
X122673542Y-56813150D01*
X122715002Y-56854610D01*
X122715001Y-75600197D01*
X120328271Y-77986928D01*
X119763951Y-77986928D01*
X119877886Y-77910799D01*
X120070799Y-77717886D01*
X120222371Y-77491043D01*
X120326775Y-77238989D01*
X120380000Y-76971411D01*
X120380000Y-76698589D01*
X120326775Y-76431011D01*
X120222371Y-76178957D01*
X120070799Y-75952114D01*
X119877886Y-75759201D01*
X119651043Y-75607629D01*
X119398989Y-75503225D01*
X119131411Y-75450000D01*
X118858589Y-75450000D01*
X118591011Y-75503225D01*
X118338957Y-75607629D01*
X118112114Y-75759201D01*
X117919201Y-75952114D01*
X117767629Y-76178957D01*
X117751352Y-76218253D01*
X117134605Y-76835000D01*
X117148748Y-76849143D01*
X116969143Y-77028748D01*
X116955000Y-77014605D01*
X116940858Y-77028748D01*
X116761253Y-76849143D01*
X116775395Y-76835000D01*
X115998007Y-76057612D01*
X115759140Y-76123137D01*
X115643240Y-76370116D01*
X115577750Y-76634960D01*
X115565188Y-76907492D01*
X115606035Y-77177238D01*
X115698723Y-77433832D01*
X115755471Y-77539999D01*
X111793336Y-77539999D01*
X111756003Y-77536322D01*
X111718670Y-77539999D01*
X111607017Y-77550996D01*
X111463756Y-77594453D01*
X111331727Y-77665025D01*
X111216002Y-77759998D01*
X111192204Y-77788996D01*
X108938461Y-80042739D01*
X108838739Y-79541399D01*
X108640107Y-79061859D01*
X108351738Y-78630285D01*
X107984715Y-78263262D01*
X107553141Y-77974893D01*
X107073601Y-77776261D01*
X106564525Y-77675000D01*
X106045475Y-77675000D01*
X105536399Y-77776261D01*
X105056859Y-77974893D01*
X104625285Y-78263262D01*
X104258262Y-78630285D01*
X103969893Y-79061859D01*
X103771261Y-79541399D01*
X103670000Y-80050475D01*
X103670000Y-80569525D01*
X103771261Y-81078601D01*
X103969893Y-81558141D01*
X104181612Y-81875001D01*
X99724805Y-81875001D01*
X99294804Y-81445000D01*
X99486335Y-81445000D01*
X99763574Y-81389853D01*
X100024727Y-81281680D01*
X100259759Y-81124637D01*
X100459637Y-80924759D01*
X100616680Y-80689727D01*
X100724853Y-80428574D01*
X100780000Y-80151335D01*
X100780000Y-79868665D01*
X100724853Y-79591426D01*
X100616680Y-79330273D01*
X100459637Y-79095241D01*
X100259759Y-78895363D01*
X100024727Y-78738320D01*
X99763574Y-78630147D01*
X99486335Y-78575000D01*
X99203665Y-78575000D01*
X98926426Y-78630147D01*
X98665273Y-78738320D01*
X98430241Y-78895363D01*
X98230363Y-79095241D01*
X98073320Y-79330273D01*
X97965147Y-79591426D01*
X97960000Y-79617301D01*
X97954853Y-79591426D01*
X97846680Y-79330273D01*
X97689637Y-79095241D01*
X97489759Y-78895363D01*
X97254727Y-78738320D01*
X96993574Y-78630147D01*
X96716335Y-78575000D01*
X96433665Y-78575000D01*
X96156426Y-78630147D01*
X95895273Y-78738320D01*
X95660241Y-78895363D01*
X95460363Y-79095241D01*
X95303320Y-79330273D01*
X95195147Y-79591426D01*
X95190000Y-79617301D01*
X95184853Y-79591426D01*
X95076680Y-79330273D01*
X94919637Y-79095241D01*
X94719759Y-78895363D01*
X94484727Y-78738320D01*
X94223574Y-78630147D01*
X93946335Y-78575000D01*
X93663665Y-78575000D01*
X93386426Y-78630147D01*
X93125273Y-78738320D01*
X92890241Y-78895363D01*
X92690363Y-79095241D01*
X92533320Y-79330273D01*
X92425147Y-79591426D01*
X92420000Y-79617301D01*
X92414853Y-79591426D01*
X92306680Y-79330273D01*
X92149637Y-79095241D01*
X91949759Y-78895363D01*
X91795000Y-78791957D01*
X91795000Y-76237498D01*
X91943317Y-76267000D01*
X92206683Y-76267000D01*
X92464988Y-76215620D01*
X92708307Y-76114834D01*
X92927288Y-75968516D01*
X93113516Y-75782288D01*
X93259834Y-75563307D01*
X93345000Y-75357698D01*
X93430166Y-75563307D01*
X93576484Y-75782288D01*
X93762712Y-75968516D01*
X93981693Y-76114834D01*
X94225012Y-76215620D01*
X94483317Y-76267000D01*
X94746683Y-76267000D01*
X95004988Y-76215620D01*
X95248307Y-76114834D01*
X95467288Y-75968516D01*
X95653516Y-75782288D01*
X95799834Y-75563307D01*
X95885000Y-75357698D01*
X95970166Y-75563307D01*
X96116484Y-75782288D01*
X96302712Y-75968516D01*
X96521693Y-76114834D01*
X96765012Y-76215620D01*
X97023317Y-76267000D01*
X97286683Y-76267000D01*
X97544988Y-76215620D01*
X97788307Y-76114834D01*
X98007288Y-75968516D01*
X98193516Y-75782288D01*
X98339834Y-75563307D01*
X98425000Y-75357698D01*
X98510166Y-75563307D01*
X98656484Y-75782288D01*
X98842712Y-75968516D01*
X99061693Y-76114834D01*
X99305012Y-76215620D01*
X99563317Y-76267000D01*
X99826683Y-76267000D01*
X100084988Y-76215620D01*
X100328307Y-76114834D01*
X100547288Y-75968516D01*
X100733516Y-75782288D01*
X100879834Y-75563307D01*
X100965000Y-75357698D01*
X101050166Y-75563307D01*
X101196484Y-75782288D01*
X101382712Y-75968516D01*
X101601693Y-76114834D01*
X101845012Y-76215620D01*
X102103317Y-76267000D01*
X102366683Y-76267000D01*
X102624988Y-76215620D01*
X102868307Y-76114834D01*
X103087288Y-75968516D01*
X103273516Y-75782288D01*
X103419834Y-75563307D01*
X103505000Y-75357698D01*
X103590166Y-75563307D01*
X103736484Y-75782288D01*
X103922712Y-75968516D01*
X104141693Y-76114834D01*
X104385012Y-76215620D01*
X104643317Y-76267000D01*
X104906683Y-76267000D01*
X105164988Y-76215620D01*
X105408307Y-76114834D01*
X105627288Y-75968516D01*
X105813516Y-75782288D01*
X105959834Y-75563307D01*
X106045000Y-75357698D01*
X106130166Y-75563307D01*
X106276484Y-75782288D01*
X106462712Y-75968516D01*
X106681693Y-76114834D01*
X106925012Y-76215620D01*
X107183317Y-76267000D01*
X107446683Y-76267000D01*
X107704988Y-76215620D01*
X107948307Y-76114834D01*
X108167288Y-75968516D01*
X108353516Y-75782288D01*
X108499834Y-75563307D01*
X108585000Y-75357698D01*
X108670166Y-75563307D01*
X108816484Y-75782288D01*
X109002712Y-75968516D01*
X109221693Y-76114834D01*
X109465012Y-76215620D01*
X109723317Y-76267000D01*
X109986683Y-76267000D01*
X110244988Y-76215620D01*
X110488307Y-76114834D01*
X110707288Y-75968516D01*
X110797797Y-75878007D01*
X116177612Y-75878007D01*
X116955000Y-76655395D01*
X117732388Y-75878007D01*
X117666863Y-75639140D01*
X117419884Y-75523240D01*
X117155040Y-75457750D01*
X116882508Y-75445188D01*
X116612762Y-75486035D01*
X116356168Y-75578723D01*
X116243137Y-75639140D01*
X116177612Y-75878007D01*
X110797797Y-75878007D01*
X110893516Y-75782288D01*
X111039834Y-75563307D01*
X111140620Y-75319988D01*
X111192000Y-75061683D01*
X111192000Y-74798317D01*
X111140620Y-74540012D01*
X111039834Y-74296693D01*
X110893516Y-74077712D01*
X110707288Y-73891484D01*
X110488307Y-73745166D01*
X110282698Y-73660000D01*
X110488307Y-73574834D01*
X110707288Y-73428516D01*
X110893516Y-73242288D01*
X111039834Y-73023307D01*
X111140620Y-72779988D01*
X111192000Y-72521683D01*
X111192000Y-72258317D01*
X111162874Y-72111890D01*
X112223524Y-72111890D01*
X112268175Y-72259099D01*
X112393359Y-72521920D01*
X112567412Y-72755269D01*
X112783645Y-72950178D01*
X113033748Y-73099157D01*
X113308109Y-73196481D01*
X113538000Y-73075814D01*
X113538000Y-71882000D01*
X113792000Y-71882000D01*
X113792000Y-73075814D01*
X114021891Y-73196481D01*
X114296252Y-73099157D01*
X114546355Y-72950178D01*
X114762588Y-72755269D01*
X114936641Y-72521920D01*
X115061825Y-72259099D01*
X115106476Y-72111890D01*
X114985155Y-71882000D01*
X113792000Y-71882000D01*
X113538000Y-71882000D01*
X112344845Y-71882000D01*
X112223524Y-72111890D01*
X111162874Y-72111890D01*
X111140620Y-72000012D01*
X111039834Y-71756693D01*
X110893516Y-71537712D01*
X110707288Y-71351484D01*
X110488307Y-71205166D01*
X110282698Y-71120000D01*
X110488307Y-71034834D01*
X110707288Y-70888516D01*
X110893516Y-70702288D01*
X111039834Y-70483307D01*
X111140620Y-70239988D01*
X111192000Y-69981683D01*
X111192000Y-69718317D01*
X111140620Y-69460012D01*
X111039834Y-69216693D01*
X110893516Y-68997712D01*
X110707288Y-68811484D01*
X110488307Y-68665166D01*
X110279062Y-68578494D01*
X110437067Y-68520831D01*
X110538390Y-68466671D01*
X110564333Y-68365000D01*
X112176928Y-68365000D01*
X112176928Y-70065000D01*
X112189188Y-70189482D01*
X112225498Y-70309180D01*
X112284463Y-70419494D01*
X112363815Y-70516185D01*
X112460506Y-70595537D01*
X112570820Y-70654502D01*
X112651466Y-70678966D01*
X112567412Y-70754731D01*
X112393359Y-70988080D01*
X112268175Y-71250901D01*
X112223524Y-71398110D01*
X112344845Y-71628000D01*
X113538000Y-71628000D01*
X113538000Y-71608000D01*
X113792000Y-71608000D01*
X113792000Y-71628000D01*
X114985155Y-71628000D01*
X115106476Y-71398110D01*
X115061825Y-71250901D01*
X114936641Y-70988080D01*
X114762588Y-70754731D01*
X114678534Y-70678966D01*
X114759180Y-70654502D01*
X114869494Y-70595537D01*
X114966185Y-70516185D01*
X115045537Y-70419494D01*
X115104502Y-70309180D01*
X115140812Y-70189482D01*
X115153072Y-70065000D01*
X115153072Y-68365000D01*
X119161928Y-68365000D01*
X119161928Y-70065000D01*
X119174188Y-70189482D01*
X119210498Y-70309180D01*
X119269463Y-70419494D01*
X119348815Y-70516185D01*
X119445506Y-70595537D01*
X119555820Y-70654502D01*
X119628380Y-70676513D01*
X119496525Y-70808368D01*
X119334010Y-71051589D01*
X119222068Y-71321842D01*
X119165000Y-71608740D01*
X119165000Y-71901260D01*
X119222068Y-72188158D01*
X119334010Y-72458411D01*
X119496525Y-72701632D01*
X119703368Y-72908475D01*
X119946589Y-73070990D01*
X120216842Y-73182932D01*
X120503740Y-73240000D01*
X120796260Y-73240000D01*
X121083158Y-73182932D01*
X121353411Y-73070990D01*
X121596632Y-72908475D01*
X121803475Y-72701632D01*
X121965990Y-72458411D01*
X122077932Y-72188158D01*
X122135000Y-71901260D01*
X122135000Y-71608740D01*
X122077932Y-71321842D01*
X121965990Y-71051589D01*
X121803475Y-70808368D01*
X121671620Y-70676513D01*
X121744180Y-70654502D01*
X121854494Y-70595537D01*
X121951185Y-70516185D01*
X122030537Y-70419494D01*
X122089502Y-70309180D01*
X122125812Y-70189482D01*
X122138072Y-70065000D01*
X122138072Y-68365000D01*
X122125812Y-68240518D01*
X122089502Y-68120820D01*
X122030537Y-68010506D01*
X121951185Y-67913815D01*
X121854494Y-67834463D01*
X121744180Y-67775498D01*
X121624482Y-67739188D01*
X121500000Y-67726928D01*
X119800000Y-67726928D01*
X119675518Y-67739188D01*
X119555820Y-67775498D01*
X119445506Y-67834463D01*
X119348815Y-67913815D01*
X119269463Y-68010506D01*
X119210498Y-68120820D01*
X119174188Y-68240518D01*
X119161928Y-68365000D01*
X115153072Y-68365000D01*
X115140812Y-68240518D01*
X115104502Y-68120820D01*
X115045537Y-68010506D01*
X114966185Y-67913815D01*
X114869494Y-67834463D01*
X114759180Y-67775498D01*
X114639482Y-67739188D01*
X114515000Y-67726928D01*
X112815000Y-67726928D01*
X112690518Y-67739188D01*
X112570820Y-67775498D01*
X112460506Y-67834463D01*
X112363815Y-67913815D01*
X112284463Y-68010506D01*
X112225498Y-68120820D01*
X112189188Y-68240518D01*
X112176928Y-68365000D01*
X110564333Y-68365000D01*
X110598093Y-68232698D01*
X109855000Y-67489605D01*
X109111907Y-68232698D01*
X109171610Y-68466671D01*
X109410397Y-68577769D01*
X109424429Y-68581190D01*
X109221693Y-68665166D01*
X109002712Y-68811484D01*
X108816484Y-68997712D01*
X108670166Y-69216693D01*
X108569380Y-69460012D01*
X108518000Y-69718317D01*
X108518000Y-69981683D01*
X108569380Y-70239988D01*
X108670166Y-70483307D01*
X108816484Y-70702288D01*
X109002712Y-70888516D01*
X109221693Y-71034834D01*
X109427302Y-71120000D01*
X109221693Y-71205166D01*
X109002712Y-71351484D01*
X108816484Y-71537712D01*
X108670166Y-71756693D01*
X108569380Y-72000012D01*
X108518000Y-72258317D01*
X108518000Y-72521683D01*
X108569380Y-72779988D01*
X108670166Y-73023307D01*
X108816484Y-73242288D01*
X109002712Y-73428516D01*
X109221693Y-73574834D01*
X109427302Y-73660000D01*
X109221693Y-73745166D01*
X109002712Y-73891484D01*
X108816484Y-74077712D01*
X108670166Y-74296693D01*
X108585000Y-74502302D01*
X108499834Y-74296693D01*
X108353516Y-74077712D01*
X108167288Y-73891484D01*
X107948307Y-73745166D01*
X107704988Y-73644380D01*
X107446683Y-73593000D01*
X107183317Y-73593000D01*
X106925012Y-73644380D01*
X106681693Y-73745166D01*
X106462712Y-73891484D01*
X106276484Y-74077712D01*
X106130166Y-74296693D01*
X106045000Y-74502302D01*
X105959834Y-74296693D01*
X105813516Y-74077712D01*
X105627288Y-73891484D01*
X105408307Y-73745166D01*
X105164988Y-73644380D01*
X105115368Y-73634510D01*
X105150404Y-73627541D01*
X105384623Y-73530524D01*
X105595415Y-73389678D01*
X105774678Y-73210415D01*
X105915524Y-72999623D01*
X106012541Y-72765404D01*
X106062000Y-72516758D01*
X106062000Y-72263242D01*
X106012541Y-72014596D01*
X105915524Y-71780377D01*
X105774678Y-71569585D01*
X105595415Y-71390322D01*
X105384623Y-71249476D01*
X105150404Y-71152459D01*
X104987222Y-71120000D01*
X105150404Y-71087541D01*
X105384623Y-70990524D01*
X105595415Y-70849678D01*
X105774678Y-70670415D01*
X105915524Y-70459623D01*
X106012541Y-70225404D01*
X106062000Y-69976758D01*
X106062000Y-69723242D01*
X106012541Y-69474596D01*
X105915524Y-69240377D01*
X105774678Y-69029585D01*
X105595415Y-68850322D01*
X105384623Y-68709476D01*
X105150404Y-68612459D01*
X104987222Y-68580000D01*
X105150404Y-68547541D01*
X105384623Y-68450524D01*
X105595415Y-68309678D01*
X105774678Y-68130415D01*
X105915524Y-67919623D01*
X106012541Y-67685404D01*
X106062000Y-67436758D01*
X106062000Y-67384395D01*
X108513592Y-67384395D01*
X108553880Y-67644661D01*
X108644169Y-67892067D01*
X108698329Y-67993390D01*
X108932302Y-68053093D01*
X109675395Y-67310000D01*
X110034605Y-67310000D01*
X110777698Y-68053093D01*
X111011671Y-67993390D01*
X111122769Y-67754603D01*
X111185147Y-67498731D01*
X111196408Y-67235605D01*
X111156120Y-66975339D01*
X111065831Y-66727933D01*
X111011671Y-66626610D01*
X110777698Y-66566907D01*
X110034605Y-67310000D01*
X109675395Y-67310000D01*
X108932302Y-66566907D01*
X108698329Y-66626610D01*
X108587231Y-66865397D01*
X108524853Y-67121269D01*
X108513592Y-67384395D01*
X106062000Y-67384395D01*
X106062000Y-67183242D01*
X106012541Y-66934596D01*
X105915524Y-66700377D01*
X105774678Y-66489585D01*
X105595415Y-66310322D01*
X105384623Y-66169476D01*
X105150404Y-66072459D01*
X104987222Y-66040000D01*
X105150404Y-66007541D01*
X105384623Y-65910524D01*
X105595415Y-65769678D01*
X105774678Y-65590415D01*
X105915524Y-65379623D01*
X106012541Y-65145404D01*
X106062000Y-64896758D01*
X106062000Y-64643242D01*
X106012541Y-64394596D01*
X105915524Y-64160377D01*
X105774678Y-63949585D01*
X105595415Y-63770322D01*
X105384623Y-63629476D01*
X105150404Y-63532459D01*
X104987222Y-63500000D01*
X105150404Y-63467541D01*
X105384623Y-63370524D01*
X105595415Y-63229678D01*
X105774678Y-63050415D01*
X105915524Y-62839623D01*
X106012541Y-62605404D01*
X106062000Y-62356758D01*
X106062000Y-62103242D01*
X106012541Y-61854596D01*
X105915524Y-61620377D01*
X105774678Y-61409585D01*
X105595415Y-61230322D01*
X105384623Y-61089476D01*
X105150404Y-60992459D01*
X105115368Y-60985490D01*
X105164988Y-60975620D01*
X105408307Y-60874834D01*
X105627288Y-60728516D01*
X105813516Y-60542288D01*
X105959834Y-60323307D01*
X106045000Y-60117698D01*
X106130166Y-60323307D01*
X106276484Y-60542288D01*
X106462712Y-60728516D01*
X106681693Y-60874834D01*
X106925012Y-60975620D01*
X107183317Y-61027000D01*
X107446683Y-61027000D01*
X107704988Y-60975620D01*
X107948307Y-60874834D01*
X108167288Y-60728516D01*
X108353516Y-60542288D01*
X108499834Y-60323307D01*
X108585000Y-60117698D01*
X108670166Y-60323307D01*
X108816484Y-60542288D01*
X109002712Y-60728516D01*
X109221693Y-60874834D01*
X109427302Y-60960000D01*
X109221693Y-61045166D01*
X109002712Y-61191484D01*
X108816484Y-61377712D01*
X108670166Y-61596693D01*
X108569380Y-61840012D01*
X108518000Y-62098317D01*
X108518000Y-62361683D01*
X108569380Y-62619988D01*
X108670166Y-62863307D01*
X108816484Y-63082288D01*
X109002712Y-63268516D01*
X109221693Y-63414834D01*
X109427302Y-63500000D01*
X109221693Y-63585166D01*
X109002712Y-63731484D01*
X108816484Y-63917712D01*
X108670166Y-64136693D01*
X108569380Y-64380012D01*
X108518000Y-64638317D01*
X108518000Y-64901683D01*
X108569380Y-65159988D01*
X108670166Y-65403307D01*
X108816484Y-65622288D01*
X109002712Y-65808516D01*
X109221693Y-65954834D01*
X109430938Y-66041506D01*
X109272933Y-66099169D01*
X109171610Y-66153329D01*
X109111907Y-66387302D01*
X109855000Y-67130395D01*
X110598093Y-66387302D01*
X110538390Y-66153329D01*
X110299603Y-66042231D01*
X110285571Y-66038810D01*
X110488307Y-65954834D01*
X110707288Y-65808516D01*
X110893516Y-65622288D01*
X111039834Y-65403307D01*
X111140620Y-65159988D01*
X111192000Y-64901683D01*
X111192000Y-64638317D01*
X111140620Y-64380012D01*
X111039834Y-64136693D01*
X110893516Y-63917712D01*
X110707288Y-63731484D01*
X110488307Y-63585166D01*
X110282698Y-63500000D01*
X110488307Y-63414834D01*
X110707288Y-63268516D01*
X110753914Y-63221890D01*
X112223524Y-63221890D01*
X112268175Y-63369099D01*
X112393359Y-63631920D01*
X112567412Y-63865269D01*
X112783645Y-64060178D01*
X113033748Y-64209157D01*
X113308109Y-64306481D01*
X113538000Y-64185814D01*
X113538000Y-62992000D01*
X113792000Y-62992000D01*
X113792000Y-64185814D01*
X114021891Y-64306481D01*
X114296252Y-64209157D01*
X114546355Y-64060178D01*
X114762588Y-63865269D01*
X114936641Y-63631920D01*
X115061825Y-63369099D01*
X115106476Y-63221890D01*
X119208524Y-63221890D01*
X119253175Y-63369099D01*
X119378359Y-63631920D01*
X119552412Y-63865269D01*
X119768645Y-64060178D01*
X120018748Y-64209157D01*
X120293109Y-64306481D01*
X120523000Y-64185814D01*
X120523000Y-62992000D01*
X120777000Y-62992000D01*
X120777000Y-64185814D01*
X121006891Y-64306481D01*
X121281252Y-64209157D01*
X121531355Y-64060178D01*
X121747588Y-63865269D01*
X121921641Y-63631920D01*
X122046825Y-63369099D01*
X122091476Y-63221890D01*
X121970155Y-62992000D01*
X120777000Y-62992000D01*
X120523000Y-62992000D01*
X119329845Y-62992000D01*
X119208524Y-63221890D01*
X115106476Y-63221890D01*
X114985155Y-62992000D01*
X113792000Y-62992000D01*
X113538000Y-62992000D01*
X112344845Y-62992000D01*
X112223524Y-63221890D01*
X110753914Y-63221890D01*
X110893516Y-63082288D01*
X111039834Y-62863307D01*
X111140620Y-62619988D01*
X111192000Y-62361683D01*
X111192000Y-62098317D01*
X111140620Y-61840012D01*
X111039834Y-61596693D01*
X110893516Y-61377712D01*
X110707288Y-61191484D01*
X110488307Y-61045166D01*
X110282698Y-60960000D01*
X110488307Y-60874834D01*
X110707288Y-60728516D01*
X110893516Y-60542288D01*
X111039834Y-60323307D01*
X111140620Y-60079988D01*
X111192000Y-59821683D01*
X111192000Y-59558317D01*
X111175428Y-59475000D01*
X112176928Y-59475000D01*
X112176928Y-61175000D01*
X112189188Y-61299482D01*
X112225498Y-61419180D01*
X112284463Y-61529494D01*
X112363815Y-61626185D01*
X112460506Y-61705537D01*
X112570820Y-61764502D01*
X112651466Y-61788966D01*
X112567412Y-61864731D01*
X112393359Y-62098080D01*
X112268175Y-62360901D01*
X112223524Y-62508110D01*
X112344845Y-62738000D01*
X113538000Y-62738000D01*
X113538000Y-62718000D01*
X113792000Y-62718000D01*
X113792000Y-62738000D01*
X114985155Y-62738000D01*
X115106476Y-62508110D01*
X115061825Y-62360901D01*
X114936641Y-62098080D01*
X114762588Y-61864731D01*
X114678534Y-61788966D01*
X114759180Y-61764502D01*
X114869494Y-61705537D01*
X114966185Y-61626185D01*
X115045537Y-61529494D01*
X115104502Y-61419180D01*
X115140812Y-61299482D01*
X115153072Y-61175000D01*
X115153072Y-59475000D01*
X119161928Y-59475000D01*
X119161928Y-61175000D01*
X119174188Y-61299482D01*
X119210498Y-61419180D01*
X119269463Y-61529494D01*
X119348815Y-61626185D01*
X119445506Y-61705537D01*
X119555820Y-61764502D01*
X119636466Y-61788966D01*
X119552412Y-61864731D01*
X119378359Y-62098080D01*
X119253175Y-62360901D01*
X119208524Y-62508110D01*
X119329845Y-62738000D01*
X120523000Y-62738000D01*
X120523000Y-62718000D01*
X120777000Y-62718000D01*
X120777000Y-62738000D01*
X121970155Y-62738000D01*
X122091476Y-62508110D01*
X122046825Y-62360901D01*
X121921641Y-62098080D01*
X121747588Y-61864731D01*
X121663534Y-61788966D01*
X121744180Y-61764502D01*
X121854494Y-61705537D01*
X121951185Y-61626185D01*
X122030537Y-61529494D01*
X122089502Y-61419180D01*
X122125812Y-61299482D01*
X122138072Y-61175000D01*
X122138072Y-59475000D01*
X122125812Y-59350518D01*
X122089502Y-59230820D01*
X122030537Y-59120506D01*
X121951185Y-59023815D01*
X121854494Y-58944463D01*
X121744180Y-58885498D01*
X121624482Y-58849188D01*
X121500000Y-58836928D01*
X119800000Y-58836928D01*
X119675518Y-58849188D01*
X119555820Y-58885498D01*
X119445506Y-58944463D01*
X119348815Y-59023815D01*
X119269463Y-59120506D01*
X119210498Y-59230820D01*
X119174188Y-59350518D01*
X119161928Y-59475000D01*
X115153072Y-59475000D01*
X115140812Y-59350518D01*
X115104502Y-59230820D01*
X115045537Y-59120506D01*
X114966185Y-59023815D01*
X114869494Y-58944463D01*
X114759180Y-58885498D01*
X114639482Y-58849188D01*
X114515000Y-58836928D01*
X112815000Y-58836928D01*
X112690518Y-58849188D01*
X112570820Y-58885498D01*
X112460506Y-58944463D01*
X112363815Y-59023815D01*
X112284463Y-59120506D01*
X112225498Y-59230820D01*
X112189188Y-59350518D01*
X112176928Y-59475000D01*
X111175428Y-59475000D01*
X111140620Y-59300012D01*
X111039834Y-59056693D01*
X110893516Y-58837712D01*
X110707288Y-58651484D01*
X110488307Y-58505166D01*
X110244988Y-58404380D01*
X109986683Y-58353000D01*
X109723317Y-58353000D01*
X109465012Y-58404380D01*
X109221693Y-58505166D01*
X109002712Y-58651484D01*
X108816484Y-58837712D01*
X108670166Y-59056693D01*
X108585000Y-59262302D01*
X108499834Y-59056693D01*
X108353516Y-58837712D01*
X108167288Y-58651484D01*
X107948307Y-58505166D01*
X107704988Y-58404380D01*
X107446683Y-58353000D01*
X107183317Y-58353000D01*
X106925012Y-58404380D01*
X106681693Y-58505166D01*
X106462712Y-58651484D01*
X106276484Y-58837712D01*
X106130166Y-59056693D01*
X106045000Y-59262302D01*
X105959834Y-59056693D01*
X105813516Y-58837712D01*
X105627288Y-58651484D01*
X105408307Y-58505166D01*
X105359622Y-58485000D01*
X105541486Y-58485000D01*
X105799405Y-58433696D01*
X106042359Y-58333061D01*
X106261013Y-58186962D01*
X106446962Y-58001013D01*
X106593061Y-57782359D01*
X106693696Y-57539405D01*
X106745000Y-57281486D01*
X106745000Y-57018514D01*
X106693696Y-56760595D01*
X106593061Y-56517641D01*
X106446962Y-56298987D01*
X106261013Y-56113038D01*
X106042359Y-55966939D01*
X105799405Y-55866304D01*
X105541486Y-55815000D01*
X105278514Y-55815000D01*
X105020595Y-55866304D01*
X104777641Y-55966939D01*
X104558987Y-56113038D01*
X104373038Y-56298987D01*
X104226939Y-56517641D01*
X104126304Y-56760595D01*
X104075000Y-57018514D01*
X104075000Y-57281486D01*
X104126304Y-57539405D01*
X104226939Y-57782359D01*
X104373038Y-58001013D01*
X104558987Y-58186962D01*
X104777641Y-58333061D01*
X104825778Y-58353000D01*
X104643317Y-58353000D01*
X104385012Y-58404380D01*
X104141693Y-58505166D01*
X103922712Y-58651484D01*
X103736484Y-58837712D01*
X103590166Y-59056693D01*
X103505000Y-59262302D01*
X103419834Y-59056693D01*
X103273516Y-58837712D01*
X103087288Y-58651484D01*
X102868307Y-58505166D01*
X102624988Y-58404380D01*
X102366683Y-58353000D01*
X102103317Y-58353000D01*
X101845012Y-58404380D01*
X101601693Y-58505166D01*
X101382712Y-58651484D01*
X101196484Y-58837712D01*
X101050166Y-59056693D01*
X100965000Y-59262302D01*
X100879834Y-59056693D01*
X100733516Y-58837712D01*
X100547288Y-58651484D01*
X100328307Y-58505166D01*
X100084988Y-58404380D01*
X100067198Y-58400841D01*
X100203000Y-58320201D01*
X100203000Y-57277000D01*
X100457000Y-57277000D01*
X100457000Y-58320201D01*
X100663330Y-58442722D01*
X100909123Y-58352853D01*
X101132660Y-58216759D01*
X101325351Y-58039670D01*
X101479792Y-57828392D01*
X101590047Y-57591044D01*
X101622716Y-57483329D01*
X101499374Y-57277000D01*
X100457000Y-57277000D01*
X100203000Y-57277000D01*
X99160626Y-57277000D01*
X99037284Y-57483329D01*
X99069953Y-57591044D01*
X99180208Y-57828392D01*
X99334649Y-58039670D01*
X99527340Y-58216759D01*
X99750877Y-58352853D01*
X99751279Y-58353000D01*
X99563317Y-58353000D01*
X99305012Y-58404380D01*
X99061693Y-58505166D01*
X98842712Y-58651484D01*
X98656484Y-58837712D01*
X98510166Y-59056693D01*
X98425000Y-59262302D01*
X98339834Y-59056693D01*
X98193516Y-58837712D01*
X98007288Y-58651484D01*
X97788307Y-58505166D01*
X97544988Y-58404380D01*
X97286683Y-58353000D01*
X97023317Y-58353000D01*
X96765012Y-58404380D01*
X96521693Y-58505166D01*
X96302712Y-58651484D01*
X96116484Y-58837712D01*
X95970166Y-59056693D01*
X95885000Y-59262302D01*
X95799834Y-59056693D01*
X95653516Y-58837712D01*
X95467288Y-58651484D01*
X95248307Y-58505166D01*
X95004988Y-58404380D01*
X94746683Y-58353000D01*
X94483317Y-58353000D01*
X94225012Y-58404380D01*
X93981693Y-58505166D01*
X93762712Y-58651484D01*
X93576484Y-58837712D01*
X93430166Y-59056693D01*
X93345000Y-59262302D01*
X93259834Y-59056693D01*
X93113516Y-58837712D01*
X92927288Y-58651484D01*
X92708307Y-58505166D01*
X92464988Y-58404380D01*
X92206683Y-58353000D01*
X91943317Y-58353000D01*
X91685012Y-58404380D01*
X91441693Y-58505166D01*
X91222712Y-58651484D01*
X91036484Y-58837712D01*
X90890166Y-59056693D01*
X90805000Y-59262302D01*
X90719834Y-59056693D01*
X90573516Y-58837712D01*
X90387288Y-58651484D01*
X90168307Y-58505166D01*
X89924988Y-58404380D01*
X89666683Y-58353000D01*
X89403317Y-58353000D01*
X89145012Y-58404380D01*
X88901693Y-58505166D01*
X88682712Y-58651484D01*
X88496484Y-58837712D01*
X88350166Y-59056693D01*
X88265000Y-59262302D01*
X88179834Y-59056693D01*
X88033516Y-58837712D01*
X87847288Y-58651484D01*
X87628307Y-58505166D01*
X87384988Y-58404380D01*
X87126683Y-58353000D01*
X86863317Y-58353000D01*
X86605012Y-58404380D01*
X86361693Y-58505166D01*
X86142712Y-58651484D01*
X85956484Y-58837712D01*
X85810166Y-59056693D01*
X85725000Y-59262302D01*
X85639834Y-59056693D01*
X85493516Y-58837712D01*
X85307288Y-58651484D01*
X85088307Y-58505166D01*
X84844988Y-58404380D01*
X84586683Y-58353000D01*
X84323317Y-58353000D01*
X84065012Y-58404380D01*
X83821693Y-58505166D01*
X83602712Y-58651484D01*
X83416484Y-58837712D01*
X83294447Y-59020353D01*
X83227285Y-58984454D01*
X83084024Y-58940997D01*
X83018196Y-58934513D01*
X82953516Y-58837712D01*
X82767288Y-58651484D01*
X82548307Y-58505166D01*
X82304988Y-58404380D01*
X82046683Y-58353000D01*
X81783317Y-58353000D01*
X81525012Y-58404380D01*
X81281693Y-58505166D01*
X81062712Y-58651484D01*
X80876484Y-58837712D01*
X80730166Y-59056693D01*
X80643494Y-59265938D01*
X80585831Y-59107933D01*
X80531671Y-59006610D01*
X80297698Y-58946907D01*
X79554605Y-59690000D01*
X80297698Y-60433093D01*
X80531671Y-60373390D01*
X80642769Y-60134603D01*
X80646190Y-60120571D01*
X80730166Y-60323307D01*
X80876484Y-60542288D01*
X81062712Y-60728516D01*
X81281693Y-60874834D01*
X81525012Y-60975620D01*
X81783317Y-61027000D01*
X82046683Y-61027000D01*
X82304988Y-60975620D01*
X82548307Y-60874834D01*
X82767288Y-60728516D01*
X82833020Y-60662784D01*
X90275001Y-68104765D01*
X90275001Y-73816456D01*
X90168307Y-73745166D01*
X89924988Y-73644380D01*
X89666683Y-73593000D01*
X89403317Y-73593000D01*
X89145012Y-73644380D01*
X88901693Y-73745166D01*
X88682712Y-73891484D01*
X88496484Y-74077712D01*
X88350166Y-74296693D01*
X88265000Y-74502302D01*
X88179834Y-74296693D01*
X88033516Y-74077712D01*
X87847288Y-73891484D01*
X87628307Y-73745166D01*
X87384988Y-73644380D01*
X87126683Y-73593000D01*
X86863317Y-73593000D01*
X86605012Y-73644380D01*
X86361693Y-73745166D01*
X86142712Y-73891484D01*
X85956484Y-74077712D01*
X85810166Y-74296693D01*
X85725000Y-74502302D01*
X85639834Y-74296693D01*
X85493516Y-74077712D01*
X85307288Y-73891484D01*
X85088307Y-73745166D01*
X84844988Y-73644380D01*
X84586683Y-73593000D01*
X84323317Y-73593000D01*
X84065012Y-73644380D01*
X83821693Y-73745166D01*
X83602712Y-73891484D01*
X83416484Y-74077712D01*
X83270166Y-74296693D01*
X83185000Y-74502302D01*
X83099834Y-74296693D01*
X82953516Y-74077712D01*
X82767288Y-73891484D01*
X82548307Y-73745166D01*
X82304988Y-73644380D01*
X82046683Y-73593000D01*
X81783317Y-73593000D01*
X81525012Y-73644380D01*
X81281693Y-73745166D01*
X81062712Y-73891484D01*
X80876484Y-74077712D01*
X80730166Y-74296693D01*
X80645000Y-74502302D01*
X80559834Y-74296693D01*
X80413516Y-74077712D01*
X80227288Y-73891484D01*
X80008307Y-73745166D01*
X79764988Y-73644380D01*
X79506683Y-73593000D01*
X79243317Y-73593000D01*
X78985012Y-73644380D01*
X78741693Y-73745166D01*
X78522712Y-73891484D01*
X78336484Y-74077712D01*
X78190166Y-74296693D01*
X78103494Y-74505938D01*
X78045831Y-74347933D01*
X77991671Y-74246610D01*
X77757698Y-74186907D01*
X77014605Y-74930000D01*
X77757698Y-75673093D01*
X77991671Y-75613390D01*
X78102769Y-75374603D01*
X78106190Y-75360571D01*
X78190166Y-75563307D01*
X78336484Y-75782288D01*
X78522712Y-75968516D01*
X78741693Y-76114834D01*
X78985012Y-76215620D01*
X79243317Y-76267000D01*
X79506683Y-76267000D01*
X79764988Y-76215620D01*
X80008307Y-76114834D01*
X80227288Y-75968516D01*
X80413516Y-75782288D01*
X80559834Y-75563307D01*
X80645000Y-75357698D01*
X80730166Y-75563307D01*
X80876484Y-75782288D01*
X81062712Y-75968516D01*
X81281693Y-76114834D01*
X81525012Y-76215620D01*
X81783317Y-76267000D01*
X82046683Y-76267000D01*
X82304988Y-76215620D01*
X82548307Y-76114834D01*
X82767288Y-75968516D01*
X82953516Y-75782288D01*
X83099834Y-75563307D01*
X83185000Y-75357698D01*
X83270166Y-75563307D01*
X83416484Y-75782288D01*
X83602712Y-75968516D01*
X83821693Y-76114834D01*
X84065012Y-76215620D01*
X84323317Y-76267000D01*
X84586683Y-76267000D01*
X84844988Y-76215620D01*
X85088307Y-76114834D01*
X85307288Y-75968516D01*
X85493516Y-75782288D01*
X85639834Y-75563307D01*
X85725000Y-75357698D01*
X85810166Y-75563307D01*
X85956484Y-75782288D01*
X86142712Y-75968516D01*
X86361693Y-76114834D01*
X86605012Y-76215620D01*
X86863317Y-76267000D01*
X87126683Y-76267000D01*
X87384988Y-76215620D01*
X87628307Y-76114834D01*
X87847288Y-75968516D01*
X88033516Y-75782288D01*
X88179834Y-75563307D01*
X88265000Y-75357698D01*
X88350166Y-75563307D01*
X88496484Y-75782288D01*
X88682712Y-75968516D01*
X88901693Y-76114834D01*
X89145012Y-76215620D01*
X89403317Y-76267000D01*
X89666683Y-76267000D01*
X89924988Y-76215620D01*
X90168307Y-76114834D01*
X90275000Y-76043544D01*
X90275000Y-78791957D01*
X90120241Y-78895363D01*
X89920363Y-79095241D01*
X89763320Y-79330273D01*
X89701461Y-79479613D01*
X89703072Y-79210000D01*
X89690812Y-79085518D01*
X89654502Y-78965820D01*
X89595537Y-78855506D01*
X89516185Y-78758815D01*
X89419494Y-78679463D01*
X89309180Y-78620498D01*
X89189482Y-78584188D01*
X89065000Y-78571928D01*
X88550750Y-78575000D01*
X88392000Y-78733750D01*
X88392000Y-79883000D01*
X88412000Y-79883000D01*
X88412000Y-80137000D01*
X88392000Y-80137000D01*
X88392000Y-81286250D01*
X88550750Y-81445000D01*
X89065000Y-81448072D01*
X89189482Y-81435812D01*
X89309180Y-81399502D01*
X89419494Y-81340537D01*
X89516185Y-81261185D01*
X89595537Y-81164494D01*
X89654502Y-81054180D01*
X89690812Y-80934482D01*
X89703072Y-80810000D01*
X89701461Y-80540387D01*
X89763320Y-80689727D01*
X89920363Y-80924759D01*
X90120241Y-81124637D01*
X90355273Y-81281680D01*
X90616426Y-81389853D01*
X90893665Y-81445000D01*
X91176335Y-81445000D01*
X91358886Y-81408688D01*
X91596201Y-81646003D01*
X91611351Y-81664463D01*
X91505241Y-81735363D01*
X91305363Y-81935241D01*
X91148320Y-82170273D01*
X91040147Y-82431426D01*
X91035000Y-82457301D01*
X91029853Y-82431426D01*
X90921680Y-82170273D01*
X90764637Y-81935241D01*
X90564759Y-81735363D01*
X90329727Y-81578320D01*
X90068574Y-81470147D01*
X89791335Y-81415000D01*
X89508665Y-81415000D01*
X89231426Y-81470147D01*
X88970273Y-81578320D01*
X88735241Y-81735363D01*
X88535363Y-81935241D01*
X88378320Y-82170273D01*
X88270147Y-82431426D01*
X88215000Y-82708665D01*
X88215000Y-82991335D01*
X88270147Y-83268574D01*
X88378320Y-83529727D01*
X88535363Y-83764759D01*
X88735241Y-83964637D01*
X88970273Y-84121680D01*
X89231426Y-84229853D01*
X89508665Y-84285000D01*
X89791335Y-84285000D01*
X90068574Y-84229853D01*
X90329727Y-84121680D01*
X90564759Y-83964637D01*
X90764637Y-83764759D01*
X90921680Y-83529727D01*
X91029853Y-83268574D01*
X91035000Y-83242699D01*
X91040147Y-83268574D01*
X91148320Y-83529727D01*
X91305363Y-83764759D01*
X91505241Y-83964637D01*
X91740273Y-84121680D01*
X92001426Y-84229853D01*
X92278665Y-84285000D01*
X92561335Y-84285000D01*
X92838574Y-84229853D01*
X93099727Y-84121680D01*
X93334759Y-83964637D01*
X93534637Y-83764759D01*
X93691680Y-83529727D01*
X93799853Y-83268574D01*
X93805000Y-83242699D01*
X93810147Y-83268574D01*
X93918320Y-83529727D01*
X94075363Y-83764759D01*
X94275241Y-83964637D01*
X94510273Y-84121680D01*
X94771426Y-84229853D01*
X95048665Y-84285000D01*
X95331335Y-84285000D01*
X95608574Y-84229853D01*
X95869727Y-84121680D01*
X96104759Y-83964637D01*
X96304637Y-83764759D01*
X96461680Y-83529727D01*
X96569853Y-83268574D01*
X96575000Y-83242699D01*
X96580147Y-83268574D01*
X96688320Y-83529727D01*
X96845363Y-83764759D01*
X97045241Y-83964637D01*
X97280273Y-84121680D01*
X97541426Y-84229853D01*
X97818665Y-84285000D01*
X98101335Y-84285000D01*
X98378574Y-84229853D01*
X98639727Y-84121680D01*
X98874759Y-83964637D01*
X99074637Y-83764759D01*
X99231680Y-83529727D01*
X99290824Y-83386940D01*
X99372670Y-83395001D01*
X99372679Y-83395001D01*
X99410002Y-83398677D01*
X99447325Y-83395001D01*
X107383679Y-83395001D01*
X107421001Y-83398677D01*
X107458323Y-83395001D01*
X107458334Y-83395001D01*
X107569987Y-83384004D01*
X107713248Y-83340547D01*
X107845277Y-83269975D01*
X107961002Y-83175002D01*
X107984805Y-83145998D01*
X109631610Y-81499193D01*
X110700000Y-81499193D01*
X110700000Y-81850807D01*
X110768596Y-82195665D01*
X110903153Y-82520515D01*
X111098500Y-82812871D01*
X111347129Y-83061500D01*
X111639485Y-83256847D01*
X111964335Y-83391404D01*
X112309193Y-83460000D01*
X112660807Y-83460000D01*
X113005665Y-83391404D01*
X113330515Y-83256847D01*
X113622871Y-83061500D01*
X113871500Y-82812871D01*
X114066847Y-82520515D01*
X114201404Y-82195665D01*
X114270000Y-81850807D01*
X114270000Y-81499193D01*
X114201404Y-81154335D01*
X114066847Y-80829485D01*
X113871500Y-80537129D01*
X113622871Y-80288500D01*
X113330515Y-80093153D01*
X113005665Y-79958596D01*
X112660807Y-79890000D01*
X112309193Y-79890000D01*
X111964335Y-79958596D01*
X111639485Y-80093153D01*
X111347129Y-80288500D01*
X111098500Y-80537129D01*
X110903153Y-80829485D01*
X110768596Y-81154335D01*
X110700000Y-81499193D01*
X109631610Y-81499193D01*
X112070805Y-79059999D01*
X116625524Y-79059999D01*
X116590000Y-79238589D01*
X116590000Y-79511411D01*
X116643225Y-79778989D01*
X116747629Y-80031043D01*
X116899201Y-80257886D01*
X117092114Y-80450799D01*
X117318957Y-80602371D01*
X117571011Y-80706775D01*
X117838589Y-80760000D01*
X118111411Y-80760000D01*
X118378989Y-80706775D01*
X118631043Y-80602371D01*
X118762965Y-80514224D01*
X118813815Y-80576185D01*
X118910506Y-80655537D01*
X119020820Y-80714502D01*
X119140518Y-80750812D01*
X119265000Y-80763072D01*
X120765000Y-80763072D01*
X120889482Y-80750812D01*
X121009180Y-80714502D01*
X121119494Y-80655537D01*
X121216185Y-80576185D01*
X121295537Y-80479494D01*
X121354502Y-80369180D01*
X121390812Y-80249482D01*
X121403072Y-80125000D01*
X121403072Y-79061729D01*
X123986005Y-76478797D01*
X124015002Y-76455000D01*
X124109975Y-76339275D01*
X124180547Y-76207246D01*
X124224004Y-76063985D01*
X124235001Y-75952332D01*
X124235001Y-75952323D01*
X124238677Y-75915000D01*
X124235001Y-75877677D01*
X124235001Y-53413382D01*
X125705000Y-54883381D01*
X125705001Y-80370630D01*
X125622871Y-80288500D01*
X125330515Y-80093153D01*
X125005665Y-79958596D01*
X124660807Y-79890000D01*
X124309193Y-79890000D01*
X123964335Y-79958596D01*
X123639485Y-80093153D01*
X123347129Y-80288500D01*
X123098500Y-80537129D01*
X122903153Y-80829485D01*
X122768596Y-81154335D01*
X122700000Y-81499193D01*
X122700000Y-81850807D01*
X122768596Y-82195665D01*
X122903153Y-82520515D01*
X123098500Y-82812871D01*
X123347129Y-83061500D01*
X123639485Y-83256847D01*
X123964335Y-83391404D01*
X124309193Y-83460000D01*
X124660807Y-83460000D01*
X125005665Y-83391404D01*
X125330515Y-83256847D01*
X125622871Y-83061500D01*
X125705001Y-82979370D01*
X125705001Y-87605000D01*
X76225000Y-87605000D01*
X76225000Y-80050475D01*
X78670000Y-80050475D01*
X78670000Y-80569525D01*
X78771261Y-81078601D01*
X78969893Y-81558141D01*
X79258262Y-81989715D01*
X79625285Y-82356738D01*
X80056859Y-82645107D01*
X80536399Y-82843739D01*
X81045475Y-82945000D01*
X81564525Y-82945000D01*
X82073601Y-82843739D01*
X82553141Y-82645107D01*
X82984715Y-82356738D01*
X83351738Y-81989715D01*
X83640107Y-81558141D01*
X83838739Y-81078601D01*
X83892166Y-80810000D01*
X86826928Y-80810000D01*
X86839188Y-80934482D01*
X86875498Y-81054180D01*
X86934463Y-81164494D01*
X87013815Y-81261185D01*
X87110506Y-81340537D01*
X87220820Y-81399502D01*
X87340518Y-81435812D01*
X87465000Y-81448072D01*
X87979250Y-81445000D01*
X88138000Y-81286250D01*
X88138000Y-80137000D01*
X86988750Y-80137000D01*
X86830000Y-80295750D01*
X86826928Y-80810000D01*
X83892166Y-80810000D01*
X83940000Y-80569525D01*
X83940000Y-80050475D01*
X83838739Y-79541399D01*
X83701470Y-79210000D01*
X86826928Y-79210000D01*
X86830000Y-79724250D01*
X86988750Y-79883000D01*
X88138000Y-79883000D01*
X88138000Y-78733750D01*
X87979250Y-78575000D01*
X87465000Y-78571928D01*
X87340518Y-78584188D01*
X87220820Y-78620498D01*
X87110506Y-78679463D01*
X87013815Y-78758815D01*
X86934463Y-78855506D01*
X86875498Y-78965820D01*
X86839188Y-79085518D01*
X86826928Y-79210000D01*
X83701470Y-79210000D01*
X83640107Y-79061859D01*
X83351738Y-78630285D01*
X82984715Y-78263262D01*
X82553141Y-77974893D01*
X82073601Y-77776261D01*
X81564525Y-77675000D01*
X81045475Y-77675000D01*
X80536399Y-77776261D01*
X80056859Y-77974893D01*
X79625285Y-78263262D01*
X79258262Y-78630285D01*
X78969893Y-79061859D01*
X78771261Y-79541399D01*
X78670000Y-80050475D01*
X76225000Y-80050475D01*
X76225000Y-76120816D01*
X76390397Y-76197769D01*
X76646269Y-76260147D01*
X76909395Y-76271408D01*
X77169661Y-76231120D01*
X77417067Y-76140831D01*
X77518390Y-76086671D01*
X77578093Y-75852698D01*
X76835000Y-75109605D01*
X76820858Y-75123748D01*
X76641253Y-74944143D01*
X76655395Y-74930000D01*
X76641253Y-74915858D01*
X76820858Y-74736253D01*
X76835000Y-74750395D01*
X77578093Y-74007302D01*
X77518390Y-73773329D01*
X77279603Y-73662231D01*
X77023731Y-73599853D01*
X76760605Y-73588592D01*
X76500339Y-73628880D01*
X76252933Y-73719169D01*
X76225000Y-73734100D01*
X76225000Y-65913242D01*
X76818000Y-65913242D01*
X76818000Y-66166758D01*
X76867459Y-66415404D01*
X76964476Y-66649623D01*
X77105322Y-66860415D01*
X77284585Y-67039678D01*
X77495377Y-67180524D01*
X77729596Y-67277541D01*
X77892778Y-67310000D01*
X77729596Y-67342459D01*
X77495377Y-67439476D01*
X77284585Y-67580322D01*
X77105322Y-67759585D01*
X76964476Y-67970377D01*
X76867459Y-68204596D01*
X76818000Y-68453242D01*
X76818000Y-68706758D01*
X76867459Y-68955404D01*
X76964476Y-69189623D01*
X77105322Y-69400415D01*
X77284585Y-69579678D01*
X77495377Y-69720524D01*
X77729596Y-69817541D01*
X77978242Y-69867000D01*
X78231758Y-69867000D01*
X78480404Y-69817541D01*
X78714623Y-69720524D01*
X78925415Y-69579678D01*
X79104678Y-69400415D01*
X79245524Y-69189623D01*
X79342541Y-68955404D01*
X79392000Y-68706758D01*
X79392000Y-68453242D01*
X79342541Y-68204596D01*
X79245524Y-67970377D01*
X79104678Y-67759585D01*
X78925415Y-67580322D01*
X78714623Y-67439476D01*
X78480404Y-67342459D01*
X78317222Y-67310000D01*
X78480404Y-67277541D01*
X78714623Y-67180524D01*
X78925415Y-67039678D01*
X79104678Y-66860415D01*
X79245524Y-66649623D01*
X79342541Y-66415404D01*
X79392000Y-66166758D01*
X79392000Y-65913242D01*
X79388630Y-65896297D01*
X82934962Y-65896297D01*
X82971751Y-66097228D01*
X83047033Y-66287121D01*
X83059723Y-66310862D01*
X83054422Y-66318796D01*
X82976251Y-66507518D01*
X82936400Y-66707864D01*
X82936400Y-66912136D01*
X82976251Y-67112482D01*
X83054422Y-67301204D01*
X83060299Y-67310000D01*
X83054422Y-67318796D01*
X82976251Y-67507518D01*
X82936400Y-67707864D01*
X82936400Y-67912136D01*
X82976251Y-68112482D01*
X83054422Y-68301204D01*
X83060299Y-68310000D01*
X83054422Y-68318796D01*
X82976251Y-68507518D01*
X82936400Y-68707864D01*
X82936400Y-68912136D01*
X82976251Y-69112482D01*
X83054422Y-69301204D01*
X83060299Y-69310000D01*
X83054422Y-69318796D01*
X82976251Y-69507518D01*
X82936400Y-69707864D01*
X82936400Y-69912136D01*
X82976251Y-70112482D01*
X83054422Y-70301204D01*
X83060299Y-70310000D01*
X83054422Y-70318796D01*
X82976251Y-70507518D01*
X82936400Y-70707864D01*
X82936400Y-70912136D01*
X82976251Y-71112482D01*
X83054422Y-71301204D01*
X83167909Y-71471049D01*
X83312351Y-71615491D01*
X83482196Y-71728978D01*
X83670918Y-71807149D01*
X83871264Y-71847000D01*
X84075536Y-71847000D01*
X84275882Y-71807149D01*
X84464604Y-71728978D01*
X84634449Y-71615491D01*
X84778891Y-71471049D01*
X84892378Y-71301204D01*
X84970549Y-71112482D01*
X85010400Y-70912136D01*
X85010400Y-70707864D01*
X84970549Y-70507518D01*
X84892378Y-70318796D01*
X84886501Y-70310000D01*
X84892378Y-70301204D01*
X84970549Y-70112482D01*
X85010400Y-69912136D01*
X85010400Y-69707864D01*
X84970549Y-69507518D01*
X84892378Y-69318796D01*
X84886501Y-69310000D01*
X84892378Y-69301204D01*
X84970549Y-69112482D01*
X85010400Y-68912136D01*
X85010400Y-68707864D01*
X84970549Y-68507518D01*
X84892378Y-68318796D01*
X84886501Y-68310000D01*
X84892378Y-68301204D01*
X84970549Y-68112482D01*
X85010400Y-67912136D01*
X85010400Y-67707864D01*
X84970549Y-67507518D01*
X84892378Y-67318796D01*
X84886501Y-67310000D01*
X84892378Y-67301204D01*
X84970549Y-67112482D01*
X85010400Y-66912136D01*
X85010400Y-66707864D01*
X84970549Y-66507518D01*
X84892378Y-66318796D01*
X84886809Y-66310462D01*
X84965817Y-66127664D01*
X85008720Y-65927950D01*
X85011838Y-65723703D01*
X84975049Y-65522772D01*
X84899767Y-65332879D01*
X84887077Y-65309138D01*
X84892378Y-65301204D01*
X84970549Y-65112482D01*
X85010400Y-64912136D01*
X85010400Y-64707864D01*
X84970549Y-64507518D01*
X84892378Y-64318796D01*
X84886501Y-64310000D01*
X84892378Y-64301204D01*
X84970549Y-64112482D01*
X85010400Y-63912136D01*
X85010400Y-63707864D01*
X84970549Y-63507518D01*
X84892378Y-63318796D01*
X84778891Y-63148951D01*
X84634449Y-63004509D01*
X84464604Y-62891022D01*
X84275882Y-62812851D01*
X84075536Y-62773000D01*
X83871264Y-62773000D01*
X83670918Y-62812851D01*
X83482196Y-62891022D01*
X83312351Y-63004509D01*
X83167909Y-63148951D01*
X83054422Y-63318796D01*
X82976251Y-63507518D01*
X82936400Y-63707864D01*
X82936400Y-63912136D01*
X82976251Y-64112482D01*
X83054422Y-64301204D01*
X83060299Y-64310000D01*
X83054422Y-64318796D01*
X82976251Y-64507518D01*
X82936400Y-64707864D01*
X82936400Y-64912136D01*
X82976251Y-65112482D01*
X83054422Y-65301204D01*
X83059991Y-65309538D01*
X82980983Y-65492336D01*
X82938080Y-65692050D01*
X82934962Y-65896297D01*
X79388630Y-65896297D01*
X79342541Y-65664596D01*
X79245524Y-65430377D01*
X79104678Y-65219585D01*
X78925415Y-65040322D01*
X78714623Y-64899476D01*
X78480404Y-64802459D01*
X78231758Y-64753000D01*
X77978242Y-64753000D01*
X77729596Y-64802459D01*
X77495377Y-64899476D01*
X77284585Y-65040322D01*
X77105322Y-65219585D01*
X76964476Y-65430377D01*
X76867459Y-65664596D01*
X76818000Y-65913242D01*
X76225000Y-65913242D01*
X76225000Y-62098317D01*
X78038000Y-62098317D01*
X78038000Y-62361683D01*
X78089380Y-62619988D01*
X78190166Y-62863307D01*
X78336484Y-63082288D01*
X78522712Y-63268516D01*
X78741693Y-63414834D01*
X78985012Y-63515620D01*
X79243317Y-63567000D01*
X79506683Y-63567000D01*
X79764988Y-63515620D01*
X80008307Y-63414834D01*
X80227288Y-63268516D01*
X80413516Y-63082288D01*
X80559834Y-62863307D01*
X80660620Y-62619988D01*
X80712000Y-62361683D01*
X80712000Y-62098317D01*
X80660620Y-61840012D01*
X80559834Y-61596693D01*
X80413516Y-61377712D01*
X80227288Y-61191484D01*
X80008307Y-61045166D01*
X79799062Y-60958494D01*
X79957067Y-60900831D01*
X80058390Y-60846671D01*
X80118093Y-60612698D01*
X79375000Y-59869605D01*
X78631907Y-60612698D01*
X78691610Y-60846671D01*
X78930397Y-60957769D01*
X78944429Y-60961190D01*
X78741693Y-61045166D01*
X78522712Y-61191484D01*
X78336484Y-61377712D01*
X78190166Y-61596693D01*
X78089380Y-61840012D01*
X78038000Y-62098317D01*
X76225000Y-62098317D01*
X76225000Y-60884488D01*
X76445012Y-60975620D01*
X76703317Y-61027000D01*
X76966683Y-61027000D01*
X77224988Y-60975620D01*
X77468307Y-60874834D01*
X77687288Y-60728516D01*
X77873516Y-60542288D01*
X78019834Y-60323307D01*
X78106506Y-60114062D01*
X78164169Y-60272067D01*
X78218329Y-60373390D01*
X78452302Y-60433093D01*
X79195395Y-59690000D01*
X78452302Y-58946907D01*
X78218329Y-59006610D01*
X78107231Y-59245397D01*
X78103810Y-59259429D01*
X78019834Y-59056693D01*
X77873516Y-58837712D01*
X77803106Y-58767302D01*
X78631907Y-58767302D01*
X79375000Y-59510395D01*
X80118093Y-58767302D01*
X80058390Y-58533329D01*
X79819603Y-58422231D01*
X79563731Y-58359853D01*
X79300605Y-58348592D01*
X79040339Y-58388880D01*
X78792933Y-58479169D01*
X78691610Y-58533329D01*
X78631907Y-58767302D01*
X77803106Y-58767302D01*
X77687288Y-58651484D01*
X77468307Y-58505166D01*
X77224988Y-58404380D01*
X76966683Y-58353000D01*
X76703317Y-58353000D01*
X76445012Y-58404380D01*
X76225000Y-58495512D01*
X76225000Y-56813148D01*
X79256457Y-56813148D01*
X79532627Y-57231118D01*
X80077557Y-57521649D01*
X80668696Y-57700287D01*
X81283328Y-57760168D01*
X81897831Y-57698990D01*
X82488592Y-57519103D01*
X83027373Y-57231118D01*
X83301215Y-56816671D01*
X99037284Y-56816671D01*
X99160626Y-57023000D01*
X100203000Y-57023000D01*
X100203000Y-55979799D01*
X100457000Y-55979799D01*
X100457000Y-57023000D01*
X101499374Y-57023000D01*
X101622716Y-56816671D01*
X101590047Y-56708956D01*
X101479792Y-56471608D01*
X101325351Y-56260330D01*
X101132660Y-56083241D01*
X100909123Y-55947147D01*
X100663330Y-55857278D01*
X100457000Y-55979799D01*
X100203000Y-55979799D01*
X99996670Y-55857278D01*
X99750877Y-55947147D01*
X99527340Y-56083241D01*
X99334649Y-56260330D01*
X99180208Y-56471608D01*
X99069953Y-56708956D01*
X99037284Y-56816671D01*
X83301215Y-56816671D01*
X83303543Y-56813148D01*
X81280000Y-54789605D01*
X79256457Y-56813148D01*
X76225000Y-56813148D01*
X76225000Y-54883380D01*
X76495052Y-54613328D01*
X78129832Y-54613328D01*
X78191010Y-55227831D01*
X78370897Y-55818592D01*
X78658882Y-56357373D01*
X79076852Y-56633543D01*
X81100395Y-54610000D01*
X81459605Y-54610000D01*
X83483148Y-56633543D01*
X83901118Y-56357373D01*
X84191649Y-55812443D01*
X84370287Y-55221304D01*
X84430168Y-54606672D01*
X84368990Y-53992169D01*
X84189103Y-53401408D01*
X83901118Y-52862627D01*
X83483148Y-52586457D01*
X81459605Y-54610000D01*
X81100395Y-54610000D01*
X79076852Y-52586457D01*
X78658882Y-52862627D01*
X78368351Y-53407557D01*
X78189713Y-53998696D01*
X78129832Y-54613328D01*
X76495052Y-54613328D01*
X78701528Y-52406852D01*
X79256457Y-52406852D01*
X81280000Y-54430395D01*
X83303543Y-52406852D01*
X83027373Y-51988882D01*
X82657890Y-51791891D01*
X88728519Y-51791891D01*
X88825843Y-52066252D01*
X88974822Y-52316355D01*
X89169731Y-52532588D01*
X89403080Y-52706641D01*
X89665901Y-52831825D01*
X89813110Y-52876476D01*
X90043000Y-52755155D01*
X90043000Y-51562000D01*
X88849186Y-51562000D01*
X88728519Y-51791891D01*
X82657890Y-51791891D01*
X82482443Y-51698351D01*
X81891304Y-51519713D01*
X81276672Y-51459832D01*
X80662169Y-51521010D01*
X80071408Y-51700897D01*
X79532627Y-51988882D01*
X79256457Y-52406852D01*
X78701528Y-52406852D01*
X80918381Y-50190000D01*
X89367363Y-50190000D01*
X89169731Y-50337412D01*
%TA.AperFunction,Conductor*%
D25*
G36*
X89169731Y-50337412D02*
G01*
X88974822Y-50553645D01*
X88825843Y-50803748D01*
X88728519Y-51078109D01*
X88849186Y-51308000D01*
X90043000Y-51308000D01*
X90043000Y-51288000D01*
X90297000Y-51288000D01*
X90297000Y-51308000D01*
X90317000Y-51308000D01*
X90317000Y-51562000D01*
X90297000Y-51562000D01*
X90297000Y-52755155D01*
X90526890Y-52876476D01*
X90674099Y-52831825D01*
X90936920Y-52706641D01*
X91170269Y-52532588D01*
X91365178Y-52316355D01*
X91434805Y-52199466D01*
X91556525Y-52381632D01*
X91763368Y-52588475D01*
X92006589Y-52750990D01*
X92276842Y-52862932D01*
X92563740Y-52920000D01*
X92856260Y-52920000D01*
X93143158Y-52862932D01*
X93413411Y-52750990D01*
X93656632Y-52588475D01*
X93863475Y-52381632D01*
X93980000Y-52207240D01*
X94096525Y-52381632D01*
X94303368Y-52588475D01*
X94546589Y-52750990D01*
X94816842Y-52862932D01*
X95103740Y-52920000D01*
X95396260Y-52920000D01*
X95683158Y-52862932D01*
X95953411Y-52750990D01*
X96196632Y-52588475D01*
X96403475Y-52381632D01*
X96520000Y-52207240D01*
X96636525Y-52381632D01*
X96843368Y-52588475D01*
X97086589Y-52750990D01*
X97356842Y-52862932D01*
X97643740Y-52920000D01*
X97936260Y-52920000D01*
X98223158Y-52862932D01*
X98493411Y-52750990D01*
X98736632Y-52588475D01*
X98868487Y-52456620D01*
X98890498Y-52529180D01*
X98949463Y-52639494D01*
X99028815Y-52736185D01*
X99125506Y-52815537D01*
X99235820Y-52874502D01*
X99355518Y-52910812D01*
X99480000Y-52923072D01*
X101180000Y-52923072D01*
X101304482Y-52910812D01*
X101424180Y-52874502D01*
X101534494Y-52815537D01*
X101631185Y-52736185D01*
X101710537Y-52639494D01*
X101769502Y-52529180D01*
X101805812Y-52409482D01*
X101818072Y-52285000D01*
X101818072Y-51791891D01*
X103968519Y-51791891D01*
X104065843Y-52066252D01*
X104214822Y-52316355D01*
X104409731Y-52532588D01*
X104643080Y-52706641D01*
X104905901Y-52831825D01*
X105053110Y-52876476D01*
X105283000Y-52755155D01*
X105283000Y-51562000D01*
X104089186Y-51562000D01*
X103968519Y-51791891D01*
X101818072Y-51791891D01*
X101818072Y-51019999D01*
X103989132Y-51019999D01*
X103968519Y-51078109D01*
X104089186Y-51308000D01*
X105283000Y-51308000D01*
X105283000Y-51288000D01*
X105537000Y-51288000D01*
X105537000Y-51308000D01*
X105557000Y-51308000D01*
X105557000Y-51562000D01*
X105537000Y-51562000D01*
X105537000Y-52755155D01*
X105766890Y-52876476D01*
X105914099Y-52831825D01*
X106176920Y-52706641D01*
X106410269Y-52532588D01*
X106605178Y-52316355D01*
X106674805Y-52199466D01*
X106796525Y-52381632D01*
X107003368Y-52588475D01*
X107246589Y-52750990D01*
X107516842Y-52862932D01*
X107803740Y-52920000D01*
X108096260Y-52920000D01*
X108316408Y-52876210D01*
X108561202Y-53121004D01*
X108585000Y-53150002D01*
X108700725Y-53244975D01*
X108832754Y-53315547D01*
X108976015Y-53359004D01*
X109087668Y-53370001D01*
X109087677Y-53370001D01*
X109125000Y-53373677D01*
X109162323Y-53370001D01*
X114102679Y-53370001D01*
X114140001Y-53373677D01*
X114177323Y-53370001D01*
X114177334Y-53370001D01*
X114288987Y-53359004D01*
X114432248Y-53315547D01*
X114564277Y-53244975D01*
X114680002Y-53150002D01*
X114703804Y-53120999D01*
X115279805Y-52544999D01*
X118405391Y-52544999D01*
X118446850Y-52586458D01*
X118028882Y-52862627D01*
X117738351Y-53407557D01*
X117559713Y-53998696D01*
X117499832Y-54613328D01*
X117561010Y-55227831D01*
X117740897Y-55818592D01*
X118028882Y-56357373D01*
X118446852Y-56633543D01*
X120470395Y-54610000D01*
X120456253Y-54595858D01*
X120635858Y-54416253D01*
X120650000Y-54430395D01*
X120664143Y-54416253D01*
X120843748Y-54595858D01*
X120829605Y-54610000D01*
X120843748Y-54624143D01*
X120664143Y-54803748D01*
X120650000Y-54789605D01*
X118626457Y-56813148D01*
X118902627Y-57231118D01*
X119447557Y-57521649D01*
X120038696Y-57700287D01*
X120653328Y-57760168D01*
X121267831Y-57698990D01*
X121858592Y-57519103D01*
X122397373Y-57231118D01*
X122673542Y-56813150D01*
X122715002Y-56854610D01*
X122715001Y-75600197D01*
X120328271Y-77986928D01*
X119763951Y-77986928D01*
X119877886Y-77910799D01*
X120070799Y-77717886D01*
X120222371Y-77491043D01*
X120326775Y-77238989D01*
X120380000Y-76971411D01*
X120380000Y-76698589D01*
X120326775Y-76431011D01*
X120222371Y-76178957D01*
X120070799Y-75952114D01*
X119877886Y-75759201D01*
X119651043Y-75607629D01*
X119398989Y-75503225D01*
X119131411Y-75450000D01*
X118858589Y-75450000D01*
X118591011Y-75503225D01*
X118338957Y-75607629D01*
X118112114Y-75759201D01*
X117919201Y-75952114D01*
X117767629Y-76178957D01*
X117751352Y-76218253D01*
X117134605Y-76835000D01*
X117148748Y-76849143D01*
X116969143Y-77028748D01*
X116955000Y-77014605D01*
X116940858Y-77028748D01*
X116761253Y-76849143D01*
X116775395Y-76835000D01*
X115998007Y-76057612D01*
X115759140Y-76123137D01*
X115643240Y-76370116D01*
X115577750Y-76634960D01*
X115565188Y-76907492D01*
X115606035Y-77177238D01*
X115698723Y-77433832D01*
X115755471Y-77539999D01*
X111793336Y-77539999D01*
X111756003Y-77536322D01*
X111718670Y-77539999D01*
X111607017Y-77550996D01*
X111463756Y-77594453D01*
X111331727Y-77665025D01*
X111216002Y-77759998D01*
X111192204Y-77788996D01*
X108938461Y-80042739D01*
X108838739Y-79541399D01*
X108640107Y-79061859D01*
X108351738Y-78630285D01*
X107984715Y-78263262D01*
X107553141Y-77974893D01*
X107073601Y-77776261D01*
X106564525Y-77675000D01*
X106045475Y-77675000D01*
X105536399Y-77776261D01*
X105056859Y-77974893D01*
X104625285Y-78263262D01*
X104258262Y-78630285D01*
X103969893Y-79061859D01*
X103771261Y-79541399D01*
X103670000Y-80050475D01*
X103670000Y-80569525D01*
X103771261Y-81078601D01*
X103969893Y-81558141D01*
X104181612Y-81875001D01*
X99724805Y-81875001D01*
X99294804Y-81445000D01*
X99486335Y-81445000D01*
X99763574Y-81389853D01*
X100024727Y-81281680D01*
X100259759Y-81124637D01*
X100459637Y-80924759D01*
X100616680Y-80689727D01*
X100724853Y-80428574D01*
X100780000Y-80151335D01*
X100780000Y-79868665D01*
X100724853Y-79591426D01*
X100616680Y-79330273D01*
X100459637Y-79095241D01*
X100259759Y-78895363D01*
X100024727Y-78738320D01*
X99763574Y-78630147D01*
X99486335Y-78575000D01*
X99203665Y-78575000D01*
X98926426Y-78630147D01*
X98665273Y-78738320D01*
X98430241Y-78895363D01*
X98230363Y-79095241D01*
X98073320Y-79330273D01*
X97965147Y-79591426D01*
X97960000Y-79617301D01*
X97954853Y-79591426D01*
X97846680Y-79330273D01*
X97689637Y-79095241D01*
X97489759Y-78895363D01*
X97254727Y-78738320D01*
X96993574Y-78630147D01*
X96716335Y-78575000D01*
X96433665Y-78575000D01*
X96156426Y-78630147D01*
X95895273Y-78738320D01*
X95660241Y-78895363D01*
X95460363Y-79095241D01*
X95303320Y-79330273D01*
X95195147Y-79591426D01*
X95190000Y-79617301D01*
X95184853Y-79591426D01*
X95076680Y-79330273D01*
X94919637Y-79095241D01*
X94719759Y-78895363D01*
X94484727Y-78738320D01*
X94223574Y-78630147D01*
X93946335Y-78575000D01*
X93663665Y-78575000D01*
X93386426Y-78630147D01*
X93125273Y-78738320D01*
X92890241Y-78895363D01*
X92690363Y-79095241D01*
X92533320Y-79330273D01*
X92425147Y-79591426D01*
X92420000Y-79617301D01*
X92414853Y-79591426D01*
X92306680Y-79330273D01*
X92149637Y-79095241D01*
X91949759Y-78895363D01*
X91795000Y-78791957D01*
X91795000Y-76237498D01*
X91943317Y-76267000D01*
X92206683Y-76267000D01*
X92464988Y-76215620D01*
X92708307Y-76114834D01*
X92927288Y-75968516D01*
X93113516Y-75782288D01*
X93259834Y-75563307D01*
X93345000Y-75357698D01*
X93430166Y-75563307D01*
X93576484Y-75782288D01*
X93762712Y-75968516D01*
X93981693Y-76114834D01*
X94225012Y-76215620D01*
X94483317Y-76267000D01*
X94746683Y-76267000D01*
X95004988Y-76215620D01*
X95248307Y-76114834D01*
X95467288Y-75968516D01*
X95653516Y-75782288D01*
X95799834Y-75563307D01*
X95885000Y-75357698D01*
X95970166Y-75563307D01*
X96116484Y-75782288D01*
X96302712Y-75968516D01*
X96521693Y-76114834D01*
X96765012Y-76215620D01*
X97023317Y-76267000D01*
X97286683Y-76267000D01*
X97544988Y-76215620D01*
X97788307Y-76114834D01*
X98007288Y-75968516D01*
X98193516Y-75782288D01*
X98339834Y-75563307D01*
X98425000Y-75357698D01*
X98510166Y-75563307D01*
X98656484Y-75782288D01*
X98842712Y-75968516D01*
X99061693Y-76114834D01*
X99305012Y-76215620D01*
X99563317Y-76267000D01*
X99826683Y-76267000D01*
X100084988Y-76215620D01*
X100328307Y-76114834D01*
X100547288Y-75968516D01*
X100733516Y-75782288D01*
X100879834Y-75563307D01*
X100965000Y-75357698D01*
X101050166Y-75563307D01*
X101196484Y-75782288D01*
X101382712Y-75968516D01*
X101601693Y-76114834D01*
X101845012Y-76215620D01*
X102103317Y-76267000D01*
X102366683Y-76267000D01*
X102624988Y-76215620D01*
X102868307Y-76114834D01*
X103087288Y-75968516D01*
X103273516Y-75782288D01*
X103419834Y-75563307D01*
X103505000Y-75357698D01*
X103590166Y-75563307D01*
X103736484Y-75782288D01*
X103922712Y-75968516D01*
X104141693Y-76114834D01*
X104385012Y-76215620D01*
X104643317Y-76267000D01*
X104906683Y-76267000D01*
X105164988Y-76215620D01*
X105408307Y-76114834D01*
X105627288Y-75968516D01*
X105813516Y-75782288D01*
X105959834Y-75563307D01*
X106045000Y-75357698D01*
X106130166Y-75563307D01*
X106276484Y-75782288D01*
X106462712Y-75968516D01*
X106681693Y-76114834D01*
X106925012Y-76215620D01*
X107183317Y-76267000D01*
X107446683Y-76267000D01*
X107704988Y-76215620D01*
X107948307Y-76114834D01*
X108167288Y-75968516D01*
X108353516Y-75782288D01*
X108499834Y-75563307D01*
X108585000Y-75357698D01*
X108670166Y-75563307D01*
X108816484Y-75782288D01*
X109002712Y-75968516D01*
X109221693Y-76114834D01*
X109465012Y-76215620D01*
X109723317Y-76267000D01*
X109986683Y-76267000D01*
X110244988Y-76215620D01*
X110488307Y-76114834D01*
X110707288Y-75968516D01*
X110797797Y-75878007D01*
X116177612Y-75878007D01*
X116955000Y-76655395D01*
X117732388Y-75878007D01*
X117666863Y-75639140D01*
X117419884Y-75523240D01*
X117155040Y-75457750D01*
X116882508Y-75445188D01*
X116612762Y-75486035D01*
X116356168Y-75578723D01*
X116243137Y-75639140D01*
X116177612Y-75878007D01*
X110797797Y-75878007D01*
X110893516Y-75782288D01*
X111039834Y-75563307D01*
X111140620Y-75319988D01*
X111192000Y-75061683D01*
X111192000Y-74798317D01*
X111140620Y-74540012D01*
X111039834Y-74296693D01*
X110893516Y-74077712D01*
X110707288Y-73891484D01*
X110488307Y-73745166D01*
X110282698Y-73660000D01*
X110488307Y-73574834D01*
X110707288Y-73428516D01*
X110893516Y-73242288D01*
X111039834Y-73023307D01*
X111140620Y-72779988D01*
X111192000Y-72521683D01*
X111192000Y-72258317D01*
X111162874Y-72111890D01*
X112223524Y-72111890D01*
X112268175Y-72259099D01*
X112393359Y-72521920D01*
X112567412Y-72755269D01*
X112783645Y-72950178D01*
X113033748Y-73099157D01*
X113308109Y-73196481D01*
X113538000Y-73075814D01*
X113538000Y-71882000D01*
X113792000Y-71882000D01*
X113792000Y-73075814D01*
X114021891Y-73196481D01*
X114296252Y-73099157D01*
X114546355Y-72950178D01*
X114762588Y-72755269D01*
X114936641Y-72521920D01*
X115061825Y-72259099D01*
X115106476Y-72111890D01*
X114985155Y-71882000D01*
X113792000Y-71882000D01*
X113538000Y-71882000D01*
X112344845Y-71882000D01*
X112223524Y-72111890D01*
X111162874Y-72111890D01*
X111140620Y-72000012D01*
X111039834Y-71756693D01*
X110893516Y-71537712D01*
X110707288Y-71351484D01*
X110488307Y-71205166D01*
X110282698Y-71120000D01*
X110488307Y-71034834D01*
X110707288Y-70888516D01*
X110893516Y-70702288D01*
X111039834Y-70483307D01*
X111140620Y-70239988D01*
X111192000Y-69981683D01*
X111192000Y-69718317D01*
X111140620Y-69460012D01*
X111039834Y-69216693D01*
X110893516Y-68997712D01*
X110707288Y-68811484D01*
X110488307Y-68665166D01*
X110279062Y-68578494D01*
X110437067Y-68520831D01*
X110538390Y-68466671D01*
X110564333Y-68365000D01*
X112176928Y-68365000D01*
X112176928Y-70065000D01*
X112189188Y-70189482D01*
X112225498Y-70309180D01*
X112284463Y-70419494D01*
X112363815Y-70516185D01*
X112460506Y-70595537D01*
X112570820Y-70654502D01*
X112651466Y-70678966D01*
X112567412Y-70754731D01*
X112393359Y-70988080D01*
X112268175Y-71250901D01*
X112223524Y-71398110D01*
X112344845Y-71628000D01*
X113538000Y-71628000D01*
X113538000Y-71608000D01*
X113792000Y-71608000D01*
X113792000Y-71628000D01*
X114985155Y-71628000D01*
X115106476Y-71398110D01*
X115061825Y-71250901D01*
X114936641Y-70988080D01*
X114762588Y-70754731D01*
X114678534Y-70678966D01*
X114759180Y-70654502D01*
X114869494Y-70595537D01*
X114966185Y-70516185D01*
X115045537Y-70419494D01*
X115104502Y-70309180D01*
X115140812Y-70189482D01*
X115153072Y-70065000D01*
X115153072Y-68365000D01*
X119161928Y-68365000D01*
X119161928Y-70065000D01*
X119174188Y-70189482D01*
X119210498Y-70309180D01*
X119269463Y-70419494D01*
X119348815Y-70516185D01*
X119445506Y-70595537D01*
X119555820Y-70654502D01*
X119628380Y-70676513D01*
X119496525Y-70808368D01*
X119334010Y-71051589D01*
X119222068Y-71321842D01*
X119165000Y-71608740D01*
X119165000Y-71901260D01*
X119222068Y-72188158D01*
X119334010Y-72458411D01*
X119496525Y-72701632D01*
X119703368Y-72908475D01*
X119946589Y-73070990D01*
X120216842Y-73182932D01*
X120503740Y-73240000D01*
X120796260Y-73240000D01*
X121083158Y-73182932D01*
X121353411Y-73070990D01*
X121596632Y-72908475D01*
X121803475Y-72701632D01*
X121965990Y-72458411D01*
X122077932Y-72188158D01*
X122135000Y-71901260D01*
X122135000Y-71608740D01*
X122077932Y-71321842D01*
X121965990Y-71051589D01*
X121803475Y-70808368D01*
X121671620Y-70676513D01*
X121744180Y-70654502D01*
X121854494Y-70595537D01*
X121951185Y-70516185D01*
X122030537Y-70419494D01*
X122089502Y-70309180D01*
X122125812Y-70189482D01*
X122138072Y-70065000D01*
X122138072Y-68365000D01*
X122125812Y-68240518D01*
X122089502Y-68120820D01*
X122030537Y-68010506D01*
X121951185Y-67913815D01*
X121854494Y-67834463D01*
X121744180Y-67775498D01*
X121624482Y-67739188D01*
X121500000Y-67726928D01*
X119800000Y-67726928D01*
X119675518Y-67739188D01*
X119555820Y-67775498D01*
X119445506Y-67834463D01*
X119348815Y-67913815D01*
X119269463Y-68010506D01*
X119210498Y-68120820D01*
X119174188Y-68240518D01*
X119161928Y-68365000D01*
X115153072Y-68365000D01*
X115140812Y-68240518D01*
X115104502Y-68120820D01*
X115045537Y-68010506D01*
X114966185Y-67913815D01*
X114869494Y-67834463D01*
X114759180Y-67775498D01*
X114639482Y-67739188D01*
X114515000Y-67726928D01*
X112815000Y-67726928D01*
X112690518Y-67739188D01*
X112570820Y-67775498D01*
X112460506Y-67834463D01*
X112363815Y-67913815D01*
X112284463Y-68010506D01*
X112225498Y-68120820D01*
X112189188Y-68240518D01*
X112176928Y-68365000D01*
X110564333Y-68365000D01*
X110598093Y-68232698D01*
X109855000Y-67489605D01*
X109111907Y-68232698D01*
X109171610Y-68466671D01*
X109410397Y-68577769D01*
X109424429Y-68581190D01*
X109221693Y-68665166D01*
X109002712Y-68811484D01*
X108816484Y-68997712D01*
X108670166Y-69216693D01*
X108569380Y-69460012D01*
X108518000Y-69718317D01*
X108518000Y-69981683D01*
X108569380Y-70239988D01*
X108670166Y-70483307D01*
X108816484Y-70702288D01*
X109002712Y-70888516D01*
X109221693Y-71034834D01*
X109427302Y-71120000D01*
X109221693Y-71205166D01*
X109002712Y-71351484D01*
X108816484Y-71537712D01*
X108670166Y-71756693D01*
X108569380Y-72000012D01*
X108518000Y-72258317D01*
X108518000Y-72521683D01*
X108569380Y-72779988D01*
X108670166Y-73023307D01*
X108816484Y-73242288D01*
X109002712Y-73428516D01*
X109221693Y-73574834D01*
X109427302Y-73660000D01*
X109221693Y-73745166D01*
X109002712Y-73891484D01*
X108816484Y-74077712D01*
X108670166Y-74296693D01*
X108585000Y-74502302D01*
X108499834Y-74296693D01*
X108353516Y-74077712D01*
X108167288Y-73891484D01*
X107948307Y-73745166D01*
X107704988Y-73644380D01*
X107446683Y-73593000D01*
X107183317Y-73593000D01*
X106925012Y-73644380D01*
X106681693Y-73745166D01*
X106462712Y-73891484D01*
X106276484Y-74077712D01*
X106130166Y-74296693D01*
X106045000Y-74502302D01*
X105959834Y-74296693D01*
X105813516Y-74077712D01*
X105627288Y-73891484D01*
X105408307Y-73745166D01*
X105164988Y-73644380D01*
X105115368Y-73634510D01*
X105150404Y-73627541D01*
X105384623Y-73530524D01*
X105595415Y-73389678D01*
X105774678Y-73210415D01*
X105915524Y-72999623D01*
X106012541Y-72765404D01*
X106062000Y-72516758D01*
X106062000Y-72263242D01*
X106012541Y-72014596D01*
X105915524Y-71780377D01*
X105774678Y-71569585D01*
X105595415Y-71390322D01*
X105384623Y-71249476D01*
X105150404Y-71152459D01*
X104987222Y-71120000D01*
X105150404Y-71087541D01*
X105384623Y-70990524D01*
X105595415Y-70849678D01*
X105774678Y-70670415D01*
X105915524Y-70459623D01*
X106012541Y-70225404D01*
X106062000Y-69976758D01*
X106062000Y-69723242D01*
X106012541Y-69474596D01*
X105915524Y-69240377D01*
X105774678Y-69029585D01*
X105595415Y-68850322D01*
X105384623Y-68709476D01*
X105150404Y-68612459D01*
X104987222Y-68580000D01*
X105150404Y-68547541D01*
X105384623Y-68450524D01*
X105595415Y-68309678D01*
X105774678Y-68130415D01*
X105915524Y-67919623D01*
X106012541Y-67685404D01*
X106062000Y-67436758D01*
X106062000Y-67384395D01*
X108513592Y-67384395D01*
X108553880Y-67644661D01*
X108644169Y-67892067D01*
X108698329Y-67993390D01*
X108932302Y-68053093D01*
X109675395Y-67310000D01*
X110034605Y-67310000D01*
X110777698Y-68053093D01*
X111011671Y-67993390D01*
X111122769Y-67754603D01*
X111185147Y-67498731D01*
X111196408Y-67235605D01*
X111156120Y-66975339D01*
X111065831Y-66727933D01*
X111011671Y-66626610D01*
X110777698Y-66566907D01*
X110034605Y-67310000D01*
X109675395Y-67310000D01*
X108932302Y-66566907D01*
X108698329Y-66626610D01*
X108587231Y-66865397D01*
X108524853Y-67121269D01*
X108513592Y-67384395D01*
X106062000Y-67384395D01*
X106062000Y-67183242D01*
X106012541Y-66934596D01*
X105915524Y-66700377D01*
X105774678Y-66489585D01*
X105595415Y-66310322D01*
X105384623Y-66169476D01*
X105150404Y-66072459D01*
X104987222Y-66040000D01*
X105150404Y-66007541D01*
X105384623Y-65910524D01*
X105595415Y-65769678D01*
X105774678Y-65590415D01*
X105915524Y-65379623D01*
X106012541Y-65145404D01*
X106062000Y-64896758D01*
X106062000Y-64643242D01*
X106012541Y-64394596D01*
X105915524Y-64160377D01*
X105774678Y-63949585D01*
X105595415Y-63770322D01*
X105384623Y-63629476D01*
X105150404Y-63532459D01*
X104987222Y-63500000D01*
X105150404Y-63467541D01*
X105384623Y-63370524D01*
X105595415Y-63229678D01*
X105774678Y-63050415D01*
X105915524Y-62839623D01*
X106012541Y-62605404D01*
X106062000Y-62356758D01*
X106062000Y-62103242D01*
X106012541Y-61854596D01*
X105915524Y-61620377D01*
X105774678Y-61409585D01*
X105595415Y-61230322D01*
X105384623Y-61089476D01*
X105150404Y-60992459D01*
X105115368Y-60985490D01*
X105164988Y-60975620D01*
X105408307Y-60874834D01*
X105627288Y-60728516D01*
X105813516Y-60542288D01*
X105959834Y-60323307D01*
X106045000Y-60117698D01*
X106130166Y-60323307D01*
X106276484Y-60542288D01*
X106462712Y-60728516D01*
X106681693Y-60874834D01*
X106925012Y-60975620D01*
X107183317Y-61027000D01*
X107446683Y-61027000D01*
X107704988Y-60975620D01*
X107948307Y-60874834D01*
X108167288Y-60728516D01*
X108353516Y-60542288D01*
X108499834Y-60323307D01*
X108585000Y-60117698D01*
X108670166Y-60323307D01*
X108816484Y-60542288D01*
X109002712Y-60728516D01*
X109221693Y-60874834D01*
X109427302Y-60960000D01*
X109221693Y-61045166D01*
X109002712Y-61191484D01*
X108816484Y-61377712D01*
X108670166Y-61596693D01*
X108569380Y-61840012D01*
X108518000Y-62098317D01*
X108518000Y-62361683D01*
X108569380Y-62619988D01*
X108670166Y-62863307D01*
X108816484Y-63082288D01*
X109002712Y-63268516D01*
X109221693Y-63414834D01*
X109427302Y-63500000D01*
X109221693Y-63585166D01*
X109002712Y-63731484D01*
X108816484Y-63917712D01*
X108670166Y-64136693D01*
X108569380Y-64380012D01*
X108518000Y-64638317D01*
X108518000Y-64901683D01*
X108569380Y-65159988D01*
X108670166Y-65403307D01*
X108816484Y-65622288D01*
X109002712Y-65808516D01*
X109221693Y-65954834D01*
X109430938Y-66041506D01*
X109272933Y-66099169D01*
X109171610Y-66153329D01*
X109111907Y-66387302D01*
X109855000Y-67130395D01*
X110598093Y-66387302D01*
X110538390Y-66153329D01*
X110299603Y-66042231D01*
X110285571Y-66038810D01*
X110488307Y-65954834D01*
X110707288Y-65808516D01*
X110893516Y-65622288D01*
X111039834Y-65403307D01*
X111140620Y-65159988D01*
X111192000Y-64901683D01*
X111192000Y-64638317D01*
X111140620Y-64380012D01*
X111039834Y-64136693D01*
X110893516Y-63917712D01*
X110707288Y-63731484D01*
X110488307Y-63585166D01*
X110282698Y-63500000D01*
X110488307Y-63414834D01*
X110707288Y-63268516D01*
X110753914Y-63221890D01*
X112223524Y-63221890D01*
X112268175Y-63369099D01*
X112393359Y-63631920D01*
X112567412Y-63865269D01*
X112783645Y-64060178D01*
X113033748Y-64209157D01*
X113308109Y-64306481D01*
X113538000Y-64185814D01*
X113538000Y-62992000D01*
X113792000Y-62992000D01*
X113792000Y-64185814D01*
X114021891Y-64306481D01*
X114296252Y-64209157D01*
X114546355Y-64060178D01*
X114762588Y-63865269D01*
X114936641Y-63631920D01*
X115061825Y-63369099D01*
X115106476Y-63221890D01*
X119208524Y-63221890D01*
X119253175Y-63369099D01*
X119378359Y-63631920D01*
X119552412Y-63865269D01*
X119768645Y-64060178D01*
X120018748Y-64209157D01*
X120293109Y-64306481D01*
X120523000Y-64185814D01*
X120523000Y-62992000D01*
X120777000Y-62992000D01*
X120777000Y-64185814D01*
X121006891Y-64306481D01*
X121281252Y-64209157D01*
X121531355Y-64060178D01*
X121747588Y-63865269D01*
X121921641Y-63631920D01*
X122046825Y-63369099D01*
X122091476Y-63221890D01*
X121970155Y-62992000D01*
X120777000Y-62992000D01*
X120523000Y-62992000D01*
X119329845Y-62992000D01*
X119208524Y-63221890D01*
X115106476Y-63221890D01*
X114985155Y-62992000D01*
X113792000Y-62992000D01*
X113538000Y-62992000D01*
X112344845Y-62992000D01*
X112223524Y-63221890D01*
X110753914Y-63221890D01*
X110893516Y-63082288D01*
X111039834Y-62863307D01*
X111140620Y-62619988D01*
X111192000Y-62361683D01*
X111192000Y-62098317D01*
X111140620Y-61840012D01*
X111039834Y-61596693D01*
X110893516Y-61377712D01*
X110707288Y-61191484D01*
X110488307Y-61045166D01*
X110282698Y-60960000D01*
X110488307Y-60874834D01*
X110707288Y-60728516D01*
X110893516Y-60542288D01*
X111039834Y-60323307D01*
X111140620Y-60079988D01*
X111192000Y-59821683D01*
X111192000Y-59558317D01*
X111175428Y-59475000D01*
X112176928Y-59475000D01*
X112176928Y-61175000D01*
X112189188Y-61299482D01*
X112225498Y-61419180D01*
X112284463Y-61529494D01*
X112363815Y-61626185D01*
X112460506Y-61705537D01*
X112570820Y-61764502D01*
X112651466Y-61788966D01*
X112567412Y-61864731D01*
X112393359Y-62098080D01*
X112268175Y-62360901D01*
X112223524Y-62508110D01*
X112344845Y-62738000D01*
X113538000Y-62738000D01*
X113538000Y-62718000D01*
X113792000Y-62718000D01*
X113792000Y-62738000D01*
X114985155Y-62738000D01*
X115106476Y-62508110D01*
X115061825Y-62360901D01*
X114936641Y-62098080D01*
X114762588Y-61864731D01*
X114678534Y-61788966D01*
X114759180Y-61764502D01*
X114869494Y-61705537D01*
X114966185Y-61626185D01*
X115045537Y-61529494D01*
X115104502Y-61419180D01*
X115140812Y-61299482D01*
X115153072Y-61175000D01*
X115153072Y-59475000D01*
X119161928Y-59475000D01*
X119161928Y-61175000D01*
X119174188Y-61299482D01*
X119210498Y-61419180D01*
X119269463Y-61529494D01*
X119348815Y-61626185D01*
X119445506Y-61705537D01*
X119555820Y-61764502D01*
X119636466Y-61788966D01*
X119552412Y-61864731D01*
X119378359Y-62098080D01*
X119253175Y-62360901D01*
X119208524Y-62508110D01*
X119329845Y-62738000D01*
X120523000Y-62738000D01*
X120523000Y-62718000D01*
X120777000Y-62718000D01*
X120777000Y-62738000D01*
X121970155Y-62738000D01*
X122091476Y-62508110D01*
X122046825Y-62360901D01*
X121921641Y-62098080D01*
X121747588Y-61864731D01*
X121663534Y-61788966D01*
X121744180Y-61764502D01*
X121854494Y-61705537D01*
X121951185Y-61626185D01*
X122030537Y-61529494D01*
X122089502Y-61419180D01*
X122125812Y-61299482D01*
X122138072Y-61175000D01*
X122138072Y-59475000D01*
X122125812Y-59350518D01*
X122089502Y-59230820D01*
X122030537Y-59120506D01*
X121951185Y-59023815D01*
X121854494Y-58944463D01*
X121744180Y-58885498D01*
X121624482Y-58849188D01*
X121500000Y-58836928D01*
X119800000Y-58836928D01*
X119675518Y-58849188D01*
X119555820Y-58885498D01*
X119445506Y-58944463D01*
X119348815Y-59023815D01*
X119269463Y-59120506D01*
X119210498Y-59230820D01*
X119174188Y-59350518D01*
X119161928Y-59475000D01*
X115153072Y-59475000D01*
X115140812Y-59350518D01*
X115104502Y-59230820D01*
X115045537Y-59120506D01*
X114966185Y-59023815D01*
X114869494Y-58944463D01*
X114759180Y-58885498D01*
X114639482Y-58849188D01*
X114515000Y-58836928D01*
X112815000Y-58836928D01*
X112690518Y-58849188D01*
X112570820Y-58885498D01*
X112460506Y-58944463D01*
X112363815Y-59023815D01*
X112284463Y-59120506D01*
X112225498Y-59230820D01*
X112189188Y-59350518D01*
X112176928Y-59475000D01*
X111175428Y-59475000D01*
X111140620Y-59300012D01*
X111039834Y-59056693D01*
X110893516Y-58837712D01*
X110707288Y-58651484D01*
X110488307Y-58505166D01*
X110244988Y-58404380D01*
X109986683Y-58353000D01*
X109723317Y-58353000D01*
X109465012Y-58404380D01*
X109221693Y-58505166D01*
X109002712Y-58651484D01*
X108816484Y-58837712D01*
X108670166Y-59056693D01*
X108585000Y-59262302D01*
X108499834Y-59056693D01*
X108353516Y-58837712D01*
X108167288Y-58651484D01*
X107948307Y-58505166D01*
X107704988Y-58404380D01*
X107446683Y-58353000D01*
X107183317Y-58353000D01*
X106925012Y-58404380D01*
X106681693Y-58505166D01*
X106462712Y-58651484D01*
X106276484Y-58837712D01*
X106130166Y-59056693D01*
X106045000Y-59262302D01*
X105959834Y-59056693D01*
X105813516Y-58837712D01*
X105627288Y-58651484D01*
X105408307Y-58505166D01*
X105359622Y-58485000D01*
X105541486Y-58485000D01*
X105799405Y-58433696D01*
X106042359Y-58333061D01*
X106261013Y-58186962D01*
X106446962Y-58001013D01*
X106593061Y-57782359D01*
X106693696Y-57539405D01*
X106745000Y-57281486D01*
X106745000Y-57018514D01*
X106693696Y-56760595D01*
X106593061Y-56517641D01*
X106446962Y-56298987D01*
X106261013Y-56113038D01*
X106042359Y-55966939D01*
X105799405Y-55866304D01*
X105541486Y-55815000D01*
X105278514Y-55815000D01*
X105020595Y-55866304D01*
X104777641Y-55966939D01*
X104558987Y-56113038D01*
X104373038Y-56298987D01*
X104226939Y-56517641D01*
X104126304Y-56760595D01*
X104075000Y-57018514D01*
X104075000Y-57281486D01*
X104126304Y-57539405D01*
X104226939Y-57782359D01*
X104373038Y-58001013D01*
X104558987Y-58186962D01*
X104777641Y-58333061D01*
X104825778Y-58353000D01*
X104643317Y-58353000D01*
X104385012Y-58404380D01*
X104141693Y-58505166D01*
X103922712Y-58651484D01*
X103736484Y-58837712D01*
X103590166Y-59056693D01*
X103505000Y-59262302D01*
X103419834Y-59056693D01*
X103273516Y-58837712D01*
X103087288Y-58651484D01*
X102868307Y-58505166D01*
X102624988Y-58404380D01*
X102366683Y-58353000D01*
X102103317Y-58353000D01*
X101845012Y-58404380D01*
X101601693Y-58505166D01*
X101382712Y-58651484D01*
X101196484Y-58837712D01*
X101050166Y-59056693D01*
X100965000Y-59262302D01*
X100879834Y-59056693D01*
X100733516Y-58837712D01*
X100547288Y-58651484D01*
X100328307Y-58505166D01*
X100084988Y-58404380D01*
X100067198Y-58400841D01*
X100203000Y-58320201D01*
X100203000Y-57277000D01*
X100457000Y-57277000D01*
X100457000Y-58320201D01*
X100663330Y-58442722D01*
X100909123Y-58352853D01*
X101132660Y-58216759D01*
X101325351Y-58039670D01*
X101479792Y-57828392D01*
X101590047Y-57591044D01*
X101622716Y-57483329D01*
X101499374Y-57277000D01*
X100457000Y-57277000D01*
X100203000Y-57277000D01*
X99160626Y-57277000D01*
X99037284Y-57483329D01*
X99069953Y-57591044D01*
X99180208Y-57828392D01*
X99334649Y-58039670D01*
X99527340Y-58216759D01*
X99750877Y-58352853D01*
X99751279Y-58353000D01*
X99563317Y-58353000D01*
X99305012Y-58404380D01*
X99061693Y-58505166D01*
X98842712Y-58651484D01*
X98656484Y-58837712D01*
X98510166Y-59056693D01*
X98425000Y-59262302D01*
X98339834Y-59056693D01*
X98193516Y-58837712D01*
X98007288Y-58651484D01*
X97788307Y-58505166D01*
X97544988Y-58404380D01*
X97286683Y-58353000D01*
X97023317Y-58353000D01*
X96765012Y-58404380D01*
X96521693Y-58505166D01*
X96302712Y-58651484D01*
X96116484Y-58837712D01*
X95970166Y-59056693D01*
X95885000Y-59262302D01*
X95799834Y-59056693D01*
X95653516Y-58837712D01*
X95467288Y-58651484D01*
X95248307Y-58505166D01*
X95004988Y-58404380D01*
X94746683Y-58353000D01*
X94483317Y-58353000D01*
X94225012Y-58404380D01*
X93981693Y-58505166D01*
X93762712Y-58651484D01*
X93576484Y-58837712D01*
X93430166Y-59056693D01*
X93345000Y-59262302D01*
X93259834Y-59056693D01*
X93113516Y-58837712D01*
X92927288Y-58651484D01*
X92708307Y-58505166D01*
X92464988Y-58404380D01*
X92206683Y-58353000D01*
X91943317Y-58353000D01*
X91685012Y-58404380D01*
X91441693Y-58505166D01*
X91222712Y-58651484D01*
X91036484Y-58837712D01*
X90890166Y-59056693D01*
X90805000Y-59262302D01*
X90719834Y-59056693D01*
X90573516Y-58837712D01*
X90387288Y-58651484D01*
X90168307Y-58505166D01*
X89924988Y-58404380D01*
X89666683Y-58353000D01*
X89403317Y-58353000D01*
X89145012Y-58404380D01*
X88901693Y-58505166D01*
X88682712Y-58651484D01*
X88496484Y-58837712D01*
X88350166Y-59056693D01*
X88265000Y-59262302D01*
X88179834Y-59056693D01*
X88033516Y-58837712D01*
X87847288Y-58651484D01*
X87628307Y-58505166D01*
X87384988Y-58404380D01*
X87126683Y-58353000D01*
X86863317Y-58353000D01*
X86605012Y-58404380D01*
X86361693Y-58505166D01*
X86142712Y-58651484D01*
X85956484Y-58837712D01*
X85810166Y-59056693D01*
X85725000Y-59262302D01*
X85639834Y-59056693D01*
X85493516Y-58837712D01*
X85307288Y-58651484D01*
X85088307Y-58505166D01*
X84844988Y-58404380D01*
X84586683Y-58353000D01*
X84323317Y-58353000D01*
X84065012Y-58404380D01*
X83821693Y-58505166D01*
X83602712Y-58651484D01*
X83416484Y-58837712D01*
X83294447Y-59020353D01*
X83227285Y-58984454D01*
X83084024Y-58940997D01*
X83018196Y-58934513D01*
X82953516Y-58837712D01*
X82767288Y-58651484D01*
X82548307Y-58505166D01*
X82304988Y-58404380D01*
X82046683Y-58353000D01*
X81783317Y-58353000D01*
X81525012Y-58404380D01*
X81281693Y-58505166D01*
X81062712Y-58651484D01*
X80876484Y-58837712D01*
X80730166Y-59056693D01*
X80643494Y-59265938D01*
X80585831Y-59107933D01*
X80531671Y-59006610D01*
X80297698Y-58946907D01*
X79554605Y-59690000D01*
X80297698Y-60433093D01*
X80531671Y-60373390D01*
X80642769Y-60134603D01*
X80646190Y-60120571D01*
X80730166Y-60323307D01*
X80876484Y-60542288D01*
X81062712Y-60728516D01*
X81281693Y-60874834D01*
X81525012Y-60975620D01*
X81783317Y-61027000D01*
X82046683Y-61027000D01*
X82304988Y-60975620D01*
X82548307Y-60874834D01*
X82767288Y-60728516D01*
X82833020Y-60662784D01*
X90275001Y-68104765D01*
X90275001Y-73816456D01*
X90168307Y-73745166D01*
X89924988Y-73644380D01*
X89666683Y-73593000D01*
X89403317Y-73593000D01*
X89145012Y-73644380D01*
X88901693Y-73745166D01*
X88682712Y-73891484D01*
X88496484Y-74077712D01*
X88350166Y-74296693D01*
X88265000Y-74502302D01*
X88179834Y-74296693D01*
X88033516Y-74077712D01*
X87847288Y-73891484D01*
X87628307Y-73745166D01*
X87384988Y-73644380D01*
X87126683Y-73593000D01*
X86863317Y-73593000D01*
X86605012Y-73644380D01*
X86361693Y-73745166D01*
X86142712Y-73891484D01*
X85956484Y-74077712D01*
X85810166Y-74296693D01*
X85725000Y-74502302D01*
X85639834Y-74296693D01*
X85493516Y-74077712D01*
X85307288Y-73891484D01*
X85088307Y-73745166D01*
X84844988Y-73644380D01*
X84586683Y-73593000D01*
X84323317Y-73593000D01*
X84065012Y-73644380D01*
X83821693Y-73745166D01*
X83602712Y-73891484D01*
X83416484Y-74077712D01*
X83270166Y-74296693D01*
X83185000Y-74502302D01*
X83099834Y-74296693D01*
X82953516Y-74077712D01*
X82767288Y-73891484D01*
X82548307Y-73745166D01*
X82304988Y-73644380D01*
X82046683Y-73593000D01*
X81783317Y-73593000D01*
X81525012Y-73644380D01*
X81281693Y-73745166D01*
X81062712Y-73891484D01*
X80876484Y-74077712D01*
X80730166Y-74296693D01*
X80645000Y-74502302D01*
X80559834Y-74296693D01*
X80413516Y-74077712D01*
X80227288Y-73891484D01*
X80008307Y-73745166D01*
X79764988Y-73644380D01*
X79506683Y-73593000D01*
X79243317Y-73593000D01*
X78985012Y-73644380D01*
X78741693Y-73745166D01*
X78522712Y-73891484D01*
X78336484Y-74077712D01*
X78190166Y-74296693D01*
X78103494Y-74505938D01*
X78045831Y-74347933D01*
X77991671Y-74246610D01*
X77757698Y-74186907D01*
X77014605Y-74930000D01*
X77757698Y-75673093D01*
X77991671Y-75613390D01*
X78102769Y-75374603D01*
X78106190Y-75360571D01*
X78190166Y-75563307D01*
X78336484Y-75782288D01*
X78522712Y-75968516D01*
X78741693Y-76114834D01*
X78985012Y-76215620D01*
X79243317Y-76267000D01*
X79506683Y-76267000D01*
X79764988Y-76215620D01*
X80008307Y-76114834D01*
X80227288Y-75968516D01*
X80413516Y-75782288D01*
X80559834Y-75563307D01*
X80645000Y-75357698D01*
X80730166Y-75563307D01*
X80876484Y-75782288D01*
X81062712Y-75968516D01*
X81281693Y-76114834D01*
X81525012Y-76215620D01*
X81783317Y-76267000D01*
X82046683Y-76267000D01*
X82304988Y-76215620D01*
X82548307Y-76114834D01*
X82767288Y-75968516D01*
X82953516Y-75782288D01*
X83099834Y-75563307D01*
X83185000Y-75357698D01*
X83270166Y-75563307D01*
X83416484Y-75782288D01*
X83602712Y-75968516D01*
X83821693Y-76114834D01*
X84065012Y-76215620D01*
X84323317Y-76267000D01*
X84586683Y-76267000D01*
X84844988Y-76215620D01*
X85088307Y-76114834D01*
X85307288Y-75968516D01*
X85493516Y-75782288D01*
X85639834Y-75563307D01*
X85725000Y-75357698D01*
X85810166Y-75563307D01*
X85956484Y-75782288D01*
X86142712Y-75968516D01*
X86361693Y-76114834D01*
X86605012Y-76215620D01*
X86863317Y-76267000D01*
X87126683Y-76267000D01*
X87384988Y-76215620D01*
X87628307Y-76114834D01*
X87847288Y-75968516D01*
X88033516Y-75782288D01*
X88179834Y-75563307D01*
X88265000Y-75357698D01*
X88350166Y-75563307D01*
X88496484Y-75782288D01*
X88682712Y-75968516D01*
X88901693Y-76114834D01*
X89145012Y-76215620D01*
X89403317Y-76267000D01*
X89666683Y-76267000D01*
X89924988Y-76215620D01*
X90168307Y-76114834D01*
X90275000Y-76043544D01*
X90275000Y-78791957D01*
X90120241Y-78895363D01*
X89920363Y-79095241D01*
X89763320Y-79330273D01*
X89701461Y-79479613D01*
X89703072Y-79210000D01*
X89690812Y-79085518D01*
X89654502Y-78965820D01*
X89595537Y-78855506D01*
X89516185Y-78758815D01*
X89419494Y-78679463D01*
X89309180Y-78620498D01*
X89189482Y-78584188D01*
X89065000Y-78571928D01*
X88550750Y-78575000D01*
X88392000Y-78733750D01*
X88392000Y-79883000D01*
X88412000Y-79883000D01*
X88412000Y-80137000D01*
X88392000Y-80137000D01*
X88392000Y-81286250D01*
X88550750Y-81445000D01*
X89065000Y-81448072D01*
X89189482Y-81435812D01*
X89309180Y-81399502D01*
X89419494Y-81340537D01*
X89516185Y-81261185D01*
X89595537Y-81164494D01*
X89654502Y-81054180D01*
X89690812Y-80934482D01*
X89703072Y-80810000D01*
X89701461Y-80540387D01*
X89763320Y-80689727D01*
X89920363Y-80924759D01*
X90120241Y-81124637D01*
X90355273Y-81281680D01*
X90616426Y-81389853D01*
X90893665Y-81445000D01*
X91176335Y-81445000D01*
X91358886Y-81408688D01*
X91596201Y-81646003D01*
X91611351Y-81664463D01*
X91505241Y-81735363D01*
X91305363Y-81935241D01*
X91148320Y-82170273D01*
X91040147Y-82431426D01*
X91035000Y-82457301D01*
X91029853Y-82431426D01*
X90921680Y-82170273D01*
X90764637Y-81935241D01*
X90564759Y-81735363D01*
X90329727Y-81578320D01*
X90068574Y-81470147D01*
X89791335Y-81415000D01*
X89508665Y-81415000D01*
X89231426Y-81470147D01*
X88970273Y-81578320D01*
X88735241Y-81735363D01*
X88535363Y-81935241D01*
X88378320Y-82170273D01*
X88270147Y-82431426D01*
X88215000Y-82708665D01*
X88215000Y-82991335D01*
X88270147Y-83268574D01*
X88378320Y-83529727D01*
X88535363Y-83764759D01*
X88735241Y-83964637D01*
X88970273Y-84121680D01*
X89231426Y-84229853D01*
X89508665Y-84285000D01*
X89791335Y-84285000D01*
X90068574Y-84229853D01*
X90329727Y-84121680D01*
X90564759Y-83964637D01*
X90764637Y-83764759D01*
X90921680Y-83529727D01*
X91029853Y-83268574D01*
X91035000Y-83242699D01*
X91040147Y-83268574D01*
X91148320Y-83529727D01*
X91305363Y-83764759D01*
X91505241Y-83964637D01*
X91740273Y-84121680D01*
X92001426Y-84229853D01*
X92278665Y-84285000D01*
X92561335Y-84285000D01*
X92838574Y-84229853D01*
X93099727Y-84121680D01*
X93334759Y-83964637D01*
X93534637Y-83764759D01*
X93691680Y-83529727D01*
X93799853Y-83268574D01*
X93805000Y-83242699D01*
X93810147Y-83268574D01*
X93918320Y-83529727D01*
X94075363Y-83764759D01*
X94275241Y-83964637D01*
X94510273Y-84121680D01*
X94771426Y-84229853D01*
X95048665Y-84285000D01*
X95331335Y-84285000D01*
X95608574Y-84229853D01*
X95869727Y-84121680D01*
X96104759Y-83964637D01*
X96304637Y-83764759D01*
X96461680Y-83529727D01*
X96569853Y-83268574D01*
X96575000Y-83242699D01*
X96580147Y-83268574D01*
X96688320Y-83529727D01*
X96845363Y-83764759D01*
X97045241Y-83964637D01*
X97280273Y-84121680D01*
X97541426Y-84229853D01*
X97818665Y-84285000D01*
X98101335Y-84285000D01*
X98378574Y-84229853D01*
X98639727Y-84121680D01*
X98874759Y-83964637D01*
X99074637Y-83764759D01*
X99231680Y-83529727D01*
X99290824Y-83386940D01*
X99372670Y-83395001D01*
X99372679Y-83395001D01*
X99410002Y-83398677D01*
X99447325Y-83395001D01*
X107383679Y-83395001D01*
X107421001Y-83398677D01*
X107458323Y-83395001D01*
X107458334Y-83395001D01*
X107569987Y-83384004D01*
X107713248Y-83340547D01*
X107845277Y-83269975D01*
X107961002Y-83175002D01*
X107984805Y-83145998D01*
X109631610Y-81499193D01*
X110700000Y-81499193D01*
X110700000Y-81850807D01*
X110768596Y-82195665D01*
X110903153Y-82520515D01*
X111098500Y-82812871D01*
X111347129Y-83061500D01*
X111639485Y-83256847D01*
X111964335Y-83391404D01*
X112309193Y-83460000D01*
X112660807Y-83460000D01*
X113005665Y-83391404D01*
X113330515Y-83256847D01*
X113622871Y-83061500D01*
X113871500Y-82812871D01*
X114066847Y-82520515D01*
X114201404Y-82195665D01*
X114270000Y-81850807D01*
X114270000Y-81499193D01*
X114201404Y-81154335D01*
X114066847Y-80829485D01*
X113871500Y-80537129D01*
X113622871Y-80288500D01*
X113330515Y-80093153D01*
X113005665Y-79958596D01*
X112660807Y-79890000D01*
X112309193Y-79890000D01*
X111964335Y-79958596D01*
X111639485Y-80093153D01*
X111347129Y-80288500D01*
X111098500Y-80537129D01*
X110903153Y-80829485D01*
X110768596Y-81154335D01*
X110700000Y-81499193D01*
X109631610Y-81499193D01*
X112070805Y-79059999D01*
X116625524Y-79059999D01*
X116590000Y-79238589D01*
X116590000Y-79511411D01*
X116643225Y-79778989D01*
X116747629Y-80031043D01*
X116899201Y-80257886D01*
X117092114Y-80450799D01*
X117318957Y-80602371D01*
X117571011Y-80706775D01*
X117838589Y-80760000D01*
X118111411Y-80760000D01*
X118378989Y-80706775D01*
X118631043Y-80602371D01*
X118762965Y-80514224D01*
X118813815Y-80576185D01*
X118910506Y-80655537D01*
X119020820Y-80714502D01*
X119140518Y-80750812D01*
X119265000Y-80763072D01*
X120765000Y-80763072D01*
X120889482Y-80750812D01*
X121009180Y-80714502D01*
X121119494Y-80655537D01*
X121216185Y-80576185D01*
X121295537Y-80479494D01*
X121354502Y-80369180D01*
X121390812Y-80249482D01*
X121403072Y-80125000D01*
X121403072Y-79061729D01*
X123986005Y-76478797D01*
X124015002Y-76455000D01*
X124109975Y-76339275D01*
X124180547Y-76207246D01*
X124224004Y-76063985D01*
X124235001Y-75952332D01*
X124235001Y-75952323D01*
X124238677Y-75915000D01*
X124235001Y-75877677D01*
X124235001Y-53413382D01*
X125705000Y-54883381D01*
X125705001Y-80370630D01*
X125622871Y-80288500D01*
X125330515Y-80093153D01*
X125005665Y-79958596D01*
X124660807Y-79890000D01*
X124309193Y-79890000D01*
X123964335Y-79958596D01*
X123639485Y-80093153D01*
X123347129Y-80288500D01*
X123098500Y-80537129D01*
X122903153Y-80829485D01*
X122768596Y-81154335D01*
X122700000Y-81499193D01*
X122700000Y-81850807D01*
X122768596Y-82195665D01*
X122903153Y-82520515D01*
X123098500Y-82812871D01*
X123347129Y-83061500D01*
X123639485Y-83256847D01*
X123964335Y-83391404D01*
X124309193Y-83460000D01*
X124660807Y-83460000D01*
X125005665Y-83391404D01*
X125330515Y-83256847D01*
X125622871Y-83061500D01*
X125705001Y-82979370D01*
X125705001Y-87605000D01*
X76225000Y-87605000D01*
X76225000Y-80050475D01*
X78670000Y-80050475D01*
X78670000Y-80569525D01*
X78771261Y-81078601D01*
X78969893Y-81558141D01*
X79258262Y-81989715D01*
X79625285Y-82356738D01*
X80056859Y-82645107D01*
X80536399Y-82843739D01*
X81045475Y-82945000D01*
X81564525Y-82945000D01*
X82073601Y-82843739D01*
X82553141Y-82645107D01*
X82984715Y-82356738D01*
X83351738Y-81989715D01*
X83640107Y-81558141D01*
X83838739Y-81078601D01*
X83892166Y-80810000D01*
X86826928Y-80810000D01*
X86839188Y-80934482D01*
X86875498Y-81054180D01*
X86934463Y-81164494D01*
X87013815Y-81261185D01*
X87110506Y-81340537D01*
X87220820Y-81399502D01*
X87340518Y-81435812D01*
X87465000Y-81448072D01*
X87979250Y-81445000D01*
X88138000Y-81286250D01*
X88138000Y-80137000D01*
X86988750Y-80137000D01*
X86830000Y-80295750D01*
X86826928Y-80810000D01*
X83892166Y-80810000D01*
X83940000Y-80569525D01*
X83940000Y-80050475D01*
X83838739Y-79541399D01*
X83701470Y-79210000D01*
X86826928Y-79210000D01*
X86830000Y-79724250D01*
X86988750Y-79883000D01*
X88138000Y-79883000D01*
X88138000Y-78733750D01*
X87979250Y-78575000D01*
X87465000Y-78571928D01*
X87340518Y-78584188D01*
X87220820Y-78620498D01*
X87110506Y-78679463D01*
X87013815Y-78758815D01*
X86934463Y-78855506D01*
X86875498Y-78965820D01*
X86839188Y-79085518D01*
X86826928Y-79210000D01*
X83701470Y-79210000D01*
X83640107Y-79061859D01*
X83351738Y-78630285D01*
X82984715Y-78263262D01*
X82553141Y-77974893D01*
X82073601Y-77776261D01*
X81564525Y-77675000D01*
X81045475Y-77675000D01*
X80536399Y-77776261D01*
X80056859Y-77974893D01*
X79625285Y-78263262D01*
X79258262Y-78630285D01*
X78969893Y-79061859D01*
X78771261Y-79541399D01*
X78670000Y-80050475D01*
X76225000Y-80050475D01*
X76225000Y-76120816D01*
X76390397Y-76197769D01*
X76646269Y-76260147D01*
X76909395Y-76271408D01*
X77169661Y-76231120D01*
X77417067Y-76140831D01*
X77518390Y-76086671D01*
X77578093Y-75852698D01*
X76835000Y-75109605D01*
X76820858Y-75123748D01*
X76641253Y-74944143D01*
X76655395Y-74930000D01*
X76641253Y-74915858D01*
X76820858Y-74736253D01*
X76835000Y-74750395D01*
X77578093Y-74007302D01*
X77518390Y-73773329D01*
X77279603Y-73662231D01*
X77023731Y-73599853D01*
X76760605Y-73588592D01*
X76500339Y-73628880D01*
X76252933Y-73719169D01*
X76225000Y-73734100D01*
X76225000Y-65913242D01*
X76818000Y-65913242D01*
X76818000Y-66166758D01*
X76867459Y-66415404D01*
X76964476Y-66649623D01*
X77105322Y-66860415D01*
X77284585Y-67039678D01*
X77495377Y-67180524D01*
X77729596Y-67277541D01*
X77892778Y-67310000D01*
X77729596Y-67342459D01*
X77495377Y-67439476D01*
X77284585Y-67580322D01*
X77105322Y-67759585D01*
X76964476Y-67970377D01*
X76867459Y-68204596D01*
X76818000Y-68453242D01*
X76818000Y-68706758D01*
X76867459Y-68955404D01*
X76964476Y-69189623D01*
X77105322Y-69400415D01*
X77284585Y-69579678D01*
X77495377Y-69720524D01*
X77729596Y-69817541D01*
X77978242Y-69867000D01*
X78231758Y-69867000D01*
X78480404Y-69817541D01*
X78714623Y-69720524D01*
X78925415Y-69579678D01*
X79104678Y-69400415D01*
X79245524Y-69189623D01*
X79342541Y-68955404D01*
X79392000Y-68706758D01*
X79392000Y-68453242D01*
X79342541Y-68204596D01*
X79245524Y-67970377D01*
X79104678Y-67759585D01*
X78925415Y-67580322D01*
X78714623Y-67439476D01*
X78480404Y-67342459D01*
X78317222Y-67310000D01*
X78480404Y-67277541D01*
X78714623Y-67180524D01*
X78925415Y-67039678D01*
X79104678Y-66860415D01*
X79245524Y-66649623D01*
X79342541Y-66415404D01*
X79392000Y-66166758D01*
X79392000Y-65913242D01*
X79388630Y-65896297D01*
X82934962Y-65896297D01*
X82971751Y-66097228D01*
X83047033Y-66287121D01*
X83059723Y-66310862D01*
X83054422Y-66318796D01*
X82976251Y-66507518D01*
X82936400Y-66707864D01*
X82936400Y-66912136D01*
X82976251Y-67112482D01*
X83054422Y-67301204D01*
X83060299Y-67310000D01*
X83054422Y-67318796D01*
X82976251Y-67507518D01*
X82936400Y-67707864D01*
X82936400Y-67912136D01*
X82976251Y-68112482D01*
X83054422Y-68301204D01*
X83060299Y-68310000D01*
X83054422Y-68318796D01*
X82976251Y-68507518D01*
X82936400Y-68707864D01*
X82936400Y-68912136D01*
X82976251Y-69112482D01*
X83054422Y-69301204D01*
X83060299Y-69310000D01*
X83054422Y-69318796D01*
X82976251Y-69507518D01*
X82936400Y-69707864D01*
X82936400Y-69912136D01*
X82976251Y-70112482D01*
X83054422Y-70301204D01*
X83060299Y-70310000D01*
X83054422Y-70318796D01*
X82976251Y-70507518D01*
X82936400Y-70707864D01*
X82936400Y-70912136D01*
X82976251Y-71112482D01*
X83054422Y-71301204D01*
X83167909Y-71471049D01*
X83312351Y-71615491D01*
X83482196Y-71728978D01*
X83670918Y-71807149D01*
X83871264Y-71847000D01*
X84075536Y-71847000D01*
X84275882Y-71807149D01*
X84464604Y-71728978D01*
X84634449Y-71615491D01*
X84778891Y-71471049D01*
X84892378Y-71301204D01*
X84970549Y-71112482D01*
X85010400Y-70912136D01*
X85010400Y-70707864D01*
X84970549Y-70507518D01*
X84892378Y-70318796D01*
X84886501Y-70310000D01*
X84892378Y-70301204D01*
X84970549Y-70112482D01*
X85010400Y-69912136D01*
X85010400Y-69707864D01*
X84970549Y-69507518D01*
X84892378Y-69318796D01*
X84886501Y-69310000D01*
X84892378Y-69301204D01*
X84970549Y-69112482D01*
X85010400Y-68912136D01*
X85010400Y-68707864D01*
X84970549Y-68507518D01*
X84892378Y-68318796D01*
X84886501Y-68310000D01*
X84892378Y-68301204D01*
X84970549Y-68112482D01*
X85010400Y-67912136D01*
X85010400Y-67707864D01*
X84970549Y-67507518D01*
X84892378Y-67318796D01*
X84886501Y-67310000D01*
X84892378Y-67301204D01*
X84970549Y-67112482D01*
X85010400Y-66912136D01*
X85010400Y-66707864D01*
X84970549Y-66507518D01*
X84892378Y-66318796D01*
X84886809Y-66310462D01*
X84965817Y-66127664D01*
X85008720Y-65927950D01*
X85011838Y-65723703D01*
X84975049Y-65522772D01*
X84899767Y-65332879D01*
X84887077Y-65309138D01*
X84892378Y-65301204D01*
X84970549Y-65112482D01*
X85010400Y-64912136D01*
X85010400Y-64707864D01*
X84970549Y-64507518D01*
X84892378Y-64318796D01*
X84886501Y-64310000D01*
X84892378Y-64301204D01*
X84970549Y-64112482D01*
X85010400Y-63912136D01*
X85010400Y-63707864D01*
X84970549Y-63507518D01*
X84892378Y-63318796D01*
X84778891Y-63148951D01*
X84634449Y-63004509D01*
X84464604Y-62891022D01*
X84275882Y-62812851D01*
X84075536Y-62773000D01*
X83871264Y-62773000D01*
X83670918Y-62812851D01*
X83482196Y-62891022D01*
X83312351Y-63004509D01*
X83167909Y-63148951D01*
X83054422Y-63318796D01*
X82976251Y-63507518D01*
X82936400Y-63707864D01*
X82936400Y-63912136D01*
X82976251Y-64112482D01*
X83054422Y-64301204D01*
X83060299Y-64310000D01*
X83054422Y-64318796D01*
X82976251Y-64507518D01*
X82936400Y-64707864D01*
X82936400Y-64912136D01*
X82976251Y-65112482D01*
X83054422Y-65301204D01*
X83059991Y-65309538D01*
X82980983Y-65492336D01*
X82938080Y-65692050D01*
X82934962Y-65896297D01*
X79388630Y-65896297D01*
X79342541Y-65664596D01*
X79245524Y-65430377D01*
X79104678Y-65219585D01*
X78925415Y-65040322D01*
X78714623Y-64899476D01*
X78480404Y-64802459D01*
X78231758Y-64753000D01*
X77978242Y-64753000D01*
X77729596Y-64802459D01*
X77495377Y-64899476D01*
X77284585Y-65040322D01*
X77105322Y-65219585D01*
X76964476Y-65430377D01*
X76867459Y-65664596D01*
X76818000Y-65913242D01*
X76225000Y-65913242D01*
X76225000Y-62098317D01*
X78038000Y-62098317D01*
X78038000Y-62361683D01*
X78089380Y-62619988D01*
X78190166Y-62863307D01*
X78336484Y-63082288D01*
X78522712Y-63268516D01*
X78741693Y-63414834D01*
X78985012Y-63515620D01*
X79243317Y-63567000D01*
X79506683Y-63567000D01*
X79764988Y-63515620D01*
X80008307Y-63414834D01*
X80227288Y-63268516D01*
X80413516Y-63082288D01*
X80559834Y-62863307D01*
X80660620Y-62619988D01*
X80712000Y-62361683D01*
X80712000Y-62098317D01*
X80660620Y-61840012D01*
X80559834Y-61596693D01*
X80413516Y-61377712D01*
X80227288Y-61191484D01*
X80008307Y-61045166D01*
X79799062Y-60958494D01*
X79957067Y-60900831D01*
X80058390Y-60846671D01*
X80118093Y-60612698D01*
X79375000Y-59869605D01*
X78631907Y-60612698D01*
X78691610Y-60846671D01*
X78930397Y-60957769D01*
X78944429Y-60961190D01*
X78741693Y-61045166D01*
X78522712Y-61191484D01*
X78336484Y-61377712D01*
X78190166Y-61596693D01*
X78089380Y-61840012D01*
X78038000Y-62098317D01*
X76225000Y-62098317D01*
X76225000Y-60884488D01*
X76445012Y-60975620D01*
X76703317Y-61027000D01*
X76966683Y-61027000D01*
X77224988Y-60975620D01*
X77468307Y-60874834D01*
X77687288Y-60728516D01*
X77873516Y-60542288D01*
X78019834Y-60323307D01*
X78106506Y-60114062D01*
X78164169Y-60272067D01*
X78218329Y-60373390D01*
X78452302Y-60433093D01*
X79195395Y-59690000D01*
X78452302Y-58946907D01*
X78218329Y-59006610D01*
X78107231Y-59245397D01*
X78103810Y-59259429D01*
X78019834Y-59056693D01*
X77873516Y-58837712D01*
X77803106Y-58767302D01*
X78631907Y-58767302D01*
X79375000Y-59510395D01*
X80118093Y-58767302D01*
X80058390Y-58533329D01*
X79819603Y-58422231D01*
X79563731Y-58359853D01*
X79300605Y-58348592D01*
X79040339Y-58388880D01*
X78792933Y-58479169D01*
X78691610Y-58533329D01*
X78631907Y-58767302D01*
X77803106Y-58767302D01*
X77687288Y-58651484D01*
X77468307Y-58505166D01*
X77224988Y-58404380D01*
X76966683Y-58353000D01*
X76703317Y-58353000D01*
X76445012Y-58404380D01*
X76225000Y-58495512D01*
X76225000Y-56813148D01*
X79256457Y-56813148D01*
X79532627Y-57231118D01*
X80077557Y-57521649D01*
X80668696Y-57700287D01*
X81283328Y-57760168D01*
X81897831Y-57698990D01*
X82488592Y-57519103D01*
X83027373Y-57231118D01*
X83301215Y-56816671D01*
X99037284Y-56816671D01*
X99160626Y-57023000D01*
X100203000Y-57023000D01*
X100203000Y-55979799D01*
X100457000Y-55979799D01*
X100457000Y-57023000D01*
X101499374Y-57023000D01*
X101622716Y-56816671D01*
X101590047Y-56708956D01*
X101479792Y-56471608D01*
X101325351Y-56260330D01*
X101132660Y-56083241D01*
X100909123Y-55947147D01*
X100663330Y-55857278D01*
X100457000Y-55979799D01*
X100203000Y-55979799D01*
X99996670Y-55857278D01*
X99750877Y-55947147D01*
X99527340Y-56083241D01*
X99334649Y-56260330D01*
X99180208Y-56471608D01*
X99069953Y-56708956D01*
X99037284Y-56816671D01*
X83301215Y-56816671D01*
X83303543Y-56813148D01*
X81280000Y-54789605D01*
X79256457Y-56813148D01*
X76225000Y-56813148D01*
X76225000Y-54883380D01*
X76495052Y-54613328D01*
X78129832Y-54613328D01*
X78191010Y-55227831D01*
X78370897Y-55818592D01*
X78658882Y-56357373D01*
X79076852Y-56633543D01*
X81100395Y-54610000D01*
X81459605Y-54610000D01*
X83483148Y-56633543D01*
X83901118Y-56357373D01*
X84191649Y-55812443D01*
X84370287Y-55221304D01*
X84430168Y-54606672D01*
X84368990Y-53992169D01*
X84189103Y-53401408D01*
X83901118Y-52862627D01*
X83483148Y-52586457D01*
X81459605Y-54610000D01*
X81100395Y-54610000D01*
X79076852Y-52586457D01*
X78658882Y-52862627D01*
X78368351Y-53407557D01*
X78189713Y-53998696D01*
X78129832Y-54613328D01*
X76495052Y-54613328D01*
X78701528Y-52406852D01*
X79256457Y-52406852D01*
X81280000Y-54430395D01*
X83303543Y-52406852D01*
X83027373Y-51988882D01*
X82657890Y-51791891D01*
X88728519Y-51791891D01*
X88825843Y-52066252D01*
X88974822Y-52316355D01*
X89169731Y-52532588D01*
X89403080Y-52706641D01*
X89665901Y-52831825D01*
X89813110Y-52876476D01*
X90043000Y-52755155D01*
X90043000Y-51562000D01*
X88849186Y-51562000D01*
X88728519Y-51791891D01*
X82657890Y-51791891D01*
X82482443Y-51698351D01*
X81891304Y-51519713D01*
X81276672Y-51459832D01*
X80662169Y-51521010D01*
X80071408Y-51700897D01*
X79532627Y-51988882D01*
X79256457Y-52406852D01*
X78701528Y-52406852D01*
X80918381Y-50190000D01*
X89367363Y-50190000D01*
X89169731Y-50337412D01*
G37*
%TD.AperFunction*%
%TD*%
M02*
