%TF.GenerationSoftware,KiCad,Pcbnew,(5.1.9)-1*%
%TF.CreationDate,2021-04-13T08:48:54-07:00*%
%TF.ProjectId,head,68656164-2e6b-4696-9361-645f70636258,rev?*%
%TF.SameCoordinates,Original*%
%TF.FileFunction,Soldermask,Bot*%
%TF.FilePolarity,Negative*%
%FSLAX46Y46*%
G04 Gerber Fmt 4.6, Leading zero omitted, Abs format (unit mm)*
G04 Created by KiCad (PCBNEW (5.1.9)-1) date 2021-04-13 08:48:54*
%MOMM*%
%LPD*%
G01*
G04 APERTURE LIST*
%ADD10C,1.600000*%
%ADD11O,1.400000X1.400000*%
%ADD12C,1.400000*%
%ADD13C,5.000000*%
%ADD14C,1.404000*%
%ADD15O,1.700000X1.700000*%
%ADD16R,1.700000X1.700000*%
%ADD17O,1.600000X1.600000*%
%ADD18R,1.600000X1.600000*%
%ADD19O,1.905000X2.000000*%
%ADD20R,1.905000X2.000000*%
%ADD21C,4.000000*%
G04 APERTURE END LIST*
D10*
%TO.C,C11*%
X121920000Y-142795000D03*
X121920000Y-137795000D03*
%TD*%
D11*
%TO.C,R5*%
X107950000Y-146685000D03*
D12*
X107950000Y-151765000D03*
%TD*%
D13*
%TO.C,H4*%
X59690000Y-160655000D03*
%TD*%
%TO.C,H3*%
X85090000Y-125095000D03*
%TD*%
D11*
%TO.C,R13*%
X88265000Y-128905000D03*
D12*
X88265000Y-133985000D03*
%TD*%
D11*
%TO.C,R14*%
X102235000Y-128905000D03*
D12*
X102235000Y-133985000D03*
%TD*%
D11*
%TO.C,R15*%
X116205000Y-128905000D03*
D12*
X116205000Y-133985000D03*
%TD*%
D11*
%TO.C,R4*%
X105410000Y-146685000D03*
D12*
X105410000Y-151765000D03*
%TD*%
D11*
%TO.C,R8*%
X116205000Y-146685000D03*
D12*
X116205000Y-151765000D03*
%TD*%
D11*
%TO.C,R7*%
X113665000Y-146685000D03*
D12*
X113665000Y-151765000D03*
%TD*%
D11*
%TO.C,R11*%
X124460000Y-146685000D03*
D12*
X124460000Y-151765000D03*
%TD*%
D11*
%TO.C,R10*%
X121920000Y-146685000D03*
D12*
X121920000Y-151765000D03*
%TD*%
D11*
%TO.C,R6*%
X110490000Y-146685000D03*
D12*
X110490000Y-151765000D03*
%TD*%
D11*
%TO.C,R9*%
X118745000Y-146685000D03*
D12*
X118745000Y-151765000D03*
%TD*%
D11*
%TO.C,R12*%
X127000000Y-146685000D03*
D12*
X127000000Y-151765000D03*
%TD*%
D14*
%TO.C,U1*%
X80010000Y-133350000D03*
X64770000Y-163830000D03*
X64770000Y-161290000D03*
X64770000Y-158750000D03*
X64770000Y-156210000D03*
X64770000Y-153670000D03*
X64770000Y-151130000D03*
X64770000Y-148590000D03*
X64770000Y-146050000D03*
X64770000Y-143510000D03*
X64770000Y-140970000D03*
X64770000Y-138430000D03*
X64770000Y-135890000D03*
X64770000Y-133350000D03*
X64770000Y-130810000D03*
X67310000Y-130810000D03*
X69850000Y-130810000D03*
X72390000Y-130810000D03*
X74930000Y-130810000D03*
X77470000Y-130810000D03*
X80010000Y-130810000D03*
X80010000Y-135890000D03*
X80010000Y-138430000D03*
X80010000Y-140970000D03*
X80010000Y-143510000D03*
X80010000Y-146050000D03*
X80010000Y-148590000D03*
X80010000Y-151130000D03*
X80010000Y-153670000D03*
X80010000Y-156210000D03*
X80010000Y-158750000D03*
X80010000Y-161290000D03*
X80010000Y-163830000D03*
%TD*%
D11*
%TO.C,R3*%
X74930000Y-127635000D03*
D12*
X80010000Y-127635000D03*
%TD*%
D11*
%TO.C,R2*%
X67310000Y-127635000D03*
D12*
X72390000Y-127635000D03*
%TD*%
D15*
%TO.C,J10*%
X78740000Y-124460000D03*
D16*
X76200000Y-124460000D03*
%TD*%
D15*
%TO.C,J9*%
X71120000Y-124460000D03*
D16*
X68580000Y-124460000D03*
%TD*%
D17*
%TO.C,U3*%
X91440000Y-127635000D03*
X99060000Y-135255000D03*
X93980000Y-127635000D03*
X96520000Y-135255000D03*
X96520000Y-127635000D03*
X93980000Y-135255000D03*
X99060000Y-127635000D03*
D18*
X91440000Y-135255000D03*
%TD*%
D17*
%TO.C,U4*%
X105410000Y-127635000D03*
X113030000Y-135255000D03*
X107950000Y-127635000D03*
X110490000Y-135255000D03*
X110490000Y-127635000D03*
X107950000Y-135255000D03*
X113030000Y-127635000D03*
D18*
X105410000Y-135255000D03*
%TD*%
D17*
%TO.C,U5*%
X119380000Y-127635000D03*
X127000000Y-135255000D03*
X121920000Y-127635000D03*
X124460000Y-135255000D03*
X124460000Y-127635000D03*
X121920000Y-135255000D03*
X127000000Y-127635000D03*
D18*
X119380000Y-135255000D03*
%TD*%
D11*
%TO.C,R1*%
X59690000Y-127635000D03*
D12*
X64770000Y-127635000D03*
%TD*%
D19*
%TO.C,Q1*%
X84455000Y-149860000D03*
X86995000Y-149860000D03*
D20*
X89535000Y-149860000D03*
%TD*%
D15*
%TO.C,J8*%
X59055000Y-142875000D03*
X59055000Y-140335000D03*
X59055000Y-137795000D03*
X59055000Y-135255000D03*
D16*
X59055000Y-132715000D03*
%TD*%
D15*
%TO.C,J7*%
X115570000Y-156210000D03*
X118110000Y-156210000D03*
X120650000Y-156210000D03*
D16*
X123190000Y-156210000D03*
%TD*%
D15*
%TO.C,J6*%
X59055000Y-154940000D03*
X59055000Y-152400000D03*
X59055000Y-149860000D03*
D16*
X59055000Y-147320000D03*
%TD*%
D15*
%TO.C,J5*%
X63500000Y-124460000D03*
D16*
X60960000Y-124460000D03*
%TD*%
D15*
%TO.C,J4*%
X102235000Y-151765000D03*
X99695000Y-151765000D03*
X97155000Y-151765000D03*
D16*
X94615000Y-151765000D03*
%TD*%
D15*
%TO.C,J3*%
X83865000Y-134365000D03*
D16*
X83865000Y-136905000D03*
%TD*%
D15*
%TO.C,J2*%
X83820000Y-141605000D03*
D16*
X83820000Y-144145000D03*
%TD*%
D21*
%TO.C,J1*%
X110115000Y-157780000D03*
X85115000Y-157780000D03*
D10*
X101770000Y-160320000D03*
X99000000Y-160320000D03*
X96230000Y-160320000D03*
X93460000Y-160320000D03*
X103155000Y-157480000D03*
X100385000Y-157480000D03*
X97615000Y-157480000D03*
X94845000Y-157480000D03*
D18*
X92075000Y-157480000D03*
%TD*%
D13*
%TO.C,H2*%
X126365000Y-161925000D03*
%TD*%
D10*
%TO.C,C13*%
X97710000Y-124460000D03*
X92710000Y-124460000D03*
%TD*%
%TO.C,C14*%
X111680000Y-124460000D03*
X106680000Y-124460000D03*
%TD*%
%TO.C,C15*%
X125650000Y-124460000D03*
X120650000Y-124460000D03*
%TD*%
%TO.C,C6*%
X99060000Y-137875000D03*
X99060000Y-142875000D03*
%TD*%
%TO.C,C5*%
X94615000Y-137875000D03*
X94615000Y-142875000D03*
%TD*%
%TO.C,C4*%
X90170000Y-137875000D03*
X90170000Y-142875000D03*
%TD*%
%TO.C,C9*%
X112395000Y-137875000D03*
X112395000Y-142875000D03*
%TD*%
%TO.C,C8*%
X107950000Y-137875000D03*
X107950000Y-142875000D03*
%TD*%
%TO.C,C7*%
X103505000Y-137875000D03*
X103505000Y-142875000D03*
%TD*%
%TO.C,C12*%
X126365000Y-142795000D03*
X126365000Y-137795000D03*
%TD*%
%TO.C,C10*%
X117475000Y-137875000D03*
X117475000Y-142875000D03*
%TD*%
M02*
