M48
; DRILL file {KiCad (5.1.9)-1} date 03/17/21 20:41:21
; FORMAT={-:-/ absolute / inch / decimal}
; #@! TF.CreationDate,2021-03-17T20:41:21-07:00
; #@! TF.GenerationSoftware,Kicad,Pcbnew,(5.1.9)-1
FMAT,2
INCH
T1C0.0197
T2C0.0276
T3C0.0354
T4C0.0394
T5C0.0433
T6C0.0984
T7C0.1260
T8C0.0906
%
G90
G05
T1
X3.306Y-2.5122
X3.306Y-2.5516
X3.306Y-2.5909
X3.306Y-2.6303
X3.306Y-2.6697
X3.306Y-2.7091
X3.306Y-2.7484
X3.306Y-2.7878
T2
X3.95Y-2.25
X4.15Y-2.25
T3
X4.6045Y-3.025
X4.6447Y-3.125
X4.6848Y-3.025
X4.725Y-3.125
T4
X3.075Y-2.6
X3.075Y-2.7
X3.475Y-3.15
X3.5295Y-3.2618
X3.55Y-2.025
X3.5841Y-3.15
X3.6386Y-3.2618
X3.65Y-2.025
X3.6931Y-3.15
X3.7476Y-3.2618
X3.75Y-2.025
X3.8022Y-3.15
X3.85Y-2.025
X3.8567Y-3.2618
X3.9112Y-3.15
X3.95Y-2.025
X4.025Y-2.45
X4.025Y-2.55
X4.025Y-2.65
X4.025Y-2.75
X4.025Y-2.85
X4.125Y-2.45
X4.125Y-2.55
X4.125Y-2.65
X4.125Y-2.75
X4.125Y-2.85
X4.15Y-2.025
X4.25Y-2.025
X4.35Y-2.025
X4.45Y-2.025
X4.475Y-2.375
X4.475Y-2.475
X4.475Y-2.725
X4.475Y-2.825
X4.75Y-2.375
X4.75Y-2.475
X4.75Y-2.725
X4.75Y-2.825
T5
X3.025Y-2.35
X3.025Y-2.95
X3.125Y-2.35
X3.125Y-2.45
X3.125Y-2.95
X3.225Y-2.35
X3.225Y-2.95
X3.325Y-2.35
X3.325Y-2.95
X3.425Y-2.35
X3.425Y-2.95
X3.525Y-2.35
X3.525Y-2.95
X3.625Y-2.35
X3.625Y-2.95
X3.725Y-2.35
X3.725Y-2.95
X3.825Y-2.35
X3.825Y-2.95
X3.925Y-2.35
X3.925Y-2.95
X4.025Y-2.35
X4.025Y-2.95
X4.125Y-2.35
X4.125Y-2.95
X4.225Y-2.35
X4.225Y-2.95
X4.325Y-2.35
X4.325Y-2.45
X4.325Y-2.55
X4.325Y-2.65
X4.325Y-2.75
X4.325Y-2.85
X4.325Y-2.95
T6
X3.2Y-2.15
X4.75Y-2.15
T7
X3.201Y-3.1618
X4.1852Y-3.1618
T8
X4.4285Y-3.2156
X4.901Y-3.2156
T0
M30
