M48
; DRILL file {KiCad (5.1.9)-1} date 04/06/21 22:01:00
; FORMAT={-:-/ absolute / inch / decimal}
; #@! TF.CreationDate,2021-04-06T22:01:00-07:00
; #@! TF.GenerationSoftware,Kicad,Pcbnew,(5.1.9)-1
FMAT,2
INCH
T1C0.0276
T2C0.0315
T3C0.0394
T4C0.0433
T5C0.0984
T6C0.1260
%
G90
G05
T1
X2.35Y-5.025
X2.55Y-5.025
X2.65Y-5.025
X2.85Y-5.025
X2.95Y-5.025
X3.15Y-5.025
X4.225Y-5.05
X4.225Y-5.25
X4.5Y-5.75
X4.5Y-5.95
X4.6Y-5.75
X4.6Y-5.95
X4.7Y-5.75
X4.7Y-5.95
X4.825Y-5.05
X4.825Y-5.25
X4.95Y-5.75
X4.95Y-5.95
X5.05Y-5.75
X5.05Y-5.95
X5.15Y-5.75
X5.15Y-5.95
X5.425Y-5.05
X5.425Y-5.25
X5.45Y-5.75
X5.45Y-5.95
X5.55Y-5.75
X5.55Y-5.95
X5.65Y-5.75
X5.65Y-5.95
T2
X3.3Y-5.875
X3.3Y-6.175
X3.325Y-6.3213
X3.325Y-6.4
X3.35Y-5.5213
X3.35Y-5.6
X3.4Y-5.875
X3.4Y-6.175
X3.5Y-5.875
X3.5Y-6.175
X3.5781Y-6.325
X3.6Y-5.875
X3.6Y-6.175
X3.775Y-6.325
X4.275Y-5.4031
X4.275Y-5.6
X4.35Y-5.0
X4.35Y-5.3
X4.4Y-4.875
X4.45Y-5.0
X4.45Y-5.3
X4.45Y-5.4031
X4.45Y-5.6
X4.55Y-5.0
X4.55Y-5.3
X4.5969Y-4.875
X4.625Y-5.4031
X4.625Y-5.6
X4.65Y-5.0
X4.65Y-5.3
X4.875Y-5.4031
X4.875Y-5.6
X4.95Y-5.0
X4.95Y-5.3
X5.0Y-4.875
X5.05Y-5.0
X5.05Y-5.3
X5.05Y-5.4
X5.05Y-5.5969
X5.15Y-5.0
X5.15Y-5.3
X5.1969Y-4.875
X5.225Y-5.4031
X5.225Y-5.6
X5.25Y-5.0
X5.25Y-5.3
X5.475Y-5.4
X5.475Y-5.5969
X5.55Y-5.0
X5.55Y-5.3
X5.6Y-4.875
X5.65Y-5.0
X5.65Y-5.3
X5.65Y-5.4031
X5.65Y-5.6
X5.75Y-5.0
X5.75Y-5.3
X5.7969Y-4.875
X5.825Y-5.4
X5.825Y-5.5969
X5.85Y-5.0
X5.85Y-5.3
T3
X2.325Y-5.225
X2.325Y-5.325
X2.325Y-5.425
X2.325Y-5.525
X2.325Y-5.625
X2.325Y-5.8
X2.325Y-5.9
X2.325Y-6.0
X2.325Y-6.1
X2.4Y-4.9
X2.5Y-4.9
X2.7Y-4.9
X2.8Y-4.9
X3.0Y-4.9
X3.1Y-4.9
X3.325Y-5.225
X3.325Y-5.325
X3.3268Y-4.89
X3.3268Y-4.99
X3.525Y-5.125
X3.625Y-5.125
X3.725Y-5.125
X3.75Y-5.275
X3.775Y-5.925
X3.825Y-5.125
X3.85Y-5.275
X3.95Y-5.275
X4.05Y-5.275
X4.325Y-6.2
X4.375Y-5.925
X4.3795Y-6.3118
X4.4341Y-6.2
X4.4886Y-6.3118
X4.5431Y-6.2
X4.5976Y-6.3118
X4.6522Y-6.2
X4.7067Y-6.3118
X4.7612Y-6.2
T4
X2.55Y-5.15
X2.55Y-5.25
X2.55Y-5.35
X2.55Y-5.45
X2.55Y-5.55
X2.55Y-5.65
X2.55Y-5.75
X2.55Y-5.85
X2.55Y-5.95
X2.55Y-6.05
X2.55Y-6.15
X2.55Y-6.25
X2.55Y-6.35
X2.55Y-6.45
X2.65Y-5.15
X2.75Y-5.15
X2.85Y-5.15
X2.95Y-5.15
X3.05Y-5.15
X3.15Y-5.15
X3.15Y-5.25
X3.15Y-5.35
X3.15Y-5.45
X3.15Y-5.55
X3.15Y-5.65
X3.15Y-5.75
X3.15Y-5.85
X3.15Y-5.95
X3.15Y-6.05
X3.15Y-6.15
X3.15Y-6.25
X3.15Y-6.35
X3.15Y-6.45
X3.3Y-5.75
X3.65Y-5.525
X3.7Y-5.75
X3.75Y-5.525
X3.85Y-5.525
T5
X2.35Y-6.325
X4.05Y-4.95
X5.35Y-6.225
T6
X4.051Y-6.2118
X5.0352Y-6.2118
T0
M30
