%TF.GenerationSoftware,KiCad,Pcbnew,(5.1.9)-1*%
%TF.CreationDate,2021-04-06T22:00:47-07:00*%
%TF.ProjectId,head,68656164-2e6b-4696-9361-645f70636258,rev?*%
%TF.SameCoordinates,Original*%
%TF.FileFunction,Legend,Top*%
%TF.FilePolarity,Positive*%
%FSLAX46Y46*%
G04 Gerber Fmt 4.6, Leading zero omitted, Abs format (unit mm)*
G04 Created by KiCad (PCBNEW (5.1.9)-1) date 2021-04-06 22:00:47*
%MOMM*%
%LPD*%
G01*
G04 APERTURE LIST*
%ADD10C,0.150000*%
%ADD11C,0.120000*%
G04 APERTURE END LIST*
D10*
X102322380Y-137971547D02*
X102322380Y-137352500D01*
X102703333Y-137685833D01*
X102703333Y-137542976D01*
X102750952Y-137447738D01*
X102798571Y-137400119D01*
X102893809Y-137352500D01*
X103131904Y-137352500D01*
X103227142Y-137400119D01*
X103274761Y-137447738D01*
X103322380Y-137542976D01*
X103322380Y-137828690D01*
X103274761Y-137923928D01*
X103227142Y-137971547D01*
X102322380Y-137066785D02*
X103322380Y-136733452D01*
X102322380Y-136400119D01*
X102322380Y-136162023D02*
X102322380Y-135542976D01*
X102703333Y-135876309D01*
X102703333Y-135733452D01*
X102750952Y-135638214D01*
X102798571Y-135590595D01*
X102893809Y-135542976D01*
X103131904Y-135542976D01*
X103227142Y-135590595D01*
X103274761Y-135638214D01*
X103322380Y-135733452D01*
X103322380Y-136019166D01*
X103274761Y-136114404D01*
X103227142Y-136162023D01*
X100782380Y-137685833D02*
X100782380Y-138162023D01*
X99782380Y-138162023D01*
X100687142Y-136781071D02*
X100734761Y-136828690D01*
X100782380Y-136971547D01*
X100782380Y-137066785D01*
X100734761Y-137209642D01*
X100639523Y-137304880D01*
X100544285Y-137352500D01*
X100353809Y-137400119D01*
X100210952Y-137400119D01*
X100020476Y-137352500D01*
X99925238Y-137304880D01*
X99830000Y-137209642D01*
X99782380Y-137066785D01*
X99782380Y-136971547D01*
X99830000Y-136828690D01*
X99877619Y-136781071D01*
X100401428Y-136352500D02*
X100401428Y-135590595D01*
X98242380Y-137685833D02*
X98242380Y-138162023D01*
X97242380Y-138162023D01*
X98147142Y-136781071D02*
X98194761Y-136828690D01*
X98242380Y-136971547D01*
X98242380Y-137066785D01*
X98194761Y-137209642D01*
X98099523Y-137304880D01*
X98004285Y-137352500D01*
X97813809Y-137400119D01*
X97670952Y-137400119D01*
X97480476Y-137352500D01*
X97385238Y-137304880D01*
X97290000Y-137209642D01*
X97242380Y-137066785D01*
X97242380Y-136971547D01*
X97290000Y-136828690D01*
X97337619Y-136781071D01*
X97861428Y-136352500D02*
X97861428Y-135590595D01*
X98242380Y-135971547D02*
X97480476Y-135971547D01*
X94750000Y-137638214D02*
X94702380Y-137733452D01*
X94702380Y-137876309D01*
X94750000Y-138019166D01*
X94845238Y-138114404D01*
X94940476Y-138162023D01*
X95130952Y-138209642D01*
X95273809Y-138209642D01*
X95464285Y-138162023D01*
X95559523Y-138114404D01*
X95654761Y-138019166D01*
X95702380Y-137876309D01*
X95702380Y-137781071D01*
X95654761Y-137638214D01*
X95607142Y-137590595D01*
X95273809Y-137590595D01*
X95273809Y-137781071D01*
X95702380Y-137162023D02*
X94702380Y-137162023D01*
X95702380Y-136590595D01*
X94702380Y-136590595D01*
X95702380Y-136114404D02*
X94702380Y-136114404D01*
X94702380Y-135876309D01*
X94750000Y-135733452D01*
X94845238Y-135638214D01*
X94940476Y-135590595D01*
X95130952Y-135542976D01*
X95273809Y-135542976D01*
X95464285Y-135590595D01*
X95559523Y-135638214D01*
X95654761Y-135733452D01*
X95702380Y-135876309D01*
X95702380Y-136114404D01*
X82478571Y-127515714D02*
X82478571Y-127849047D01*
X83002380Y-127849047D02*
X82002380Y-127849047D01*
X82002380Y-127372857D01*
X83002380Y-126515714D02*
X83002380Y-126991904D01*
X82002380Y-126991904D01*
X82002380Y-126182380D02*
X82811904Y-126182380D01*
X82907142Y-126134761D01*
X82954761Y-126087142D01*
X83002380Y-125991904D01*
X83002380Y-125801428D01*
X82954761Y-125706190D01*
X82907142Y-125658571D01*
X82811904Y-125610952D01*
X82002380Y-125610952D01*
X82954761Y-125182380D02*
X83002380Y-125039523D01*
X83002380Y-124801428D01*
X82954761Y-124706190D01*
X82907142Y-124658571D01*
X82811904Y-124610952D01*
X82716666Y-124610952D01*
X82621428Y-124658571D01*
X82573809Y-124706190D01*
X82526190Y-124801428D01*
X82478571Y-124991904D01*
X82430952Y-125087142D01*
X82383333Y-125134761D01*
X82288095Y-125182380D01*
X82192857Y-125182380D01*
X82097619Y-125134761D01*
X82050000Y-125087142D01*
X82002380Y-124991904D01*
X82002380Y-124753809D01*
X82050000Y-124610952D01*
X83002380Y-124182380D02*
X82002380Y-124182380D01*
X82478571Y-124182380D02*
X82478571Y-123610952D01*
X83002380Y-123610952D02*
X82002380Y-123610952D01*
X82954761Y-135937380D02*
X83002380Y-135794523D01*
X83002380Y-135556428D01*
X82954761Y-135461190D01*
X82907142Y-135413571D01*
X82811904Y-135365952D01*
X82716666Y-135365952D01*
X82621428Y-135413571D01*
X82573809Y-135461190D01*
X82526190Y-135556428D01*
X82478571Y-135746904D01*
X82430952Y-135842142D01*
X82383333Y-135889761D01*
X82288095Y-135937380D01*
X82192857Y-135937380D01*
X82097619Y-135889761D01*
X82050000Y-135842142D01*
X82002380Y-135746904D01*
X82002380Y-135508809D01*
X82050000Y-135365952D01*
X82002380Y-135080238D02*
X82002380Y-134508809D01*
X83002380Y-134794523D02*
X82002380Y-134794523D01*
X82716666Y-134223095D02*
X82716666Y-133746904D01*
X83002380Y-134318333D02*
X82002380Y-133985000D01*
X83002380Y-133651666D01*
X82002380Y-133461190D02*
X82002380Y-132889761D01*
X83002380Y-133175476D02*
X82002380Y-133175476D01*
X82954761Y-132604047D02*
X83002380Y-132461190D01*
X83002380Y-132223095D01*
X82954761Y-132127857D01*
X82907142Y-132080238D01*
X82811904Y-132032619D01*
X82716666Y-132032619D01*
X82621428Y-132080238D01*
X82573809Y-132127857D01*
X82526190Y-132223095D01*
X82478571Y-132413571D01*
X82430952Y-132508809D01*
X82383333Y-132556428D01*
X82288095Y-132604047D01*
X82192857Y-132604047D01*
X82097619Y-132556428D01*
X82050000Y-132508809D01*
X82002380Y-132413571D01*
X82002380Y-132175476D01*
X82050000Y-132032619D01*
X76271428Y-122854404D02*
X76271428Y-122092500D01*
X76652380Y-122473452D02*
X75890476Y-122473452D01*
X78811428Y-122854404D02*
X78811428Y-122092500D01*
X68651428Y-122854404D02*
X68651428Y-122092500D01*
X69032380Y-122473452D02*
X68270476Y-122473452D01*
X71191428Y-122854404D02*
X71191428Y-122092500D01*
X63571428Y-122854404D02*
X63571428Y-122092500D01*
X61031428Y-122854404D02*
X61031428Y-122092500D01*
X61412380Y-122473452D02*
X60650476Y-122473452D01*
X97607380Y-128093214D02*
X97607380Y-128569404D01*
X96607380Y-128569404D01*
X97083571Y-127759880D02*
X97083571Y-127426547D01*
X97607380Y-127283690D02*
X97607380Y-127759880D01*
X96607380Y-127759880D01*
X96607380Y-127283690D01*
X97607380Y-126855119D02*
X96607380Y-126855119D01*
X96607380Y-126617023D01*
X96655000Y-126474166D01*
X96750238Y-126378928D01*
X96845476Y-126331309D01*
X97035952Y-126283690D01*
X97178809Y-126283690D01*
X97369285Y-126331309D01*
X97464523Y-126378928D01*
X97559761Y-126474166D01*
X97607380Y-126617023D01*
X97607380Y-126855119D01*
X94543571Y-128236071D02*
X94591190Y-128093214D01*
X94638809Y-128045595D01*
X94734047Y-127997976D01*
X94876904Y-127997976D01*
X94972142Y-128045595D01*
X95019761Y-128093214D01*
X95067380Y-128188452D01*
X95067380Y-128569404D01*
X94067380Y-128569404D01*
X94067380Y-128236071D01*
X94115000Y-128140833D01*
X94162619Y-128093214D01*
X94257857Y-128045595D01*
X94353095Y-128045595D01*
X94448333Y-128093214D01*
X94495952Y-128140833D01*
X94543571Y-128236071D01*
X94543571Y-128569404D01*
X94067380Y-127712261D02*
X94067380Y-127140833D01*
X95067380Y-127426547D02*
X94067380Y-127426547D01*
X95067380Y-126807500D02*
X94067380Y-126807500D01*
X95067380Y-126236071D01*
X94067380Y-126236071D01*
X91575000Y-128045595D02*
X91527380Y-128140833D01*
X91527380Y-128283690D01*
X91575000Y-128426547D01*
X91670238Y-128521785D01*
X91765476Y-128569404D01*
X91955952Y-128617023D01*
X92098809Y-128617023D01*
X92289285Y-128569404D01*
X92384523Y-128521785D01*
X92479761Y-128426547D01*
X92527380Y-128283690D01*
X92527380Y-128188452D01*
X92479761Y-128045595D01*
X92432142Y-127997976D01*
X92098809Y-127997976D01*
X92098809Y-128188452D01*
X92527380Y-127569404D02*
X91527380Y-127569404D01*
X92527380Y-126997976D01*
X91527380Y-126997976D01*
X92527380Y-126521785D02*
X91527380Y-126521785D01*
X91527380Y-126283690D01*
X91575000Y-126140833D01*
X91670238Y-126045595D01*
X91765476Y-125997976D01*
X91955952Y-125950357D01*
X92098809Y-125950357D01*
X92289285Y-125997976D01*
X92384523Y-126045595D01*
X92479761Y-126140833D01*
X92527380Y-126283690D01*
X92527380Y-126521785D01*
X89035000Y-128045595D02*
X88987380Y-128140833D01*
X88987380Y-128283690D01*
X89035000Y-128426547D01*
X89130238Y-128521785D01*
X89225476Y-128569404D01*
X89415952Y-128617023D01*
X89558809Y-128617023D01*
X89749285Y-128569404D01*
X89844523Y-128521785D01*
X89939761Y-128426547D01*
X89987380Y-128283690D01*
X89987380Y-128188452D01*
X89939761Y-128045595D01*
X89892142Y-127997976D01*
X89558809Y-127997976D01*
X89558809Y-128188452D01*
X89987380Y-127569404D02*
X88987380Y-127569404D01*
X89987380Y-126997976D01*
X88987380Y-126997976D01*
X89987380Y-126521785D02*
X88987380Y-126521785D01*
X88987380Y-126283690D01*
X89035000Y-126140833D01*
X89130238Y-126045595D01*
X89225476Y-125997976D01*
X89415952Y-125950357D01*
X89558809Y-125950357D01*
X89749285Y-125997976D01*
X89844523Y-126045595D01*
X89939761Y-126140833D01*
X89987380Y-126283690D01*
X89987380Y-126521785D01*
X60612976Y-147724761D02*
X60755833Y-147772380D01*
X60993928Y-147772380D01*
X61089166Y-147724761D01*
X61136785Y-147677142D01*
X61184404Y-147581904D01*
X61184404Y-147486666D01*
X61136785Y-147391428D01*
X61089166Y-147343809D01*
X60993928Y-147296190D01*
X60803452Y-147248571D01*
X60708214Y-147200952D01*
X60660595Y-147153333D01*
X60612976Y-147058095D01*
X60612976Y-146962857D01*
X60660595Y-146867619D01*
X60708214Y-146820000D01*
X60803452Y-146772380D01*
X61041547Y-146772380D01*
X61184404Y-146820000D01*
X61612976Y-147772380D02*
X61612976Y-146772380D01*
X61851071Y-146772380D01*
X61993928Y-146820000D01*
X62089166Y-146915238D01*
X62136785Y-147010476D01*
X62184404Y-147200952D01*
X62184404Y-147343809D01*
X62136785Y-147534285D01*
X62089166Y-147629523D01*
X61993928Y-147724761D01*
X61851071Y-147772380D01*
X61612976Y-147772380D01*
X62565357Y-147486666D02*
X63041547Y-147486666D01*
X62470119Y-147772380D02*
X62803452Y-146772380D01*
X63136785Y-147772380D01*
X60612976Y-150264761D02*
X60755833Y-150312380D01*
X60993928Y-150312380D01*
X61089166Y-150264761D01*
X61136785Y-150217142D01*
X61184404Y-150121904D01*
X61184404Y-150026666D01*
X61136785Y-149931428D01*
X61089166Y-149883809D01*
X60993928Y-149836190D01*
X60803452Y-149788571D01*
X60708214Y-149740952D01*
X60660595Y-149693333D01*
X60612976Y-149598095D01*
X60612976Y-149502857D01*
X60660595Y-149407619D01*
X60708214Y-149360000D01*
X60803452Y-149312380D01*
X61041547Y-149312380D01*
X61184404Y-149360000D01*
X62184404Y-150217142D02*
X62136785Y-150264761D01*
X61993928Y-150312380D01*
X61898690Y-150312380D01*
X61755833Y-150264761D01*
X61660595Y-150169523D01*
X61612976Y-150074285D01*
X61565357Y-149883809D01*
X61565357Y-149740952D01*
X61612976Y-149550476D01*
X61660595Y-149455238D01*
X61755833Y-149360000D01*
X61898690Y-149312380D01*
X61993928Y-149312380D01*
X62136785Y-149360000D01*
X62184404Y-149407619D01*
X63089166Y-150312380D02*
X62612976Y-150312380D01*
X62612976Y-149312380D01*
X60565357Y-151852380D02*
X61184404Y-151852380D01*
X60851071Y-152233333D01*
X60993928Y-152233333D01*
X61089166Y-152280952D01*
X61136785Y-152328571D01*
X61184404Y-152423809D01*
X61184404Y-152661904D01*
X61136785Y-152757142D01*
X61089166Y-152804761D01*
X60993928Y-152852380D01*
X60708214Y-152852380D01*
X60612976Y-152804761D01*
X60565357Y-152757142D01*
X61470119Y-151852380D02*
X61803452Y-152852380D01*
X62136785Y-151852380D01*
X62374880Y-151852380D02*
X62993928Y-151852380D01*
X62660595Y-152233333D01*
X62803452Y-152233333D01*
X62898690Y-152280952D01*
X62946309Y-152328571D01*
X62993928Y-152423809D01*
X62993928Y-152661904D01*
X62946309Y-152757142D01*
X62898690Y-152804761D01*
X62803452Y-152852380D01*
X62517738Y-152852380D01*
X62422500Y-152804761D01*
X62374880Y-152757142D01*
X61184404Y-154440000D02*
X61089166Y-154392380D01*
X60946309Y-154392380D01*
X60803452Y-154440000D01*
X60708214Y-154535238D01*
X60660595Y-154630476D01*
X60612976Y-154820952D01*
X60612976Y-154963809D01*
X60660595Y-155154285D01*
X60708214Y-155249523D01*
X60803452Y-155344761D01*
X60946309Y-155392380D01*
X61041547Y-155392380D01*
X61184404Y-155344761D01*
X61232023Y-155297142D01*
X61232023Y-154963809D01*
X61041547Y-154963809D01*
X61660595Y-155392380D02*
X61660595Y-154392380D01*
X62232023Y-155392380D01*
X62232023Y-154392380D01*
X62708214Y-155392380D02*
X62708214Y-154392380D01*
X62946309Y-154392380D01*
X63089166Y-154440000D01*
X63184404Y-154535238D01*
X63232023Y-154630476D01*
X63279642Y-154820952D01*
X63279642Y-154963809D01*
X63232023Y-155154285D01*
X63184404Y-155249523D01*
X63089166Y-155344761D01*
X62946309Y-155392380D01*
X62708214Y-155392380D01*
X61184404Y-142375000D02*
X61089166Y-142327380D01*
X60946309Y-142327380D01*
X60803452Y-142375000D01*
X60708214Y-142470238D01*
X60660595Y-142565476D01*
X60612976Y-142755952D01*
X60612976Y-142898809D01*
X60660595Y-143089285D01*
X60708214Y-143184523D01*
X60803452Y-143279761D01*
X60946309Y-143327380D01*
X61041547Y-143327380D01*
X61184404Y-143279761D01*
X61232023Y-143232142D01*
X61232023Y-142898809D01*
X61041547Y-142898809D01*
X61660595Y-143327380D02*
X61660595Y-142327380D01*
X62232023Y-143327380D01*
X62232023Y-142327380D01*
X62708214Y-143327380D02*
X62708214Y-142327380D01*
X62946309Y-142327380D01*
X63089166Y-142375000D01*
X63184404Y-142470238D01*
X63232023Y-142565476D01*
X63279642Y-142755952D01*
X63279642Y-142898809D01*
X63232023Y-143089285D01*
X63184404Y-143184523D01*
X63089166Y-143279761D01*
X62946309Y-143327380D01*
X62708214Y-143327380D01*
X60565357Y-139787380D02*
X61184404Y-139787380D01*
X60851071Y-140168333D01*
X60993928Y-140168333D01*
X61089166Y-140215952D01*
X61136785Y-140263571D01*
X61184404Y-140358809D01*
X61184404Y-140596904D01*
X61136785Y-140692142D01*
X61089166Y-140739761D01*
X60993928Y-140787380D01*
X60708214Y-140787380D01*
X60612976Y-140739761D01*
X60565357Y-140692142D01*
X61470119Y-139787380D02*
X61803452Y-140787380D01*
X62136785Y-139787380D01*
X62374880Y-139787380D02*
X62993928Y-139787380D01*
X62660595Y-140168333D01*
X62803452Y-140168333D01*
X62898690Y-140215952D01*
X62946309Y-140263571D01*
X62993928Y-140358809D01*
X62993928Y-140596904D01*
X62946309Y-140692142D01*
X62898690Y-140739761D01*
X62803452Y-140787380D01*
X62517738Y-140787380D01*
X62422500Y-140739761D01*
X62374880Y-140692142D01*
X60993928Y-137723571D02*
X61136785Y-137771190D01*
X61184404Y-137818809D01*
X61232023Y-137914047D01*
X61232023Y-138056904D01*
X61184404Y-138152142D01*
X61136785Y-138199761D01*
X61041547Y-138247380D01*
X60660595Y-138247380D01*
X60660595Y-137247380D01*
X60993928Y-137247380D01*
X61089166Y-137295000D01*
X61136785Y-137342619D01*
X61184404Y-137437857D01*
X61184404Y-137533095D01*
X61136785Y-137628333D01*
X61089166Y-137675952D01*
X60993928Y-137723571D01*
X60660595Y-137723571D01*
X61517738Y-137247380D02*
X62089166Y-137247380D01*
X61803452Y-138247380D02*
X61803452Y-137247380D01*
X62422500Y-138247380D02*
X62422500Y-137247380D01*
X62993928Y-138247380D01*
X62993928Y-137247380D01*
X60660595Y-135707380D02*
X60660595Y-134707380D01*
X60898690Y-134707380D01*
X61041547Y-134755000D01*
X61136785Y-134850238D01*
X61184404Y-134945476D01*
X61232023Y-135135952D01*
X61232023Y-135278809D01*
X61184404Y-135469285D01*
X61136785Y-135564523D01*
X61041547Y-135659761D01*
X60898690Y-135707380D01*
X60660595Y-135707380D01*
X61517738Y-134707380D02*
X62089166Y-134707380D01*
X61803452Y-135707380D02*
X61803452Y-134707380D01*
X62374880Y-135421666D02*
X62851071Y-135421666D01*
X62279642Y-135707380D02*
X62612976Y-134707380D01*
X62946309Y-135707380D01*
X61232023Y-133072142D02*
X61184404Y-133119761D01*
X61041547Y-133167380D01*
X60946309Y-133167380D01*
X60803452Y-133119761D01*
X60708214Y-133024523D01*
X60660595Y-132929285D01*
X60612976Y-132738809D01*
X60612976Y-132595952D01*
X60660595Y-132405476D01*
X60708214Y-132310238D01*
X60803452Y-132215000D01*
X60946309Y-132167380D01*
X61041547Y-132167380D01*
X61184404Y-132215000D01*
X61232023Y-132262619D01*
X62136785Y-133167380D02*
X61660595Y-133167380D01*
X61660595Y-132167380D01*
X62470119Y-133167380D02*
X62470119Y-132167380D01*
X63041547Y-133167380D02*
X62612976Y-132595952D01*
X63041547Y-132167380D02*
X62470119Y-132738809D01*
X121054761Y-141136428D02*
X121102380Y-140993571D01*
X121102380Y-140755476D01*
X121054761Y-140660238D01*
X121007142Y-140612619D01*
X120911904Y-140565000D01*
X120816666Y-140565000D01*
X120721428Y-140612619D01*
X120673809Y-140660238D01*
X120626190Y-140755476D01*
X120578571Y-140945952D01*
X120530952Y-141041190D01*
X120483333Y-141088809D01*
X120388095Y-141136428D01*
X120292857Y-141136428D01*
X120197619Y-141088809D01*
X120150000Y-141041190D01*
X120102380Y-140945952D01*
X120102380Y-140707857D01*
X120150000Y-140565000D01*
X121007142Y-139565000D02*
X121054761Y-139612619D01*
X121102380Y-139755476D01*
X121102380Y-139850714D01*
X121054761Y-139993571D01*
X120959523Y-140088809D01*
X120864285Y-140136428D01*
X120673809Y-140184047D01*
X120530952Y-140184047D01*
X120340476Y-140136428D01*
X120245238Y-140088809D01*
X120150000Y-139993571D01*
X120102380Y-139850714D01*
X120102380Y-139755476D01*
X120150000Y-139612619D01*
X120197619Y-139565000D01*
X120816666Y-139184047D02*
X120816666Y-138707857D01*
X121102380Y-139279285D02*
X120102380Y-138945952D01*
X121102380Y-138612619D01*
X121102380Y-137803095D02*
X121102380Y-138279285D01*
X120102380Y-138279285D01*
X120578571Y-137469761D02*
X120578571Y-137136428D01*
X121102380Y-136993571D02*
X121102380Y-137469761D01*
X120102380Y-137469761D01*
X120102380Y-136993571D01*
X135818571Y-145644523D02*
X135866190Y-145501666D01*
X135913809Y-145454047D01*
X136009047Y-145406428D01*
X136151904Y-145406428D01*
X136247142Y-145454047D01*
X136294761Y-145501666D01*
X136342380Y-145596904D01*
X136342380Y-145977857D01*
X135342380Y-145977857D01*
X135342380Y-145644523D01*
X135390000Y-145549285D01*
X135437619Y-145501666D01*
X135532857Y-145454047D01*
X135628095Y-145454047D01*
X135723333Y-145501666D01*
X135770952Y-145549285D01*
X135818571Y-145644523D01*
X135818571Y-145977857D01*
X135342380Y-144787380D02*
X135342380Y-144596904D01*
X135390000Y-144501666D01*
X135485238Y-144406428D01*
X135675714Y-144358809D01*
X136009047Y-144358809D01*
X136199523Y-144406428D01*
X136294761Y-144501666D01*
X136342380Y-144596904D01*
X136342380Y-144787380D01*
X136294761Y-144882619D01*
X136199523Y-144977857D01*
X136009047Y-145025476D01*
X135675714Y-145025476D01*
X135485238Y-144977857D01*
X135390000Y-144882619D01*
X135342380Y-144787380D01*
X136342380Y-143930238D02*
X135342380Y-143930238D01*
X136342380Y-142977857D02*
X136342380Y-143454047D01*
X135342380Y-143454047D01*
X135818571Y-142644523D02*
X135818571Y-142311190D01*
X136342380Y-142168333D02*
X136342380Y-142644523D01*
X135342380Y-142644523D01*
X135342380Y-142168333D01*
X136342380Y-141168333D02*
X135866190Y-141501666D01*
X136342380Y-141739761D02*
X135342380Y-141739761D01*
X135342380Y-141358809D01*
X135390000Y-141263571D01*
X135437619Y-141215952D01*
X135532857Y-141168333D01*
X135675714Y-141168333D01*
X135770952Y-141215952D01*
X135818571Y-141263571D01*
X135866190Y-141358809D01*
X135866190Y-141739761D01*
X136437619Y-140977857D02*
X136437619Y-140215952D01*
X135818571Y-139644523D02*
X135866190Y-139501666D01*
X135913809Y-139454047D01*
X136009047Y-139406428D01*
X136151904Y-139406428D01*
X136247142Y-139454047D01*
X136294761Y-139501666D01*
X136342380Y-139596904D01*
X136342380Y-139977857D01*
X135342380Y-139977857D01*
X135342380Y-139644523D01*
X135390000Y-139549285D01*
X135437619Y-139501666D01*
X135532857Y-139454047D01*
X135628095Y-139454047D01*
X135723333Y-139501666D01*
X135770952Y-139549285D01*
X135818571Y-139644523D01*
X135818571Y-139977857D01*
X135342380Y-138787380D02*
X135342380Y-138596904D01*
X135390000Y-138501666D01*
X135485238Y-138406428D01*
X135675714Y-138358809D01*
X136009047Y-138358809D01*
X136199523Y-138406428D01*
X136294761Y-138501666D01*
X136342380Y-138596904D01*
X136342380Y-138787380D01*
X136294761Y-138882619D01*
X136199523Y-138977857D01*
X136009047Y-139025476D01*
X135675714Y-139025476D01*
X135485238Y-138977857D01*
X135390000Y-138882619D01*
X135342380Y-138787380D01*
X135342380Y-138073095D02*
X135342380Y-137501666D01*
X136342380Y-137787380D02*
X135342380Y-137787380D01*
X135342380Y-137311190D02*
X135342380Y-136739761D01*
X136342380Y-137025476D02*
X135342380Y-137025476D01*
X135342380Y-136215952D02*
X135342380Y-136025476D01*
X135390000Y-135930238D01*
X135485238Y-135835000D01*
X135675714Y-135787380D01*
X136009047Y-135787380D01*
X136199523Y-135835000D01*
X136294761Y-135930238D01*
X136342380Y-136025476D01*
X136342380Y-136215952D01*
X136294761Y-136311190D01*
X136199523Y-136406428D01*
X136009047Y-136454047D01*
X135675714Y-136454047D01*
X135485238Y-136406428D01*
X135390000Y-136311190D01*
X135342380Y-136215952D01*
X136342380Y-135358809D02*
X135342380Y-135358809D01*
X136056666Y-135025476D01*
X135342380Y-134692142D01*
X136342380Y-134692142D01*
X150423571Y-143533333D02*
X150471190Y-143390476D01*
X150518809Y-143342857D01*
X150614047Y-143295238D01*
X150756904Y-143295238D01*
X150852142Y-143342857D01*
X150899761Y-143390476D01*
X150947380Y-143485714D01*
X150947380Y-143866666D01*
X149947380Y-143866666D01*
X149947380Y-143533333D01*
X149995000Y-143438095D01*
X150042619Y-143390476D01*
X150137857Y-143342857D01*
X150233095Y-143342857D01*
X150328333Y-143390476D01*
X150375952Y-143438095D01*
X150423571Y-143533333D01*
X150423571Y-143866666D01*
X149947380Y-142676190D02*
X149947380Y-142485714D01*
X149995000Y-142390476D01*
X150090238Y-142295238D01*
X150280714Y-142247619D01*
X150614047Y-142247619D01*
X150804523Y-142295238D01*
X150899761Y-142390476D01*
X150947380Y-142485714D01*
X150947380Y-142676190D01*
X150899761Y-142771428D01*
X150804523Y-142866666D01*
X150614047Y-142914285D01*
X150280714Y-142914285D01*
X150090238Y-142866666D01*
X149995000Y-142771428D01*
X149947380Y-142676190D01*
X150947380Y-141819047D02*
X149947380Y-141819047D01*
X150947380Y-140866666D02*
X150947380Y-141342857D01*
X149947380Y-141342857D01*
X150423571Y-140533333D02*
X150423571Y-140200000D01*
X150947380Y-140057142D02*
X150947380Y-140533333D01*
X149947380Y-140533333D01*
X149947380Y-140057142D01*
X150947380Y-139057142D02*
X150471190Y-139390476D01*
X150947380Y-139628571D02*
X149947380Y-139628571D01*
X149947380Y-139247619D01*
X149995000Y-139152380D01*
X150042619Y-139104761D01*
X150137857Y-139057142D01*
X150280714Y-139057142D01*
X150375952Y-139104761D01*
X150423571Y-139152380D01*
X150471190Y-139247619D01*
X150471190Y-139628571D01*
X151042619Y-138866666D02*
X151042619Y-138104761D01*
X149947380Y-138009523D02*
X149947380Y-137438095D01*
X150947380Y-137723809D02*
X149947380Y-137723809D01*
X149947380Y-136914285D02*
X149947380Y-136723809D01*
X149995000Y-136628571D01*
X150090238Y-136533333D01*
X150280714Y-136485714D01*
X150614047Y-136485714D01*
X150804523Y-136533333D01*
X150899761Y-136628571D01*
X150947380Y-136723809D01*
X150947380Y-136914285D01*
X150899761Y-137009523D01*
X150804523Y-137104761D01*
X150614047Y-137152380D01*
X150280714Y-137152380D01*
X150090238Y-137104761D01*
X149995000Y-137009523D01*
X149947380Y-136914285D01*
X150947380Y-136057142D02*
X149947380Y-136057142D01*
X149947380Y-135676190D01*
X149995000Y-135580952D01*
X150042619Y-135533333D01*
X150137857Y-135485714D01*
X150280714Y-135485714D01*
X150375952Y-135533333D01*
X150423571Y-135580952D01*
X150471190Y-135676190D01*
X150471190Y-136057142D01*
D11*
%TO.C,R10*%
X117760000Y-150510000D02*
X117760000Y-146670000D01*
X115920000Y-150510000D02*
X115920000Y-146670000D01*
%TO.C,C3*%
X87710000Y-141240000D02*
G75*
G03*
X87710000Y-141240000I-2620000J0D01*
G01*
X86130000Y-141240000D02*
X87670000Y-141240000D01*
X82510000Y-141240000D02*
X84050000Y-141240000D01*
X86130000Y-141200000D02*
X87670000Y-141200000D01*
X82510000Y-141200000D02*
X84050000Y-141200000D01*
X82511000Y-141160000D02*
X84050000Y-141160000D01*
X86130000Y-141160000D02*
X87669000Y-141160000D01*
X82512000Y-141120000D02*
X84050000Y-141120000D01*
X86130000Y-141120000D02*
X87668000Y-141120000D01*
X82514000Y-141080000D02*
X84050000Y-141080000D01*
X86130000Y-141080000D02*
X87666000Y-141080000D01*
X82517000Y-141040000D02*
X84050000Y-141040000D01*
X86130000Y-141040000D02*
X87663000Y-141040000D01*
X82521000Y-141000000D02*
X84050000Y-141000000D01*
X86130000Y-141000000D02*
X87659000Y-141000000D01*
X82525000Y-140960000D02*
X84050000Y-140960000D01*
X86130000Y-140960000D02*
X87655000Y-140960000D01*
X82529000Y-140920000D02*
X84050000Y-140920000D01*
X86130000Y-140920000D02*
X87651000Y-140920000D01*
X82534000Y-140880000D02*
X84050000Y-140880000D01*
X86130000Y-140880000D02*
X87646000Y-140880000D01*
X82540000Y-140840000D02*
X84050000Y-140840000D01*
X86130000Y-140840000D02*
X87640000Y-140840000D01*
X82547000Y-140800000D02*
X84050000Y-140800000D01*
X86130000Y-140800000D02*
X87633000Y-140800000D01*
X82554000Y-140760000D02*
X84050000Y-140760000D01*
X86130000Y-140760000D02*
X87626000Y-140760000D01*
X82562000Y-140720000D02*
X84050000Y-140720000D01*
X86130000Y-140720000D02*
X87618000Y-140720000D01*
X82570000Y-140680000D02*
X84050000Y-140680000D01*
X86130000Y-140680000D02*
X87610000Y-140680000D01*
X82579000Y-140640000D02*
X84050000Y-140640000D01*
X86130000Y-140640000D02*
X87601000Y-140640000D01*
X82589000Y-140600000D02*
X84050000Y-140600000D01*
X86130000Y-140600000D02*
X87591000Y-140600000D01*
X82599000Y-140560000D02*
X84050000Y-140560000D01*
X86130000Y-140560000D02*
X87581000Y-140560000D01*
X82610000Y-140519000D02*
X84050000Y-140519000D01*
X86130000Y-140519000D02*
X87570000Y-140519000D01*
X82622000Y-140479000D02*
X84050000Y-140479000D01*
X86130000Y-140479000D02*
X87558000Y-140479000D01*
X82635000Y-140439000D02*
X84050000Y-140439000D01*
X86130000Y-140439000D02*
X87545000Y-140439000D01*
X82648000Y-140399000D02*
X84050000Y-140399000D01*
X86130000Y-140399000D02*
X87532000Y-140399000D01*
X82662000Y-140359000D02*
X84050000Y-140359000D01*
X86130000Y-140359000D02*
X87518000Y-140359000D01*
X82676000Y-140319000D02*
X84050000Y-140319000D01*
X86130000Y-140319000D02*
X87504000Y-140319000D01*
X82692000Y-140279000D02*
X84050000Y-140279000D01*
X86130000Y-140279000D02*
X87488000Y-140279000D01*
X82708000Y-140239000D02*
X84050000Y-140239000D01*
X86130000Y-140239000D02*
X87472000Y-140239000D01*
X82725000Y-140199000D02*
X84050000Y-140199000D01*
X86130000Y-140199000D02*
X87455000Y-140199000D01*
X82742000Y-140159000D02*
X84050000Y-140159000D01*
X86130000Y-140159000D02*
X87438000Y-140159000D01*
X82761000Y-140119000D02*
X84050000Y-140119000D01*
X86130000Y-140119000D02*
X87419000Y-140119000D01*
X82780000Y-140079000D02*
X84050000Y-140079000D01*
X86130000Y-140079000D02*
X87400000Y-140079000D01*
X82800000Y-140039000D02*
X84050000Y-140039000D01*
X86130000Y-140039000D02*
X87380000Y-140039000D01*
X82822000Y-139999000D02*
X84050000Y-139999000D01*
X86130000Y-139999000D02*
X87358000Y-139999000D01*
X82843000Y-139959000D02*
X84050000Y-139959000D01*
X86130000Y-139959000D02*
X87337000Y-139959000D01*
X82866000Y-139919000D02*
X84050000Y-139919000D01*
X86130000Y-139919000D02*
X87314000Y-139919000D01*
X82890000Y-139879000D02*
X84050000Y-139879000D01*
X86130000Y-139879000D02*
X87290000Y-139879000D01*
X82915000Y-139839000D02*
X84050000Y-139839000D01*
X86130000Y-139839000D02*
X87265000Y-139839000D01*
X82941000Y-139799000D02*
X84050000Y-139799000D01*
X86130000Y-139799000D02*
X87239000Y-139799000D01*
X82968000Y-139759000D02*
X84050000Y-139759000D01*
X86130000Y-139759000D02*
X87212000Y-139759000D01*
X82995000Y-139719000D02*
X84050000Y-139719000D01*
X86130000Y-139719000D02*
X87185000Y-139719000D01*
X83025000Y-139679000D02*
X84050000Y-139679000D01*
X86130000Y-139679000D02*
X87155000Y-139679000D01*
X83055000Y-139639000D02*
X84050000Y-139639000D01*
X86130000Y-139639000D02*
X87125000Y-139639000D01*
X83086000Y-139599000D02*
X84050000Y-139599000D01*
X86130000Y-139599000D02*
X87094000Y-139599000D01*
X83119000Y-139559000D02*
X84050000Y-139559000D01*
X86130000Y-139559000D02*
X87061000Y-139559000D01*
X83153000Y-139519000D02*
X84050000Y-139519000D01*
X86130000Y-139519000D02*
X87027000Y-139519000D01*
X83189000Y-139479000D02*
X84050000Y-139479000D01*
X86130000Y-139479000D02*
X86991000Y-139479000D01*
X83226000Y-139439000D02*
X84050000Y-139439000D01*
X86130000Y-139439000D02*
X86954000Y-139439000D01*
X83264000Y-139399000D02*
X84050000Y-139399000D01*
X86130000Y-139399000D02*
X86916000Y-139399000D01*
X83305000Y-139359000D02*
X84050000Y-139359000D01*
X86130000Y-139359000D02*
X86875000Y-139359000D01*
X83347000Y-139319000D02*
X84050000Y-139319000D01*
X86130000Y-139319000D02*
X86833000Y-139319000D01*
X83391000Y-139279000D02*
X84050000Y-139279000D01*
X86130000Y-139279000D02*
X86789000Y-139279000D01*
X83437000Y-139239000D02*
X84050000Y-139239000D01*
X86130000Y-139239000D02*
X86743000Y-139239000D01*
X83485000Y-139199000D02*
X86695000Y-139199000D01*
X83536000Y-139159000D02*
X86644000Y-139159000D01*
X83590000Y-139119000D02*
X86590000Y-139119000D01*
X83647000Y-139079000D02*
X86533000Y-139079000D01*
X83707000Y-139039000D02*
X86473000Y-139039000D01*
X83771000Y-138999000D02*
X86409000Y-138999000D01*
X83839000Y-138959000D02*
X86341000Y-138959000D01*
X83912000Y-138919000D02*
X86268000Y-138919000D01*
X83992000Y-138879000D02*
X86188000Y-138879000D01*
X84079000Y-138839000D02*
X86101000Y-138839000D01*
X84175000Y-138799000D02*
X86005000Y-138799000D01*
X84285000Y-138759000D02*
X85895000Y-138759000D01*
X84413000Y-138719000D02*
X85767000Y-138719000D01*
X84572000Y-138679000D02*
X85608000Y-138679000D01*
X84806000Y-138639000D02*
X85374000Y-138639000D01*
X83615000Y-144044775D02*
X83615000Y-143544775D01*
X83365000Y-143794775D02*
X83865000Y-143794775D01*
%TO.C,R13*%
X108235000Y-132730000D02*
X108235000Y-128890000D01*
X106395000Y-132730000D02*
X106395000Y-128890000D01*
%TO.C,R12*%
X123475000Y-132730000D02*
X123475000Y-128890000D01*
X121635000Y-132730000D02*
X121635000Y-128890000D01*
%TO.C,R11*%
X138715000Y-132730000D02*
X138715000Y-128890000D01*
X136875000Y-132730000D02*
X136875000Y-128890000D01*
%TO.C,R9*%
X115220000Y-150510000D02*
X115220000Y-146670000D01*
X113380000Y-150510000D02*
X113380000Y-146670000D01*
%TO.C,R8*%
X126650000Y-150510000D02*
X126650000Y-146670000D01*
X124810000Y-150510000D02*
X124810000Y-146670000D01*
%TO.C,R7*%
X129190000Y-150510000D02*
X129190000Y-146670000D01*
X127350000Y-150510000D02*
X127350000Y-146670000D01*
%TO.C,R6*%
X139350000Y-150510000D02*
X139350000Y-146670000D01*
X137510000Y-150510000D02*
X137510000Y-146670000D01*
%TO.C,R5*%
X144430000Y-150510000D02*
X144430000Y-146670000D01*
X142590000Y-150510000D02*
X142590000Y-146670000D01*
%TO.C,R4*%
X120300000Y-150510000D02*
X120300000Y-146670000D01*
X118460000Y-150510000D02*
X118460000Y-146670000D01*
%TO.C,R3*%
X131730000Y-150510000D02*
X131730000Y-146670000D01*
X129890000Y-150510000D02*
X129890000Y-146670000D01*
%TO.C,R2*%
X141890000Y-150510000D02*
X141890000Y-146670000D01*
X140050000Y-150510000D02*
X140050000Y-146670000D01*
D10*
%TO.C,U1*%
X76200000Y-166370000D02*
X76200000Y-165100000D01*
X68580000Y-166370000D02*
X76200000Y-166370000D01*
X68580000Y-165100000D02*
X68580000Y-166370000D01*
X63500000Y-129540000D02*
X63500000Y-165100000D01*
X81280000Y-129540000D02*
X63500000Y-129540000D01*
X81280000Y-165100000D02*
X81280000Y-129540000D01*
X63500000Y-165100000D02*
X81280000Y-165100000D01*
D11*
%TO.C,R15*%
X79390000Y-128555000D02*
X75550000Y-128555000D01*
X79390000Y-126715000D02*
X75550000Y-126715000D01*
%TO.C,R14*%
X71770000Y-128555000D02*
X67930000Y-128555000D01*
X71770000Y-126715000D02*
X67930000Y-126715000D01*
%TO.C,J10*%
X80070000Y-125790000D02*
X80070000Y-123130000D01*
X77470000Y-125790000D02*
X80070000Y-125790000D01*
X77470000Y-123130000D02*
X80070000Y-123130000D01*
X77470000Y-125790000D02*
X77470000Y-123130000D01*
X76200000Y-125790000D02*
X74870000Y-125790000D01*
X74870000Y-125790000D02*
X74870000Y-124460000D01*
%TO.C,J9*%
X72450000Y-125790000D02*
X72450000Y-123130000D01*
X69850000Y-125790000D02*
X72450000Y-125790000D01*
X69850000Y-123130000D02*
X72450000Y-123130000D01*
X69850000Y-125790000D02*
X69850000Y-123130000D01*
X68580000Y-125790000D02*
X67250000Y-125790000D01*
X67250000Y-125790000D02*
X67250000Y-124460000D01*
%TO.C,U5*%
X109160000Y-131810000D02*
X109160000Y-133460000D01*
X109160000Y-133460000D02*
X119440000Y-133460000D01*
X119440000Y-133460000D02*
X119440000Y-128160000D01*
X119440000Y-128160000D02*
X109160000Y-128160000D01*
X109160000Y-128160000D02*
X109160000Y-129810000D01*
X109160000Y-129810000D02*
G75*
G02*
X109160000Y-131810000I0J-1000000D01*
G01*
%TO.C,U4*%
X124400000Y-131810000D02*
X124400000Y-133460000D01*
X124400000Y-133460000D02*
X134680000Y-133460000D01*
X134680000Y-133460000D02*
X134680000Y-128160000D01*
X134680000Y-128160000D02*
X124400000Y-128160000D01*
X124400000Y-128160000D02*
X124400000Y-129810000D01*
X124400000Y-129810000D02*
G75*
G02*
X124400000Y-131810000I0J-1000000D01*
G01*
%TO.C,U3*%
X139640000Y-131810000D02*
X139640000Y-133460000D01*
X139640000Y-133460000D02*
X149920000Y-133460000D01*
X149920000Y-133460000D02*
X149920000Y-128160000D01*
X149920000Y-128160000D02*
X139640000Y-128160000D01*
X139640000Y-128160000D02*
X139640000Y-129810000D01*
X139640000Y-129810000D02*
G75*
G02*
X139640000Y-131810000I0J-1000000D01*
G01*
%TO.C,U2*%
X82490000Y-154035000D02*
X82490000Y-155685000D01*
X82490000Y-155685000D02*
X92770000Y-155685000D01*
X92770000Y-155685000D02*
X92770000Y-150385000D01*
X92770000Y-150385000D02*
X82490000Y-150385000D01*
X82490000Y-150385000D02*
X82490000Y-152035000D01*
X82490000Y-152035000D02*
G75*
G02*
X82490000Y-154035000I0J-1000000D01*
G01*
%TO.C,R1*%
X64150000Y-128555000D02*
X60310000Y-128555000D01*
X64150000Y-126715000D02*
X60310000Y-126715000D01*
%TO.C,Q1*%
X100370000Y-143605000D02*
X90130000Y-143605000D01*
X100370000Y-138964000D02*
X90130000Y-138964000D01*
X100370000Y-143605000D02*
X100370000Y-138964000D01*
X90130000Y-143605000D02*
X90130000Y-138964000D01*
X100370000Y-142095000D02*
X90130000Y-142095000D01*
X97100000Y-143605000D02*
X97100000Y-142095000D01*
X93399000Y-143605000D02*
X93399000Y-142095000D01*
%TO.C,L1*%
X109125000Y-152865000D02*
X109125000Y-148125000D01*
X109125000Y-148125000D02*
X97885000Y-148125000D01*
X97885000Y-148125000D02*
X97885000Y-152865000D01*
X97885000Y-152865000D02*
X109125000Y-152865000D01*
X109885000Y-150495000D02*
X109125000Y-150495000D01*
X97125000Y-150495000D02*
X97885000Y-150495000D01*
%TO.C,J8*%
X57725000Y-144205000D02*
X60385000Y-144205000D01*
X57725000Y-133985000D02*
X57725000Y-144205000D01*
X60385000Y-133985000D02*
X60385000Y-144205000D01*
X57725000Y-133985000D02*
X60385000Y-133985000D01*
X57725000Y-132715000D02*
X57725000Y-131385000D01*
X57725000Y-131385000D02*
X59055000Y-131385000D01*
%TO.C,J7*%
X93920000Y-132655000D02*
X93920000Y-135315000D01*
X101600000Y-132655000D02*
X93920000Y-132655000D01*
X101600000Y-135315000D02*
X93920000Y-135315000D01*
X101600000Y-132655000D02*
X101600000Y-135315000D01*
X102870000Y-132655000D02*
X104200000Y-132655000D01*
X104200000Y-132655000D02*
X104200000Y-133985000D01*
%TO.C,J6*%
X57725000Y-156270000D02*
X60385000Y-156270000D01*
X57725000Y-148590000D02*
X57725000Y-156270000D01*
X60385000Y-148590000D02*
X60385000Y-156270000D01*
X57725000Y-148590000D02*
X60385000Y-148590000D01*
X57725000Y-147320000D02*
X57725000Y-145990000D01*
X57725000Y-145990000D02*
X59055000Y-145990000D01*
%TO.C,J5*%
X64830000Y-125790000D02*
X64830000Y-123130000D01*
X62230000Y-125790000D02*
X64830000Y-125790000D01*
X62230000Y-123130000D02*
X64830000Y-123130000D01*
X62230000Y-125790000D02*
X62230000Y-123130000D01*
X60960000Y-125790000D02*
X59630000Y-125790000D01*
X59630000Y-125790000D02*
X59630000Y-124460000D01*
%TO.C,J4*%
X98485000Y-131505000D02*
X98485000Y-128845000D01*
X90805000Y-131505000D02*
X98485000Y-131505000D01*
X90805000Y-128845000D02*
X98485000Y-128845000D01*
X90805000Y-131505000D02*
X90805000Y-128845000D01*
X89535000Y-131505000D02*
X88205000Y-131505000D01*
X88205000Y-131505000D02*
X88205000Y-130175000D01*
%TO.C,J3*%
X85830000Y-122875000D02*
X83170000Y-122875000D01*
X85830000Y-125475000D02*
X85830000Y-122875000D01*
X83170000Y-125475000D02*
X83170000Y-122875000D01*
X85830000Y-125475000D02*
X83170000Y-125475000D01*
X85830000Y-126745000D02*
X85830000Y-128075000D01*
X85830000Y-128075000D02*
X84500000Y-128075000D01*
%TO.C,J2*%
X85785000Y-131385000D02*
X83125000Y-131385000D01*
X85785000Y-133985000D02*
X85785000Y-131385000D01*
X83125000Y-133985000D02*
X83125000Y-131385000D01*
X85785000Y-133985000D02*
X83125000Y-133985000D01*
X85785000Y-135255000D02*
X85785000Y-136585000D01*
X85785000Y-136585000D02*
X84455000Y-136585000D01*
%TO.C,J1*%
X99910000Y-165200000D02*
X99910000Y-154720000D01*
X99910000Y-154720000D02*
X130880000Y-154720000D01*
X130880000Y-154720000D02*
X130880000Y-165200000D01*
X109605000Y-153825662D02*
X110105000Y-153825662D01*
X110105000Y-153825662D02*
X109855000Y-154258675D01*
X109855000Y-154258675D02*
X109605000Y-153825662D01*
%TO.C,D1*%
X91620000Y-147520000D02*
X91620000Y-144580000D01*
X91620000Y-144580000D02*
X86180000Y-144580000D01*
X86180000Y-144580000D02*
X86180000Y-147520000D01*
X86180000Y-147520000D02*
X91620000Y-147520000D01*
X92640000Y-146050000D02*
X91620000Y-146050000D01*
X85160000Y-146050000D02*
X86180000Y-146050000D01*
X90720000Y-147520000D02*
X90720000Y-144580000D01*
X90600000Y-147520000D02*
X90600000Y-144580000D01*
X90840000Y-147520000D02*
X90840000Y-144580000D01*
%TO.C,C15*%
X111590000Y-122104000D02*
X116930000Y-122104000D01*
X111590000Y-125546000D02*
X116930000Y-125546000D01*
X111590000Y-122104000D02*
X111590000Y-122770000D01*
X111590000Y-124880000D02*
X111590000Y-125546000D01*
X116930000Y-122104000D02*
X116930000Y-122770000D01*
X116930000Y-124880000D02*
X116930000Y-125546000D01*
%TO.C,C14*%
X126830000Y-122104000D02*
X132170000Y-122104000D01*
X126830000Y-125546000D02*
X132170000Y-125546000D01*
X126830000Y-122104000D02*
X126830000Y-122770000D01*
X126830000Y-124880000D02*
X126830000Y-125546000D01*
X132170000Y-122104000D02*
X132170000Y-122770000D01*
X132170000Y-124880000D02*
X132170000Y-125546000D01*
%TO.C,C13*%
X142070000Y-122104000D02*
X147410000Y-122104000D01*
X142070000Y-125546000D02*
X147410000Y-125546000D01*
X142070000Y-122104000D02*
X142070000Y-122770000D01*
X142070000Y-124880000D02*
X142070000Y-125546000D01*
X147410000Y-122104000D02*
X147410000Y-122770000D01*
X147410000Y-124880000D02*
X147410000Y-125546000D01*
%TO.C,C12*%
X111309000Y-142410000D02*
X111309000Y-137070000D01*
X114751000Y-142410000D02*
X114751000Y-137070000D01*
X111309000Y-142410000D02*
X111975000Y-142410000D01*
X114085000Y-142410000D02*
X114751000Y-142410000D01*
X111309000Y-137070000D02*
X111975000Y-137070000D01*
X114085000Y-137070000D02*
X114751000Y-137070000D01*
%TO.C,C11*%
X106864000Y-142410000D02*
X106864000Y-137070000D01*
X110306000Y-142410000D02*
X110306000Y-137070000D01*
X106864000Y-142410000D02*
X107530000Y-142410000D01*
X109640000Y-142410000D02*
X110306000Y-142410000D01*
X106864000Y-137070000D02*
X107530000Y-137070000D01*
X109640000Y-137070000D02*
X110306000Y-137070000D01*
%TO.C,C10*%
X115754000Y-142410000D02*
X115754000Y-137070000D01*
X119196000Y-142410000D02*
X119196000Y-137070000D01*
X115754000Y-142410000D02*
X116420000Y-142410000D01*
X118530000Y-142410000D02*
X119196000Y-142410000D01*
X115754000Y-137070000D02*
X116420000Y-137070000D01*
X118530000Y-137070000D02*
X119196000Y-137070000D01*
%TO.C,C9*%
X129991000Y-136990000D02*
X129991000Y-142330000D01*
X126549000Y-136990000D02*
X126549000Y-142330000D01*
X129991000Y-136990000D02*
X129325000Y-136990000D01*
X127215000Y-136990000D02*
X126549000Y-136990000D01*
X129991000Y-142330000D02*
X129325000Y-142330000D01*
X127215000Y-142330000D02*
X126549000Y-142330000D01*
%TO.C,C8*%
X122104000Y-142410000D02*
X122104000Y-137070000D01*
X125546000Y-142410000D02*
X125546000Y-137070000D01*
X122104000Y-142410000D02*
X122770000Y-142410000D01*
X124880000Y-142410000D02*
X125546000Y-142410000D01*
X122104000Y-137070000D02*
X122770000Y-137070000D01*
X124880000Y-137070000D02*
X125546000Y-137070000D01*
%TO.C,C7*%
X130994000Y-142410000D02*
X130994000Y-137070000D01*
X134436000Y-142410000D02*
X134436000Y-137070000D01*
X130994000Y-142410000D02*
X131660000Y-142410000D01*
X133770000Y-142410000D02*
X134436000Y-142410000D01*
X130994000Y-137070000D02*
X131660000Y-137070000D01*
X133770000Y-137070000D02*
X134436000Y-137070000D01*
%TO.C,C6*%
X140786000Y-136990000D02*
X140786000Y-142330000D01*
X137344000Y-136990000D02*
X137344000Y-142330000D01*
X140786000Y-136990000D02*
X140120000Y-136990000D01*
X138010000Y-136990000D02*
X137344000Y-136990000D01*
X140786000Y-142330000D02*
X140120000Y-142330000D01*
X138010000Y-142330000D02*
X137344000Y-142330000D01*
%TO.C,C5*%
X149676000Y-136990000D02*
X149676000Y-142330000D01*
X146234000Y-136990000D02*
X146234000Y-142330000D01*
X149676000Y-136990000D02*
X149010000Y-136990000D01*
X146900000Y-136990000D02*
X146234000Y-136990000D01*
X149676000Y-142330000D02*
X149010000Y-142330000D01*
X146900000Y-142330000D02*
X146234000Y-142330000D01*
%TO.C,C4*%
X141789000Y-142410000D02*
X141789000Y-137070000D01*
X145231000Y-142410000D02*
X145231000Y-137070000D01*
X141789000Y-142410000D02*
X142455000Y-142410000D01*
X144565000Y-142410000D02*
X145231000Y-142410000D01*
X141789000Y-137070000D02*
X142455000Y-137070000D01*
X144565000Y-137070000D02*
X145231000Y-137070000D01*
%TO.C,C2*%
X87075000Y-161560000D02*
G75*
G03*
X87075000Y-161560000I-2620000J0D01*
G01*
X85495000Y-161560000D02*
X87035000Y-161560000D01*
X81875000Y-161560000D02*
X83415000Y-161560000D01*
X85495000Y-161520000D02*
X87035000Y-161520000D01*
X81875000Y-161520000D02*
X83415000Y-161520000D01*
X81876000Y-161480000D02*
X83415000Y-161480000D01*
X85495000Y-161480000D02*
X87034000Y-161480000D01*
X81877000Y-161440000D02*
X83415000Y-161440000D01*
X85495000Y-161440000D02*
X87033000Y-161440000D01*
X81879000Y-161400000D02*
X83415000Y-161400000D01*
X85495000Y-161400000D02*
X87031000Y-161400000D01*
X81882000Y-161360000D02*
X83415000Y-161360000D01*
X85495000Y-161360000D02*
X87028000Y-161360000D01*
X81886000Y-161320000D02*
X83415000Y-161320000D01*
X85495000Y-161320000D02*
X87024000Y-161320000D01*
X81890000Y-161280000D02*
X83415000Y-161280000D01*
X85495000Y-161280000D02*
X87020000Y-161280000D01*
X81894000Y-161240000D02*
X83415000Y-161240000D01*
X85495000Y-161240000D02*
X87016000Y-161240000D01*
X81899000Y-161200000D02*
X83415000Y-161200000D01*
X85495000Y-161200000D02*
X87011000Y-161200000D01*
X81905000Y-161160000D02*
X83415000Y-161160000D01*
X85495000Y-161160000D02*
X87005000Y-161160000D01*
X81912000Y-161120000D02*
X83415000Y-161120000D01*
X85495000Y-161120000D02*
X86998000Y-161120000D01*
X81919000Y-161080000D02*
X83415000Y-161080000D01*
X85495000Y-161080000D02*
X86991000Y-161080000D01*
X81927000Y-161040000D02*
X83415000Y-161040000D01*
X85495000Y-161040000D02*
X86983000Y-161040000D01*
X81935000Y-161000000D02*
X83415000Y-161000000D01*
X85495000Y-161000000D02*
X86975000Y-161000000D01*
X81944000Y-160960000D02*
X83415000Y-160960000D01*
X85495000Y-160960000D02*
X86966000Y-160960000D01*
X81954000Y-160920000D02*
X83415000Y-160920000D01*
X85495000Y-160920000D02*
X86956000Y-160920000D01*
X81964000Y-160880000D02*
X83415000Y-160880000D01*
X85495000Y-160880000D02*
X86946000Y-160880000D01*
X81975000Y-160839000D02*
X83415000Y-160839000D01*
X85495000Y-160839000D02*
X86935000Y-160839000D01*
X81987000Y-160799000D02*
X83415000Y-160799000D01*
X85495000Y-160799000D02*
X86923000Y-160799000D01*
X82000000Y-160759000D02*
X83415000Y-160759000D01*
X85495000Y-160759000D02*
X86910000Y-160759000D01*
X82013000Y-160719000D02*
X83415000Y-160719000D01*
X85495000Y-160719000D02*
X86897000Y-160719000D01*
X82027000Y-160679000D02*
X83415000Y-160679000D01*
X85495000Y-160679000D02*
X86883000Y-160679000D01*
X82041000Y-160639000D02*
X83415000Y-160639000D01*
X85495000Y-160639000D02*
X86869000Y-160639000D01*
X82057000Y-160599000D02*
X83415000Y-160599000D01*
X85495000Y-160599000D02*
X86853000Y-160599000D01*
X82073000Y-160559000D02*
X83415000Y-160559000D01*
X85495000Y-160559000D02*
X86837000Y-160559000D01*
X82090000Y-160519000D02*
X83415000Y-160519000D01*
X85495000Y-160519000D02*
X86820000Y-160519000D01*
X82107000Y-160479000D02*
X83415000Y-160479000D01*
X85495000Y-160479000D02*
X86803000Y-160479000D01*
X82126000Y-160439000D02*
X83415000Y-160439000D01*
X85495000Y-160439000D02*
X86784000Y-160439000D01*
X82145000Y-160399000D02*
X83415000Y-160399000D01*
X85495000Y-160399000D02*
X86765000Y-160399000D01*
X82165000Y-160359000D02*
X83415000Y-160359000D01*
X85495000Y-160359000D02*
X86745000Y-160359000D01*
X82187000Y-160319000D02*
X83415000Y-160319000D01*
X85495000Y-160319000D02*
X86723000Y-160319000D01*
X82208000Y-160279000D02*
X83415000Y-160279000D01*
X85495000Y-160279000D02*
X86702000Y-160279000D01*
X82231000Y-160239000D02*
X83415000Y-160239000D01*
X85495000Y-160239000D02*
X86679000Y-160239000D01*
X82255000Y-160199000D02*
X83415000Y-160199000D01*
X85495000Y-160199000D02*
X86655000Y-160199000D01*
X82280000Y-160159000D02*
X83415000Y-160159000D01*
X85495000Y-160159000D02*
X86630000Y-160159000D01*
X82306000Y-160119000D02*
X83415000Y-160119000D01*
X85495000Y-160119000D02*
X86604000Y-160119000D01*
X82333000Y-160079000D02*
X83415000Y-160079000D01*
X85495000Y-160079000D02*
X86577000Y-160079000D01*
X82360000Y-160039000D02*
X83415000Y-160039000D01*
X85495000Y-160039000D02*
X86550000Y-160039000D01*
X82390000Y-159999000D02*
X83415000Y-159999000D01*
X85495000Y-159999000D02*
X86520000Y-159999000D01*
X82420000Y-159959000D02*
X83415000Y-159959000D01*
X85495000Y-159959000D02*
X86490000Y-159959000D01*
X82451000Y-159919000D02*
X83415000Y-159919000D01*
X85495000Y-159919000D02*
X86459000Y-159919000D01*
X82484000Y-159879000D02*
X83415000Y-159879000D01*
X85495000Y-159879000D02*
X86426000Y-159879000D01*
X82518000Y-159839000D02*
X83415000Y-159839000D01*
X85495000Y-159839000D02*
X86392000Y-159839000D01*
X82554000Y-159799000D02*
X83415000Y-159799000D01*
X85495000Y-159799000D02*
X86356000Y-159799000D01*
X82591000Y-159759000D02*
X83415000Y-159759000D01*
X85495000Y-159759000D02*
X86319000Y-159759000D01*
X82629000Y-159719000D02*
X83415000Y-159719000D01*
X85495000Y-159719000D02*
X86281000Y-159719000D01*
X82670000Y-159679000D02*
X83415000Y-159679000D01*
X85495000Y-159679000D02*
X86240000Y-159679000D01*
X82712000Y-159639000D02*
X83415000Y-159639000D01*
X85495000Y-159639000D02*
X86198000Y-159639000D01*
X82756000Y-159599000D02*
X83415000Y-159599000D01*
X85495000Y-159599000D02*
X86154000Y-159599000D01*
X82802000Y-159559000D02*
X83415000Y-159559000D01*
X85495000Y-159559000D02*
X86108000Y-159559000D01*
X82850000Y-159519000D02*
X86060000Y-159519000D01*
X82901000Y-159479000D02*
X86009000Y-159479000D01*
X82955000Y-159439000D02*
X85955000Y-159439000D01*
X83012000Y-159399000D02*
X85898000Y-159399000D01*
X83072000Y-159359000D02*
X85838000Y-159359000D01*
X83136000Y-159319000D02*
X85774000Y-159319000D01*
X83204000Y-159279000D02*
X85706000Y-159279000D01*
X83277000Y-159239000D02*
X85633000Y-159239000D01*
X83357000Y-159199000D02*
X85553000Y-159199000D01*
X83444000Y-159159000D02*
X85466000Y-159159000D01*
X83540000Y-159119000D02*
X85370000Y-159119000D01*
X83650000Y-159079000D02*
X85260000Y-159079000D01*
X83778000Y-159039000D02*
X85132000Y-159039000D01*
X83937000Y-158999000D02*
X84973000Y-158999000D01*
X84171000Y-158959000D02*
X84739000Y-158959000D01*
X82980000Y-164364775D02*
X82980000Y-163864775D01*
X82730000Y-164114775D02*
X83230000Y-164114775D01*
%TO.C,C1*%
X96055000Y-162376000D02*
X90715000Y-162376000D01*
X96055000Y-158934000D02*
X90715000Y-158934000D01*
X96055000Y-162376000D02*
X96055000Y-161710000D01*
X96055000Y-159600000D02*
X96055000Y-158934000D01*
X90715000Y-162376000D02*
X90715000Y-161710000D01*
X90715000Y-159600000D02*
X90715000Y-158934000D01*
%TO.C,R10*%
D10*
X116197142Y-153487380D02*
X115863809Y-153011190D01*
X115625714Y-153487380D02*
X115625714Y-152487380D01*
X116006666Y-152487380D01*
X116101904Y-152535000D01*
X116149523Y-152582619D01*
X116197142Y-152677857D01*
X116197142Y-152820714D01*
X116149523Y-152915952D01*
X116101904Y-152963571D01*
X116006666Y-153011190D01*
X115625714Y-153011190D01*
X117149523Y-153487380D02*
X116578095Y-153487380D01*
X116863809Y-153487380D02*
X116863809Y-152487380D01*
X116768571Y-152630238D01*
X116673333Y-152725476D01*
X116578095Y-152773095D01*
X117768571Y-152487380D02*
X117863809Y-152487380D01*
X117959047Y-152535000D01*
X118006666Y-152582619D01*
X118054285Y-152677857D01*
X118101904Y-152868333D01*
X118101904Y-153106428D01*
X118054285Y-153296904D01*
X118006666Y-153392142D01*
X117959047Y-153439761D01*
X117863809Y-153487380D01*
X117768571Y-153487380D01*
X117673333Y-153439761D01*
X117625714Y-153392142D01*
X117578095Y-153296904D01*
X117530476Y-153106428D01*
X117530476Y-152868333D01*
X117578095Y-152677857D01*
X117625714Y-152582619D01*
X117673333Y-152535000D01*
X117768571Y-152487380D01*
%TO.C,C3*%
X87463333Y-138787142D02*
X87415714Y-138834761D01*
X87272857Y-138882380D01*
X87177619Y-138882380D01*
X87034761Y-138834761D01*
X86939523Y-138739523D01*
X86891904Y-138644285D01*
X86844285Y-138453809D01*
X86844285Y-138310952D01*
X86891904Y-138120476D01*
X86939523Y-138025238D01*
X87034761Y-137930000D01*
X87177619Y-137882380D01*
X87272857Y-137882380D01*
X87415714Y-137930000D01*
X87463333Y-137977619D01*
X87796666Y-137882380D02*
X88415714Y-137882380D01*
X88082380Y-138263333D01*
X88225238Y-138263333D01*
X88320476Y-138310952D01*
X88368095Y-138358571D01*
X88415714Y-138453809D01*
X88415714Y-138691904D01*
X88368095Y-138787142D01*
X88320476Y-138834761D01*
X88225238Y-138882380D01*
X87939523Y-138882380D01*
X87844285Y-138834761D01*
X87796666Y-138787142D01*
%TO.C,R13*%
X106672142Y-135707380D02*
X106338809Y-135231190D01*
X106100714Y-135707380D02*
X106100714Y-134707380D01*
X106481666Y-134707380D01*
X106576904Y-134755000D01*
X106624523Y-134802619D01*
X106672142Y-134897857D01*
X106672142Y-135040714D01*
X106624523Y-135135952D01*
X106576904Y-135183571D01*
X106481666Y-135231190D01*
X106100714Y-135231190D01*
X107624523Y-135707380D02*
X107053095Y-135707380D01*
X107338809Y-135707380D02*
X107338809Y-134707380D01*
X107243571Y-134850238D01*
X107148333Y-134945476D01*
X107053095Y-134993095D01*
X107957857Y-134707380D02*
X108576904Y-134707380D01*
X108243571Y-135088333D01*
X108386428Y-135088333D01*
X108481666Y-135135952D01*
X108529285Y-135183571D01*
X108576904Y-135278809D01*
X108576904Y-135516904D01*
X108529285Y-135612142D01*
X108481666Y-135659761D01*
X108386428Y-135707380D01*
X108100714Y-135707380D01*
X108005476Y-135659761D01*
X107957857Y-135612142D01*
%TO.C,R12*%
X121912142Y-135707380D02*
X121578809Y-135231190D01*
X121340714Y-135707380D02*
X121340714Y-134707380D01*
X121721666Y-134707380D01*
X121816904Y-134755000D01*
X121864523Y-134802619D01*
X121912142Y-134897857D01*
X121912142Y-135040714D01*
X121864523Y-135135952D01*
X121816904Y-135183571D01*
X121721666Y-135231190D01*
X121340714Y-135231190D01*
X122864523Y-135707380D02*
X122293095Y-135707380D01*
X122578809Y-135707380D02*
X122578809Y-134707380D01*
X122483571Y-134850238D01*
X122388333Y-134945476D01*
X122293095Y-134993095D01*
X123245476Y-134802619D02*
X123293095Y-134755000D01*
X123388333Y-134707380D01*
X123626428Y-134707380D01*
X123721666Y-134755000D01*
X123769285Y-134802619D01*
X123816904Y-134897857D01*
X123816904Y-134993095D01*
X123769285Y-135135952D01*
X123197857Y-135707380D01*
X123816904Y-135707380D01*
%TO.C,R11*%
X137152142Y-135707380D02*
X136818809Y-135231190D01*
X136580714Y-135707380D02*
X136580714Y-134707380D01*
X136961666Y-134707380D01*
X137056904Y-134755000D01*
X137104523Y-134802619D01*
X137152142Y-134897857D01*
X137152142Y-135040714D01*
X137104523Y-135135952D01*
X137056904Y-135183571D01*
X136961666Y-135231190D01*
X136580714Y-135231190D01*
X138104523Y-135707380D02*
X137533095Y-135707380D01*
X137818809Y-135707380D02*
X137818809Y-134707380D01*
X137723571Y-134850238D01*
X137628333Y-134945476D01*
X137533095Y-134993095D01*
X139056904Y-135707380D02*
X138485476Y-135707380D01*
X138771190Y-135707380D02*
X138771190Y-134707380D01*
X138675952Y-134850238D01*
X138580714Y-134945476D01*
X138485476Y-134993095D01*
%TO.C,R9*%
X114133333Y-153487380D02*
X113800000Y-153011190D01*
X113561904Y-153487380D02*
X113561904Y-152487380D01*
X113942857Y-152487380D01*
X114038095Y-152535000D01*
X114085714Y-152582619D01*
X114133333Y-152677857D01*
X114133333Y-152820714D01*
X114085714Y-152915952D01*
X114038095Y-152963571D01*
X113942857Y-153011190D01*
X113561904Y-153011190D01*
X114609523Y-153487380D02*
X114800000Y-153487380D01*
X114895238Y-153439761D01*
X114942857Y-153392142D01*
X115038095Y-153249285D01*
X115085714Y-153058809D01*
X115085714Y-152677857D01*
X115038095Y-152582619D01*
X114990476Y-152535000D01*
X114895238Y-152487380D01*
X114704761Y-152487380D01*
X114609523Y-152535000D01*
X114561904Y-152582619D01*
X114514285Y-152677857D01*
X114514285Y-152915952D01*
X114561904Y-153011190D01*
X114609523Y-153058809D01*
X114704761Y-153106428D01*
X114895238Y-153106428D01*
X114990476Y-153058809D01*
X115038095Y-153011190D01*
X115085714Y-152915952D01*
%TO.C,R8*%
X125563333Y-153487380D02*
X125230000Y-153011190D01*
X124991904Y-153487380D02*
X124991904Y-152487380D01*
X125372857Y-152487380D01*
X125468095Y-152535000D01*
X125515714Y-152582619D01*
X125563333Y-152677857D01*
X125563333Y-152820714D01*
X125515714Y-152915952D01*
X125468095Y-152963571D01*
X125372857Y-153011190D01*
X124991904Y-153011190D01*
X126134761Y-152915952D02*
X126039523Y-152868333D01*
X125991904Y-152820714D01*
X125944285Y-152725476D01*
X125944285Y-152677857D01*
X125991904Y-152582619D01*
X126039523Y-152535000D01*
X126134761Y-152487380D01*
X126325238Y-152487380D01*
X126420476Y-152535000D01*
X126468095Y-152582619D01*
X126515714Y-152677857D01*
X126515714Y-152725476D01*
X126468095Y-152820714D01*
X126420476Y-152868333D01*
X126325238Y-152915952D01*
X126134761Y-152915952D01*
X126039523Y-152963571D01*
X125991904Y-153011190D01*
X125944285Y-153106428D01*
X125944285Y-153296904D01*
X125991904Y-153392142D01*
X126039523Y-153439761D01*
X126134761Y-153487380D01*
X126325238Y-153487380D01*
X126420476Y-153439761D01*
X126468095Y-153392142D01*
X126515714Y-153296904D01*
X126515714Y-153106428D01*
X126468095Y-153011190D01*
X126420476Y-152963571D01*
X126325238Y-152915952D01*
%TO.C,R7*%
X128103333Y-153487380D02*
X127770000Y-153011190D01*
X127531904Y-153487380D02*
X127531904Y-152487380D01*
X127912857Y-152487380D01*
X128008095Y-152535000D01*
X128055714Y-152582619D01*
X128103333Y-152677857D01*
X128103333Y-152820714D01*
X128055714Y-152915952D01*
X128008095Y-152963571D01*
X127912857Y-153011190D01*
X127531904Y-153011190D01*
X128436666Y-152487380D02*
X129103333Y-152487380D01*
X128674761Y-153487380D01*
%TO.C,R6*%
X138263333Y-153487380D02*
X137930000Y-153011190D01*
X137691904Y-153487380D02*
X137691904Y-152487380D01*
X138072857Y-152487380D01*
X138168095Y-152535000D01*
X138215714Y-152582619D01*
X138263333Y-152677857D01*
X138263333Y-152820714D01*
X138215714Y-152915952D01*
X138168095Y-152963571D01*
X138072857Y-153011190D01*
X137691904Y-153011190D01*
X139120476Y-152487380D02*
X138930000Y-152487380D01*
X138834761Y-152535000D01*
X138787142Y-152582619D01*
X138691904Y-152725476D01*
X138644285Y-152915952D01*
X138644285Y-153296904D01*
X138691904Y-153392142D01*
X138739523Y-153439761D01*
X138834761Y-153487380D01*
X139025238Y-153487380D01*
X139120476Y-153439761D01*
X139168095Y-153392142D01*
X139215714Y-153296904D01*
X139215714Y-153058809D01*
X139168095Y-152963571D01*
X139120476Y-152915952D01*
X139025238Y-152868333D01*
X138834761Y-152868333D01*
X138739523Y-152915952D01*
X138691904Y-152963571D01*
X138644285Y-153058809D01*
%TO.C,R5*%
X143343333Y-153487380D02*
X143010000Y-153011190D01*
X142771904Y-153487380D02*
X142771904Y-152487380D01*
X143152857Y-152487380D01*
X143248095Y-152535000D01*
X143295714Y-152582619D01*
X143343333Y-152677857D01*
X143343333Y-152820714D01*
X143295714Y-152915952D01*
X143248095Y-152963571D01*
X143152857Y-153011190D01*
X142771904Y-153011190D01*
X144248095Y-152487380D02*
X143771904Y-152487380D01*
X143724285Y-152963571D01*
X143771904Y-152915952D01*
X143867142Y-152868333D01*
X144105238Y-152868333D01*
X144200476Y-152915952D01*
X144248095Y-152963571D01*
X144295714Y-153058809D01*
X144295714Y-153296904D01*
X144248095Y-153392142D01*
X144200476Y-153439761D01*
X144105238Y-153487380D01*
X143867142Y-153487380D01*
X143771904Y-153439761D01*
X143724285Y-153392142D01*
%TO.C,R4*%
X119213333Y-153487380D02*
X118880000Y-153011190D01*
X118641904Y-153487380D02*
X118641904Y-152487380D01*
X119022857Y-152487380D01*
X119118095Y-152535000D01*
X119165714Y-152582619D01*
X119213333Y-152677857D01*
X119213333Y-152820714D01*
X119165714Y-152915952D01*
X119118095Y-152963571D01*
X119022857Y-153011190D01*
X118641904Y-153011190D01*
X120070476Y-152820714D02*
X120070476Y-153487380D01*
X119832380Y-152439761D02*
X119594285Y-153154047D01*
X120213333Y-153154047D01*
%TO.C,R3*%
X130643333Y-153487380D02*
X130310000Y-153011190D01*
X130071904Y-153487380D02*
X130071904Y-152487380D01*
X130452857Y-152487380D01*
X130548095Y-152535000D01*
X130595714Y-152582619D01*
X130643333Y-152677857D01*
X130643333Y-152820714D01*
X130595714Y-152915952D01*
X130548095Y-152963571D01*
X130452857Y-153011190D01*
X130071904Y-153011190D01*
X130976666Y-152487380D02*
X131595714Y-152487380D01*
X131262380Y-152868333D01*
X131405238Y-152868333D01*
X131500476Y-152915952D01*
X131548095Y-152963571D01*
X131595714Y-153058809D01*
X131595714Y-153296904D01*
X131548095Y-153392142D01*
X131500476Y-153439761D01*
X131405238Y-153487380D01*
X131119523Y-153487380D01*
X131024285Y-153439761D01*
X130976666Y-153392142D01*
%TO.C,R2*%
X140803333Y-153487380D02*
X140470000Y-153011190D01*
X140231904Y-153487380D02*
X140231904Y-152487380D01*
X140612857Y-152487380D01*
X140708095Y-152535000D01*
X140755714Y-152582619D01*
X140803333Y-152677857D01*
X140803333Y-152820714D01*
X140755714Y-152915952D01*
X140708095Y-152963571D01*
X140612857Y-153011190D01*
X140231904Y-153011190D01*
X141184285Y-152582619D02*
X141231904Y-152535000D01*
X141327142Y-152487380D01*
X141565238Y-152487380D01*
X141660476Y-152535000D01*
X141708095Y-152582619D01*
X141755714Y-152677857D01*
X141755714Y-152773095D01*
X141708095Y-152915952D01*
X141136666Y-153487380D01*
X141755714Y-153487380D01*
%TO.C,U1*%
X71628095Y-127722380D02*
X71628095Y-128531904D01*
X71675714Y-128627142D01*
X71723333Y-128674761D01*
X71818571Y-128722380D01*
X72009047Y-128722380D01*
X72104285Y-128674761D01*
X72151904Y-128627142D01*
X72199523Y-128531904D01*
X72199523Y-127722380D01*
X73199523Y-128722380D02*
X72628095Y-128722380D01*
X72913809Y-128722380D02*
X72913809Y-127722380D01*
X72818571Y-127865238D01*
X72723333Y-127960476D01*
X72628095Y-128008095D01*
%TO.C,R15*%
X76827142Y-128087380D02*
X76493809Y-127611190D01*
X76255714Y-128087380D02*
X76255714Y-127087380D01*
X76636666Y-127087380D01*
X76731904Y-127135000D01*
X76779523Y-127182619D01*
X76827142Y-127277857D01*
X76827142Y-127420714D01*
X76779523Y-127515952D01*
X76731904Y-127563571D01*
X76636666Y-127611190D01*
X76255714Y-127611190D01*
X77779523Y-128087380D02*
X77208095Y-128087380D01*
X77493809Y-128087380D02*
X77493809Y-127087380D01*
X77398571Y-127230238D01*
X77303333Y-127325476D01*
X77208095Y-127373095D01*
X78684285Y-127087380D02*
X78208095Y-127087380D01*
X78160476Y-127563571D01*
X78208095Y-127515952D01*
X78303333Y-127468333D01*
X78541428Y-127468333D01*
X78636666Y-127515952D01*
X78684285Y-127563571D01*
X78731904Y-127658809D01*
X78731904Y-127896904D01*
X78684285Y-127992142D01*
X78636666Y-128039761D01*
X78541428Y-128087380D01*
X78303333Y-128087380D01*
X78208095Y-128039761D01*
X78160476Y-127992142D01*
%TO.C,R14*%
X69207142Y-128087380D02*
X68873809Y-127611190D01*
X68635714Y-128087380D02*
X68635714Y-127087380D01*
X69016666Y-127087380D01*
X69111904Y-127135000D01*
X69159523Y-127182619D01*
X69207142Y-127277857D01*
X69207142Y-127420714D01*
X69159523Y-127515952D01*
X69111904Y-127563571D01*
X69016666Y-127611190D01*
X68635714Y-127611190D01*
X70159523Y-128087380D02*
X69588095Y-128087380D01*
X69873809Y-128087380D02*
X69873809Y-127087380D01*
X69778571Y-127230238D01*
X69683333Y-127325476D01*
X69588095Y-127373095D01*
X71016666Y-127420714D02*
X71016666Y-128087380D01*
X70778571Y-127039761D02*
X70540476Y-127754047D01*
X71159523Y-127754047D01*
%TO.C,J10*%
X73322380Y-125269523D02*
X74036666Y-125269523D01*
X74179523Y-125317142D01*
X74274761Y-125412380D01*
X74322380Y-125555238D01*
X74322380Y-125650476D01*
X74322380Y-124269523D02*
X74322380Y-124840952D01*
X74322380Y-124555238D02*
X73322380Y-124555238D01*
X73465238Y-124650476D01*
X73560476Y-124745714D01*
X73608095Y-124840952D01*
X73322380Y-123650476D02*
X73322380Y-123555238D01*
X73370000Y-123460000D01*
X73417619Y-123412380D01*
X73512857Y-123364761D01*
X73703333Y-123317142D01*
X73941428Y-123317142D01*
X74131904Y-123364761D01*
X74227142Y-123412380D01*
X74274761Y-123460000D01*
X74322380Y-123555238D01*
X74322380Y-123650476D01*
X74274761Y-123745714D01*
X74227142Y-123793333D01*
X74131904Y-123840952D01*
X73941428Y-123888571D01*
X73703333Y-123888571D01*
X73512857Y-123840952D01*
X73417619Y-123793333D01*
X73370000Y-123745714D01*
X73322380Y-123650476D01*
%TO.C,J9*%
X65702380Y-124793333D02*
X66416666Y-124793333D01*
X66559523Y-124840952D01*
X66654761Y-124936190D01*
X66702380Y-125079047D01*
X66702380Y-125174285D01*
X66702380Y-124269523D02*
X66702380Y-124079047D01*
X66654761Y-123983809D01*
X66607142Y-123936190D01*
X66464285Y-123840952D01*
X66273809Y-123793333D01*
X65892857Y-123793333D01*
X65797619Y-123840952D01*
X65750000Y-123888571D01*
X65702380Y-123983809D01*
X65702380Y-124174285D01*
X65750000Y-124269523D01*
X65797619Y-124317142D01*
X65892857Y-124364761D01*
X66130952Y-124364761D01*
X66226190Y-124317142D01*
X66273809Y-124269523D01*
X66321428Y-124174285D01*
X66321428Y-123983809D01*
X66273809Y-123888571D01*
X66226190Y-123840952D01*
X66130952Y-123793333D01*
%TO.C,U5*%
X120102380Y-131571904D02*
X120911904Y-131571904D01*
X121007142Y-131524285D01*
X121054761Y-131476666D01*
X121102380Y-131381428D01*
X121102380Y-131190952D01*
X121054761Y-131095714D01*
X121007142Y-131048095D01*
X120911904Y-131000476D01*
X120102380Y-131000476D01*
X120102380Y-130048095D02*
X120102380Y-130524285D01*
X120578571Y-130571904D01*
X120530952Y-130524285D01*
X120483333Y-130429047D01*
X120483333Y-130190952D01*
X120530952Y-130095714D01*
X120578571Y-130048095D01*
X120673809Y-130000476D01*
X120911904Y-130000476D01*
X121007142Y-130048095D01*
X121054761Y-130095714D01*
X121102380Y-130190952D01*
X121102380Y-130429047D01*
X121054761Y-130524285D01*
X121007142Y-130571904D01*
%TO.C,U4*%
X135342380Y-131571904D02*
X136151904Y-131571904D01*
X136247142Y-131524285D01*
X136294761Y-131476666D01*
X136342380Y-131381428D01*
X136342380Y-131190952D01*
X136294761Y-131095714D01*
X136247142Y-131048095D01*
X136151904Y-131000476D01*
X135342380Y-131000476D01*
X135675714Y-130095714D02*
X136342380Y-130095714D01*
X135294761Y-130333809D02*
X136009047Y-130571904D01*
X136009047Y-129952857D01*
%TO.C,U3*%
X150582380Y-131571904D02*
X151391904Y-131571904D01*
X151487142Y-131524285D01*
X151534761Y-131476666D01*
X151582380Y-131381428D01*
X151582380Y-131190952D01*
X151534761Y-131095714D01*
X151487142Y-131048095D01*
X151391904Y-131000476D01*
X150582380Y-131000476D01*
X150582380Y-130619523D02*
X150582380Y-130000476D01*
X150963333Y-130333809D01*
X150963333Y-130190952D01*
X151010952Y-130095714D01*
X151058571Y-130048095D01*
X151153809Y-130000476D01*
X151391904Y-130000476D01*
X151487142Y-130048095D01*
X151534761Y-130095714D01*
X151582380Y-130190952D01*
X151582380Y-130476666D01*
X151534761Y-130571904D01*
X151487142Y-130619523D01*
%TO.C,U2*%
X93432380Y-153796904D02*
X94241904Y-153796904D01*
X94337142Y-153749285D01*
X94384761Y-153701666D01*
X94432380Y-153606428D01*
X94432380Y-153415952D01*
X94384761Y-153320714D01*
X94337142Y-153273095D01*
X94241904Y-153225476D01*
X93432380Y-153225476D01*
X93527619Y-152796904D02*
X93480000Y-152749285D01*
X93432380Y-152654047D01*
X93432380Y-152415952D01*
X93480000Y-152320714D01*
X93527619Y-152273095D01*
X93622857Y-152225476D01*
X93718095Y-152225476D01*
X93860952Y-152273095D01*
X94432380Y-152844523D01*
X94432380Y-152225476D01*
%TO.C,R1*%
X62063333Y-128087380D02*
X61730000Y-127611190D01*
X61491904Y-128087380D02*
X61491904Y-127087380D01*
X61872857Y-127087380D01*
X61968095Y-127135000D01*
X62015714Y-127182619D01*
X62063333Y-127277857D01*
X62063333Y-127420714D01*
X62015714Y-127515952D01*
X61968095Y-127563571D01*
X61872857Y-127611190D01*
X61491904Y-127611190D01*
X63015714Y-128087380D02*
X62444285Y-128087380D01*
X62730000Y-128087380D02*
X62730000Y-127087380D01*
X62634761Y-127230238D01*
X62539523Y-127325476D01*
X62444285Y-127373095D01*
%TO.C,Q1*%
X90709761Y-138342619D02*
X90614523Y-138295000D01*
X90519285Y-138199761D01*
X90376428Y-138056904D01*
X90281190Y-138009285D01*
X90185952Y-138009285D01*
X90233571Y-138247380D02*
X90138333Y-138199761D01*
X90043095Y-138104523D01*
X89995476Y-137914047D01*
X89995476Y-137580714D01*
X90043095Y-137390238D01*
X90138333Y-137295000D01*
X90233571Y-137247380D01*
X90424047Y-137247380D01*
X90519285Y-137295000D01*
X90614523Y-137390238D01*
X90662142Y-137580714D01*
X90662142Y-137914047D01*
X90614523Y-138104523D01*
X90519285Y-138199761D01*
X90424047Y-138247380D01*
X90233571Y-138247380D01*
X91614523Y-138247380D02*
X91043095Y-138247380D01*
X91328809Y-138247380D02*
X91328809Y-137247380D01*
X91233571Y-137390238D01*
X91138333Y-137485476D01*
X91043095Y-137533095D01*
%TO.C,L1*%
X103338333Y-147772380D02*
X102862142Y-147772380D01*
X102862142Y-146772380D01*
X104195476Y-147772380D02*
X103624047Y-147772380D01*
X103909761Y-147772380D02*
X103909761Y-146772380D01*
X103814523Y-146915238D01*
X103719285Y-147010476D01*
X103624047Y-147058095D01*
%TO.C,J8*%
X58721666Y-129837380D02*
X58721666Y-130551666D01*
X58674047Y-130694523D01*
X58578809Y-130789761D01*
X58435952Y-130837380D01*
X58340714Y-130837380D01*
X59340714Y-130265952D02*
X59245476Y-130218333D01*
X59197857Y-130170714D01*
X59150238Y-130075476D01*
X59150238Y-130027857D01*
X59197857Y-129932619D01*
X59245476Y-129885000D01*
X59340714Y-129837380D01*
X59531190Y-129837380D01*
X59626428Y-129885000D01*
X59674047Y-129932619D01*
X59721666Y-130027857D01*
X59721666Y-130075476D01*
X59674047Y-130170714D01*
X59626428Y-130218333D01*
X59531190Y-130265952D01*
X59340714Y-130265952D01*
X59245476Y-130313571D01*
X59197857Y-130361190D01*
X59150238Y-130456428D01*
X59150238Y-130646904D01*
X59197857Y-130742142D01*
X59245476Y-130789761D01*
X59340714Y-130837380D01*
X59531190Y-130837380D01*
X59626428Y-130789761D01*
X59674047Y-130742142D01*
X59721666Y-130646904D01*
X59721666Y-130456428D01*
X59674047Y-130361190D01*
X59626428Y-130313571D01*
X59531190Y-130265952D01*
%TO.C,J7*%
X104652380Y-134318333D02*
X105366666Y-134318333D01*
X105509523Y-134365952D01*
X105604761Y-134461190D01*
X105652380Y-134604047D01*
X105652380Y-134699285D01*
X104652380Y-133937380D02*
X104652380Y-133270714D01*
X105652380Y-133699285D01*
%TO.C,J6*%
X58721666Y-144442380D02*
X58721666Y-145156666D01*
X58674047Y-145299523D01*
X58578809Y-145394761D01*
X58435952Y-145442380D01*
X58340714Y-145442380D01*
X59626428Y-144442380D02*
X59435952Y-144442380D01*
X59340714Y-144490000D01*
X59293095Y-144537619D01*
X59197857Y-144680476D01*
X59150238Y-144870952D01*
X59150238Y-145251904D01*
X59197857Y-145347142D01*
X59245476Y-145394761D01*
X59340714Y-145442380D01*
X59531190Y-145442380D01*
X59626428Y-145394761D01*
X59674047Y-145347142D01*
X59721666Y-145251904D01*
X59721666Y-145013809D01*
X59674047Y-144918571D01*
X59626428Y-144870952D01*
X59531190Y-144823333D01*
X59340714Y-144823333D01*
X59245476Y-144870952D01*
X59197857Y-144918571D01*
X59150238Y-145013809D01*
%TO.C,J5*%
X58082380Y-124793333D02*
X58796666Y-124793333D01*
X58939523Y-124840952D01*
X59034761Y-124936190D01*
X59082380Y-125079047D01*
X59082380Y-125174285D01*
X58082380Y-123840952D02*
X58082380Y-124317142D01*
X58558571Y-124364761D01*
X58510952Y-124317142D01*
X58463333Y-124221904D01*
X58463333Y-123983809D01*
X58510952Y-123888571D01*
X58558571Y-123840952D01*
X58653809Y-123793333D01*
X58891904Y-123793333D01*
X58987142Y-123840952D01*
X59034761Y-123888571D01*
X59082380Y-123983809D01*
X59082380Y-124221904D01*
X59034761Y-124317142D01*
X58987142Y-124364761D01*
%TO.C,J4*%
X86657380Y-130508333D02*
X87371666Y-130508333D01*
X87514523Y-130555952D01*
X87609761Y-130651190D01*
X87657380Y-130794047D01*
X87657380Y-130889285D01*
X86990714Y-129603571D02*
X87657380Y-129603571D01*
X86609761Y-129841666D02*
X87324047Y-130079761D01*
X87324047Y-129460714D01*
%TO.C,J3*%
X84166666Y-128527380D02*
X84166666Y-129241666D01*
X84119047Y-129384523D01*
X84023809Y-129479761D01*
X83880952Y-129527380D01*
X83785714Y-129527380D01*
X84547619Y-128527380D02*
X85166666Y-128527380D01*
X84833333Y-128908333D01*
X84976190Y-128908333D01*
X85071428Y-128955952D01*
X85119047Y-129003571D01*
X85166666Y-129098809D01*
X85166666Y-129336904D01*
X85119047Y-129432142D01*
X85071428Y-129479761D01*
X84976190Y-129527380D01*
X84690476Y-129527380D01*
X84595238Y-129479761D01*
X84547619Y-129432142D01*
%TO.C,J2*%
X84121666Y-137037380D02*
X84121666Y-137751666D01*
X84074047Y-137894523D01*
X83978809Y-137989761D01*
X83835952Y-138037380D01*
X83740714Y-138037380D01*
X84550238Y-137132619D02*
X84597857Y-137085000D01*
X84693095Y-137037380D01*
X84931190Y-137037380D01*
X85026428Y-137085000D01*
X85074047Y-137132619D01*
X85121666Y-137227857D01*
X85121666Y-137323095D01*
X85074047Y-137465952D01*
X84502619Y-138037380D01*
X85121666Y-138037380D01*
%TO.C,J1*%
X112061666Y-153232380D02*
X112061666Y-153946666D01*
X112014047Y-154089523D01*
X111918809Y-154184761D01*
X111775952Y-154232380D01*
X111680714Y-154232380D01*
X113061666Y-154232380D02*
X112490238Y-154232380D01*
X112775952Y-154232380D02*
X112775952Y-153232380D01*
X112680714Y-153375238D01*
X112585476Y-153470476D01*
X112490238Y-153518095D01*
%TO.C,D1*%
X87526904Y-143962380D02*
X87526904Y-142962380D01*
X87765000Y-142962380D01*
X87907857Y-143010000D01*
X88003095Y-143105238D01*
X88050714Y-143200476D01*
X88098333Y-143390952D01*
X88098333Y-143533809D01*
X88050714Y-143724285D01*
X88003095Y-143819523D01*
X87907857Y-143914761D01*
X87765000Y-143962380D01*
X87526904Y-143962380D01*
X89050714Y-143962380D02*
X88479285Y-143962380D01*
X88765000Y-143962380D02*
X88765000Y-142962380D01*
X88669761Y-143105238D01*
X88574523Y-143200476D01*
X88479285Y-143248095D01*
X93718095Y-148602380D02*
X93718095Y-147602380D01*
X94289523Y-148602380D02*
X93860952Y-148030952D01*
X94289523Y-147602380D02*
X93718095Y-148173809D01*
%TO.C,C15*%
X110212142Y-124467857D02*
X110259761Y-124515476D01*
X110307380Y-124658333D01*
X110307380Y-124753571D01*
X110259761Y-124896428D01*
X110164523Y-124991666D01*
X110069285Y-125039285D01*
X109878809Y-125086904D01*
X109735952Y-125086904D01*
X109545476Y-125039285D01*
X109450238Y-124991666D01*
X109355000Y-124896428D01*
X109307380Y-124753571D01*
X109307380Y-124658333D01*
X109355000Y-124515476D01*
X109402619Y-124467857D01*
X110307380Y-123515476D02*
X110307380Y-124086904D01*
X110307380Y-123801190D02*
X109307380Y-123801190D01*
X109450238Y-123896428D01*
X109545476Y-123991666D01*
X109593095Y-124086904D01*
X109307380Y-122610714D02*
X109307380Y-123086904D01*
X109783571Y-123134523D01*
X109735952Y-123086904D01*
X109688333Y-122991666D01*
X109688333Y-122753571D01*
X109735952Y-122658333D01*
X109783571Y-122610714D01*
X109878809Y-122563095D01*
X110116904Y-122563095D01*
X110212142Y-122610714D01*
X110259761Y-122658333D01*
X110307380Y-122753571D01*
X110307380Y-122991666D01*
X110259761Y-123086904D01*
X110212142Y-123134523D01*
%TO.C,C14*%
X125452142Y-124467857D02*
X125499761Y-124515476D01*
X125547380Y-124658333D01*
X125547380Y-124753571D01*
X125499761Y-124896428D01*
X125404523Y-124991666D01*
X125309285Y-125039285D01*
X125118809Y-125086904D01*
X124975952Y-125086904D01*
X124785476Y-125039285D01*
X124690238Y-124991666D01*
X124595000Y-124896428D01*
X124547380Y-124753571D01*
X124547380Y-124658333D01*
X124595000Y-124515476D01*
X124642619Y-124467857D01*
X125547380Y-123515476D02*
X125547380Y-124086904D01*
X125547380Y-123801190D02*
X124547380Y-123801190D01*
X124690238Y-123896428D01*
X124785476Y-123991666D01*
X124833095Y-124086904D01*
X124880714Y-122658333D02*
X125547380Y-122658333D01*
X124499761Y-122896428D02*
X125214047Y-123134523D01*
X125214047Y-122515476D01*
%TO.C,C13*%
X140692142Y-124467857D02*
X140739761Y-124515476D01*
X140787380Y-124658333D01*
X140787380Y-124753571D01*
X140739761Y-124896428D01*
X140644523Y-124991666D01*
X140549285Y-125039285D01*
X140358809Y-125086904D01*
X140215952Y-125086904D01*
X140025476Y-125039285D01*
X139930238Y-124991666D01*
X139835000Y-124896428D01*
X139787380Y-124753571D01*
X139787380Y-124658333D01*
X139835000Y-124515476D01*
X139882619Y-124467857D01*
X140787380Y-123515476D02*
X140787380Y-124086904D01*
X140787380Y-123801190D02*
X139787380Y-123801190D01*
X139930238Y-123896428D01*
X140025476Y-123991666D01*
X140073095Y-124086904D01*
X139787380Y-123182142D02*
X139787380Y-122563095D01*
X140168333Y-122896428D01*
X140168333Y-122753571D01*
X140215952Y-122658333D01*
X140263571Y-122610714D01*
X140358809Y-122563095D01*
X140596904Y-122563095D01*
X140692142Y-122610714D01*
X140739761Y-122658333D01*
X140787380Y-122753571D01*
X140787380Y-123039285D01*
X140739761Y-123134523D01*
X140692142Y-123182142D01*
%TO.C,C12*%
X112387142Y-144502142D02*
X112339523Y-144549761D01*
X112196666Y-144597380D01*
X112101428Y-144597380D01*
X111958571Y-144549761D01*
X111863333Y-144454523D01*
X111815714Y-144359285D01*
X111768095Y-144168809D01*
X111768095Y-144025952D01*
X111815714Y-143835476D01*
X111863333Y-143740238D01*
X111958571Y-143645000D01*
X112101428Y-143597380D01*
X112196666Y-143597380D01*
X112339523Y-143645000D01*
X112387142Y-143692619D01*
X113339523Y-144597380D02*
X112768095Y-144597380D01*
X113053809Y-144597380D02*
X113053809Y-143597380D01*
X112958571Y-143740238D01*
X112863333Y-143835476D01*
X112768095Y-143883095D01*
X113720476Y-143692619D02*
X113768095Y-143645000D01*
X113863333Y-143597380D01*
X114101428Y-143597380D01*
X114196666Y-143645000D01*
X114244285Y-143692619D01*
X114291904Y-143787857D01*
X114291904Y-143883095D01*
X114244285Y-144025952D01*
X113672857Y-144597380D01*
X114291904Y-144597380D01*
%TO.C,C11*%
X107942142Y-144502142D02*
X107894523Y-144549761D01*
X107751666Y-144597380D01*
X107656428Y-144597380D01*
X107513571Y-144549761D01*
X107418333Y-144454523D01*
X107370714Y-144359285D01*
X107323095Y-144168809D01*
X107323095Y-144025952D01*
X107370714Y-143835476D01*
X107418333Y-143740238D01*
X107513571Y-143645000D01*
X107656428Y-143597380D01*
X107751666Y-143597380D01*
X107894523Y-143645000D01*
X107942142Y-143692619D01*
X108894523Y-144597380D02*
X108323095Y-144597380D01*
X108608809Y-144597380D02*
X108608809Y-143597380D01*
X108513571Y-143740238D01*
X108418333Y-143835476D01*
X108323095Y-143883095D01*
X109846904Y-144597380D02*
X109275476Y-144597380D01*
X109561190Y-144597380D02*
X109561190Y-143597380D01*
X109465952Y-143740238D01*
X109370714Y-143835476D01*
X109275476Y-143883095D01*
%TO.C,C10*%
X116832142Y-144502142D02*
X116784523Y-144549761D01*
X116641666Y-144597380D01*
X116546428Y-144597380D01*
X116403571Y-144549761D01*
X116308333Y-144454523D01*
X116260714Y-144359285D01*
X116213095Y-144168809D01*
X116213095Y-144025952D01*
X116260714Y-143835476D01*
X116308333Y-143740238D01*
X116403571Y-143645000D01*
X116546428Y-143597380D01*
X116641666Y-143597380D01*
X116784523Y-143645000D01*
X116832142Y-143692619D01*
X117784523Y-144597380D02*
X117213095Y-144597380D01*
X117498809Y-144597380D02*
X117498809Y-143597380D01*
X117403571Y-143740238D01*
X117308333Y-143835476D01*
X117213095Y-143883095D01*
X118403571Y-143597380D02*
X118498809Y-143597380D01*
X118594047Y-143645000D01*
X118641666Y-143692619D01*
X118689285Y-143787857D01*
X118736904Y-143978333D01*
X118736904Y-144216428D01*
X118689285Y-144406904D01*
X118641666Y-144502142D01*
X118594047Y-144549761D01*
X118498809Y-144597380D01*
X118403571Y-144597380D01*
X118308333Y-144549761D01*
X118260714Y-144502142D01*
X118213095Y-144406904D01*
X118165476Y-144216428D01*
X118165476Y-143978333D01*
X118213095Y-143787857D01*
X118260714Y-143692619D01*
X118308333Y-143645000D01*
X118403571Y-143597380D01*
%TO.C,C9*%
X128103333Y-144502142D02*
X128055714Y-144549761D01*
X127912857Y-144597380D01*
X127817619Y-144597380D01*
X127674761Y-144549761D01*
X127579523Y-144454523D01*
X127531904Y-144359285D01*
X127484285Y-144168809D01*
X127484285Y-144025952D01*
X127531904Y-143835476D01*
X127579523Y-143740238D01*
X127674761Y-143645000D01*
X127817619Y-143597380D01*
X127912857Y-143597380D01*
X128055714Y-143645000D01*
X128103333Y-143692619D01*
X128579523Y-144597380D02*
X128770000Y-144597380D01*
X128865238Y-144549761D01*
X128912857Y-144502142D01*
X129008095Y-144359285D01*
X129055714Y-144168809D01*
X129055714Y-143787857D01*
X129008095Y-143692619D01*
X128960476Y-143645000D01*
X128865238Y-143597380D01*
X128674761Y-143597380D01*
X128579523Y-143645000D01*
X128531904Y-143692619D01*
X128484285Y-143787857D01*
X128484285Y-144025952D01*
X128531904Y-144121190D01*
X128579523Y-144168809D01*
X128674761Y-144216428D01*
X128865238Y-144216428D01*
X128960476Y-144168809D01*
X129008095Y-144121190D01*
X129055714Y-144025952D01*
%TO.C,C8*%
X123658333Y-144502142D02*
X123610714Y-144549761D01*
X123467857Y-144597380D01*
X123372619Y-144597380D01*
X123229761Y-144549761D01*
X123134523Y-144454523D01*
X123086904Y-144359285D01*
X123039285Y-144168809D01*
X123039285Y-144025952D01*
X123086904Y-143835476D01*
X123134523Y-143740238D01*
X123229761Y-143645000D01*
X123372619Y-143597380D01*
X123467857Y-143597380D01*
X123610714Y-143645000D01*
X123658333Y-143692619D01*
X124229761Y-144025952D02*
X124134523Y-143978333D01*
X124086904Y-143930714D01*
X124039285Y-143835476D01*
X124039285Y-143787857D01*
X124086904Y-143692619D01*
X124134523Y-143645000D01*
X124229761Y-143597380D01*
X124420238Y-143597380D01*
X124515476Y-143645000D01*
X124563095Y-143692619D01*
X124610714Y-143787857D01*
X124610714Y-143835476D01*
X124563095Y-143930714D01*
X124515476Y-143978333D01*
X124420238Y-144025952D01*
X124229761Y-144025952D01*
X124134523Y-144073571D01*
X124086904Y-144121190D01*
X124039285Y-144216428D01*
X124039285Y-144406904D01*
X124086904Y-144502142D01*
X124134523Y-144549761D01*
X124229761Y-144597380D01*
X124420238Y-144597380D01*
X124515476Y-144549761D01*
X124563095Y-144502142D01*
X124610714Y-144406904D01*
X124610714Y-144216428D01*
X124563095Y-144121190D01*
X124515476Y-144073571D01*
X124420238Y-144025952D01*
%TO.C,C7*%
X132548333Y-144502142D02*
X132500714Y-144549761D01*
X132357857Y-144597380D01*
X132262619Y-144597380D01*
X132119761Y-144549761D01*
X132024523Y-144454523D01*
X131976904Y-144359285D01*
X131929285Y-144168809D01*
X131929285Y-144025952D01*
X131976904Y-143835476D01*
X132024523Y-143740238D01*
X132119761Y-143645000D01*
X132262619Y-143597380D01*
X132357857Y-143597380D01*
X132500714Y-143645000D01*
X132548333Y-143692619D01*
X132881666Y-143597380D02*
X133548333Y-143597380D01*
X133119761Y-144597380D01*
%TO.C,C6*%
X138898333Y-144502142D02*
X138850714Y-144549761D01*
X138707857Y-144597380D01*
X138612619Y-144597380D01*
X138469761Y-144549761D01*
X138374523Y-144454523D01*
X138326904Y-144359285D01*
X138279285Y-144168809D01*
X138279285Y-144025952D01*
X138326904Y-143835476D01*
X138374523Y-143740238D01*
X138469761Y-143645000D01*
X138612619Y-143597380D01*
X138707857Y-143597380D01*
X138850714Y-143645000D01*
X138898333Y-143692619D01*
X139755476Y-143597380D02*
X139565000Y-143597380D01*
X139469761Y-143645000D01*
X139422142Y-143692619D01*
X139326904Y-143835476D01*
X139279285Y-144025952D01*
X139279285Y-144406904D01*
X139326904Y-144502142D01*
X139374523Y-144549761D01*
X139469761Y-144597380D01*
X139660238Y-144597380D01*
X139755476Y-144549761D01*
X139803095Y-144502142D01*
X139850714Y-144406904D01*
X139850714Y-144168809D01*
X139803095Y-144073571D01*
X139755476Y-144025952D01*
X139660238Y-143978333D01*
X139469761Y-143978333D01*
X139374523Y-144025952D01*
X139326904Y-144073571D01*
X139279285Y-144168809D01*
%TO.C,C5*%
X147788333Y-144502142D02*
X147740714Y-144549761D01*
X147597857Y-144597380D01*
X147502619Y-144597380D01*
X147359761Y-144549761D01*
X147264523Y-144454523D01*
X147216904Y-144359285D01*
X147169285Y-144168809D01*
X147169285Y-144025952D01*
X147216904Y-143835476D01*
X147264523Y-143740238D01*
X147359761Y-143645000D01*
X147502619Y-143597380D01*
X147597857Y-143597380D01*
X147740714Y-143645000D01*
X147788333Y-143692619D01*
X148693095Y-143597380D02*
X148216904Y-143597380D01*
X148169285Y-144073571D01*
X148216904Y-144025952D01*
X148312142Y-143978333D01*
X148550238Y-143978333D01*
X148645476Y-144025952D01*
X148693095Y-144073571D01*
X148740714Y-144168809D01*
X148740714Y-144406904D01*
X148693095Y-144502142D01*
X148645476Y-144549761D01*
X148550238Y-144597380D01*
X148312142Y-144597380D01*
X148216904Y-144549761D01*
X148169285Y-144502142D01*
%TO.C,C4*%
X143343333Y-144502142D02*
X143295714Y-144549761D01*
X143152857Y-144597380D01*
X143057619Y-144597380D01*
X142914761Y-144549761D01*
X142819523Y-144454523D01*
X142771904Y-144359285D01*
X142724285Y-144168809D01*
X142724285Y-144025952D01*
X142771904Y-143835476D01*
X142819523Y-143740238D01*
X142914761Y-143645000D01*
X143057619Y-143597380D01*
X143152857Y-143597380D01*
X143295714Y-143645000D01*
X143343333Y-143692619D01*
X144200476Y-143930714D02*
X144200476Y-144597380D01*
X143962380Y-143549761D02*
X143724285Y-144264047D01*
X144343333Y-144264047D01*
%TO.C,C2*%
X88622142Y-161726666D02*
X88669761Y-161774285D01*
X88717380Y-161917142D01*
X88717380Y-162012380D01*
X88669761Y-162155238D01*
X88574523Y-162250476D01*
X88479285Y-162298095D01*
X88288809Y-162345714D01*
X88145952Y-162345714D01*
X87955476Y-162298095D01*
X87860238Y-162250476D01*
X87765000Y-162155238D01*
X87717380Y-162012380D01*
X87717380Y-161917142D01*
X87765000Y-161774285D01*
X87812619Y-161726666D01*
X87812619Y-161345714D02*
X87765000Y-161298095D01*
X87717380Y-161202857D01*
X87717380Y-160964761D01*
X87765000Y-160869523D01*
X87812619Y-160821904D01*
X87907857Y-160774285D01*
X88003095Y-160774285D01*
X88145952Y-160821904D01*
X88717380Y-161393333D01*
X88717380Y-160774285D01*
%TO.C,C1*%
X93218333Y-163862142D02*
X93170714Y-163909761D01*
X93027857Y-163957380D01*
X92932619Y-163957380D01*
X92789761Y-163909761D01*
X92694523Y-163814523D01*
X92646904Y-163719285D01*
X92599285Y-163528809D01*
X92599285Y-163385952D01*
X92646904Y-163195476D01*
X92694523Y-163100238D01*
X92789761Y-163005000D01*
X92932619Y-162957380D01*
X93027857Y-162957380D01*
X93170714Y-163005000D01*
X93218333Y-163052619D01*
X94170714Y-163957380D02*
X93599285Y-163957380D01*
X93885000Y-163957380D02*
X93885000Y-162957380D01*
X93789761Y-163100238D01*
X93694523Y-163195476D01*
X93599285Y-163243095D01*
%TD*%
M02*
